<svg id="SvgjsSvg2323" width="550" height="550" xmlns="http://www.w3.org/2000/svg" version="1.1" xmlns:xlink="http://www.w3.org/1999/xlink" xmlns:svgjs="http://svgjs.com/svgjs"><defs id="SvgjsDefs2324"></defs><g id="SvgjsG2325"><svg xmlns="http://www.w3.org/2000/svg" viewBox="0 0 2500 2500" width="550" height="550"><path fill="#ffebf1" d="M1763.1,1925.2c-129.3,111.2-256.9,200.1-352.1,261.1l-23.5,15c-18.4,11.6-35.4,22-50.6,31.1-33.5,20.2-58.5,34.3-72.1,41.8l-2.5,1.3c-6.7,3.2-13.5,2.8-20.3-1.4l-13.7-7.8-3.9-2.2c-16.5-9.5-39.4-23-67.3-40.2l-3-1.8-3.9-2.4c-52.7-32.6-121.9-77.6-199.1-133.5l-3.7-2.6c-64.5-46.9-134.6-101.2-205.2-162.2l-3.3-2.8c-13.3-11.6-26.6-23.3-39.9-35.3l-3-2.7q-36-32.4-71.6-67.1c-236.7-231.2-448-532.7-440.5-868.9,15.9-729.3,802.4-774.5,1042.2-343.5a27,27,0,0,0,17.7,13.4c10.1,2.1,20.9-2.3,26.3-13.3a503.2,503.2,0,0,1,35.3-55.2,511.8,511.8,0,0,1,68.7-75.8q18.5-16.6,38.3-31.5a548.8,548.8,0,0,1,121-67.7l12.3-4.9h0c321-121.5,753.9,47,770.2,585.4C2327.2,1343.2,2041.2,1685.9,1763.1,1925.2Z" class="colorffebf1 svgShape"></path><path fill="#f2c9d0" d="M942.5 1418.7H942l-12.2-2.1a3.1 3.1 0 011.1-6.1l12.1 2.1a3.1 3.1 0 01-.5 6.1zM906 1412.1h-.6l-24.2-5a3.1 3.1 0 111.3-6l24.1 4.9a3.1 3.1 0 01-.6 6.1zm-48.3-10.4H857q-12.2-2.8-24-6a2.9 2.9 0 01-2.2-3.7 3.1 3.1 0 013.7-2.3c7.9 2.1 15.9 4.1 23.9 6a3.1 3.1 0 01-.7 6.1zm-47.8-12.5h-.8c-8-2.3-16-4.7-23.8-7.2a3 3 0 01-2-3.8 2.9 2.9 0 013.8-2c7.8 2.4 15.7 4.8 23.6 7a3.1 3.1 0 01-.8 6.1zm-47.2-14.8l-1-.2c-7.8-2.7-15.7-5.5-23.3-8.4a3.1 3.1 0 01-1.8-4 3 3 0 013.9-1.8c7.6 2.9 15.4 5.7 23.2 8.4a3.1 3.1 0 01-1 6zM716.4 1357a2 2 0 01-1.1-.3c-7.7-3.1-15.4-6.4-22.9-9.8a3 3 0 01-1.5-4 3.1 3.1 0 014.1-1.6c7.3 3.3 15 6.6 22.6 9.7a3.1 3.1 0 011.7 4A3.2 3.2 0 01716.4 1357zm-45.1-20.3a3.5 3.5 0 01-1.4-.3c-7.4-3.7-14.9-7.5-22.1-11.4a3.1 3.1 0 013-5.4c7.1 3.8 14.4 7.6 21.9 11.2a3.2 3.2 0 011.4 4.2A3.4 3.4 0 01671.3 1336.7zm1090.1-9.2c-7 0-14.2-.1-21.3-.4a3.1 3.1 0 01.2-6.2c8.3.4 16.5.5 24.6.5a3.1 3.1 0 01.1 6.1zm28.2-.8a3.1 3.1 0 01-.1-6.1l9.9-.8c4.8-.4 9.7-.8 14.5-1.4a3.1 3.1 0 11.7 6.1l-14.7 1.5-10.1.7zm-74.1-1.2h-.2c-8.1-.7-16.4-1.7-24.7-2.8a3 3 0 01-2.7-3.4 3.1 3.1 0 013.5-2.7c8.2 1.1 16.4 2 24.4 2.7a3.1 3.1 0 012.8 3.4A3.1 3.1 0 011715.5 1325.5zm123.2-4.4a3.1 3.1 0 01-.5-6.2c8-1.3 16.2-2.9 24.1-4.7a3.1 3.1 0 011.4 6c-8.1 1.8-16.3 3.4-24.4 4.8zm-172.2-2h-.5c-8-1.4-16.2-2.9-24.4-4.7a3 3 0 01-2.4-3.6 3.2 3.2 0 013.7-2.4c8.1 1.7 16.2 3.3 24.1 4.6a3.1 3.1 0 01-.5 6.2zm-1038.8-5.9a2.8 2.8 0 01-1.5-.4c-7.2-4.2-14.3-8.6-21.2-13.1a3.1 3.1 0 01-.9-4.2 3 3 0 014.3-.9c6.7 4.3 13.8 8.7 20.9 12.9a3 3 0 011.1 4.2A3.1 3.1 0 01627.7 1313.2zm1259.3-2.9a3.1 3.1 0 01-.9-6.1c7.9-2.2 15.8-4.6 23.5-7.2a3.1 3.1 0 012 5.8c-7.8 2.6-15.8 5.1-23.8 7.3zm-268.9-1.4h-.7c-7.9-1.9-16-4-24-6.2a3.1 3.1 0 111.6-6l23.9 6.3a3 3 0 01-.8 6zm-47.6-13.2h-.9c-7.8-2.4-15.7-5-23.6-7.6a3.1 3.1 0 011.9-5.9c7.9 2.7 15.8 5.2 23.5 7.6a3 3 0 012 3.8A3 3 0 011570.5 1295.7zm363.3-1.2a3.2 3.2 0 01-2.9-2 3.1 3.1 0 011.8-4c7.6-3 15.2-6.2 22.6-9.6a2.9 2.9 0 014 1.5 3 3 0 01-1.5 4.1c-7.5 3.4-15.2 6.7-22.9 9.7A2 2 0 011933.8 1294.5zm-1347.6-8.2a2.7 2.7 0 01-1.7-.6c-6.8-4.8-13.5-9.8-19.9-14.9a3.1 3.1 0 01-.6-4.3 3.2 3.2 0 014.4-.5c6.3 5 12.9 9.9 19.6 14.7a3.2 3.2 0 01.8 4.3A3 3 0 01586.2 1286.3zm937.4-6.3l-1.1-.2-23.2-8.7a3.1 3.1 0 01-1.7-4 3.1 3.1 0 014-1.8l23 8.7a3 3 0 011.9 3.9A3.1 3.1 0 011523.6 1280zm455.1-6.2a3 3 0 01-2.7-1.6 3.1 3.1 0 011.3-4.2c7.2-3.8 14.4-7.8 21.4-12a3 3 0 014.2 1.1 3.1 3.1 0 01-1 4.2c-7.1 4.2-14.4 8.3-21.7 12.2A4 4 0 011978.7 1273.8zm-501.2-11.7a2.5 2.5 0 01-1.2-.2c-7.4-3-15.1-6.3-22.8-9.6a3.1 3.1 0 01-1.7-4 3.1 3.1 0 014.1-1.6l22.7 9.5a3 3 0 011.7 4A3 3 0 011477.5 1262.1zm-930.1-6.4a2.7 2.7 0 01-2-.8c-6.3-5.4-12.4-11.1-18.3-16.8a3 3 0 01-.1-4.3 3.1 3.1 0 014.4-.1c5.8 5.6 11.9 11.2 18.1 16.6a3.2 3.2 0 01.3 4.4A3.7 3.7 0 01547.4 1255.7zm1473.8-7.2a3.1 3.1 0 01-2.6-1.4 3.1 3.1 0 01.8-4.3c6.8-4.6 13.5-9.4 20-14.3a3.1 3.1 0 013.7 4.9c-6.5 5-13.3 9.9-20.2 14.5A3.2 3.2 0 012021.2 1248.5zm-589.2-5.9l-1.2-.2-11.5-5.2-11.1-5.1a3 3 0 01-1.4-4.1 3 3 0 014-1.5l11.1 5.1 11.4 5.1a3.2 3.2 0 011.6 4.1A3.2 3.2 0 011432 1242.6zm-44.8-20.8a2.8 2.8 0 01-1.3-.3l-22.3-10.9a3.1 3.1 0 012.8-5.6c7.3 3.7 14.8 7.4 22.1 10.9a3.1 3.1 0 011.5 4.1A3.3 3.3 0 011387.2 1221.8zm-875.2-.5a3 3 0 01-2.3-1c-5.6-6.1-11.1-12.4-16.3-18.7a3.2 3.2 0 01.4-4.4 3 3 0 014.3.5c5.2 6.2 10.6 12.4 16.1 18.4a3.1 3.1 0 01-.1 4.4A3.4 3.4 0 01512 1221.3zm1548.5-2.8a3.2 3.2 0 01-2.4-1.1 3.1 3.1 0 01.3-4.3c6.3-5.3 12.4-10.9 18.2-16.6a3.1 3.1 0 014.3 4.5c-5.9 5.7-12.1 11.3-18.4 16.8A3.7 3.7 0 012060.5 1218.5zM1343 1199.7a3.3 3.3 0 01-1.4-.4l-21.9-11.5a3.1 3.1 0 112.9-5.5c7.2 3.9 14.5 7.8 21.8 11.5a3.1 3.1 0 011.3 4.2A2.9 2.9 0 011343 1199.7zm752.9-15.6a3.2 3.2 0 01-2-.8 3.1 3.1 0 01-.3-4.4 234.2 234.2 0 0015.2-19 3.1 3.1 0 015 3.6 229.6 229.6 0 01-15.6 19.5A3 3 0 012095.9 1184.1zm-1615.3-.9a3.3 3.3 0 01-2.5-1.3c-4.9-6.7-9.6-13.6-14-20.5a3.1 3.1 0 01.9-4.3 3.2 3.2 0 014.3.9c4.3 6.9 9 13.7 13.8 20.3a3.1 3.1 0 01-.7 4.3A3 3 0 01480.6 1183.2zm818.8-6.9a4.2 4.2 0 01-1.5-.4l-21.6-12.2a3.2 3.2 0 01-1.1-4.2 3 3 0 014.2-1.1l21.5 12.1a3.1 3.1 0 011.2 4.2A3.2 3.2 0 011299.4 1176.3zm-42.9-24.7a2.8 2.8 0 01-1.5-.4l-21.2-12.8a3 3 0 01-1.1-4.2 3.1 3.1 0 014.3-1l21.1 12.7a3.1 3.1 0 011.1 4.2A3.1 3.1 0 011256.5 1151.6zm868.3-7.5a3.2 3.2 0 01-2.6-4.7c4-6.9 7.9-14.2 11.4-21.6a3.2 3.2 0 014.1-1.5 3.3 3.3 0 011.5 4.2c-3.6 7.5-7.6 15-11.7 22A3.2 3.2 0 012124.8 1144.1zm-1670.9-2.5a3 3 0 01-2.6-1.6l-.3-.4c-3.9-7-7.6-14.3-11.1-21.8a3.1 3.1 0 011.5-4.1 3.2 3.2 0 014.1 1.5c3.4 7.3 7.1 14.6 10.9 21.4l.2.4a3 3 0 01-1.2 4.2A2.4 2.4 0 01453.9 1141.6zm760.5-15.8a3.4 3.4 0 01-1.7-.5l-20.8-13.4a3.1 3.1 0 01-.9-4.2 3 3 0 014.3-.9l20.7 13.3a3.1 3.1 0 011 4.3A3.1 3.1 0 011214.4 1125.8zm931.6-26.3l-1-.2a3.1 3.1 0 01-1.8-4c2.8-7.5 5.4-15.3 7.7-23.2a3.1 3.1 0 015.9 1.7c-2.3 8.1-5 16-7.9 23.7A3 3 0 012146 1099.5zm-973-.8a2.6 2.6 0 01-1.7-.5c-6.9-4.6-13.7-9.3-20.5-14a3.2 3.2 0 01-.8-4.3 3.1 3.1 0 014.3-.7l20.4 13.9a3.1 3.1 0 01.8 4.3A2.9 2.9 0 011173 1098.7zm-740-1.9a3.1 3.1 0 01-2.9-1.9c-3-7.7-5.7-15.6-8.2-23.5a3.1 3.1 0 012-3.9 3.1 3.1 0 013.9 2c2.4 7.8 5.1 15.6 8.1 23.2a3 3 0 01-1.8 3.9A2.2 2.2 0 01433 1096.8zm699.4-26.3a3.5 3.5 0 01-1.8-.5l-20.1-14.6a3.1 3.1 0 01-.6-4.3 3.1 3.1 0 014.3-.7c6.6 4.9 13.3 9.8 20 14.5a3.2 3.2 0 01.7 4.3A3 3 0 011132.4 1070.5zM2160 1052.1h-.7a3 3 0 01-2.3-3.7c1.7-7.9 3.1-16 4.3-24.1a3.2 3.2 0 013.5-2.6 3.1 3.1 0 012.6 3.5c-1.2 8.3-2.7 16.5-4.4 24.5A3.1 3.1 0 012160 1052.1zm-1741.8-2.4a3.2 3.2 0 01-3-2.4c-2-8.1-3.7-16.3-5.1-24.4a3.1 3.1 0 012.6-3.5 3 3 0 013.5 2.5c1.4 7.9 3.1 16 5 24a3.1 3.1 0 01-2.3 3.7zm674.4-8.5a2.8 2.8 0 01-1.9-.7l-19.6-15.1a3.1 3.1 0 013.8-4.9c6.5 5.1 13 10.2 19.6 15.1a3 3 0 01.5 4.3A3.1 3.1 0 011092.6 1041.2zm-38.9-30.5a3.7 3.7 0 01-2-.7l-19.2-15.7a3 3 0 01-.4-4.3 3.2 3.2 0 014.4-.4l19.1 15.6a3.1 3.1 0 01.5 4.3A3 3 0 011053.7 1010.7zm1113.5-7.5h-.3a3.2 3.2 0 01-2.8-3.3c.7-8.1 1.1-16.4 1.3-24.6a3.1 3.1 0 013-3h.1a3.1 3.1 0 013 3.2c-.1 8.3-.6 16.6-1.2 24.9A3.1 3.1 0 012167.2 1003.2zM409.8 1001a3 3 0 01-3-2.8c-.9-8.4-1.4-16.8-1.5-24.9a3.1 3.1 0 116.1-.1c.2 8 .7 16.2 1.5 24.4a3.1 3.1 0 01-2.8 3.4zm605.7-21.8a3.1 3.1 0 01-2-.7l-17-14.2-2-1.7a3.1 3.1 0 014-4.7l1.9 1.6 17.1 14.3a3 3 0 01.3 4.3A2.7 2.7 0 011015.5 979.2zm1152.7-25.4a3.1 3.1 0 01-3.1-3c-.3-8.1-.9-16.4-1.8-24.5a3.1 3.1 0 016.2-.6c.8 8.2 1.4 16.6 1.8 24.9a3.2 3.2 0 01-3 3.2zM408.9 951.6h-.2a3.1 3.1 0 01-2.9-3.3 244.1 244.1 0 012.8-24.8 3.1 3.1 0 013.5-2.6 3.2 3.2 0 012.6 3.5c-1.3 7.9-2.2 16-2.8 24.3A3.1 3.1 0 01408.9 951.6zm568.6-4.1a2.6 2.6 0 01-1.9-.7L956.5 931a3 3 0 01-.4-4.3 3.1 3.1 0 014.4-.4l19 15.8a3 3 0 01.4 4.3A3.2 3.2 0 01977.5 947.5zm-38.2-31.3a3.2 3.2 0 01-1.9-.7c-6.8-5.5-13.1-10.5-19.4-15.3a3.1 3.1 0 013.8-4.9c6.3 4.9 12.6 9.9 19.4 15.4a3.1 3.1 0 01-1.9 5.5zm1223.8-11.6a3 3 0 01-3-2.6c-1.3-7.5-2.8-15-4.4-22.4a9.4 9.4 0 01-.4-1.6 3 3 0 012.3-3.7 3.1 3.1 0 013.7 2.3 13.6 13.6 0 00.4 1.7c1.7 7.4 3.2 15.1 4.5 22.7a3.2 3.2 0 01-2.6 3.6zM416.9 902.9h-.8A3.1 3.1 0 01414 899a194.4 194.4 0 018.2-23.7 3.2 3.2 0 014.1-1.7 3.2 3.2 0 011.6 4.1 187.4 187.4 0 00-8 22.9A3.1 3.1 0 01416.9 902.9zm1050.6-13.4a3 3 0 01-2.3-1 3.2 3.2 0 01.3-4.4l18.9-16a3.1 3.1 0 114 4.7l-18.9 16A2.7 2.7 0 011467.5 889.5zm-567.3-3.6a3 3 0 01-1.8-.6c-6.8-5.1-13.5-9.9-20-14.5a3.1 3.1 0 01-.7-4.3 3.2 3.2 0 014.3-.8l20.1 14.6a3.1 3.1 0 01-1.9 5.6zm605.1-28.3a3 3 0 01-2.3-1.1 3.1 3.1 0 01.3-4.4l19.1-15.8a3 3 0 014.3.4 3.2 3.2 0 01-.4 4.4l-19 15.7A3.2 3.2 0 011505.3 857.6zm-1069.1-.1a2.8 2.8 0 01-1.5-.4 3 3 0 01-1.1-4.2 161 161 0 0114.6-20.5 3.1 3.1 0 014.7 3.9 162.9 162.9 0 00-14 19.7A3.1 3.1 0 01436.2 857.5zm423.6-.1a3.4 3.4 0 01-1.7-.5c-6.9-4.7-13.9-9.1-20.7-13.3a3.1 3.1 0 013.2-5.3c6.9 4.3 13.9 8.8 20.9 13.4a3.2 3.2 0 01.9 4.3A3.1 3.1 0 01859.8 857.4zm1291.5-.7a3.1 3.1 0 01-2.9-2.1 209.7 209.7 0 00-9.4-22.5 3.1 3.1 0 015.6-2.7 244.4 244.4 0 019.6 23.1 3.1 3.1 0 01-1.9 4zM817.7 831.5a2.6 2.6 0 01-1.5-.4c-7.2-4-14.5-7.8-21.8-11.4a3.3 3.3 0 01-1.4-4.2 3.2 3.2 0 014.2-1.4c7.3 3.7 14.7 7.6 22 11.7a3.1 3.1 0 011.2 4.2A3.2 3.2 0 01817.7 831.5zm725.8-5.3a3 3 0 01-2.4-1.2 3.1 3.1 0 01.5-4.3l19.5-15.4a3.1 3.1 0 113.7 4.9c-6.2 4.8-12.7 10-19.3 15.3A3.1 3.1 0 011543.5 826.2zM467.8 819.8a3.1 3.1 0 01-2.3-1.1 3 3 0 01.3-4.3 176.1 176.1 0 0120.2-15 3.1 3.1 0 014.3 1 3 3 0 01-1 4.2A165.3 165.3 0 00469.9 819 3.2 3.2 0 01467.8 819.8zm1662.1-7.6a3 3 0 01-2.6-1.5c-4.3-6.8-9-13.5-14-20a3 3 0 114.8-3.7 236.7 236.7 0 0114.4 20.5 3 3 0 01-1 4.2A3.3 3.3 0 012129.9 812.2zM773.4 809.5a2.7 2.7 0 01-1.2-.3c-7.6-3.3-15.2-6.5-22.8-9.4a2.9 2.9 0 01-1.7-3.9 3 3 0 013.9-1.8c7.7 2.9 15.4 6.1 23 9.5a3 3 0 011.6 4A3 3 0 01773.4 809.5zm809.2-13.6a3.1 3.1 0 01-1.8-5.5c6.8-5.1 13.5-10 20.1-14.6a3.1 3.1 0 014.3.7 3.2 3.2 0 01-.8 4.3c-6.5 4.6-13.2 9.5-19.9 14.5A3.3 3.3 0 011582.6 795.9zM509.5 793.5a3.1 3.1 0 01-2.8-1.8 3.1 3.1 0 011.5-4.1 177.2 177.2 0 0116.8-6.5l6.7-2.2a3.1 3.1 0 013.9 2 3.1 3.1 0 01-2.1 3.9l-6.6 2.1c-5.5 1.9-11 4-16.2 6.4zm217.7-1.7h-.9c-7.9-2.5-15.8-4.9-23.6-6.9a3.1 3.1 0 01-2.2-3.7 2.9 2.9 0 013.7-2.2c7.9 2 16 4.4 24 6.9a3.1 3.1 0 01-1 6zm-47.8-12.4h-.6c-8.1-1.6-16.3-2.9-24.2-3.9a3 3 0 01-2.7-3.4 3.1 3.1 0 013.4-2.7c8.1 1 16.4 2.3 24.7 3.9a3.2 3.2 0 012.4 3.7A3.1 3.1 0 01679.4 779.4zm-122.8-.7a3 3 0 01-3-2.4 3.1 3.1 0 012.3-3.7c8.1-1.6 16.4-3 24.7-3.9a3.1 3.1 0 01.7 6.1 241.9 241.9 0 00-24.1 3.9zm73.7-5.3h-.1c-8.2-.5-16.5-.6-24.5-.3a3.1 3.1 0 01-3.2-3 3.2 3.2 0 013-3.2c8.2-.2 16.6-.1 25 .3a3 3 0 012.9 3.2A3.1 3.1 0 01630.3 773.4zm1469.3-.2a3.2 3.2 0 01-2.3-.9 235.2 235.2 0 00-17.7-16.8 3.1 3.1 0 014-4.7c6.4 5.5 12.5 11.3 18.2 17.2a3.1 3.1 0 01-.1 4.4A2.9 2.9 0 012099.6 773.2zM1623 767.4a3.1 3.1 0 01-2.6-1.4 3.2 3.2 0 01.9-4.3c7-4.6 14-9.1 20.9-13.4a3.1 3.1 0 013.2 5.3c-6.8 4.2-13.7 8.6-20.7 13.3A3.4 3.4 0 011623 767.4zm42-26a3.1 3.1 0 01-1.5-5.8c7.3-4.1 14.6-8.1 21.8-11.8a3.1 3.1 0 014.2 1.3 3.2 3.2 0 01-1.4 4.2c-7.1 3.6-14.3 7.6-21.6 11.7A2.6 2.6 0 011665 741.4zm397.2-.4a3.2 3.2 0 01-1.8-.6 240 240 0 00-20.5-13.3 3.3 3.3 0 01-1.1-4.3 3.2 3.2 0 014.3-1c7.2 4.2 14.2 8.8 20.9 13.6a3.1 3.1 0 01.7 4.3A3.1 3.1 0 012062.2 741zM1709 718.8a3.3 3.3 0 01-2.9-1.8 3.1 3.1 0 011.6-4.1c7.6-3.5 15.3-6.7 22.8-9.7a3.1 3.1 0 112.3 5.7c-7.4 2.9-15 6.2-22.6 9.6A2.7 2.7 0 011709 718.8zm310.7-3a3.1 3.1 0 01-1.3-.3c-7.3-3.5-14.8-6.8-22.4-9.8a3.1 3.1 0 112.2-5.8c7.8 3.1 15.5 6.4 22.9 10a3.1 3.1 0 011.4 4.2A3 3 0 012019.7 715.8zm-264.8-15.1a3.1 3.1 0 01-1-6c8-2.6 16-5 23.9-7.1a3.1 3.1 0 013.8 2.2 3.2 3.2 0 01-2.2 3.8c-7.8 2-15.7 4.4-23.5 6.9zm218.9-3h-.9q-6.3-2-12.6-3.6t-11.1-2.7a3.1 3.1 0 01-2.3-3.7 3 3 0 013.7-2.3c3.7.8 7.5 1.8 11.2 2.8s8.6 2.3 12.9 3.6a3.1 3.1 0 012 3.9A3 3 0 011973.8 697.7zm-171.1-9.5a3.1 3.1 0 01-.6-6.1c8.2-1.6 16.5-2.9 24.6-3.9a3.1 3.1 0 013.5 2.7 3.2 3.2 0 01-2.7 3.5c-8 .9-16.2 2.2-24.2 3.7zm122.9-1.7h-.5c-8-1.3-16.2-2.4-24.3-3.1a3.1 3.1 0 11.6-6.2c8.2.8 16.5 1.9 24.7 3.2a3.2 3.2 0 012.6 3.6A3.1 3.1 0 011925.6 686.5zm-73.9-4.2a3.1 3.1 0 01-.1-6.2c8.2-.4 16.6-.5 24.9-.3a3.1 3.1 0 01-.1 6.1c-8.2-.1-16.4 0-24.5.4zM1438.9 913.8a2.8 2.8 0 01-2.3-1.1 3 3 0 01.4-4.3l9.4-8a3.1 3.1 0 113.9 4.7c-3.1 2.7-6.2 5.4-9.4 8A2.7 2.7 0 011438.9 913.8z" class="colorf2c9d0 svgShape"></path><path fill="#ffffff" d="M2099.3 1218.1s-11.2-28.8-.7-70.6c0 0 8.4-41.3 40.1-34S2153.2 1193.3 2099.3 1218.1zM2073.1 1319.9s1.1-25.7 22.7-54.8c0 0 19.9-29.3 41.3-13.9S2121.7 1317.2 2073.1 1319.9zM2118.2 1410.5s-1.9-25.6 16.4-57c0 0 16.4-31.4 39.4-18.5S2166.2 1402.4 2118.2 1410.5zM2062.2 1509.5s6.6-24.9 34-48.7c0 0 25.7-24.3 43.3-4.7S2110.3 1517.3 2062.2 1509.5zM2053.4 1297.6s15.5-20.5 17.4-56.7c0 0 3.3-35.3-23-37S2017.6 1264.6 2053.4 1297.6zM1986.7 1370s18.2-18.1 25.2-53.7c0 0 8.3-34.4-17.5-39.9S1955.9 1332.2 1986.7 1370zM1963.5 1481.3s11.5-23 6.5-59c0 0-3.3-35.3-29.5-32.1S1922.2 1455.5 1963.5 1481.3z" class="colorfff svgShape"></path><path fill="#72b0b5" d="M1985.3,1610.1h-3c2.4-84.9,141.8-462.4,143.2-466.2l2.8,1.1C2126.9,1148.7,1987.7,1525.7,1985.3,1610.1Z" class="color72b0b5 svgShape"></path><path fill="#72b0b5" d="M2000.3,1530l-1.4-2.6c57-30,151.3-161.7,152.2-163.1l2.5,1.8C2152.6,1367.4,2057.9,1499.7,2000.3,1530Z" class="color72b0b5 svgShape"></path><path fill="#72b0b5" d="M2020.3 1520.2l-4.8-.2v-3c50.9 2.8 92.6-41.2 93-41.7l2.2 2.1C2110.4 1477.8 2070.3 1520.2 2020.3 1520.2zM1996.5 1537.5c-23.3-60.8-7.3-222.6-7.1-224.2l2.9.3c-.1 1.6-16 162.7 7 222.9z" class="color72b0b5 svgShape"></path><path fill="#72b0b5" d="M1991.7 1520c-41.2-32.2-43.6-94.3-43.6-94.9h3c0 .6 2.4 61.3 42.5 92.7zM2042.3 1390.9l-2.9-.8c0-.1.6-2.3 1.7-5.9 15.2-55.7 10.1-139.1 10.1-140h3c0 .7 3.9 65-5.4 118.7 9.5-23.2 26.7-56.3 53.8-79.8l2 2.2c-37.2 32.2-55.3 82.8-60.6 99.8C2043.5 1387 2042.9 1389 2042.3 1390.9z" class="color72b0b5 svgShape"></path><circle cx="1882.7" cy="757.5" r="34.1" fill="#fde0e5" class="colorfde0e5 svgShape"></circle><circle cx="2090.9" cy="1000.3" r="46.6" fill="#fde0e5" class="colorfde0e5 svgShape"></circle><circle cx="2050.4" cy="684.7" r="19.2" fill="#fde0e5" class="colorfde0e5 svgShape"></circle><circle cx="544.9" cy="837.7" r="23.9" fill="#fde0e5" class="colorfde0e5 svgShape"></circle><circle cx="422.6" cy="746.1" r="22.6" fill="#fde0e5" class="colorfde0e5 svgShape"></circle><path fill="#ffffff" d="M397.4 941.6s-21.5-22.2-28-64.8c0 0-8.2-41.3 23.9-46.8S437.5 897.9 397.4 941.6zM412.7 1045.6s-9-24.1-.3-59.3c0 0 7-34.8 32.7-28.8S456.5 1024.3 412.7 1045.6zM489.3 1111.7s-11.6-22.9-6.9-58.9c0 0 3-35.3 29.2-32.3S530.5 1085.6 489.3 1111.7zM476 1224.6s-3.5-25.4 12.5-58c0 0 14.3-32.4 38.2-21.1S523.4 1213.3 476 1224.6zM385.9 1032.7s6.4-24.9-5.9-59c0 0-10.6-33.8-35.5-25.3S340.1 1016.1 385.9 1032.7zM352.4 1125.3s9.8-23.8 2.5-59.3c0 0-5.7-35-31.6-30S309.4 1102.3 352.4 1125.3zM374.1 1236.8s1.7-25.6-16.8-56.8c0 0-16.7-31.3-39.6-18.2S326 1229.1 374.1 1236.8z" class="colorfff svgShape"></path><path fill="#72b0b5" d="M441.3,1348.2C410.6,1269,393,867,392.8,863h3c.2,4,17.8,405.5,48.3,484.3Z" class="color72b0b5 svgShape"></path><path fill="#72b0b5" d="M426.9,1267.5l-2.3-1.9c40.9-49.7,76.9-207.6,77.2-209.2l2.9.7C504.4,1058.7,468.3,1217.2,426.9,1267.5Z" class="color72b0b5 svgShape"></path><path fill="#72b0b5" d="M437 1252.5l-1-2.9c48-17.1 69.4-73.8 69.6-74.4l2.8 1C508.2 1176.8 486.3 1234.9 437 1252.5zM426.3 1275.9c-45-47-92.9-202.4-93.4-204l2.9-.9c.4 1.6 48.1 156.3 92.7 202.9z" class="color72b0b5 svgShape"></path><path fill="#72b0b5" d="M415.1 1261.7c-50.5-13.9-76.7-70.1-76.9-70.7l2.7-1.2c.3.5 25.9 55.5 75 69zM408.8 1123.4a47.9 47.9 0 01-.7-6.1c-7.6-57.3-44.5-132.2-44.9-133l2.7-1.3c.3.7 28.8 58.4 41 111.5-.2-25 2.8-62.2 18.7-94.4l2.7 1.4c-21.8 44-19 97.6-17.3 115.4.3 2 .5 4.1.7 6.1z" class="color72b0b5 svgShape"></path><path fill="#d13b62" d="M715.7 645.6a199.2 199.2 0 01-6.4 26.9l-.5 1.7c-.4 1.3-.8 2.5-1.2 3.5s-1.4 4.1-1.8 5v.2a1.3 1.3 0 01-1 .7l-1 .2h-.3c-1.2.3-2.8.5-4.9.8H698c-3.8.6-9 1.2-15 1.6h-.3c-5 .3-10.6.5-16.5.4h-3.9c-2.1 0-4.1-.1-6.2-.3-20.9-1.6-43.3-7.6-56.6-24.2-28.9-35.9 7.4-70 36.5-58.9a1.7 1.7 0 001.4-.1 1.5 1.5 0 00.7-1.7 28.7 28.7 0 01-.5-4.1 28.3 28.3 0 01.2-6.5l.6-3a32.3 32.3 0 013.1-8.2c.1-.3.3-.5.4-.8h0c10.6-18.9 38.4-28.3 61.1-2.9C719.4 594.5 719.5 622.7 715.7 645.6zM1630.4 694.7a135.6 135.6 0 01-16.5 1.7h-6.6a.8.8 0 01-.7-.4c0-.2-.1-.3-.3-.5v-.2l-1.5-2.6h0c0-.1-.1-.1-.1-.2-1.1-2.1-2.5-4.9-3.9-8.2h-.1q-1.8-4.2-3.6-9.3v-.2l-.6-1.9h-.1c-.3-1.2-.7-2.4-1-3.6-3.3-12.1-4.3-26.1 2.4-36.9 14.6-23.5 41.2-9.8 40.7 9a.9.9 0 001.4.8l2.2-1.1a26.5 26.5 0 013.7-1.2l1.9-.2a18.8 18.8 0 015.3.1h.5c12.8 2.2 23.7 16.1 13.8 34C1660.1 686.6 1644.1 692.2 1630.4 694.7z" class="colord13b62 svgShape"></path><path fill="#45727c" d="M535.3,1798.9c6.8-7.4,44.7-18.6,48.4-46.9,4.5-30.3-34.4-71.4-101.3-78.6a1.3,1.3,0,0,0-1.2,2.3c6.9,6.3,15.5,16.4,18.7,30.3,1.9,8.4,2.4,20.8-1.6,21.9s-12.9-9.8-17.6-20.3c-6.6-15.1-2-22.4-6.9-28.6s-17.9-10.2-55.3-1.3a1.4,1.4,0,0,0-.1,2.7c11.2.8,36.4,21.3,30.9,32.7-3.7,3.8-18.9,0-28-8.6-7.2-6.8-6.4-12.7-12.9-15.9-2.4-2.7-22.9-1.4-18.1,3.1,5.7,1,13.7,10.7,9.3,16.2-3.2,2.4-9.5-4.2-23.6-6.7-3.9-.7-32.9-2.5-33.1.4-2.2,2.8,1.7,6.3,6.4,20,5.9,16.9,1.2,17,28.8,20.8,19.3,1.5,28.4-1.7,41.8,3.8,17.8,6.8-1.8,11.5-7.1,12.6-16.6,3.3-31.7-2.1-35.9-3.7-12-4.6-17.7-10.3-19.9-8.5-2.3,8.1,12.4,28,23.8,31.4,13.5,4.2,21.5-5.9,43.6-2.8s1.2,12.4-6.1,15-19.5,6.1-36.8,4.8a1.4,1.4,0,0,0-1.4,2.1c18.9,23.1,17.5,15.6,56.7,6.5,28-9.2-6.2,21.6-28.7,16.3a1.4,1.4,0,0,0-1.2,2.4c56.2,43.1,45.9,7.4,74.7,2.2,19.5-.2.4,17.8-12.7,30.6-1.5,5.7,27.7,8.2,42.1,2.7C539.8,1850.5,551.5,1821.1,535.3,1798.9Z" class="color45727c svgShape"></path><path fill="#45727c" d="M575.7,1810.8c-42.6-11.2-68.7-28.1-68.7-28.1-14,23.5-40.4,40.5-69.5,44.1,28.3-5.2,53.5-22.2,67.2-45.3l-17.9-9.7c-17.1,18.6-44.9,28.3-71.4,25.5,26-.4,51.8-9.3,70-26.3l-17-9.2h0l-.3-.2-.4-.2-12.3-6.8c-21.4,14-50.5,16.8-75.3,8.9,25,4.7,51.9,2.2,74.1-9.6-18.5-10.1-37.1-19.9-55.8-29.6-10.3,5-23.1,5.2-33.8,1.1,10.6,1.2,21.4,1.1,31.4-2.3-11.9-6.2-23.9-12.3-35.9-18.3,12.7,5.6,25.3,11.5,37.9,17.6h.1l2,1H400l16.6,8.2c2.6-11.8.1-24.1-6.3-34.7a32.6,32.6,0,0,1,7.6,35.4c17.1,8.6,34,17.6,50.7,26.7,10.3-27.1,3-58.4-18.6-79.5,24.7,19.2,32.7,53.2,19.5,80l17.6,9.8h.1l1.2.7h-.1l17.7,9.6c23.9-25.2,28.5-64.3,6.1-91.8,24.7,26.8,20.5,67.4-3.8,93h.1l.8-1s39.5,18.8,71,24.5,62.7.1,62.7.1l-.4,6.9S618.3,1822,575.7,1810.8Z" class="color45727c svgShape"></path><path fill="#72b0b5" d="M514.7,1629.8c20.4,1.2,86.6,46.8,136,16.3,53.7-31.7,68.7-145.8-5.5-260.6-1.5-2.4-5-1.8-5.2,1-1.1,19.1-6,45.6-23.9,68.4-10.8,13.7-29.7,30.4-36.7,25.6s-1-33.1,9.7-53.9c15.2-29.9,32.7-31.8,36.2-47.5s-6.8-41.4-68.8-89a2.8,2.8,0,0,0-4.3,3.3c13.1,18.7,12.9,84.8-12.2,90.6-10.7-.9-24.1-29.9-22.2-55.2,1.5-20.2,11.8-26.4,8.6-40.7,1.3-7.4-27.1-38-28.1-24.6,5.7,10.2.8,35.3-13.7,35.3-7.8-2-5.4-20.3-19.5-45.8-4.1-7.1-38.3-55.1-43.1-51.8-7.3.1-7.8,10.7-23.4,35.8-19.1,31-25.4,23.6,4,72,22.3,32.5,39.1,42.7,47.6,70.9,12,37-20.5,12-29.1,5-26.5-21.9-37.3-52.8-40.1-61.4-8.1-24.9-6.4-41.1-11.9-42.4-15.9,6.7-28.5,55.5-19.2,77.8,10.5,26.7,36.8,26.4,60.3,65.2,25.5,39.2-18.1,18-31.7,9.6s-34.4-22.9-54.6-51.9a2.8,2.8,0,0,0-5,.4c-12.4,59.5-2.4,47.7,62.2,97.9,50.5,32.4-41.9,17.9-62.5-24.4a2.8,2.8,0,0,0-5.3,1.1c3.9,144.1,47.1,82.1,92.3,120.9,25.3,30.5-27.7,23.5-64.8,19.1-10.7,4.9,22.6,54.2,49.7,69.9C439,1702.9,500.3,1683.8,514.7,1629.8Z" class="color72b0b5 svgShape"></path><path fill="#457e7f" d="M547.6,1708.7c-36.8-81.6-43.6-144.5-43.6-144.5-55,8-115.6-11.9-158.6-53.2,44.5,38,103.5,56,157.6,48.1-2.7-13.6-5.1-27.2-7.6-40.7-51.3-3.3-102.2-34.8-131.8-80.1,34,40.6,81,69.9,131.2,76.9-2.3-13-4.7-25.9-7.3-38.6h0c0-.2-.1-.5-.1-.7s-.1-.6-.2-.9c-1.6-9.4-3.3-18.7-5-28.1-49.5-15.9-91.3-58.2-110.6-107.5,24.7,45.6,63.1,84.7,110.1,104.7Q470.2,1381,457,1318c-21-9.8-37.8-29.7-45-51.9,11.7,18.3,25.8,35.2,44,46.7-5.6-26.7-11.3-53.5-17.2-80.2q11.1,41,20.7,82.4h.2l1.1,4.5h-.2c2.8,12.3,5.5,24.5,8.2,36.7,22-11,38.3-30.6,46.7-54.4a65.8,65.8,0,0,1-46.1,57.3q12.3,57.2,22.7,114.4c56.1-18.4,96.1-70.1,101.9-131.3,1.2,63.6-42.3,119.8-101.5,133.4,2.4,13.3,4.7,26.8,7.1,40.2h.2l.6,2.8h-.3c2.3,13.4,4.8,26.8,7.4,40.2,70.4,5.6,138-37.3,152.8-107.7-10.6,73.3-80.2,118.6-151.7,113h2.7s20.8,86.4,52.2,143.6,80.2,99,80.2,99l-11.5,8.3S584.5,1790.3,547.6,1708.7Z" class="color457e7f svgShape"></path><path fill="#45727c" d="M1867.3,1914.6c-6.2-8-43-22.4-44.3-50.9-1.9-30.6,40.4-68.2,107.6-69.8a1.4,1.4,0,0,1,1,2.4c-7.5,5.8-16.9,15.1-21.2,28.6-2.6,8.2-4.2,20.5-.3,22s13.7-8.7,19.3-18.8c7.9-14.4,3.8-22.1,9.3-27.9s18.7-8.6,55.2,3.4a1.4,1.4,0,0,1-.2,2.7c-11.2-.2-38,18.2-33.4,30,3.3,4.1,18.8,1.5,28.5-6.2,7.8-6.2,7.5-12.1,14.2-14.8,2.7-2.5,23,.5,17.8,4.7-5.8.5-14.6,9.4-10.6,15.3,3,2.6,9.8-3.4,24-4.7,4-.3,33,.3,33,3.2,2,3-2.2,6.1-8.1,19.4-7.3,16.3-2.6,16.8-30.4,18.3-19.3-.1-28.2-4.1-41.9.2-18.4,5.3.8,11.7,5.9,13.2,16.3,4.7,31.8.6,36.1-.6,12.4-3.6,18.5-8.8,20.6-6.9,1.6,8.3-14.8,26.9-26.4,29.3-13.8,3.1-20.9-7.7-43.2-6.5s-2.3,12.3,4.8,15.5,18.9,7.7,36.3,7.9a1.4,1.4,0,0,1,1.2,2.2c-20.8,21.4-18.8,14.1-57,1.7-27.2-11.6,4.3,22,27.2,18.7a1.4,1.4,0,0,1,1,2.4c-59.7,38.3-46.4,3.6-74.7-4.1-19.4-1.8-1.9,17.8,10.1,31.7,1,5.7-28.2,5.7-42.1-.9C1858.5,1965.5,1849.3,1935.3,1867.3,1914.6Z" class="color45727c svgShape"></path><path fill="#45727c" d="M1826.1,1923c43.3-7.6,70.8-22.3,70.8-22.3,11.9,24.6,36.8,43.8,65.5,49.9-27.8-7.6-51.4-26.6-63.1-50.9l18.6-8.1c15.5,20,42.4,32,69,31.5-25.9-2.6-50.8-13.7-67.5-32.2l17.7-7.7h0l.3-.2.4-.2,12.8-5.7c20.2,15.7,49,21.1,74.3,15.3-25.3,2.5-51.8-2.3-73-15.9,19.3-8.5,38.7-16.7,58.1-24.8,9.8,5.9,22.6,7.2,33.6,4-10.7.3-21.5-.8-31.2-5l37.4-15.2c-13.1,4.5-26.2,9.4-39.2,14.4h-.1l-2.2.8h.1l-17.2,6.8c-1.6-12,1.9-24,9.3-34a32.3,32.3,0,0,0-10.6,34.5q-26.7,10.8-52.8,22.4c-8-27.9,1.9-58.4,25.2-77.7-26.2,17.1-37,50.3-26.2,78.1l-18.3,8.3a.1.1,0,0,0-.1-.1l-1.2.5v.2l-18.4,8c-21.7-27-22.9-66.4,1.6-91.9-26.8,24.6-26.1,65.4-4,93h-.1l-.7-1.1s-40.9,15.4-72.9,18.5-62.4-5.3-62.4-5.3l-.2,7S1782.7,1930.5,1826.1,1923Z" class="color45727c svgShape"></path><path fill="#72b0b5" d="M1858,1792c-15.2-.4-67.4,29.4-102.2,3.6-37.9-27-41.9-112.8,20.5-193.6,1.3-1.7,3.9-1,3.8,1.1-.4,14.3,1.6,34.3,13.5,52.4,7.2,10.9,20.2,24.5,25.7,21.3s2.8-24.5-3.8-40.7c-9.5-23.1-22.4-25.7-24-37.6s7.7-30.4,56.8-61.9a2.1,2.1,0,0,1,3,2.7c-10.9,13.1-14.9,62.3,3.4,68.2,8,0,19.8-20.7,20-39.7.1-15.1-7.2-20.3-3.9-30.8-.5-5.5,22.6-26.6,22.5-16.5-4.9,7.3-2.8,26.2,7.9,27.1,6-.9,5.4-14.8,17.5-32.8,3.4-5,31.9-38.6,35.3-35.9,5.4.6,5.1,8.5,15.1,28.2,12.3,24.2,17.4,19.1-7.5,53.3-18.6,22.7-31.8,29.3-39.8,49.7-11.3,26.8,14.5,10.2,21.3,5.6,21.1-14.7,31.1-36.9,33.7-43.2,7.6-18,7.3-30.2,11.5-30.8,11.4,6,17.7,43.1,9.4,59.1-9.5,19.2-29.1,17.3-48.9,44.8-21.5,27.5,12.3,14.5,22.9,9.1s27.1-14.9,43.9-35.2a2.1,2.1,0,0,1,3.7.6c5.5,45.1-1.2,35.7-52.4,68.9-39.6,21,30.1,16,48-14.2,1.4-1.6,3.9-.9,3.8,1.2-11.9,106.9-40.1,58.1-76.2,84.1-20.7,21.2,19.1,19.3,47,18.3,7.7,4.4-20.2,38.9-41.4,48.9C1909.8,1851.2,1865.4,1833.1,1858,1792Z" class="color72b0b5 svgShape"></path><path fill="#457e7f" d="M1828.6,1848.7c32.5-58.4,41.5-104.8,41.5-104.8,40.4,9.4,86.8-1.6,121.4-29.6-35.6,25.5-80.5,35.2-120.3,25.8,2.8-9.9,5.5-19.8,8.2-29.8,38.4.8,78.2-19.4,103.1-51.2-27.8,28-64.7,46.9-102.5,48.9,2.6-9.5,5.2-19,7.9-28.3h0a4.3,4.3,0,0,0,.1-.5,1.4,1.4,0,0,0,.2-.6c1.8-6.9,3.7-13.7,5.5-20.6,37.9-8.8,71.6-37.6,89.1-73.1-21.3,32.4-52.3,59.1-88.5,71q12.6-46.2,26.3-92.3c16.2-5.9,30-19.7,36.7-35.8-9.8,12.9-21.4,24.6-35.6,32.1q8.7-29.4,17.8-58.7c-7.3,19.9-14.1,39.9-20.6,60h-.1l-1.1,3.3h.1l-8.4,26.7c-15.7-9.5-26.5-25.2-31.3-43.4-.1,20.2,12.7,38.5,30.7,45.5-8.6,27.9-16.5,55.8-24.1,83.7-40.6-17.2-67.1-58.2-67.6-104-4.9,47.2,24,91.7,67.1,105.5-2.6,9.8-5.1,19.7-7.7,29.6h-.2l-.6,2h.2c-2.6,9.8-5.2,19.6-8.1,29.4-52.7-.2-100.3-36.4-106.9-89.7,3.3,55.2,52.2,93.3,105.8,93.6h-2s-20.9,62.9-47.9,103.5-65.9,68.6-65.9,68.6l8,6.9S1796,1907.1,1828.6,1848.7Z" class="color457e7f svgShape"></path><path fill="#ffebf1" d="M630.9 1900.3l69.7 60.5 69.8 60.4 39.1 34a10 10 0 006.6 2.7 9.2 9.2 0 009.2-9.3 9.3 9.3 0 00-2.7-6.5l-69.7-60.5-69.8-60.4L644 1887.3a10 10 0 00-6.6-2.7 9.5 9.5 0 00-6.5 2.7 9.3 9.3 0 00-2.7 6.5c.1 2.4.9 5 2.7 6.5zM850.9 2089.5l66.8 52.8 18.9 15c2 1.5 3.9 2.7 6.6 2.7a9.3 9.3 0 006.5-2.7 9.6 9.6 0 002.7-6.6c-.1-2.3-.8-5-2.7-6.5l-66.8-52.8-18.9-15c-2-1.5-3.9-2.7-6.5-2.7a9.2 9.2 0 00-9.3 9.3c.1 2.3.9 5 2.7 6.5zM1038.7 2210a405 405 0 0043.8 33.4c4.1 2.7 10.4.9 12.7-3.3a9.6 9.6 0 00-3.3-12.7c-8.2-5.3-16.1-11-23.9-17l1.9 1.5c-6.2-4.8-12.2-9.8-18.1-15a10 10 0 00-6.6-2.7 9.5 9.5 0 00-6.5 2.7c-3.2 3.5-3.9 9.7 0 13.1z" class="colorffebf1 svgShape"></path><path fill="#302342" d="M1707 2039.2q-22.8 23.7-47 46c-16 14.8-32.4 29.2-49.2 43-9.6 7.9-19.2 15.6-29 23.2l1.9-1.5q-31.7 24.4-64.8 46.6l-19 12.4a9.6 9.6 0 00-4.2 5.5 9.2 9.2 0 00.9 7.1c2.6 4.1 8.3 6.1 12.6 3.4 14.9-9.5 29.5-19.4 43.9-29.5s29.7-21.6 44.1-32.8 27.6-21.9 41-33.4 26.6-23.1 39.5-35.2 25.5-24.4 37.9-37.1l4.5-4.6c3.4-3.5 3.7-9.7 0-13.1s-9.5-3.7-13.1 0zM1453.2 2248.9q-32.5 19.5-66 37.4l-18.9 10c-4.3 2.2-5.9 8.6-3.3 12.6a9.4 9.4 0 0012.6 3.3c22.4-11.6 44.6-23.7 66.4-36.5 6.2-3.5 12.4-7.2 18.5-10.9 4.1-2.4 6-8.4 3.3-12.6s-8.2-6-12.6-3.3z" class="color302342 svgShape"></path><path fill="#ffb6b1" d="M1301.1,826.4s31.6,95.2,124.3,100.7,114.9-172.4,114.9-172.4-40.9-39-50.3-86.1c-2.4-11.7-2.8-24.5-2.1-37,2.1-38,14.5-74.3,14.5-74.3l-135.1,17.2s.5,4.8,4,86.3c.8,19.6-2.8,39.4-8.8,58.1C1343.6,777.9,1301.1,826.4,1301.1,826.4Z" class="colorffb6b1 svgShape"></path><path fill="#f47382" d="M1362.5,718.9c10.2,21.9,20.3,41.9,24.8,45.7,10.7,8.8,51.3-26.7,79.7-78.9,8.2-15.2,15.2-34.4,20.9-54.1,2.1-38,14.5-74.3,14.5-74.3l-135.1,17.2s.5,4.8,4,86.3C1372.1,680.4,1368.5,700.2,1362.5,718.9Z" class="colorf47382 svgShape"></path><path fill="#302342" d="M1567.2,493.3a295.6,295.6,0,0,1-25.1,43.7,34.5,34.5,0,0,0,4.3-12.4c1.8-10.1.4-25.1-15.1-40.5-13.3-13.3-37.2-27-78.5-38.2-126.1-34.1-217.2,52.6-217.2,52.6s-37-18.2-53.3-69.9-7.5-86.2,7.5-87.5,29.5,7.5,29.5,7.5-15.3-47.3,5.6-59.8,49.8,8.6,49.8,8.6,100.1-49.2,178.8-7.1,81.7,75.3,81.7,75.3,22.1-8.5,44,40.2C1590.6,431.2,1580,465.9,1567.2,493.3Z" class="color302342 svgShape"></path><path fill="#302342" d="M1558.1,469.5a176.4,176.4,0,0,1-1.9,20,146.1,146.1,0,0,1-9.8,35.1c-24.6,58.8-79.4,75.6-79.4,75.6L1409.6,581l-159.1-53.4a182.7,182.7,0,0,1-14.9-29.1c-10.6-25.7-21.1-65.5-8.9-105.9,20.7-68.6,96.9-103.8,181.4-93S1562,365.6,1558.1,469.5Z" class="color302342 svgShape"></path><path fill="#54355e" d="M1542.1,537a34.5,34.5,0,0,0,4.3-12.4c-24.6,58.8-79.4,75.6-79.4,75.6L1409.6,581l.2-.2c37.3-74.1,63.4-98.8,63.4-98.8a265.1,265.1,0,0,1,58.1,2.1,188.1,188.1,0,0,1,24.9,5.4c3.7,1.1,7.4,2.4,11,3.8A295.6,295.6,0,0,1,1542.1,537Z" class="color54355e svgShape"></path><path fill="#ffb6b1" d="M1268,683.2c26.2,45.7,48.7,49.5,72.6,48.8s41.2-6.7,49.6-8.5h0c27.2-11.5,55.3-27.3,67.5-41.6,18.4-21.4,35.9-72.9,37.6-78v-.4s56,11.5,65.9-17.8-4.8-46.6-21.2-53.5-43.9-4.3-47.1,1.2-5.2,33.2-9.4,34.6-9.4,2-11.4-1c-.9-1.2-.8-14.4-.6-30.4.6-7.6.7-16.6.6-24.5.3-12.4.7-23.8,1-30.1,0,0-24.6,8.2-67.8-2.5s-72.8-26.5-72.8-26.5-67.5,16.2-95.5,3.2c0,0-3.1,53-.5,69.1s6.9,27.2,4.7,41.2a136.7,136.7,0,0,0-1.4,17.2v.2C1240,587.1,1242.7,638.9,1268,683.2Z" class="colorffb6b1 svgShape"></path><path fill="#f47382" d="M1521.9,594.9c-9.1.8-12.2-3.2-13.2-5.6s-.3-8,3.3-10.9l1.1-.9c5.7-4.6,5.3-5.5,4.1-7.2s-1.6-1.5-1.7-1.5-1.4.9-2,2a24,24,0,0,0-1.9,4.7,4.6,4.6,0,0,1-5.6,3.3,4.4,4.4,0,0,1-3.2-5.5,27.4,27.4,0,0,1,2.5-6.6c1.6-3,4.9-6.6,9.4-7h0c2.6-.2,6.3.5,9.7,5.1,7.2,9.4-1.8,16.7-5.6,19.8l-1,.8-.3.3a12.6,12.6,0,0,0,4,0c4-.4,13.6-8.2,16.9-18.2,2.4-7.2.8-13.4-4.6-18.4-3.8-3.5-7.5-5-11.4-4.4-9.2,1.3-16.5,13.3-16.6,13.4a4.4,4.4,0,0,1-6.2,1.6,4.6,4.6,0,0,1-1.6-6.3c.4-.6,9.5-15.8,23.1-17.7,6.7-1,13,1.3,18.9,6.7,8.1,7.5,10.6,17.4,7.1,27.9-4.3,13-16.5,23.6-24.6,24.5Z" class="colorf47382 svgShape"></path><ellipse cx="1366.2" cy="536.7" fill="#302342" rx="10.6" ry="16.1" transform="rotate(-10 1365.696 536.418)" class="color302342 svgShape"></ellipse><ellipse cx="1274.6" cy="546.5" fill="#302342" rx="9.7" ry="14.3" transform="rotate(-10 1276.085 547.006)" class="color302342 svgShape"></ellipse><path fill="#ce3a81" d="M1306,652a46,46,0,0,0,19.3,20.6,45.3,45.3,0,0,0,63.2-18.5,48.6,48.6,0,0,0,3.6-35.8,3.9,3.9,0,0,0-3.1-2.7,3.8,3.8,0,0,0-2.1.2l-78.8,30.9a4.1,4.1,0,0,0-2.2,2.3A3.5,3.5,0,0,0,1306,652Z" class="colorce3a81 svgShape"></path><path fill="#ffffff" d="M1305.9,649c10.5,3.8,26.8,3.1,43.8-2.7,20.7-7.1,36-19.5,39.3-30.7a3.8,3.8,0,0,0-2.1.2l-78.8,30.9A4.1,4.1,0,0,0,1305.9,649Z" class="colorfff svgShape"></path><path fill="#f47382" d="M1325.3,672.6a45.3,45.3,0,0,0,63.2-18.5,63.2,63.2,0,0,0-27.2-1C1346,655.7,1333.2,663.1,1325.3,672.6Z" class="colorf47382 svgShape"></path><ellipse cx="1360.6" cy="531" fill="#ffffff" rx="4.5" ry="7.1" transform="matrix(.98 -.17 .17 .98 -71.45 243.91)" class="colorfff svgShape"></ellipse><ellipse cx="1268.6" cy="542.9" fill="#ffffff" rx="4.5" ry="7.1" transform="rotate(-10 1266.147 542.105)" class="colorfff svgShape"></ellipse><path fill="#f47382" d="M1318.1,618.3c-6.4.6-19.1.6-25.3-7.2-8.6-10.6-.6-18.9,7.1-26.9l2.2-2.2c5.7-6,2.5-18.3.8-22.6a4.5,4.5,0,1,1,8.4-3.4c.4.8,8.3,20.9-2.6,32.3l-2.2,2.2c-8.9,9.2-9.7,11.1-6.6,14.9s16.3,4.2,20.2,3.5a4.7,4.7,0,0,1,5.3,3.7,4.6,4.6,0,0,1-3.7,5.3A28.3,28.3,0,0,1,1318.1,618.3Z" class="colorf47382 svgShape"></path><path fill="#302342" d="M1379.9 507.7a4.7 4.7 0 01-3.1-.9c-9.3-6.8-23.5-2.6-23.7-2.6a4.5 4.5 0 01-2.6-8.7c.7-.2 18.6-5.6 31.7 3.9a4.6 4.6 0 011 6.4A4.5 4.5 0 011379.9 507.7zM1254.7 521.8a7.6 7.6 0 01-2.1-.3 4.7 4.7 0 01-2.6-5.9c2.4-6.2 11.6-16.9 29.2-13.4a4.5 4.5 0 013.6 5.3 4.4 4.4 0 01-5.3 3.6c-14.2-2.7-18.5 6.7-19 7.8A4.6 4.6 0 011254.7 521.8z" class="color302342 svgShape"></path><path fill="#ffffff" d="M1564,760.7s-109.2,595.5-188.7,608.2-147.6-311.8-148-412.4,84.9-195.8,84.9-195.8l95.8,17.8Z" class="colorfff svgShape"></path><path fill="#ffebf1" d="M1399.9,787.7s-24.3,212.6-35.9,328.1-22.9,306-22.9,306l14.6,6.2L1414,797V777.8l-6,.7Z" class="colorffebf1 svgShape"></path><polygon fill="#ffffff" points="1308.5 763.4 1338.4 732.5 1407.4 774 1521.5 716.6 1564 760.7 1448 813.9 1408 778.5 1357.6 819 1308.5 763.4" class="colorfff svgShape"></polygon><path fill="#302342" d="M1763.1,1925.2c-129.3,111.2-256.9,200.1-352.1,261.1l-17.5-226.7v-.1l-5.9,241.8c-18.4,11.6-35.4,22-50.6,31.1-33.5,20.2-58.5,34.3-72.1,41.8l-2.5,1.3c-6.7,3.2-13.5,2.8-20.3-1.4l-13.7-7.8-3.9-2.2c-16.5-9.5-39.4-23-67.3-40.2-1.3-126.7-.6-290.9,9.2-392.5,2.1-22.6,4.8-42.1,7.9-57.4.8-3.9,1.6-7.5,2.5-10.8,4.8-18.5,20-35.6,42.5-51.2a289.5,289.5,0,0,1,32.1-19c8.1-4.1,16.7-8.2,25.7-12.1,19.7-8.6,41.4-16.6,64.3-24.1l4.6-1.5c62.4-20.1,132.8-36,194.6-47.8,52.6-10,98.9-17.1,128.8-21.4,22.2-3.1,35.4-4.7,35.4-4.7s39,112.3,53.3,257.1c2.2,23.1,3.9,47,4.6,71.4C1762.8,1915.1,1762.9,1920.2,1763.1,1925.2Z" class="color302342 svgShape"></path><path fill="#54355e" d="M1340.8 1938.4c4.6 5.2 10.9 8.5 17.2 11.2a132.2 132.2 0 0063 10.9 140.8 140.8 0 0024.1-3.9c2.9-.8 1.7-5.3-1.3-4.6a130.1 130.1 0 01-80.6-5.3c-6.9-2.8-14-6-19.1-11.6-2-2.3-5.3 1-3.3 3.3zM1417.7 1876.5a284.2 284.2 0 01-56.9 17.7c-3 .6-1.8 5.1 1.2 4.5a293.4 293.4 0 0058-18.1 2.3 2.3 0 00.9-3.2 2.4 2.4 0 00-3.2-.9z" class="color54355e svgShape"></path><path fill="#54355e" d="M1361.8,1744.2l9.2,115.3,2.5,32.3c.3,3,5,3.1,4.8,0l-9.2-115.2-2.6-32.4c-.2-3-4.9-3-4.7,0Z" class="color54355e svgShape"></path><path fill="#54355e" d="M1769.8,1837c-16.2,4.7-241,9.5-282.1,9.5s-84.6-3.6-95.5-23-45.6-114.3-45.6-114.3-12.1,94-33.5,115.9c-2.5,2.6-5.1,4.2-7.9,4.5-26.3,3.1-142.9,14.5-147.5-4.8-4.3-17.5,24.7-273.5,35.8-347.9,1.1-7.9,2.1-13.8,2.8-17.1,7.4-33.8-22.6-510-22.6-510l-57-70s61.4-52.9,116.6-82.8,78.1-36.1,78.9-36.3h0s-17.8,154.1-4.5,278.6,38.5,277.9,38.9,280.3h0c1.1-1.8,69-116.8,121.8-269.3s94.2-293.8,94.2-293.8,177.3,58.8,200.3,80.2c11.2,10.4,7.1,91.4-.6,177.4-2.9,32.2-6.3,65.2-9.6,95.4h-.3s-50.8,188.3-53.2,223.3c-.6,9-1,23.1-.5,41.3a751.9,751.9,0,0,0,10.1,100.1,768.8,768.8,0,0,0,24,101.7c3.1,9.8,6.4,19.7,10,29.6,15.1,60.6,27.4,130.6,27,172C1769.3,1830.8,1786,1832.4,1769.8,1837Z" class="color54355e svgShape"></path><path fill="#987ba3" d="M1307.7 1039.3c13.1 123.5 38.5 277.9 38.9 280.3-1-3.2-115-348.6-101.5-373a109.3 109.3 0 0134.5-37.2s-41.6-7.8-39.4-17.1 32.1-100.7 72-131.6h0S1294.4 914.8 1307.7 1039.3zM1600.4 890c-.9 15.8-66.2 36-66.2 36s59.8 79.1 58 89.2-243.2 301.6-245.6 304.4c1.1-1.8 69-116.8 121.8-269.3s94.2-293.8 94.2-293.8S1601.3 874.2 1600.4 890z" class="color987ba3 svgShape"></path><path fill="#302342" d="M1732.8 1576c-20 2.8-41.5 5.5-64.1 8-40.5 4.5-84.6 8.4-130.6 10.7-13.6.7-27.4 1.3-41.3 1.7-208.3 6-250.8-39.3-250.8-39.3l67.1 268c-2.5 2.6-5.1 4.2-7.9 4.5-26.3 3.1-142.9 14.5-147.5-4.8-4.3-17.5 24.7-273.5 35.8-347.9 41.2 23.1 93.3 47.1 140.7 54 98.9 14.5 124.5-14.3 234.5-30.8 39.8-6 91-15.7 140.1-25.8A768.8 768.8 0 001732.8 1576zM1762.3 1014.1c-2.9 32.2-6.3 65.2-9.6 95.4h-.3s-50.8 188.3-53.2 223.3c-.6 9-1 23.1-.5 41.3-64.4-114.5-47.6-359-47.6-359S1698.8 1012.7 1762.3 1014.1z" class="color302342 svgShape"></path><path fill="#302342" d="M1346.6,1711.5a2.2,2.2,0,0,1-2.3-2.2c-.8-13.5-19.1-329.7-18.2-345.1s17.8-44.6,18.5-45.8a2.4,2.4,0,0,1,4.1,2.4c-.2.3-17,29-17.8,43.7s17.9,341.2,18.1,344.5a2.4,2.4,0,0,1-2.2,2.5Z" class="color302342 svgShape"></path><path fill="#ffffff" d="M1475.6,1258l-1.4-11.5a9,9,0,0,1,4.4-8.8l87.3-52.6a9.1,9.1,0,0,1,13.7,6.7l7.6,66.2Z" class="colorfff svgShape"></path><path fill="#987ba3" d="M1469.6 1271.4c30.9 1.4 61.8 1.3 92.7-.1q13.2-.6 26.4-1.5a10.6 10.6 0 006.7-2.8 9.6 9.6 0 002.7-6.7c-.2-4.8-4.2-9.8-9.4-9.5-30.9 2.2-61.8 3.1-92.7 2.5l-26.4-.8c-4.9-.3-9.7 4.5-9.4 9.4a9.6 9.6 0 009.4 9.5zM1222.8 1279.9a230.2 230.2 0 0054.4.4c2.6-.3 4.8-.9 6.7-2.8a9.7 9.7 0 002.8-6.7 9.5 9.5 0 00-2.8-6.7c-1.7-1.6-4.2-3-6.7-2.8a225 225 0 01-54.4-.4c-2.2-.2-5.2 1.3-6.7 2.8a9.5 9.5 0 00-2.8 6.7 9.3 9.3 0 002.8 6.7 11.5 11.5 0 006.7 2.8zM1672 1596.4c0 1.8-47.1 44.1-59.2 43.8s-62.2-6.4-67.7-17.3c-2.8-5.6-5.3-17.7-7-28.2 46-2.3 90.1-6.2 130.6-10.7A115.3 115.3 0 011672 1596.4z" class="color987ba3 svgShape"></path><path fill="#54355e" d="M1668.7,1584c-40.5,4.5-84.6,8.4-130.6,10.7-.4-2.6-.8-5-1.2-7.3a8.9,8.9,0,0,1,9.2-10.1c13.4.8,37.3,1,60.6-4.3,35.1-8.1,52-13.5,54.4-10.5S1666.1,1575.1,1668.7,1584Z" class="color54355e svgShape"></path><path fill="#d13b62" d="M1387.4 800.3s-73.6-60.8-79.9-36.5-13.4 93.7 0 103 79.9-29.5 79.9-29.5zM1429.5 835.9s73.6 60.7 79.9 36.4 13.4-93.7 0-103-79.9 29.5-79.9 29.5z" class="colord13b62 svgShape"></path><rect width="52.5" height="56.72" x="1381.1" y="791.6" fill="#db6a8d" rx="6.6" class="colordb6a8d svgShape"></rect><path fill="#9e1b63" d="M1341.9,794.8c9.6,8.3,21.2,10.2,30.7,18.7,2,1.8,3.9-2.6,1.9-4.4-9.5-8.5-21.2-10.4-30.7-18.7-2-1.7-3.9,2.7-1.9,4.4Z" class="color9e1b63 svgShape"></path><path fill="#9e1b63" d="M1369.9 812.6a73.4 73.4 0 01-12.3 1.3c-1 0-1.9 1.2-1.9 2.5s.9 2.6 1.9 2.6a75.3 75.3 0 0013.3-1.5c1-.2 1.5-1.9 1.3-3.2a1.9 1.9 0 00-2.3-1.7zM1374.3 825.5c-9.7 3.4-19.6 6.3-29.4 8.9-2.4.6-1.4 5.5.9 4.9 9.9-2.5 19.8-5.5 29.5-8.8 2.3-.8 1.4-5.8-1-5zM1443.6 808.8l19.7-6.1c2.4-.7 1.4-5.6-.9-4.9l-19.8 6.1c-2.3.7-1.3 5.6 1 4.9zM1449.3 823.9a151.8 151.8 0 0022.3 7.1c1 .2 2-.3 2.3-1.8s-.3-2.9-1.3-3.1a164.9 164.9 0 01-22.3-7.1c-2.3-.9-3.3 4-1 4.9z" class="color9e1b63 svgShape"></path><path fill="#ffebf1" d="M1313.9 908.1l8.1 90.5 2.3 25.6a2.4 2.4 0 104.7 0l-8.1-90.4-2.2-25.7a2.5 2.5 0 00-2.4-2.3 2.4 2.4 0 00-2.4 2.3zM1329.2 1064.6l4.4 33.9a2.5 2.5 0 002.4 2.4 2.3 2.3 0 002.3-2.4l-4.4-33.9a2.5 2.5 0 00-2.4-2.4 2.3 2.3 0 00-2.3 2.4zM1463.9 1014.8a183.7 183.7 0 01-9 29.9 2.3 2.3 0 001.7 2.9 2.4 2.4 0 002.9-1.7 194.2 194.2 0 009-29.9c.6-2.9-4-4.2-4.6-1.2z" class="colorffebf1 svgShape"></path><path fill="#ffffff" d="M1154.2,1441c-9.6-7.7-50-34.6-148.1,27s-187.5,19.2-200.1,0-47.1-49.1-111.5-28.9q-6.9,2.1-12.9,3.3c-52.7,10.7-60.5-29.9-76.6-63.9-4.4-9.3-10.1-14.1-16.4-16.4-18.1-6.5-40.4,8.1-46.1-7.7-7.7-21.1,38.5-94.2,96.2-317.5C665.5,933,699.3,853,727.7,797h0c32.7-64.5,58.4-97,58.4-97l281.7-1.7s37.1,80.3,83.8,215S1163.9,1448.7,1154.2,1441Z" class="colorfff svgShape"></path><path fill="#fde0e5" d="M588.9,1361.4c3.8-11.5,47.9-144,91.2-268.3C638.5,1217.6,592.8,1350,588.9,1361.4Z" class="colorfde0e5 svgShape"></path><path fill="#ffebf1" d="M1154.2,1441c-9.6-7.7-50-34.6-148.1,27s-187.5,19.2-200.1,0-47.1-49.1-111.5-28.9q-6.9,2.1-12.9,3.3c7.7-51.4,18-126.8,21.9-181.6,6.4-91,43.6-271.9,62.8-320.6s12.8-61.5,0-68.2c-6-3.2-45.8,105.4-86.2,221.1,35.3-105.6,67.8-205.5,69.5-221.1,3.9-34.9-2.5-20.3-21.9-75h0c32.7-64.5,58.4-97,58.4-97l281.7-1.7s37.1,80.3,83.8,215S1163.9,1448.7,1154.2,1441Z" class="colorffebf1 svgShape"></path><path fill="#ffffff" d="M1081.1,836.7s96.2,22.2,121.2,56.4,25,122.1,25,122.1Z" class="colorfff svgShape"></path><path d="M1227.8,1016.6l-148-180.7,1.4.4c1,.2,96.7,22.5,121.5,56.5s25.1,121.6,25.1,122.4Zm-145.4-179,144.4,176.2c-.1-11.4-2-89-24.9-120.4S1094.5,840.5,1082.4,837.6Z" fill="#000000" class="color000 svgShape"></path><circle cx="831.6" cy="764.7" r="90.6" fill="#302342" class="color302342 svgShape"></circle><path fill="#302342" d="M1126.2,519.2a106.9,106.9,0,0,0-8.9-30.3c-13.2-28.1-36.4-42.2-56-49.3a120.7,120.7,0,0,0-33.8-7.3s-10.3-7.4-28.1-13.3l-1.4-.5a139.1,139.1,0,0,0-66.7-4.2,162.4,162.4,0,0,0-21,5.4,190.1,190.1,0,0,0-24.1,10l-6.7,3.6c-3.3,1.9-6.8,3.9-10.2,6.1l-.5.3c-6,3.9-12.1,8.2-18.3,13.1l-2.7,2.2c-1.7,1.4-3.4,2.8-5,4.3a130.5,130.5,0,0,0-12.2,12.5A148.9,148.9,0,0,0,810.4,502a168.1,168.1,0,0,0-8.7,20.5h0s-19.7,30.9-27,80.8h0c-.1,1.1-.3,2.2-.4,3.3h0a243.3,243.3,0,0,0-2.2,32.9c0,4.8.1,9.8.4,14.9h0a153.1,153.1,0,0,0,8.9,34.6c1.4,3.7,3,7.4,4.7,10.9a151.9,151.9,0,0,0,9.2,16.8c17.1,27,42.5,48.7,73.6,59h.2c2.7.9,5.5,1.8,8.3,2.5h.4a131.2,131.2,0,0,0,27,3.9,120,120,0,0,0,15.8-.3h.9l2.2-.2h0a126.1,126.1,0,0,0,16.1-2.8h0c3.8-1,7.6-2.1,11.3-3.4h.2c17.5-6,34.4-15.6,50.1-27h0c3.1-2.3,6-4.5,9-6.9l4.6-3.7c5.5-4.5,10.8-9.2,16-14l2.8-2.7,4-3.8q5.4-5.4,10.5-10.8h0c1.4-1.4,2.8-2.9,4.1-4.4s2.5-2.7,3.7-4a518,518,0,0,0,43.7-55.8l2.9-4.3,5-7.7-.3-.8a10,10,0,0,1,.8-1.4C1119.7,609.8,1134.4,573.8,1126.2,519.2Z" class="color302342 svgShape"></path><path fill="#ffb6b1" d="M1217.8,953.9s-111.2,120.6-280.6,131.7-179.9-142-145.7-175.2,131.9-66.3,134.9-67.3h.1s1.7-34.6-4.1-57.8c-2.4-9.7-8-19.4-13.7-27.3-2.4-4.6-5.8-8.3-11.1-13.8a1.2,1.2,0,0,0-.5-.5l-3.3-3.5-.7-.7c0-.1-.1-.1-.1-.2h-.1A63.6,63.6,0,0,1,877,706.8s-20.5,15.8-38.4,6.8-27.6-30.4-21.7-52.2,40-18.6,43.6-15.1,7.5,14.6,9.7,15.8,5.7,4.8,4.8-.1.5-32.5.5-32.5,50.6-29.7,85.6-66.4,49.8-74.2,55.7-73.9,11.7,5.1,12.8,7,39.9,56.7,62,65.6c0,0,16.9,117.6,5.7,164.8s-42.1,54.7-48.2,56.7l-6.1,1.9s1.9,20.9,7.1,28.5,66.2,46.3,81.5,56.1h0l3.4,2.2c1.9.9,3.7,1.9,5.5,2.9a184.3,184.3,0,0,1,24.2,19.6C1192.1,920.2,1217.8,953.9,1217.8,953.9Z" class="colorffb6b1 svgShape"></path><path fill="#f47382" d="M1043 785.2s-27.9 6.2-57.1 1.6-58.6-24.2-57.9-22 40.8 52 84.7 63S1043 785.2 1043 785.2zM857.2 669.1s-7.1-17.1-19.2-8.7-4.9 27.2 4.1 35.1 16 4.1 13.8-.7-6.6-4.6-6.1-8.5 2.4-2.7 4.6-2.2S862.2 676.6 857.2 669.1z" class="colorf47382 svgShape"></path><path fill="#ce3a81" d="M1055.1,709.4a44,44,0,0,1-11.5,21.6,37.2,37.2,0,0,1-28.3,11.4A36.6,36.6,0,0,1,988,727.9a43.3,43.3,0,0,1-9.1-22.1,7.4,7.4,0,0,1,1.5-5.3,5.9,5.9,0,0,1,4.8-2.2l64.3,3.1a5.7,5.7,0,0,1,4.5,2.6A7.1,7.1,0,0,1,1055.1,709.4Z" class="colorce3a81 svgShape"></path><path fill="#ffffff" d="M1054,704c-8.1,5-21.8,7.9-37.2,7.2s-28.7-4.9-36.4-10.7a5.9,5.9,0,0,1,4.8-2.2l64.3,3.1A5.7,5.7,0,0,1,1054,704Z" class="colorfff svgShape"></path><path fill="#f47382" d="M1043.6,731a37.2,37.2,0,0,1-28.3,11.4A36.6,36.6,0,0,1,988,727.9a48.9,48.9,0,0,1,27.9-6.8A48.3,48.3,0,0,1,1043.6,731Z" class="colorf47382 svgShape"></path><ellipse cx="982.3" cy="631.3" fill="#302342" rx="15.6" ry="11.2" transform="rotate(-87.3 981.944 631.389)" class="color302342 svgShape"></ellipse><ellipse cx="977" cy="623.1" fill="#ffffff" rx="4.8" ry="3.4" transform="rotate(-87.3 976.678 623.162)" class="colorfff svgShape"></ellipse><ellipse cx="1065.7" cy="631.2" fill="#302342" rx="14.2" ry="9.4" transform="rotate(-87.3 1065.402 631.215)" class="color302342 svgShape"></ellipse><ellipse cx="1061.3" cy="623.7" fill="#ffffff" rx="4.4" ry="2.9" transform="rotate(-87.3 1061.024 623.736)" class="colorfff svgShape"></ellipse><path fill="#302342" d="M998.6 595c-7.3-9.7-21.3-8.8-29.9-1.5-2.9 2.5 1.3 6.7 4.2 4.2 5.4-4.5 15.7-6.1 20.5.3 2.3 3 7.6.1 5.2-3zM1079 599.8c-2.4-3.6-5.3-6.3-9.5-7.2s-8.3-.9-11.8 1.5-.2 7.3 3 5.1 10.4-.5 13.1 3.6 7.3.2 5.2-3z" class="color302342 svgShape"></path><path fill="#f47382" d="M991.2 870a20 20 0 00-10.9-7.6c-4.7-1.4-9.6-1.3-14.4-1.4a123.1 123.1 0 01-27.7-3.7 4 4 0 00-4.9 2.8 4.1 4.1 0 002.8 4.9 134.1 134.1 0 0027.4 3.9c4.3.2 9-.1 12.9.8l2.7.7c.1 0 1.3.5.7.2l1.2.6 1.2.8.6.4c-.3-.2-.3-.2-.1 0l1 .9.5.6h.1c1.2 1.7 3.6 2.7 5.5 1.4s2.7-3.6 1.4-5.4zM1048.1 831.8c-.1.5-.3 1-.4 1.4l-.3.7c0 .1-.1.2-.1.3s-.1.1.1-.3-.4.9-.5 1.1-.5.9-.7 1.3l-1.5 2.3-.5.6c-.2.4.5-.6 0 0l-.9 1.1a70.5 70.5 0 01-8.3 8.1 4.1 4.1 0 000 5.7 4.3 4.3 0 005.7 0c6.3-5.6 12.8-11.8 15.1-20.2a4 4 0 00-2.8-4.9 4.1 4.1 0 00-4.9 2.8zM1031.1 642.5a24.4 24.4 0 002.8 12.7c2.1 4 5.3 6.9 8.8 9.5l1 .7.6.5a4.7 4.7 0 011 1 1.2 1.2 0 01.5.5h0l.3.5h0c0 .2.1 1.1.1.2v.7c0-.4 0-.4-.1 0s-.2.5 0 .1l-.4.7c-.2.3-.3.4 0 .1l-.5.6-1.2 1-.5.3a11.9 11.9 0 01-1.5.9 59.8 59.8 0 00-6.1 3.4c-1.7 1.3-2.6 3.6-1.4 5.5s3.7 2.8 5.5 1.5 6.8-3.6 9.8-6 5.1-6.8 4.1-10.9-4-5.9-6.8-8l-.9-.7-.6-.4-.7-.6-1-.9-.9-1-.4-.5-.2-.2v-.2l-.4-.5-.7-1.1-.6-1.2c-.1-.2-.6-1.3-.3-.7a10.4 10.4 0 01-.8-2.5 8.3 8.3 0 01-.4-1.5v-.2c.1.4 0-.4 0-.4a14.1 14.1 0 010-2.9 4.1 4.1 0 00-4-4 4.1 4.1 0 00-4 4z" class="colorf47382 svgShape"></path><path fill="#ffffff" d="M774.3,606.6a21.1,21.1,0,0,0,.4-3.3C774.6,604.4,774.4,605.5,774.3,606.6Z" class="colorfff svgShape"></path><path d="M774.8,606.7l-1-.2c.1-1.1.3-2.2.4-3.3h1A23.8,23.8,0,0,1,774.8,606.7Z" fill="#000000" class="color000 svgShape"></path><path fill="#ffffff" d="M1336.9,2232.4c-33.5,20.2-58.5,34.3-72.1,41.8l-2.5,1.3c-6.7,3.2-13.5,2.8-20.3-1.4l-13.7-7.8-3.9-2.2c-16.5-9.5-39.4-23-67.3-40.2l-3-1.8-3.9-2.4c-52.7-32.6-121.9-77.6-199.1-133.5l-3.7-2.6c-64.5-46.9-134.6-101.2-205.2-162.2l-3.3-2.8c-13.3-11.6-26.6-23.3-39.9-35.3l-3-2.7q-36-32.4-71.6-67.1c84.8-158.6,159-277.6,201.8-326.3.8-.9,1.6-1.7,2.3-2.6,6.8-7.7,13.4-15.6,19.7-23.4s10.7-13.3,15.8-19.9,9.6-12.7,14.1-18.9c24.6-33.7,43.5-64.6,53-85.3A61.3,61.3,0,0,0,936,1320a101,101,0,0,0,.8-17.4c-1.1-25.9-10.8-50.6-11.5-55.9-.4-3.7-17.1-34.8-34.1-65.6-.8-1.4-1.6-2.8-2.3-4.2a4.1,4.1,0,0,1-.5-.9h0l-.6-1-.6-1h0l-1.3-2.4-1.2-2-6.5-11.9-20.8-37.2c-1.5-2.5-2.3-4-2.3-4l1.5-2.1c3.4-4.8,12-16.9,23.4-31.9,5.8-7.6,12.3-16,19.2-24.6l2.4-3,1.3-1.5c.7-1,1.5-1.9,2.2-2.8h0l.2-.2,3.1-3.8.3-.3h0l.7-.9c10.1-12.1,20.6-23.9,30.5-33.9A184.2,184.2,0,0,1,960,993.8c39.4-28.9,84-48.1,110.7-47.2,21.3.8,73.8,18,94.3,25l2.8,1a8.5,8.5,0,0,0,7.3-.9,6.1,6.1,0,0,0,1.9-1.7c1.9-2.1,4.3-4.8,7.2-7.5,7.1-6.6,16.8-13.4,26.3-12a16.3,16.3,0,0,1,7.3,3.3h0a40,40,0,0,1,5.3,4.9c1.5,1.5,2.9,3.3,4.4,5.1,12.2,16,22.8,41.4,25.7,49.1.8,2.1,2.1,4.9,3.6,8.5h0a207.5,207.5,0,0,1,16.2,60.1h0a209.9,209.9,0,0,1,1.2,21.6c0,18.5-7,37.1-15.5,53.7-1.8,3.3-3.6,6.6-5.4,9.7-12.3,21.4-25.6,38.1-26.6,45a29.9,29.9,0,0,0-.4,3.7c-.7,9.2-.5,26-1.7,46-.3,6-.8,12.3-1.4,18.7-1,9.4-2.3,19.1-4.2,28.8-8.1,41.9-10.7,45.3-10.7,59,0,2.4.3,8.5.7,16.8.2,4.5.4,9.6.7,15.1s.7,13.5,1.1,20.8c.9,16.3,1.8,34,2.7,49.6h0c.4,6.6.7,12.7,1.1,18.3h0v.4c.2,4.1.4,7.9.6,11.1,0,.8.1,1.6.1,2.4h0c.5,7.3.7,11.7.7,11.7l1.2,6c3.9,20,17.4,88.3,34.1,173.1,8.6,43.5,18.1,91.3,27.5,139.2,7.6,38.1,15.1,76.2,22.3,112.2C1318.9,2033.8,1330,2142.9,1336.9,2232.4Z" class="colorfff svgShape"></path><path fill="#ffebf1" d="M1336.9,2232.4c-33.5,20.2-58.5,34.3-72.1,41.8l-2.5,1.3c.2-10.7.3-22,.3-33.6,0-116.3-12.6-271.5-28-406.7-4.9-43.8-10.2-85.6-15.4-123.2-13.7-99.5-27-170.4-33.5-175.4h-.2c-12.3-8.6-150.7-1-261.5-38-27.8-9.3-53.9-21.4-75.8-37.3,5.5-6.7,10.7-13.3,15.8-19.9s9.6-12.7,14.1-18.9c24.6-33.7,43.5-64.6,53-85.3A61.3,61.3,0,0,0,936,1320a101,101,0,0,0,.8-17.4c-1.1-25.9-10.8-50.6-11.5-55.9-.4-3.7-17.1-34.8-34.1-65.6-.8-1.4-1.6-2.8-2.3-4.2a4.1,4.1,0,0,1-.5-.9l-1.2-2.1-1.3-2.4-1.2-2-6.5-11.9-20.8-37.2c-1.5-2.5-2.3-4-2.3-4l1.5-2.1c3.4-4.8,12-16.9,23.4-31.9,5.8-7.6,12.3-16,19.2-24.6l2.4-3,1.3-1.5c.7-1,1.5-1.9,2.2-2.8l.2-.2,3.4-4.1.7-.9a287.7,287.7,0,0,0,11.6,40.8c4.8,13,10.7,24.3,17.9,32.2a40.3,40.3,0,0,0,5.7,5.3c29.3,22.6,66.4,39.8,125,47.1h.1c16.2,2,34,3.3,53.8,3.8h.2c18.2.4,35.6.1,51.7-.6l11.4-.6c26.9-1.6,49.7-4.3,66.5-6.8-12.3,21.4-25.6,38.1-26.6,45a29.9,29.9,0,0,0-.4,3.7c-4.5-6.5-9.7-11.6-15.9-13.7-3.8-1.3-11.6-2.3-22.2-2.9-4.1-.3-8.5-.4-13.3-.6-65.8-2-194.7,6.1-200.8,29.5-7.7,29.5,47.4,102.6,138.5,132.1,19.7,6.4,37.1,11.4,52.4,15.3q17.7,4.5,31.5,7.2c4.4,1,8.6,1.7,12.5,2.4.2,4.5.4,9.6.7,15.1s.7,13.5,1.1,20.8c.9,16.3,1.8,34,2.7,49.6.4,6.6.7,12.7,1.1,18.3v.4c.2,4.1.4,7.9.6,11.1,0,.8.1,1.6.1,2.4.5,7.3.7,11.7.7,11.7l1.2,6c3.9,20,17.4,88.3,34.1,173.1,8.6,43.5,18.1,91.3,27.5,139.2,7.6,38.1,15.1,76.2,22.3,112.2C1318.9,2033.8,1330,2142.9,1336.9,2232.4Z" class="colorffebf1 svgShape"></path><path fill="#fde0e5" d="M985.6 1131.3a194.9 194.9 0 0059.6 32.7 200.3 200.3 0 0066.8 10.9 195.9 195.9 0 0038.2-4.1c2.4-.5 1.4-4.1-1-3.6a191.8 191.8 0 01-66.3 2 195.3 195.3 0 01-94.7-40.5c-1.8-1.5-4.5 1.1-2.6 2.6zM1181.5 1169.4c7.9 4.7 18.2 2.4 26.7 1.2q15.5-2.2 30.6-5.7c2.4-.5 1.4-4.2-1-3.6q-14.2 3.3-28.8 5.4a129.6 129.6 0 01-13.8 1.6c-4.1.3-8.2 0-11.7-2.1s-4 2-2 3.2zM851.9 1582.7c-13.4 32.5-26.3 65.1-39 97.8s-24.8 65.7-36.8 98.7q-9.9 27.9-19.7 55.8c-.8 2.3 2.9 3.3 3.7 1q17.3-49.8 35.6-99.1c12.2-33 24.8-65.7 37.7-98.4q10.8-27.4 22.1-54.8c.9-2.3-2.7-3.2-3.6-1zM746.6 1897.5c-1.5 8-3 15.9-4.4 23.9l-3.3-2.8c1.3-7.4 2.7-14.7 4.1-22.1C743.4 1894.1 747 1895.1 746.6 1897.5zM716.4 1839.3l-3.2 7.8c-4.9 12-9.7 24.1-14.2 36.2l-3-2.7c5.3-14.2 11-28.3 16.7-42.3C713.7 1836.1 717.3 1837 716.4 1839.3zM955.6 1903.1q-.7 91.7-4.5 183.1l-3.7-2.6c1.3-31.8 2.4-63.6 3.1-95.4q2.3-96.3 1-192.6c-.1-2.4 3.7-2.4 3.7 0Q956 1849.5 955.6 1903.1zM961.9 1711v37.2c0 2.4 3.8 2.4 3.8 0V1711c0-2.4-3.8-2.4-3.8 0zM1228.3 2266.3l-3.9-2.2q-5.4-64-11.4-128.1-11.7-123.3-25.4-246.6l-6.3-55q-3.5-30.3-7.1-60.4l-8.1-66.2h0l-8.4-65.8c-.3-2.5 3.4-2.4 3.7 0 2.2 16.4 4.3 32.9 6.4 49.4h0q4.5 35.8 8.9 71.8l2.1 17.4c2.1 18 4.3 36.1 6.3 54.2q11.3 96 21 192.3Q1218.3 2146.7 1228.3 2266.3zM1154.1 2222.1l-3.9-2.4a9.2 9.2 0 01-.1-1.6q-4.9-59.7-5.9-119.8t1.7-120.5c.1-2.5 3.9-2.5 3.8 0-1.1 22.5-1.7 45.1-2 67.7q-.6 60 2.6 119.9Q1151.8 2193.8 1154.1 2222.1z" class="colorfde0e5 svgShape"></path><path fill="#f47382" d="M939.9,1011.5c-9.9,9.9-20.4,21.7-30.5,33.8-1.4,1.7-2.8,3.3-4.1,5l6.8-52.9c1.6-18,.9-33.9-2.1-47.6Z" class="colorf47382 svgShape"></path><path fill="#ffb6b1" d="M910.8,945.8c-7.5-38.8-47.5-62.6-85-50.1-28.2,9.4-62,33.8-68.7,96.3-12.1,111-13.3,322.1-12.7,339.4s3.1,37.6,14.8,49.3,33.4,12.4,40.8,16.1,92.5,33.3,159.2,45,180.2,27.8,209.8,34.3,30,2.5,39.1,13.6,12.3,24.7,52.6,51,72.4,31.3,78.6,32.1,10.3-2.4,7.4-7.4-13.2-7.4-22.6-12.7-28.8-19.8-28.8-19.8,16.8,11.1,33.7,16.5,36.6,9.4,43.2,5.7,1.6-9.8-4.5-11.9-37.9-16.4-37.9-16.4,39.9,8.2,51.9,7,12.7-5,7.4-9.5-19.4-9.1-39.5-18.1-32.1-21.4-32.1-21.4,15.2,8.2,32.1,10.7,32.9-1.2,35.3-4.5,4.2-7-1.2-9.1-29.6-4.1-42.4-10.7-41.9-32.9-45.2-37.8-4.5-5,12.3-4.5,26.4,0,34.2-5.8,11.5-9.1,5.7-11.1-48.5-9.5-61.7-12.8-16-3.3-30-2.8-50.6,4.9-62.1,2.8-47.7-8.6-95.9-32.1-158.6-67.2-191.3-72.2l-32.7-4.9s22.9-197.5,35.2-269C914.7,992.4,914.8,966.8,910.8,945.8Z" class="colorffb6b1 svgShape"></path><path fill="#f47382" d="M915.6,992.7l-6.6,50.9-12.8,98.6-3,23.2-16.2,125-.2,1.7-1.8.3c-.6.1-61.9,9.3-74.2,30.9a2.2,2.2,0,0,1-2.1,1.2,2.7,2.7,0,0,1-1.2-.3,2.5,2.5,0,0,1-.9-3.3c12.3-21.6,65.2-31.2,75.9-33l16.8-129.6,1.7-13.4,12.2-94.1,7.6-58.6c1.3-15.1.9-28.6-1.2-40.3-3-17.1-9.5-30.6-19.6-40.2-20.9-20.1-50.1-16.6-50.4-16.6a2.4,2.4,0,0,1-2.7-2.1h0a2.5,2.5,0,0,1,2.1-2.7c1.3-.1,31.7-3.8,54.3,17.8,10,9.6,16.8,22.6,20.3,38.8C916.4,960,917.1,975.3,915.6,992.7Z" class="colorf47382 svgShape"></path><path fill="#302342" d="M947.8,561.2s-37.4,43.4-37.9,96.9,37.9,73.7,37.9,73.7-22.9-.6-38.3-20.3S893.3,679,893.3,679,904,748.8,924,782.5s33.4,43.6,33.4,43.6-76.3-48-89.8-105-6-104.1-6-104.1Z" class="color302342 svgShape"></path><path fill="#ffffff" d="M1027.5,432.3s-130.9-15.6-195.9,96.9-21.2,190.4,0,215.2,37.5,31.5,37.5,31.5l8.7,2.6s-52.9-45.4-60.6-84.8,3-126,45.3-173.5S964.1,455.4,996,446.5s65.3-7,65.3-7Z" class="colorfff svgShape"></path><path fill="#ffb6b1" d="M1384,1427.6s-58.9-6.2-73.5-5.8-40.1,7-49.6,7-14.9,4-6.8,9.8,47.6,5.1,47.6,5.1-41.3,7.5-60.3,14.7-44.9,18-43,23.2,6.6,7.2,12.3,7.5,28.1-7.5,33.9-8.9,53.4-4.9,53.4-4.9-34.2,9.5-52.3,16.4-49.5,15.7-49.4,19.2,8.1,11.2,11.8,10.6,56.9-10.6,67.5-12.3,28.1-2.9,28.1-2.9-39.6,10.7-57.7,16.9-26.7,14.7-21.8,18.4,12.1,5.8,26.1,2.6,45.4-6.9,64.6-9.7-9.5,6-19.8,10-23.8,6.6-20.7,10.1,15.5,2.8,24.2,1.4,35.6-6.6,43-7.5,12.1.9,33.6-1.7,45.1-32.4,57.7-35,19-4.3,19-4.3-12.1-63.5-11.5-66.6S1384,1427.6,1384,1427.6Z" class="colorffb6b1 svgShape"></path><path fill="#ffebf1" d="M1476.3,1428.2s-47.9-2-48.7,7.3,1.6,79.7,16.1,91,53.1-2.4,53.1-2.4Z" class="colorffebf1 svgShape"></path><path fill="#54355e" d="M1701.5,830.5s-97.9,44.7-53.2,167.9c40.2,110.8,111.6,297.8,125.7,334.4a5.7,5.7,0,0,1-4.3,7.6c-22.2,4-95.7,18-150.4,36.2-65.3,21.8-68.9,23.6-104.5,32.7s-52.6,6-57.4,14.5,9,107.9,22.9,113.1,238.4-17.4,328.1-45.5,125.1-45.3,135.1-61.6,12.6-33.5,5.4-51.6-35.4-177.3-80.7-321.1S1788.5,802.2,1701.5,830.5Z" class="color54355e svgShape"></path><path fill="#302342" d="M1867,1385.7a2.4,2.4,0,0,1-2-1.1c-26.2-41.4-90.3-46.1-91-46.2h-1.4l-.6-1.3c-.9-2.3-92.5-229.7-127.6-342.6-18.6-59.7-5-100.2,9.6-123.6,15.9-25.4,36-36.5,36.8-36.9a2.4,2.4,0,1,1,2.3,4.1c-.2.1-20,11.1-35.2,35.5-14.1,22.6-27,61.6-9,119.5,33.6,108.1,119.3,321.7,126.9,340.8,10.3,1,67.7,7.9,93.2,48.2a2.4,2.4,0,0,1-.7,3.3A2.8,2.8,0,0,1,1867,1385.7Z" class="color302342 svgShape"></path><polygon fill="#302342" points="1680.2 1331.9 1446.8 1423.8 1698.5 1356.8 1680.2 1331.9" class="color302342 svgShape"></polygon></svg></g></svg>