<svg id="SvgjsSvg2144" width="550" height="550" xmlns="http://www.w3.org/2000/svg" version="1.1" xmlns:xlink="http://www.w3.org/1999/xlink" xmlns:svgjs="http://svgjs.com/svgjs"><defs id="SvgjsDefs2145"></defs><g id="SvgjsG2146"><svg xmlns="http://www.w3.org/2000/svg" xmlns:xlink="http://www.w3.org/1999/xlink" enable-background="new 0 0 1920 1080" viewBox="0 0 1920 1080" width="550" height="550"><ellipse cx="955.28" cy="842.55" fill="#eae7e5" rx="427.31" ry="23.2" class="coloreae7e5 svgShape"></ellipse><path fill="#eae7e5" d="M1312.13,794.81H653.89c0,0-113.93-6.06-116.51-131.69c0,0-18.61-285.27,156.76-281.78
			c0,0,131.67,22.21,172.86-67.82c0,0,40.92-94.7,177.18-61.47c0,0,166.02,28.07,175.82,161.54c0,0,3.24,82.56,73.45,89.07
			c0,0,135.26,0.9,96.42,188.83C1389.87,691.49,1370.27,794.81,1312.13,794.81z" class="coloreae7e5 svgShape"></path><path fill="#fdfeff" d="M1256.46,833.27c8.58-2.08,19.85-3.47,26.64-9.11c7.7-6.4,11.78-16.46,19.79-22.46
				c6.61-4.95,15.39-6.73,21.2-12.58c12.48-12.57,4.49-35.56,14.6-50.11c2.55-3.66,6.08-6.51,9.14-9.75
				c7.16-7.59,11.85-18.26,9.75-28.48c-2.09-10.22-12.49-18.83-22.69-16.64c-5.03,1.08-9.27,4.42-12.89,8.08
				c-4.68,4.72-8.67,10.13-11.8,15.99c-4.47,8.38-8.26,18.69-17.29,21.63c-3.67,1.19-7.64,0.9-11.44,1.53
				c-8.59,1.42-16.13,7.96-18.75,16.26c-3.6,11.42,1.62,24.68-3.67,35.43c-4.6,9.34-15.58,13.6-22.22,21.62
				c-7.43,8.99-7.46,21.22-1.3,31.12L1256.46,833.27z" class="colorfdfeff svgShape"></path><path fill="#85c1e7" d="M1256.86,834.72c6.68-1.61,13.58-2.59,19.97-5.23c3.07-1.27,5.88-2.9,8.35-5.15
					c2.62-2.38,4.82-5.17,6.93-7.99c4.16-5.56,8.05-11.41,14.11-15.08c6-3.63,12.99-5.6,18.24-10.43
					c9.49-8.73,8.71-22.85,10.15-34.6c0.75-6.11,2.18-12.4,6.02-17.37c2.43-3.14,5.54-5.68,8.25-8.56c2.49-2.64,4.68-5.6,6.41-8.79
					c3.46-6.37,5.18-13.76,3.77-20.96c-1.24-6.32-5.44-12.03-10.93-15.36c-5.89-3.57-12.81-3.79-18.9-0.55
					c-6.63,3.52-11.94,9.88-16.16,15.94c-3.97,5.71-6.53,12.14-10.1,18.07c-1.56,2.59-3.36,5.07-5.69,7.03
					c-2.69,2.25-5.91,3.23-9.37,3.54c-3.82,0.35-7.6,0.47-11.22,1.85c-3.07,1.17-5.89,2.9-8.32,5.11
					c-5.31,4.81-7.91,11.32-8.42,18.37c-0.55,7.58,1.04,15.35-0.58,22.84c-1.48,6.84-6.14,11.48-11.46,15.65
					c-5.26,4.12-10.92,7.96-14.48,13.76c-3.68,5.99-4.68,13.25-3.17,20.08c0.75,3.41,2.15,6.66,3.97,9.64
					c0.25,0.41,0.78,0.8,1.3,0.74c6.98-0.84,13.95-1.68,20.93-2.51c1.89-0.23,1.92-3.23,0-3c-6.98,0.84-13.95,1.68-20.93,2.51
					c0.43,0.25,0.86,0.5,1.3,0.74c-3.54-5.78-5.2-12.73-3.72-19.43c1.48-6.71,5.82-11.64,11.04-15.84
					c4.89-3.94,10.25-7.41,14.06-12.5c4.34-5.8,5.01-12.96,4.85-19.98c-0.15-7.09-1.1-14.78,1.93-21.44
					c2.61-5.75,7.69-10.35,13.71-12.28c3.66-1.17,7.48-1.03,11.24-1.56c3.25-0.46,6.22-1.64,8.82-3.66
					c4.81-3.74,7.66-9.4,10.34-14.72c3.26-6.47,6.85-12.59,11.73-18c4.52-5.02,10.32-10.45,17.54-10.34
					c6.16,0.09,11.8,4.1,15.02,9.17c3.66,5.77,3.91,12.81,1.98,19.24c-2.13,7.06-6.6,12.64-11.81,17.7
					c-2.61,2.53-5.19,5.12-7.07,8.26c-1.49,2.5-2.56,5.27-3.32,8.08c-1.59,5.9-1.91,12.05-2.48,18.11
					c-0.54,5.74-1.22,11.75-3.89,16.95c-1.38,2.69-3.26,5.04-5.62,6.92c-2.66,2.12-5.79,3.62-8.85,5.07
					c-3.04,1.45-6.12,2.85-8.93,4.72c-2.83,1.89-5.27,4.25-7.45,6.85c-4.33,5.17-7.75,11.13-12.75,15.72
					c-4.9,4.5-11.53,6.25-17.86,7.69c-3.09,0.7-6.2,1.31-9.27,2.05C1254.18,832.28,1254.98,835.17,1256.86,834.72z" class="color85c1e7 svgShape"></path><line x1="1336.09" x2="1245.22" y1="708.75" y2="835.42" fill="none" stroke="#85c1e7" stroke-miterlimit="10" stroke-width="4" class="colorStroke85c1e7 svgStroke"></line><line x1="1322.63" x2="1323.46" y1="709.46" y2="725.24" fill="none" stroke="#85c1e7" stroke-miterlimit="10" stroke-width="4" class="colorStroke85c1e7 svgStroke"></line><line x1="1322.67" x2="1299.93" y1="753.98" y2="759.16" fill="none" stroke="#85c1e7" stroke-miterlimit="10" stroke-width="4" class="colorStroke85c1e7 svgStroke"></line><line x1="1271.65" x2="1271.47" y1="773.09" y2="798.82" fill="none" stroke="#85c1e7" stroke-miterlimit="10" stroke-width="4" class="colorStroke85c1e7 svgStroke"></line><line x1="1273.25" x2="1256.19" y1="817.82" y2="820.13" fill="none" stroke="#85c1e7" stroke-miterlimit="10" stroke-width="4" class="colorStroke85c1e7 svgStroke"></line><path fill="#fdfeff" d="M1259.44,835.8c10.63,1.61,22.11,1.63,31.82,1.21c10-0.43,14.26-3.72,24.21-4.81
				c8.2-0.9,16.67,2.02,24.65-0.07c17.14-4.49,21.93-28.35,38.03-35.75c4.05-1.86,8.54-2.52,12.82-3.75
				c10.02-2.9,19.48-9.71,22.87-19.58c3.39-9.87-1.19-22.56-11.09-25.86c-4.88-1.63-10.23-0.9-15.21,0.41
				c-6.43,1.69-12.62,4.32-18.29,7.78c-8.11,4.94-16.61,11.9-25.88,9.85c-3.77-0.83-7.04-3.11-10.63-4.5
				c-8.12-3.14-17.94-1.34-24.41,4.48c-8.9,8.01-11.14,22.08-21.16,28.65c-8.7,5.71-20.33,3.79-30.12,7.33
				c-10.97,3.96-18.79,22.69-18.51,34.35L1259.44,835.8z" class="colorfdfeff svgShape"></path><path fill="#85c1e7" d="M1259.04,837.25c8.6,1.28,17.3,1.62,25.98,1.46c3.98-0.07,7.99-0.14,11.93-0.79
					c3.3-0.54,6.48-1.54,9.7-2.43c3.77-1.04,7.64-1.88,11.57-1.96c4.31-0.09,8.58,0.6,12.88,0.81c3.84,0.19,7.77-0.04,11.41-1.38
					c2.6-0.96,4.96-2.35,7.14-4.06c9.04-7.12,13.62-18.29,21.92-26.14c2.03-1.92,4.29-3.59,6.81-4.82c3.68-1.8,7.79-2.47,11.72-3.5
					c6.75-1.79,13.2-5.06,18.2-10c4.72-4.67,7.98-10.86,8.17-17.58c0.17-6.07-2-12.38-6.3-16.74c-5.42-5.49-13.11-6.08-20.33-4.6
					c-8.28,1.7-16.13,5.24-23.23,9.76c-6.15,3.91-12.95,9.19-20.64,8.79c-4.12-0.21-7.58-2.53-11.25-4.15
					c-3.31-1.46-6.82-2.25-10.44-2.23c-7.04,0.05-13.9,2.96-18.69,8.15c-4.49,4.87-7.17,11.02-10.49,16.67
					c-1.61,2.73-3.38,5.38-5.66,7.61c-2.5,2.45-5.54,4.12-8.88,5.12c-7.28,2.2-15.07,1.78-22.35,3.99
					c-5.71,1.73-9.9,5.8-13.15,10.69c-3.47,5.23-5.89,11.3-7.15,17.44c-0.55,2.68-0.89,5.42-0.84,8.16c0.02,0.82,0.68,1.49,1.5,1.5
					c6.96,0.09,13.93,0.18,20.89,0.26c1.93,0.02,1.93-2.98,0-3c-6.96-0.09-13.93-0.17-20.89-0.26c0.5,0.5,1,1,1.5,1.5
					c-0.1-5.65,1.4-11.36,3.57-16.54c2.19-5.23,5.32-10.57,9.87-14.1c5.23-4.05,12.55-4.23,18.84-5.04
					c6.93-0.89,13.75-2.42,18.97-7.38c9.22-8.77,11.07-23.82,23.29-29.62c6.48-3.07,13.79-2.71,20.16,0.37
					c3.43,1.66,6.75,3.44,10.62,3.79c3.62,0.33,7.2-0.63,10.49-2.05c7.13-3.07,13.15-8.2,20.14-11.56c3.7-1.78,7.56-3.2,11.52-4.27
					c3.94-1.06,8.15-1.85,12.23-1.17c6.09,1.01,10.6,5.54,12.55,11.28c1.98,5.81,1.35,12.02-1.7,17.34
					c-3.34,5.83-8.91,10.06-14.98,12.76c-6.66,2.97-14.26,3.19-20.59,6.98c-9.66,5.78-14.71,16.43-21.77,24.77
					c-3.36,3.97-7.34,7.62-12.39,9.24c-7.89,2.54-16.2-0.31-24.26,0.25c-7,0.49-13.42,3.23-20.27,4.39
					c-3.8,0.65-7.7,0.65-11.54,0.72c-4.2,0.07-8.4,0.03-12.6-0.18c-4.14-0.2-8.27-0.57-12.36-1.18
					C1257.95,834.08,1257.13,836.97,1259.04,837.25z" class="color85c1e7 svgShape"></path><line x1="1391.29" x2="1248.67" y1="768.99" y2="831.94" fill="none" stroke="#85c1e7" stroke-miterlimit="10" stroke-width="4" class="colorStroke85c1e7 svgStroke"></line><line x1="1379.33" x2="1372.04" y1="762.77" y2="776.78" fill="none" stroke="#85c1e7" stroke-miterlimit="10" stroke-width="4" class="colorStroke85c1e7 svgStroke"></line><line x1="1356.75" x2="1334.53" y1="801.14" y2="794.04" fill="none" stroke="#85c1e7" stroke-miterlimit="10" stroke-width="4" class="colorStroke85c1e7 svgStroke"></line><line x1="1303.1" x2="1289.88" y1="791.68" y2="813.75" fill="none" stroke="#85c1e7" stroke-miterlimit="10" stroke-width="4" class="colorStroke85c1e7 svgStroke"></line><line x1="1281.75" x2="1265.88" y1="831.03" y2="824.34" fill="none" stroke="#85c1e7" stroke-miterlimit="10" stroke-width="4" class="colorStroke85c1e7 svgStroke"></line><path fill="#fdfeff" d="M1213.61,834.05c-15.11-20.09-11.91-47.82-4.25-61.53c6.01-10.76,7.96-23.62,8.18-35.94
				c0.18-10.16-4.37-20.21-2.7-30.23c3.57-21.52,32.28-30.09,39.52-50.67c1.82-5.18,2.12-10.75,3.15-16.15
				c2.42-12.62,9.7-24.98,21.42-30.26c11.71-5.27,27.8-1.09,32.96,10.67c2.55,5.8,2.26,12.44,1.22,18.69
				c-1.34,8.08-3.87,15.95-7.47,23.31c-5.14,10.5-12.71,21.71-9.15,32.85c1.45,4.52,4.6,8.28,6.72,12.53
				c4.77,9.6,3.67,21.84-2.74,30.44c-8.81,11.82-25.81,16.16-32.73,29.18c-6.01,11.32-2.35,25.35-5.58,37.75
				c-3.62,13.9-11.96,29.51-23.85,31.15L1213.61,834.05z" class="colorfdfeff svgShape"></path><path fill="#85c1e7" d="M1214.9,833.29c-11-14.74-13.12-35.06-7.52-52.36c1.21-3.73,3.07-7,4.76-10.52
					c2.39-4.99,4.04-10.31,5.1-15.73c1.08-5.54,1.61-11.18,1.77-16.81c0.16-5.8-0.96-11.4-1.97-17.08
					c-0.97-5.41-1.67-10.98-0.26-16.38c0.94-3.6,2.68-6.89,4.86-9.89c4.64-6.39,11.02-11.35,16.92-16.51
					c5.88-5.15,11.81-10.68,15.43-17.72c2.41-4.69,3.34-9.76,4.1-14.93c0.74-5.05,1.69-9.98,3.59-14.74
					c3.46-8.64,9.85-16.8,18.69-20.34c7.59-3.04,16.81-2.15,23.59,2.47c3.49,2.37,6.09,5.82,7.34,9.86
					c1.7,5.49,1.16,11.41,0.15,16.97c-1.06,5.81-2.74,11.52-4.99,16.99c-2.16,5.22-5.02,10.11-7.47,15.19
					c-2.39,4.94-4.52,10.16-4.85,15.69c-0.34,5.63,1.75,10.47,4.64,15.18c2.7,4.4,5.04,8.7,5.69,13.91c0.63,4.97-0.05,10.15-2,14.77
					c-3.64,8.63-11.6,13.78-19.08,18.8c-7.51,5.04-14.97,10.51-18.36,19.24c-3.97,10.23-1.76,21.49-3.67,32.08
					c-0.86,4.75-2.47,9.47-4.44,13.87c-1.92,4.32-4.29,8.56-7.43,12.12c-2.66,3.02-5.95,5.65-9.92,6.65
					c-1.39,0.35-2.84,0.15-4.51,0.03c-5.84-0.42-11.68-0.85-17.52-1.27c-1.3-0.09-2.6-0.19-3.91-0.28c-1.93-0.14-1.92,2.86,0,3
					c4.53,0.33,9.06,0.66,13.59,0.98c2.84,0.21,5.67,0.41,8.51,0.62c2.06,0.15,3.61,0.19,5.66-0.48
					c8.73-2.83,14.38-11.57,17.97-19.51c2.06-4.56,3.81-9.4,4.78-14.32c1.07-5.47,1.08-11.05,1.26-16.6
					c0.18-5.5,0.53-11.13,2.6-16.29c1.7-4.25,4.65-7.77,8.06-10.75c6.91-6.03,15.4-10,22-16.43c7.33-7.15,10.76-17.26,9.25-27.41
					c-0.79-5.3-3.18-9.75-5.95-14.26c-1.47-2.39-2.89-4.82-3.64-7.54c-0.72-2.65-0.8-5.46-0.37-8.16c0.9-5.65,3.51-10.87,6.11-15.9
					c2.7-5.23,5.37-10.42,7.35-15.97c2.02-5.67,3.46-11.57,4.2-17.54c0.7-5.65,0.53-11.54-1.81-16.81
					c-3.53-7.96-11.82-12.52-20.2-13.47c-9.28-1.06-18.14,2.63-24.66,9.18c-7.07,7.1-11.08,16.71-12.66,26.49
					c-0.89,5.51-1.35,11.2-3.75,16.31c-1.65,3.52-3.94,6.69-6.53,9.58c-5.53,6.16-12.2,11.14-18.23,16.77
					c-5.73,5.35-11.1,11.55-13.2,19.26c-3.11,11.4,2.34,22.67,2.06,34.12c-0.28,11.35-2,23.03-7.34,33.19
					c-1.81,3.45-3.42,6.9-4.55,10.65c-1.21,4.03-1.97,8.18-2.38,12.36c-0.92,9.47,0.12,19.27,3.49,28.19
					c1.75,4.63,4.1,9.01,7.06,12.98C1213.45,836.33,1216.06,834.84,1214.9,833.29z" class="color85c1e7 svgShape"></path><line x1="1286.45" x2="1219.96" y1="636.48" y2="834.7" fill="none" stroke="#85c1e7" stroke-miterlimit="10" stroke-width="4" class="colorStroke85c1e7 svgStroke"></line><line x1="1295.43" x2="1279.07" y1="650.43" y2="660.96" fill="none" stroke="#85c1e7" stroke-miterlimit="10" stroke-width="4" class="colorStroke85c1e7 svgStroke"></line><line x1="1250.94" x2="1262.16" y1="682.46" y2="708.89" fill="none" stroke="#85c1e7" stroke-miterlimit="10" stroke-width="4" class="colorStroke85c1e7 svgStroke"></line><line x1="1268.61" x2="1243.04" y1="747.17" y2="765.87" fill="none" stroke="#85c1e7" stroke-miterlimit="10" stroke-width="4" class="colorStroke85c1e7 svgStroke"></line><line x1="1222.78" x2="1232.77" y1="777.79" y2="796.49" fill="none" stroke="#85c1e7" stroke-miterlimit="10" stroke-width="4" class="colorStroke85c1e7 svgStroke"></line><path fill="#fdfeff" d="M614.91,833.46c-9.16-0.6-20.96-0.02-28.93-4.59c-9.03-5.19-15-14.77-24.29-19.5
				c-7.65-3.89-16.97-4.15-23.97-9.12c-15.03-10.66-10.93-35.65-23.89-48.76c-3.26-3.3-7.39-5.59-11.1-8.36
				c-8.69-6.5-15.4-16.61-15.07-27.46c0.32-10.85,9.44-21.52,20.29-21.1c5.35,0.21,10.29,2.88,14.65,5.98
				c5.64,4.01,10.69,8.84,14.95,14.29c6.08,7.79,11.8,17.68,21.57,19.09c3.97,0.57,7.99-0.44,12-0.47
				c9.06-0.08,17.95,5.28,22.12,13.33c5.73,11.07,2.74,25.59,10.07,35.66c6.37,8.75,18.39,11.16,26.62,18.2
				c9.22,7.89,12.38,21.77,7.82,33.01L614.91,833.46z" class="colorfdfeff svgShape"></path><path fill="#85c1e7" d="M614.91,831.96c-7.31-0.47-14.79-0.17-21.94-1.97c-7.1-1.79-12.28-6.61-17.42-11.56
					c-5.26-5.06-10.55-9.74-17.53-12.23c-6.84-2.44-14.69-3.22-20.48-7.96c-4.46-3.65-7.04-8.89-8.86-14.25
					c-1.93-5.71-3.15-11.62-4.97-17.37c-1.77-5.6-4.15-11.13-8.17-15.51c-2.66-2.9-5.99-5.06-9.21-7.27
					c-3.13-2.14-6.05-4.47-8.61-7.29c-4.76-5.24-8.28-11.97-8.56-19.15c-0.25-6.63,2.68-13.1,7.76-17.37
					c2.36-1.98,5.26-3.39,8.32-3.84c3.7-0.54,7.48,0.48,10.79,2.11c7.13,3.51,13.42,9.23,18.54,15.24
					c4.42,5.2,7.92,11.21,12.93,15.9c2.34,2.2,5.01,4.04,8.05,5.13c3.9,1.39,7.92,0.98,11.96,0.59c3.73-0.36,7.3-0.24,10.88,0.94
					c3.28,1.08,6.34,2.9,8.86,5.26c5.39,5.04,7.2,11.95,8.27,19.01c1.05,6.92,1.56,14.17,4.99,20.43c3.3,6.02,9.09,9.71,14.99,12.84
					c5.97,3.17,12.29,6.07,16.66,11.41c4.25,5.19,6.35,12.04,6.15,18.71c-0.1,3.26-0.79,6.45-1.99,9.48
					c0.48-0.37,0.96-0.73,1.45-1.1c-6.66-0.06-13.33-0.11-19.99-0.17C616.81,831.98,615.86,831.97,614.91,831.96
					c-1.93-0.02-1.93,2.98,0,3c6.66,0.06,13.33,0.11,19.99,0.17c0.95,0.01,1.9,0.02,2.86,0.02c0.72,0.01,1.2-0.48,1.45-1.1
					c2.57-6.48,2.76-13.82,0.74-20.48c-2.06-6.77-6.3-12.42-12.12-16.41c-5.8-3.98-12.53-6.39-18.2-10.57
					c-2.76-2.04-5.09-4.58-6.7-7.62c-1.7-3.22-2.56-6.81-3.18-10.38c-1.27-7.25-1.57-14.76-4.7-21.54
					c-3.01-6.52-8.9-11.49-15.67-13.77c-3.69-1.24-7.51-1.5-11.37-1.15c-4.11,0.37-8.18,0.95-12.12-0.62
					c-6.32-2.52-10.54-8.75-14.44-14c-4.79-6.45-10.07-12.27-16.51-17.12c-6.12-4.6-13.58-8.65-21.48-6.91
					c-6.54,1.44-11.97,6.51-14.83,12.44c-3.15,6.51-3.12,13.91-0.58,20.63c2.68,7.07,7.63,13.07,13.62,17.62
					c3.29,2.5,6.93,4.54,10.01,7.32c2.35,2.12,4.21,4.64,5.7,7.43c5.82,10.86,5.93,23.92,12.27,34.56
					c3.5,5.89,8.75,9.66,15.18,11.87c3.7,1.27,7.54,2.11,11.25,3.34c3.58,1.18,6.87,2.86,9.87,5.15
					c5.9,4.49,10.59,10.38,16.68,14.66c6.33,4.44,13.85,5.52,21.4,5.95c3.62,0.21,7.26,0.27,10.88,0.5
					C616.83,835.09,616.83,832.08,614.91,831.96z" class="color85c1e7 svgShape"></path><line x1="511.11" x2="626.81" y1="720.01" y2="833.66" fill="none" stroke="#85c1e7" stroke-miterlimit="10" stroke-width="4" class="colorStroke85c1e7 svgStroke"></line><line x1="525.03" x2="526.99" y1="718.35" y2="734.67" fill="none" stroke="#85c1e7" stroke-miterlimit="10" stroke-width="4" class="colorStroke85c1e7 svgStroke"></line><line x1="532.92" x2="557.15" y1="763.99" y2="765.24" fill="none" stroke="#85c1e7" stroke-miterlimit="10" stroke-width="4" class="colorStroke85c1e7 svgStroke"></line><line x1="588.61" x2="593.38" y1="774.48" y2="800.82" fill="none" stroke="#85c1e7" stroke-miterlimit="10" stroke-width="4" class="colorStroke85c1e7 svgStroke"></line><line x1="594.94" x2="612.84" y1="820.62" y2="819.94" fill="none" stroke="#85c1e7" stroke-miterlimit="10" stroke-width="4" class="colorStroke85c1e7 svgStroke"></line><path fill="#fdfeff" d="M652.89,833.46c17.19-19.71,15.95-48.72,9.03-63.52c-5.43-11.62-6.48-25.1-5.78-37.91
				c0.58-10.55,6.05-20.64,5.08-31.17c-2.09-22.59-31.23-33.65-37.2-55.54c-1.5-5.51-1.39-11.32-2.06-16.99
				c-1.56-13.27-8.19-26.65-19.95-33c-11.76-6.35-28.76-3.22-35,8.59c-3.08,5.83-3.28,12.74-2.67,19.3c0.79,8.48,2.81,16.84,6,24.74
				c4.55,11.28,11.56,23.48,7.02,34.77c-1.84,4.58-5.4,8.24-7.91,12.49c-5.67,9.6-5.45,22.39,0.55,31.79
				c8.25,12.93,25.57,18.71,31.77,32.74c5.39,12.19,0.54,26.48,2.96,39.59c2.71,14.69,10.19,31.52,22.41,34.11H652.89z" class="colorfdfeff svgShape"></path><path fill="#85c1e7" d="M653.95,834.52c12.68-14.65,16.7-35.43,12.87-54.18c-0.75-3.68-1.86-7.29-3.4-10.72
					c-2.43-5.39-4.08-10.99-4.99-16.84c-0.93-5.98-1.12-12.08-0.91-18.12c0.11-3.11,0.4-6.15,1.05-9.21
					c0.63-2.97,1.44-5.89,2.19-8.83c1.45-5.68,2.6-11.5,1.77-17.37c-0.57-4.03-2.03-7.88-4.05-11.4
					c-4.22-7.37-10.55-13.28-16.49-19.24c-5.88-5.9-11.99-12.14-15.25-19.96c-2.29-5.5-2.51-11.39-2.98-17.25
					c-0.44-5.45-1.43-10.81-3.38-15.94c-3.54-9.32-10.03-18.14-19.34-22.29c-8.09-3.6-17.85-3.46-25.74,0.65
					c-3.82,1.99-7.14,5.02-9.28,8.77c-2.92,5.11-3.63,11.16-3.43,16.96c0.22,6.29,1.28,12.61,2.91,18.68c1.61,6,4,11.66,6.45,17.35
					c2.32,5.4,4.74,11.08,5.27,17c0.25,2.82,0.05,5.64-0.81,8.35c-0.88,2.78-2.5,5.23-4.18,7.58c-1.66,2.33-3.42,4.61-4.75,7.15
					c-1.25,2.37-2.19,4.91-2.79,7.52c-1.21,5.24-1.12,10.78,0.26,15.98c2.66,9.98,10.18,16.69,18.02,22.82
					c7.46,5.84,15.7,11.88,18.53,21.39c3.43,11.52-0.25,23.78,1.62,35.51c1.56,9.72,5.09,19.9,11.28,27.67
					c2.69,3.38,6.09,6.24,10.18,7.73c1.94,0.71,3.54,0.67,5.55,0.67c6.16,0,12.33,0,18.49,0c1.42,0,2.84,0,4.26,0c1.93,0,1.93-3,0-3
					c-4.54,0-9.09,0-13.63,0c-2.99,0-5.97,0-8.96,0c-0.86,0-1.72,0-2.58,0c-0.88,0-1.23-0.17-2.2-0.51
					c-8.41-2.97-13.25-12.55-16.08-20.37c-1.71-4.72-3.11-9.74-3.65-14.74c-0.63-5.84-0.11-11.72,0.08-17.57
					c0.18-5.69,0.08-11.55-1.73-17c-1.52-4.57-4.2-8.57-7.5-12.04c-6.42-6.75-14.67-11.43-21.11-18.15
					c-3.41-3.56-6.08-7.68-7.47-12.44c-1.47-5.02-1.63-10.43-0.39-15.52c0.62-2.55,1.57-5,2.87-7.28c1.4-2.45,3.16-4.67,4.77-6.98
					c3.27-4.68,5.23-9.75,4.99-15.52c-0.24-5.75-2.22-11.25-4.39-16.52c-2.33-5.62-4.9-11.12-6.68-16.96
					c-1.8-5.91-3-12.03-3.48-18.19c-0.45-5.73-0.27-11.85,2.36-17.09c3.89-7.72,12.53-11.5,20.88-11.45
					c9.47,0.05,17.76,5.2,23.21,12.77c2.93,4.08,5.08,8.67,6.5,13.48c1.61,5.43,1.98,10.93,2.44,16.55
					c0.43,5.29,1.36,10.38,3.66,15.2c1.77,3.71,4.17,7.07,6.79,10.23c5.41,6.53,11.86,12.1,17.51,18.41
					c5.2,5.81,9.89,12.63,10.62,20.61c0.54,5.9-0.99,11.67-2.46,17.32c-1.5,5.76-2.59,11.38-2.76,17.35
					c-0.33,11.74,0.98,23.77,5.86,34.56c3.25,7.18,4.7,14.98,4.83,22.85c0.15,9.29-1.55,18.74-5.48,27.2
					c-2.05,4.42-4.68,8.56-7.88,12.25C650.57,833.85,652.68,835.99,653.95,834.52z" class="color85c1e7 svgShape"></path><line x1="592.15" x2="646.25" y1="622.99" y2="833.66" fill="none" stroke="#85c1e7" stroke-miterlimit="10" stroke-width="4" class="colorStroke85c1e7 svgStroke"></line><line x1="581.78" x2="597.96" y1="636.8" y2="648.95" fill="none" stroke="#85c1e7" stroke-miterlimit="10" stroke-width="4" class="colorStroke85c1e7 svgStroke"></line><line x1="625.54" x2="611.92" y1="673.37" y2="699.96" fill="none" stroke="#85c1e7" stroke-miterlimit="10" stroke-width="4" class="colorStroke85c1e7 svgStroke"></line><line x1="602.35" x2="627.47" y1="739.18" y2="760.51" fill="none" stroke="#85c1e7" stroke-miterlimit="10" stroke-width="4" class="colorStroke85c1e7 svgStroke"></line><line x1="647.59" x2="635.82" y1="774.4" y2="793.05" fill="none" stroke="#85c1e7" stroke-miterlimit="10" stroke-width="4" class="colorStroke85c1e7 svgStroke"></line><path fill="#e55838" d="M659.35,681.6h79.51c15.68,0,26.04-13.29,23.01-29.53l-19.04-102.37c-3.02-16.24-18.32-29.53-34-29.53h-79.51
			c-15.68,0-26.04,13.29-23.01,29.53l19.04,102.37C628.38,668.31,643.68,681.6,659.35,681.6z" class="colore55838 svgShape"></path><polygon fill="#bc3019" points="683.3 685.97 640.55 842.07 637.48 842.07 668.71 685.97" class="colorbc3019 svgShape"></polygon><polygon fill="#bc3019" points="725.67 685.97 768.43 842.07 771.49 842.07 740.27 685.97" class="colorbc3019 svgShape"></polygon><polygon fill="#bc3019" points="642.43 676.49 597.08 842.07 594.02 842.07 627.04 676.95" class="colorbc3019 svgShape"></polygon><path fill="#d33a1c" d="M646.32,670.7h112.66c0,0,4.92-7.47,2.91-18.63c-2.35-13.02-10.37-55.63-10.37-55.63h23.41
			c0,0,17.14,0.3,13.15,16.92l-16.15,58.82c0,0-7.08,15.16-27.49,13.8h-87.76L646.32,670.7z" class="colord33a1c svgShape"></path><path fill="#cc8319" d="M706.99,782.91l-14.32,36.38l10.25,4.03l2.31-5.88l0.2,6.86l47.25,18.6c0,0,8.59-15.69-4.76-22.88
			c0,0-19.45-7.66-16.65-17.22l2.48-9.37L706.99,782.91z" class="colorcc8319 svgShape"></path><rect width="11.01" height="4.21" x="693.05" y="817.24" fill="#ad4d0c" transform="rotate(21.487 698.582 819.405)" class="colorad4d0c svgShape"></rect><polygon fill="#ad4d0c" points="705.42 824.31 752.73 842.94 754.27 839.02 705.29 819.74" class="colorad4d0c svgShape"></polygon><path fill="#ad4d0c" d="M747.92 820.03c0 0-4.05 1.84-6.28 6.74l-2.61-1.03c0 0 1.93-4.9 6.11-6.95L747.92 820.03zM742.29 817.32c0 0-3.69 1.75-6.4 7.19l-2.61-1.03c0 0 2.37-5.41 6.66-7.56L742.29 817.32zM737.32 814.13c0 0-3.9 1.85-6.61 8.34l-2.61-1.03c0 0 2.49-6.33 7.16-9.02L737.32 814.13z" class="colorad4d0c svgShape"></path><circle cx="711.52" cy="807.88" r="4.52" fill="#ad4d0c" transform="rotate(-16.146 711.513 807.867)" class="colorad4d0c svgShape"></circle><path fill="#cc8319" d="M787.45,793.56l3.1,38.98l10.98-0.87l-0.5-6.3l3.19,6.08l50.62-4.03c0,0,0.83-17.87-14.32-18.47
			c0,0-20.83,1.66-22.51-8.17l-1.88-9.51L787.45,793.56z" class="colorcc8319 svgShape"></path><rect width="11.01" height="4.21" x="790.36" y="827.9" fill="#ad4d0c" transform="rotate(-4.548 795.594 829.739)" class="colorad4d0c svgShape"></rect><polygon fill="#ad4d0c" points="804.21 831.45 854.89 827.42 854.56 823.22 802.08 827.4" class="colorad4d0c svgShape"></polygon><path fill="#ad4d0c" d="M840.52 808.95c0 0-2.83 3.43-2.68 8.81l-2.8.22c0 0-.42-5.25 2.44-8.93L840.52 808.95zM834.27 808.98c0 0-2.54 3.2-2.6 9.27l-2.8.22c0 0-.24-5.9 2.66-9.71L834.27 808.98zM828.41 808.3c0 0-2.69 3.38-2.27 10.4l-2.8.22c0 0-.54-6.78 2.48-11.25L828.41 808.3zM806.98 813.65c.2 2.49-1.66 4.66-4.15 4.86-2.49.2-4.66-1.66-4.86-4.15-.2-2.49 1.66-4.66 4.15-4.86C804.6 809.31 806.78 811.16 806.98 813.65z" class="colorad4d0c svgShape"></path><path fill="#3f3838" d="M797.42,800.37c0,0-10.86,0.44-17.52-5.12l-21.76-126.97c-1.66-16.3,8.87-30.71,23.47-32.14l0.49-0.05
			c14.56-1.42,26.03,6.91,27.61,23.17l10.2,134.96C815.97,796.97,807.56,799.77,797.42,800.37z" class="color3f3838 svgShape"></path><path fill="#3f3838" d="M807.17,665.38L807.17,665.38c-4.39,13.35-14.96,19.6-27.56,16.28l-96.54-23.48
			c-15.15-3.99-23.5-21.83-17.61-37.62l0.56-1.5c4.8-12.87,17.53-19.89,29.83-16.43l93.7,26.33
			C804.07,633.04,812.24,649.93,807.17,665.38z" class="color3f3838 svgShape"></path><path fill="#544d4d" d="M779.26,673.67L779.26,673.67c-4.91,14.6-19.13,21.27-31.96,17.03l-90.79-17.59
			c-23.73-8.2-22.92-46.68-19.76-62.22c0,0,25.77-7.93,38.62-3.61l89.54,32.04C777.76,643.64,784.18,659.02,779.26,673.67z" class="color544d4d svgShape"></path><path fill="#544d4d" d="M710.18,794.38c0,0-10.1-4.01-13.95-11.71l30.81-121.4c5.04-15.3,20.79-25.31,34.71-20.66l0.47,0.16
			c13.87,4.63,20.99,20.73,15.91,35.96L733.19,798C728.5,798.85,719.69,797.96,710.18,794.38z" class="color544d4d svgShape"></path><path fill="#ffa476" stroke="#000" stroke-miterlimit="10" d="M758.4,528.32l-6.92-13.19l8.89-8.51c0.85-1.82,7.65-4.71,13.54-7.63l0,0l3.06-1.54l14.73-9.22
			c0,0,2.37-1.3,3.7-0.11c0,0,1.78,1.47-0.87,3.9l-12.34,10.14l13.78-9.02c0,0,2.44-1.42,3.68-0.34c0,0,1.68,1.33-1.1,3.89
			l-12.62,9.93l11.94-7.82c0,0,2.47-1.17,3.59-0.02c0,0,1.52,1.43-1.37,3.67l-11.77,7.72l9.42-5.1c0,0,2.35-1.12,3.41-0.03
			c0,0,1.44,1.35-1.31,3.49l-12.89,9.21c0,0-0.05,0.05-0.14,0.12c-0.77,0.73-3.33,2.02-4.91,2.6
			C781.89,520.46,765.36,527.3,758.4,528.32z" class="colorffa476 svgShape colorStroke000 svgStroke"></path><path fill="none" stroke="#000" stroke-miterlimit="10" d="M772.53,513.25c0,0,6.41-2.14,10.17,1.37" class="colorStroke000 svgStroke"></path><path fill="#216d84" d="M1243.01 486.9h-6.04c-1.43 0-2.59-1.17-2.59-2.59V378.5c0-1.43 1.17-2.59 2.59-2.59h6.04c1.43 0 2.59 1.17 2.59 2.59v105.81C1245.6 485.74 1244.44 486.9 1243.01 486.9zM1243.01 360.62h-6.04c-1.43 0-2.59-1.17-2.59-2.59v-23.48c0-1.43 1.17-2.59 2.59-2.59h6.04c1.43 0 2.59 1.17 2.59 2.59v23.48C1245.6 359.46 1244.44 360.62 1243.01 360.62z" class="color216d84 svgShape"></path><path fill="#3b90b2" d="M1173.95,845.07H968.7c-35.79,0-65.07-29.28-65.07-65.07V276.63c0-35.79,29.28-65.07,65.07-65.07h205.25
			c35.79,0,65.07,29.28,65.07,65.07V780C1239.02,815.79,1209.74,845.07,1173.95,845.07z" class="color3b90b2 svgShape"></path><path fill="#5ba8ce" d="M1169.63,834.63H973.66c-33,0-59.99-27-59.99-59.99V281.11c0-33,27-59.99,59.99-59.99h195.97
			c33,0,59.99,27,59.99,59.99v493.53C1229.62,807.64,1202.62,834.63,1169.63,834.63z" class="color5ba8ce svgShape"></path><path fill="#ffffff" d="M1181.95,230.35h-41.06c0,0-14.15,1.76-11.98,12.31c0,0,4.33,15.83-10.82,15.83h-82.2
			c0,0-10.82,0-10.82-10.55c0,0,3.12-12.69-3.9-17.59h-57.79c-19.61,0-35.65,13.05-35.65,28.99v533.08
			c0,15.94,16.04,28.99,35.65,28.99h218.57c19.61,0,35.65-13.05,35.65-28.99V259.34C1217.6,243.39,1201.56,230.35,1181.95,230.35z" class="colorfff svgShape"></path><path fill="#216d84" d="M1112.48 248h-48.86c-2.01 0-3.65-1.64-3.65-3.65v-.73c0-2.01 1.64-3.65 3.65-3.65h48.86c2.01 0 3.65 1.64 3.65 3.65v.73C1116.13 246.36 1114.48 248 1112.48 248zM1047.16 244.39c0 2.44-2.43 4.41-5.42 4.41-2.99 0-5.42-1.98-5.42-4.41 0-2.44 2.43-4.41 5.42-4.41C1044.74 239.98 1047.16 241.96 1047.16 244.39z" class="color216d84 svgShape"></path><path fill="#def2ff" d="M1155.99,577.73H989.26c-5.51,0-9.98-4.47-9.98-9.98l0,0c0-5.51,4.47-9.98,9.98-9.98h166.73
			c5.51,0,9.98,4.47,9.98,9.98l0,0C1165.97,573.26,1161.5,577.73,1155.99,577.73z" class="colordef2ff svgShape"></path><path fill="#cae7ff" stroke="#6299b5" stroke-miterlimit="10" stroke-width="3" d="M1173.63,538.03H971.61c-14.48,0-26.21-11.74-26.21-26.21v0c0-14.48,11.74-26.21,26.21-26.21h202.02
			c14.48,0,26.21,11.74,26.21,26.21v0C1199.85,526.29,1188.11,538.03,1173.63,538.03z" class="colorcae7ff svgShape colorStroke6299b5 svgStroke"></path><circle cx="979.28" cy="512.81" r="10.39" fill="#6299b5" class="color6299b5 svgShape"></circle><circle cx="1015.25" cy="512.81" r="10.39" fill="#6299b5" class="color6299b5 svgShape"></circle><circle cx="1052.55" cy="512.81" r="10.39" fill="#6299b5" class="color6299b5 svgShape"></circle><circle cx="1092.7" cy="512.81" r="10.39" fill="#6299b5" class="color6299b5 svgShape"></circle><circle cx="1128.66" cy="512.81" r="10.39" fill="#6299b5" class="color6299b5 svgShape"></circle><circle cx="1165.97" cy="512.81" r="10.39" fill="#6299b5" class="color6299b5 svgShape"></circle><circle cx="1072.62" cy="723.63" r="53.47" fill="#cae7ff" stroke="#6299b5" stroke-miterlimit="10" stroke-width="3" class="colorcae7ff svgShape colorStroke6299b5 svgStroke"></circle><path fill="#e89323" stroke="#000" stroke-miterlimit="10" d="M1073.12,682.35c-9.47-0.09-17.21,7.51-17.3,16.98l-0.22,22.95l34.28,0.33l0.22-22.95
					C1090.18,690.19,1082.58,682.44,1073.12,682.35z M1083.73,714.35l-21.84-0.21l0.14-14.62c0.06-6.03,4.99-10.87,11.02-10.81
					c6.03,0.06,10.87,4.99,10.81,11.02L1083.73,714.35z" class="colore89323 svgShape colorStroke000 svgStroke"></path><defs><path id="a" d="M1093.47,758.7l-42.16-0.4c-2.79-0.03-5.03-2.31-5-5.1l0.37-38.68c0.03-2.79,2.31-5.03,5.1-5l42.16,0.4
							c2.79,0.03,5.03,2.31,5,5.1l-0.37,38.68C1098.54,756.49,1096.26,758.72,1093.47,758.7z"></path></defs><use fill="#f4cd2a" overflow="visible" xlink:href="#a" class="colorf4cd2a svgShape"></use><use fill="none" stroke="#000" stroke-miterlimit="10" overflow="visible" xlink:href="#a"></use><path fill="#3a3a49" stroke="#000" stroke-miterlimit="10" d="M1077.85,736.19c0.03-2.74-2.18-4.99-4.92-5.01c-2.74-0.03-4.99,2.18-5.01,4.92
					c-0.02,1.91,1.05,3.58,2.63,4.42l-0.08,8.46l4.25,0.04l0.08-8.3C1076.57,739.99,1077.83,738.24,1077.85,736.19z" class="color3a3a49 svgShape colorStroke000 svgStroke"></path><polyline fill="none" stroke="#6299b5" stroke-miterlimit="10" stroke-width="8" points="1136.08 703.34 1155.73 727.01 1136.08 750.62"></polyline><polyline fill="none" stroke="#6299b5" stroke-miterlimit="10" stroke-width="6" points="1158.74 703.34 1178.39 727.01 1158.74 750.62"></polyline><polyline fill="none" stroke="#6299b5" stroke-miterlimit="10" stroke-width="4" points="1179.81 703.34 1199.46 727.01 1179.81 750.62"></polyline><polyline fill="none" stroke="#6299b5" stroke-miterlimit="10" stroke-width="8" points="1009.52 703.34 989.87 727.01 1009.52 750.62"></polyline><polyline fill="none" stroke="#6299b5" stroke-miterlimit="10" stroke-width="6" points="986.86 703.34 967.21 727.01 986.86 750.62"></polyline><polyline fill="none" stroke="#6299b5" stroke-miterlimit="10" stroke-width="4" points="965.78 703.34 946.13 727.01 965.78 750.62"></polyline><text transform="translate(977.462 365.358)"><tspan x="0" y="0" fill="#216d84" font-family="OpenSans-SemiBold" font-size="67.455">YOUR </tspan><tspan x="0" y="80.95" fill="#216d84" font-family="OpenSans-SemiBold" font-size="67.455">CODE</tspan></text><rect width="208.18" height="42.38" x="768.2" y="446.11" fill="#ffffff" stroke="#ef6906" stroke-miterlimit="10" stroke-width="4" transform="rotate(-19.651 872.188 467.257)" class="colorfff svgShape colorStrokeef6906 svgStroke"></rect><text fill="#ef6906" font-family="OpenSans-SemiBold" font-size="36.739" transform="rotate(-19.651 1867.229 -2042.045)">9 5 6 4 3 2</text><path fill="#ffa476" d="M760.38,506.62c0,0,6.27-12.68,11.7-17.35c0,0,1.6-2.03,3.42-0.37c0,0,2.47,1.04-1.78,5.73
			c0,0-3.29,4.02-1.61,5.03c0,0,6.08,8.37-3.74,12.07C768.36,511.74,759.92,514.03,760.38,506.62z" class="colorffa476 svgShape"></path><path fill="none" stroke="#000" stroke-miterlimit="10" d="M760.38,506.62c0,0,4.94-10.74,11.7-17.35c0,0,1.5-2.03,3.42-0.37c0,0,2.33,1.08-1.15,4.99
			c0,0-3.8,3.54-2.25,5.76c0,0,6.17,8.48-3.74,12.07" class="colorStroke000 svgStroke"></path><path fill="#f4b21e" d="M754.17,507.56l-39.3,24.47l0,0l-21.75,13.54c-6.08,3.78-6.97,12.23-1.95,18.52l3.7,4.64
			c4.98,6.25,13.77,7.86,19.36,3.55l25.44-19.58l0,0l13.3-10.24l8.49-6.54c0,0,0,0,0,0l9.49-7.3L754.17,507.56z" class="colorf4b21e svgShape"></path><polyline fill="none" stroke="#331b13" stroke-miterlimit="10" points="700.22 541.15 754.17 507.56 770.96 528.63 731.6 558.92"></polyline><path fill="#383d4c" d="M668.6,417.07c0,0-6.9,12.54-7.21,26.95c0,0-0.26,11.38-6.55,25.79c0,0-13.49,23.77-4.08,42.3
			c0,0,4.29,12.56,17.67,18.31c0,0,22.77,13.53,42.16,4.05c0,0,19.31-8.53,23.18-23.55c0,0,5.85-8.39-0.5-26.32
			c-1.83-13.11-10.54-20.65-6.13-36.4c0,0,0.09-1.62-0.06-7.75L668.6,417.07z" class="color383d4c svgShape"></path><path fill="#f4b21e" d="M704.62,577.41l-6.38,0.72c-5.31,0.6-10.07-2.91-10.63-7.84l-8.03-70.97c-0.56-4.93,3.29-9.42,8.61-10.02
			l6.38-0.72c8.22-0.93,15.58,4.5,16.45,12.14l6.93,61.18C718.8,569.54,712.84,576.48,704.62,577.41z" class="colorf4b21e svgShape"></path><g><path fill="#ffa476" d="M683.2,453.61c0,0,0.98,15.05-2.28,29.34c0,0-0.58,15.77,15.87,16.09c0,0,10.2,0.74,11.89-10.78
			c0,0,1.06-27.39,0.36-31.58L683.2,453.61z" class="colorffa476 svgShape"></path><path fill="#a0482d" d="M709.04,456.69l0.02,26.7c0,0-20.68-0.35-23.2-18.4l-0.79-10.16L709.04,456.69z" class="colora0482d svgShape"></path></g><g><path fill="#ffa476" d="M705.82,477.05L705.82,477.05c-12.18-0.03-22.04-9.93-22.01-22.11l0.04-17.7
			c0.03-12.18,9.93-22.04,22.11-22.01h0c12.18,0.03,22.04,9.93,22.01,22.11l-0.04,17.7C727.9,467.22,718,477.08,705.82,477.05z" class="colorffa476 svgShape"></path></g><g><polyline fill="none" stroke="none" stroke-miterlimit="10" points="714.32 448.8 716.67 454.68 711.45 454.99"></polyline></g><g><path fill="#ffffff" d="M707.93,441.78c0,2.04-1.23,3.69-2.74,3.68c-1.51,0-2.73-1.66-2.72-3.7c0-2.04,1.23-3.69,2.74-3.68
			C706.72,438.09,707.94,439.75,707.93,441.78z" class="colorfff svgShape"></path><path fill="#331b13" d="M707.99,442.23c0,1.28-0.78,2.32-1.73,2.32c-0.95,0-1.72-1.04-1.71-2.33c0-1.28,0.78-2.32,1.73-2.32
			C707.22,439.9,707.99,440.94,707.99,442.23z" class="color331b13 svgShape"></path></g><g><path fill="#383d4c" d="M705.78,430.22c0,0-4.06-0.41-7.46,3.57c0,0-1.04,1.1,0.2,2.02c0,0,0.69,0.54,1.7-0.31
			c0,0,2.21-2.3,5.9-1.95c0,0,1.58,0.16,1.84-1.28C707.96,432.27,708.08,430.35,705.78,430.22z" class="color383d4c svgShape"></path></g><g><path fill="#383d4c" d="M719.07,430.99c0,0,4.07-0.23,7.3,3.9c0,0,0.99,1.15-0.29,2.01c0,0-0.71,0.51-1.68-0.39
			c0,0-2.11-2.4-5.81-2.21c0,0-1.59,0.09-1.78-1.36C716.8,432.94,716.76,431.02,719.07,430.99z" class="color383d4c svgShape"></path></g><g><path fill="#ffffff" d="M723.06,442.5c0,2.04-1.23,3.69-2.74,3.68c-1.51,0-2.73-1.66-2.72-3.7c0-2.04,1.23-3.69,2.74-3.68
			C721.85,438.81,723.07,440.46,723.06,442.5z" class="colorfff svgShape"></path><path fill="#331b13" d="M723.12,442.94c0,1.28-0.78,2.32-1.73,2.32c-0.95,0-1.72-1.04-1.71-2.33c0-1.28,0.78-2.32,1.73-2.32
			C722.35,440.62,723.12,441.66,723.12,442.94z" class="color331b13 svgShape"></path></g><g><path fill="#383d4c" d="M727.97,437.34c0,0-1.2-17.93-19.49-21.96c0,0-2.03,14.79-22.37,19.65l-0.04,12.28l-12.16-0.55
			c0,0-10.77-14.79-6.95-26.84c0,0,3.6-11.43,18.85-17.25c0,0,18.55-6.53,27.91,4.14C713.71,406.81,739.12,408.69,727.97,437.34z" class="color383d4c svgShape"></path></g><g><path fill="#ffa476" d="M686.26,449.01c-0.01,4.31-2.73,7.81-6.09,7.8c-3.35-0.01-6.06-3.51-6.05-7.83c0.01-4.31,2.73-7.81,6.09-7.8
			C683.56,441.19,686.27,444.69,686.26,449.01z" class="colorffa476 svgShape"></path><path fill="none" stroke="none" stroke-miterlimit="10" d="M677.5,446.93c0,0,3.94-1.61,5.17,3.45c0,0-1.68-2.52-3.88-0.88"></path></g><g><path fill="none" stroke="none" stroke-miterlimit="10" d="M715.2,462.72c0,0-5.59,2.51-10.82-2.92"></path></g><g><path fill="#f4b21e" d="M681.65,478.67c0,0,1.29,4.75,10.69,10.67c0,0,12.06,10.15,16.34-1.33c0,0,11.34,11.99,15.6,25.53
			c0,0,11.84,21.41-5.49,40.15c0,0-5.49,24.78,2.81,56.18c0,0-34.98,26.08-86.47,5.26c0,0,4.62-33.31,9.17-57.68
			c0,0,6.06-30.47,10.52-50.24C654.83,507.2,661.36,478.82,681.65,478.67z" class="colorf4b21e svgShape"></path><path fill="none" stroke="none" stroke-miterlimit="10" d="M713.31,493c0,0,7.31,9.94,9.91,17.51c0,0,14.78,23.4-4.42,43.17c0,0-5.49,26.06,2.81,56.18"></path></g><g><path fill="#f4b21e" d="M681.96,591.98L681.96,591.98c-8.58,0.25-15.74-6.5-15.99-15.08l-1.91-65.14
			c-0.25-8.58,6.5-15.74,15.08-15.99v0c8.58-0.25,15.74,6.5,15.99,15.08l1.91,65.14C697.29,584.57,690.54,591.73,681.96,591.98z" class="colorf4b21e svgShape"></path><line x1="695.33" x2="696.69" y1="517.7" y2="564.15" fill="none" stroke="none" stroke-miterlimit="10"></line><path fill="none" stroke="none" stroke-miterlimit="10" d="M679.14,495.77c0,0-14.03-0.34-15.08,15.99l1.91,65.14c0,0-0.42,9,9.65,13.93"></path></g><g><path fill="#ffa476" stroke="none" stroke-miterlimit="10" d="M753.31,585.79c0,0,15.32,3.59,22.17,4.91c0,0,5.54,1.23,7.91,5.34c0,0,5.75,10.36,4.63,13.53
			c0,0-0.07,7.19-3.8,6.18c0,0-0.22,4.72-5.09,3.94c0,0-2.02-0.04-0.12-6.41c0,0,1.01-3.73-4.2-6.21c0,0-9.04,1.84-18.9,0.78
			c0,0-3.5,0.12-7.97-2.15L753.31,585.79z" class="colorffa476 svgShape"></path><path fill="none" stroke="none" stroke-miterlimit="10" d="M778.39,601.11c3.47,0.89,5.45,6.72,5.45,6.72c1.79,4.82,0.38,7.91,0.38,7.91s-0.91,4.73-5.09,3.94
			c0,0-1.48-0.17-0.86-3.08"></path><path fill="none" stroke="none" stroke-miterlimit="10" d="M782.03,596.74c0,0,2.88,1.97,5.22,7.7c0,0,0.92,2.4,0.76,5.48c0,0,0.17,6.31-3.79,5.82"></path></g><g><path fill="#f4b21e" d="M755.4,585.12l-42.88-17.43l0,0l-23.74-9.65c-6.63-2.7-13.99,1.54-16.13,9.3l-1.58,5.72
			c-2.13,7.7,1.73,15.76,8.5,17.76l30.79,9.09l0,0l16.1,4.75l10.28,3.03c0,0,0,0,0,0l11.48,3.39L755.4,585.12z" class="colorf4b21e svgShape"></path><polyline fill="none" stroke="none" stroke-miterlimit="10" points="694.74 560.46 755.4 585.12 748.21 611.08 682.16 591.58"></polyline></g><g><path fill="#ff6b3d" d="M653.84,685.44c0,0-24.52,1.02-33.57-17.31l-19.24-52.26c0,0-7.92-15.45,11.69-14
			c0,0,22.63-1.32,29.42,18.39l28.86,65.86L653.84,685.44z" class="colorff6b3d svgShape"></path></g><g><path fill="#e55838" stroke="none" stroke-miterlimit="10" d="M927.63,545.82c1.5-5.84-4.7-7.51-6.72-7.5l-101.33,0.16c-1.54,0-2.86,1.1-3.15,2.61l-12.81,66.44
			c-0.02,0.13-0.04,0.25-0.05,0.38l-1.67,7.61l108.01,0.71l1.39-7.52l-0.08,0c0.01-0.04,0.02-0.08,0.03-0.12L927.63,545.82z" class="colore55838 svgShape"></path><path fill="#f77a66" stroke="none" stroke-miterlimit="10" d="M924.47,541.99l-101.33,0.16c-1.54,0-2.86,1.1-3.15,2.61l-12.28,63.69l-2.09,9.53l108.01,0.71l1.39-7.52l0,0
			l12.6-65.35C928.02,543.83,926.49,541.99,924.47,541.99z" class="colorf77a66 svgShape"></path><polygon fill="#e55838" stroke="none" stroke-miterlimit="10" points="742.64 622.84 913.01 622.57 914.39 614.8 742.63 615.07" class="colore55838 svgShape"></polygon><path fill="#e55838" stroke="none" stroke-miterlimit="10" d="M863.45,574.66c-1.46,5.15,0.84,10.31,5.14,11.53c4.3,1.22,8.97-1.96,10.44-7.1
			c1.46-5.15-0.84-10.31-5.14-11.53C869.58,566.33,864.91,569.51,863.45,574.66z" class="colore55838 svgShape"></path><rect width="7.96" height="2.39" x="763.52" y="617.6" fill="#c63e28" stroke="none" stroke-miterlimit="10" transform="rotate(180 767.505 618.79)" class="colorc63e28 svgShape"></rect></g><g><rect width="188.5" height="217.72" x="735.54" y="622.84" fill="#ffffff" stroke="none" stroke-miterlimit="10" stroke-width="4" class="colorfff svgShape"></rect><rect width="49.49" height="196.61" x="745.83" y="633.4" fill="none" stroke="none" stroke-miterlimit="10" stroke-width="4"></rect><rect width="108.08" height="196.61" x="805.63" y="633.4" fill="none" stroke="none" stroke-miterlimit="10" stroke-width="4"></rect></g><g><circle cx="1281.75" cy="453.61" r="70.4" fill="#ffffff" stroke="none" stroke-miterlimit="10" stroke-width="4" class="colorfff svgShape"></circle></g><g><path fill="#2bada7" stroke="none" stroke-miterlimit="10" d="M1244.62,435.76c0.01-6.72,0.06-13.43,0-20.15c-0.02-1.66,0.43-2.33,2.2-2.28c3.21,0.1,6.42,0,9.63-0.05
				c8.75-0.15,16.66-2.92,23.94-7.66c0.87-0.56,1.55-0.89,2.56-0.2c8.42,5.78,17.79,8.28,27.95,8.04c2.14-0.05,4.28,0.01,6.42,0
				c0.96,0,1.61,0.23,1.6,1.38c-0.12,13.55,0.04,27.11-0.43,40.65c-0.32,9.13-4.46,17.03-9.9,24.21
				c-6.95,9.18-15.73,16.3-25.59,22.12c-0.63,0.37-1.81,0.49-2.39,0.15c-11.63-6.93-21.78-15.47-29.03-27.09
				c-4.67-7.49-7.04-15.66-6.97-24.51C1244.64,445.51,1244.62,440.63,1244.62,435.76z" class="color2bada7 svgShape"></path><path fill="#2bada7" d="M1274.76,441.67c-0.59,0.07-1.05,0.18-1.5,0.18c-4.1,0-8.2,0.03-12.3-0.04c-1.55-0.03-2.08,0.56-2.04,2.1
				c0.08,3.27,0.08,6.54-0.02,9.8c-0.05,1.62,0.46,2.22,2.13,2.18c3.98-0.09,7.96,0.03,11.94-0.02c1.41-0.02,1.84,0.48,1.81,1.88
				c-0.09,3.98,0,7.96-0.08,11.94c-0.03,1.51,0.42,2.15,2.01,2.11c3.32-0.09,6.65-0.09,9.98,0c1.6,0.04,2.04-0.59,2.02-2.1
				c-0.07-3.86,0.07-7.72-0.05-11.58c-0.05-1.69,0.41-2.3,2.17-2.25c3.92,0.12,7.84,0,11.76,0.07c1.48,0.03,1.99-0.54,1.96-1.99
				c-0.06-3.33-0.06-6.65,0.02-9.98c0.04-1.51-0.44-2.16-2.03-2.12c-3.03,0.08-6.06,0.01-9.09,0.01c-1.52,0-3.05,0-4.74-0.01
				c0-0.81,0-1.39,0-1.97c0.01-3.86-0.09-7.73,0.06-11.58c0.07-1.87-0.6-2.35-2.35-2.29c-3.08,0.11-6.18,0.02-9.27,0.02
				c-2.38,0-2.38,0.01-2.38,2.37C1274.78,432.8,1274.77,437.19,1274.76,441.67z" class="color2bada7 svgShape"></path><circle cx="1281.97" cy="451.28" r="22.71" fill="#ffffff" stroke="none" stroke-miterlimit="10" class="colorfff svgShape"></circle><path fill="none" stroke="none" stroke-miterlimit="10" stroke-width="8" d="M1266.89,446.44c3.58,5.26,7.77,10.54,10.35,14.1c12.75-9.34,18.73-15.63,30.92-25.79"></path></g><g><path fill="#ffffff" stroke="none" stroke-miterlimit="10" stroke-width="4" d="M786.9,365.23h92.67v-55.21c0-30.49-24.72-55.21-55.21-55.21H786.9c-30.49,0-55.21,24.72-55.21,55.21v0
				C731.69,340.51,756.41,365.23,786.9,365.23z" class="colorfff svgShape"></path></g><g><rect width="87.49" height="55.58" x="763.48" y="284.15" fill="#c5ffff" stroke="none" stroke-miterlimit="10" transform="rotate(179.393 806.766 311.756)" class="colorc5ffff svgShape"></rect><polygon fill="#abf4f2" stroke="none" stroke-miterlimit="10" points="763.78 340.19 805.94 304.42 851.26 339.26 850.67 283.69 763.19 284.61" class="colorabf4f2 svgShape"></polygon><polygon fill="#72dbd3" stroke="none" stroke-miterlimit="10" points="807.31 319.66 763.19 284.61 850.67 283.69" class="color72dbd3 svgShape"></polygon></g></svg></g></svg>