<svg id="SvgjsSvg1017" width="256" height="256" xmlns="http://www.w3.org/2000/svg" version="1.1" xmlns:xlink="http://www.w3.org/1999/xlink" xmlns:svgjs="http://svgjs.com/svgjs"><defs id="SvgjsDefs1018"></defs><g id="SvgjsG1019"><svg xmlns="http://www.w3.org/2000/svg" data-name="Layer 1" viewBox="0 0 128 128" width="256" height="256"><path fill="#ffdb80" d="M64,4A59.71784,59.71784,0,0,0,24.52,108.77a1.95072,1.95072,0,0,1,.67,1.76l-1.56,12.25,12.39-5.32a2.10588,2.10588,0,0,1,1.67.04A59.83734,59.83734,0,1,0,64,4ZM80.21,98.75a24.93591,24.93591,0,0,1-10.18,2.26A21.81715,21.81715,0,0,1,53.2,93.06c-3.07-3.61-16.01-29.21-16.01-29.21a6.00477,6.00477,0,0,1,4.25-8.74l-2.29-4.39a6.06374,6.06374,0,0,1,2.49-8.12,6.17528,6.17528,0,0,1,2.29-.71l-.02-.05a6.072,6.072,0,0,1,2.48-8.13,5.93373,5.93373,0,0,1,8.09,2.5l1.33,2.54a6.71777,6.71777,0,0,1,1.88-1.54,5.9407,5.9407,0,0,1,8.09,2.5L75.84,58.97l.85-6.58a6.56461,6.56461,0,0,1,2.94-4.54,6.786,6.786,0,0,1,5.43-.63c5.85,1.61,5.06,6.66,4.58,9.68a21.4954,21.4954,0,0,0,1.11,10.92C94.16,78.38,93.45,92.82,80.21,98.75Z" class="colorffdb80 svgShape"></path><path fill="#2d4356" d="M81.79395 38.62512a2 2 0 001.43359 3.73438 5.83446 5.83446 0 016.3349 1.92864 2.03878 2.03878 0 002.81744.24324A1.99906 1.99906 0 0092.623 41.714 9.80674 9.80674 0 0081.79395 38.62512zM78.77637 29.95325a1.99975 1.99975 0 001.43945 3.73145c.36816-.13867 9.10154-3.30956 15.709 5.12888a2.02644 2.02644 0 002.80764.3428 2.00006 2.00006 0 00.34277-2.80762A18.00872 18.00872 0 0078.77637 29.95325zM35.44531 71.088a2 2 0 00-3.80371-1.2373c-.07617.23145-1.81641 5.7207 3.49316 10.68164a2.021 2.021 0 002.82618-.0957 1.99806 1.99806 0 00-.0957-2.82617C34.50781 74.47278 35.39355 71.26477 35.44531 71.088zM26.88672 67.57044a2.00007 2.00007 0 00-3.832-1.14746c-.14844.49219-3.50779 12.17472 8.02819 22.09462a2.04637 2.04637 0 002.82044-.21278 2 2 0 00-.21289-2.82031C24.19629 77.32044 26.76855 67.97766 26.88672 67.57044zM90.75 67.82A21.4954 21.4954 0 0189.64 56.9c.48-3.02 1.27-8.07-4.58-9.68a6.786 6.786 0 00-5.43.63 6.56461 6.56461 0 00-2.94 4.54l-.85 6.58L65.78 39.71a5.9407 5.9407 0 00-8.09-2.5 6.71777 6.71777 0 00-1.88 1.54l-1.33-2.54a5.93373 5.93373 0 00-8.09-2.5 6.072 6.072 0 00-2.48 8.13l.02.05a6.17528 6.17528 0 00-2.29.71 6.06374 6.06374 0 00-2.49 8.12l2.29 4.39a6.00477 6.00477 0 00-4.25 8.74S50.13 89.45 53.2 93.06a21.81715 21.81715 0 0016.83 7.95 24.93591 24.93591 0 0010.18-2.26C93.45 92.82 94.16 78.38 90.75 67.82zM78.57 95.1C70.35 98.78 61.8 97 56.25 90.47 53.51 87.24 40.73 62 40.73 62a2.04812 2.04812 0 01.84-2.75 1.96026 1.96026 0 012.65.83L52.03 75.04a2.00155 2.00155 0 103.55-1.85L42.7 48.88a2.0535 2.0535 0 01.83-2.76c.72-.39 2.37994-.47 2.84.44 0 0 12.83 24.59 12.85 24.62a2.0532 2.0532 0 002.7.85 2.00239 2.00239 0 00.85-2.7L47.45 39.99a2.06251 2.06251 0 01.84-2.76 1.969 1.969 0 012.65.83L66.25 67.4a2.00155 2.00155 0 103.55-1.85L58.35 43.62A2.49567 2.49567 0 0159.59 40.74a1.95665 1.95665 0 012.65.82L74.03 64.15c1.05 2.03 2.5 2.02 3.06 1.91.56995-.1 1.93-.58 2.24-2.86 0 0 1.3-10.08 1.3-10.1A2.49569 2.49569 0 0184 51.07c1.79.5 2.37.89 1.69 5.21a25.37682 25.37682 0 001.25 12.77C87.99 72.3 92.53 88.84 78.57 95.1z" class="color2d4356 svgShape"></path><path fill="#e1ebf4" d="M78.57,95.1C70.35,98.78,61.8,97,56.25,90.47,53.51,87.24,40.73,62,40.73,62a2.04812,2.04812,0,0,1,.84-2.75,1.96026,1.96026,0,0,1,2.65.83L52.03,75.04a2.00155,2.00155,0,1,0,3.55-1.85L42.7,48.88a2.0535,2.0535,0,0,1,.83-2.76c.72-.39,2.37994-.47,2.84.44,0,0,12.83,24.59,12.85,24.62a2.0532,2.0532,0,0,0,2.7.85,2.00239,2.00239,0,0,0,.85-2.7L47.45,39.99a2.06251,2.06251,0,0,1,.84-2.76,1.969,1.969,0,0,1,2.65.83L66.25,67.4a2.00155,2.00155,0,1,0,3.55-1.85L58.35,43.62A2.49567,2.49567,0,0,1,59.59,40.74a1.95665,1.95665,0,0,1,2.65.82L74.03,64.15c1.05,2.03,2.5,2.02,3.06,1.91.56995-.1,1.93-.58,2.24-2.86,0,0,1.3-10.08,1.3-10.1A2.49569,2.49569,0,0,1,84,51.07c1.79.5,2.37.89,1.69,5.21a25.37682,25.37682,0,0,0,1.25,12.77C87.99,72.3,92.53,88.84,78.57,95.1Z" class="colore1ebf4 svgShape"></path><path fill="#2d4356" d="M64,0A63.71385,63.71385,0,0,0,21.09,111.07l-1.86,14.68A1.99818,1.99818,0,0,0,22,127.84l14.77-6.35A63.834,63.834,0,1,0,64,0Zm0,123.55a59.63062,59.63062,0,0,1-26.31-6.05,2.10588,2.10588,0,0,0-1.67-.04l-12.39,5.32,1.56-12.25a1.95072,1.95072,0,0,0-.67-1.76A60.03278,60.03278,0,1,1,64,123.55Z" class="color2d4356 svgShape"></path><path fill="#ad9359" d="M25.19 108.53l-.13.99a1.83067 1.83067 0 00-.54-.75A59.71422 59.71422 0 014 63.77c0-.33 0-.65.01-.98a59.7172 59.7172 0 0020.51 43.98A1.95072 1.95072 0 0125.19 108.53zM124 63.77A60.044 60.044 0 0137.69 117.5a2.10588 2.10588 0 00-1.67-.04l-12.39 5.32.27-2.12 12.12-5.2a2.10588 2.10588 0 011.67.04 60.04629 60.04629 0 0086.3-52.73C124 63.1 124 63.44 124 63.77z" opacity=".45" class="colorad9359 svgShape"></path><path fill="#9fa5aa" d="M78.57,95.1C70.35,98.78,61.8,97,56.25,90.47,53.51,87.24,40.73,62,40.73,62a2.04307,2.04307,0,0,1,.03-1.95c.6,1.2,12.82,25.27,15.49,28.42C61.8,95,70.35,96.78,78.57,93.1c7.52-3.38,9.67-9.73,9.89-15.38C88.68,83.8,86.99,91.32,78.57,95.1Z" opacity=".5" class="color9fa5aa svgShape"></path><path fill="#ffffff" d="M54.73 77.89a2.00243 2.00243 0 01-2.7-.85L44.22 62.08a1.96026 1.96026 0 00-2.65-.83 2.01241 2.01241 0 00-.81.8.52477.52477 0 01-.03-.05 2.04812 2.04812 0 01.84-2.75 1.96026 1.96026 0 012.65.83L52.03 75.04a2.00243 2.00243 0 002.7.85 2.03086 2.03086 0 00.81-.78l.04.08A2.00241 2.00241 0 0154.73 77.89zM61.92 74.03a2.0532 2.0532 0 01-2.7-.85c-.02-.03-12.85-24.62-12.85-24.62-.46-.91-2.12-.83-2.84-.44a2.013 2.013 0 00-.81006.8l-.02-.04a2.0535 2.0535 0 01.83-2.76c.72-.39 2.37994-.47 2.84.44 0 0 12.83 24.59 12.85 24.62a2.0532 2.0532 0 002.7.85 2.00592 2.00592 0 00.81-.77l.04.06995A2.00239 2.00239 0 0161.92 74.03zM68.95 70.25a2.00239 2.00239 0 01-2.7-.85L50.94 40.06a1.969 1.969 0 00-2.65-.83 2.03614 2.03614 0 00-.81.81l-.03-.05a2.06251 2.06251 0 01.84-2.76 1.969 1.969 0 012.65.83L66.25 67.4a2.00239 2.00239 0 002.7.85 2.03125 2.03125 0 00.81-.78l.04.08A2.00244 2.00244 0 0168.95 70.25zM85.9 54.68c-.2-1.06-.84-1.32-1.9-1.61a2.49569 2.49569 0 00-3.37 2.03c0 .02-1.3 10.1-1.3 10.1-.31 2.28-1.67 2.75995-2.24 2.86-.56.11-2.01.12-3.06-1.91L62.24 43.56a1.95665 1.95665 0 00-2.65-.82 2.62266 2.62266 0 00-1.09 1.17l-.15-.29A2.49567 2.49567 0 0159.59 40.74a1.95665 1.95665 0 012.65.82L74.03 64.15c1.05 2.03 2.5 2.02 3.06 1.91.56995-.1 1.93-.58 2.24-2.86 0 0 1.3-10.08 1.3-10.1A2.49569 2.49569 0 0184 51.07C85.54 51.5 86.18 51.85 85.9 54.68z" opacity=".5" class="colorfff svgShape"></path><path fill="#f9edd2" d="M124,63.77c0,.33,0,.67-.01,1a60.00245,60.00245,0,0,0-119.98.02C4,64.45,4,64.11,4,63.77a60.00044,60.00044,0,0,1,120,0Z" opacity=".5" class="colorf9edd2 svgShape"></path></svg></g></svg>