<svg id="SvgjsSvg1119" width="550" height="550" xmlns="http://www.w3.org/2000/svg" version="1.1" xmlns:xlink="http://www.w3.org/1999/xlink" xmlns:svgjs="http://svgjs.com/svgjs"><defs id="SvgjsDefs1120"></defs><g id="SvgjsG1121"><svg xmlns="http://www.w3.org/2000/svg" viewBox="0 0 325.64 423.13" width="550" height="550"><g data-name="Layer 2"><g data-name="Layer 1"><path fill="#efab84" d="M264.86,339.08s-38.51,29.73-96.57,33.28V373c-2.56.1-4.94-.29-7.5-.29s-4.85.39-7.51.29v-.59c-58-3.55-96.57-33.28-96.57-33.28,41.28,6.62,57.47-18.46,63.59-43.54,5.33-22.22,2.87-44.24,2.87-44.24l37.62,8.4,15.79-3.56,21.83-4.84a107.86,107.86,0,0,0-.59,12.05c0,1.68,0,3.56.09,5.43C198.8,296.92,208,348.27,264.86,339.08Z" class="colorefab84 svgShape"></path><path fill="#db9471" d="M197.91,268.78c-7.3,8.3-28.44,25.87-77.61,26.76,5.33-22.22,2.87-44.24,2.87-44.24l37.62,8.4,15.79-3.56,21.24,7.21C197.82,265,197.82,266.91,197.91,268.78Z" class="colordb9471 svgShape"></path><path fill="#ffbf98" d="M149.74,280.33c46.7,14.54,88.51-58.28,98.43-92.16,8.72-29.86,15.8-67.8.92-96.87-18.49-36.08-67-45.52-103.82-41C83.59,57.71,57.19,96.37,65.36,156.73c7,51.56,33.72,103.61,84.38,123.6C154.78,281.9,124.81,270.49,149.74,280.33Z" class="colorffbf98 svgShape"></path><path fill="#ffffff" d="M201.65,172.69l.07,0c1.15.29,2.36.45,3.57.63,5.76.53,17.21-.64,25.6-15.24-9.09-4.53-32.43-13.42-43.53,8.23a48.65,48.65,0,0,0,14.28,6.37Z" class="colorfff svgShape"></path><path fill="#50709c" d="M198.67,160.43a9.91,9.91,0,1,1,9.91,9.9A9.91,9.91,0,0,1,198.67,160.43Z" class="color50709c svgShape"></path><path fill="#324b63" d="M208.58 151.06a15.63 15.63 0 010 6.39 15.63 15.63 0 010-6.39zM207 151.2a21.67 21.67 0 01.89 3.09 22.78 22.78 0 01.23 3.21 20.15 20.15 0 01-.9-3.09A21.37 21.37 0 01207 151.2zM205.37 151.62a19.38 19.38 0 011.41 2.9 19.13 19.13 0 01.78 3.11 20.86 20.86 0 01-1.41-2.89A21.57 21.57 0 01205.37 151.62zM203.89 152.31a20.49 20.49 0 011.89 2.6 19.81 19.81 0 011.31 2.94 21.52 21.52 0 01-1.89-2.6A21 21 0 01203.89 152.31zM202.56 153.25a15.35 15.35 0 014.11 4.9 19.59 19.59 0 01-2.31-2.24A20.34 20.34 0 01202.56 153.25zM201.41 154.41a20.85 20.85 0 012.65 1.79 20.28 20.28 0 012.23 2.31 20.85 20.85 0 01-2.65-1.79A20.28 20.28 0 01201.41 154.41zM200.46 155.74a20.4 20.4 0 012.94 1.31 21.52 21.52 0 012.6 1.89 19.92 19.92 0 01-2.94-1.31A21.52 21.52 0 01200.46 155.74zM199.76 157.22a21.7 21.7 0 013.13.78 20.83 20.83 0 012.89 1.41 20.34 20.34 0 01-3.12-.78A20.94 20.94 0 01199.76 157.22zM199.35 158.8a15.19 15.19 0 016.29 1.11 15.12 15.12 0 01-6.29-1.11zM199.2 160.43a15.23 15.23 0 016.4 0 15.68 15.68 0 01-6.4 0zM199.35 162.06a15.34 15.34 0 016.29-1.12 20.11 20.11 0 01-3.09.89A21.24 21.24 0 01199.35 162.06zM199.76 163.63a20.88 20.88 0 012.9-1.4 19.24 19.24 0 013.12-.78 20.76 20.76 0 01-2.89 1.4A19.36 19.36 0 01199.76 163.63zM200.46 165.11a15.24 15.24 0 015.53-3.19 15.24 15.24 0 01-5.53 3.19zM201.4 166.45a15.46 15.46 0 014.89-4.11 19.52 19.52 0 01-2.23 2.31A20.7 20.7 0 01201.4 166.45zM202.55 167.61a19.39 19.39 0 011.8-2.66 20.32 20.32 0 012.3-2.24 19.74 19.74 0 01-1.79 2.67A21.18 21.18 0 01202.55 167.61zM203.88 168.55a15.39 15.39 0 013.2-5.54 18.93 18.93 0 01-1.31 2.94A20.49 20.49 0 01203.88 168.55zM205.36 169.25a15.39 15.39 0 012.19-6 15 15 0 01-2.19 6zM207 169.67a21.37 21.37 0 01.22-3.21 19 19 0 01.89-3.09 20.14 20.14 0 01-.23 3.21A20.39 20.39 0 01207 169.67zM208.57 169.81a19.3 19.3 0 01-.33-3.2 18.29 18.29 0 01.33-3.2 15.68 15.68 0 010 6.4zM210.2 169.67a21.67 21.67 0 01-.89-3.09 20.14 20.14 0 01-.22-3.21 15.64 15.64 0 011.11 6.3zM211.77 169.25a21.36 21.36 0 01-1.4-2.89 20.36 20.36 0 01-.79-3.12 15 15 0 012.19 6zM213.26 168.56a21.52 21.52 0 01-1.89-2.6 20.4 20.4 0 01-1.31-2.94 21.52 21.52 0 011.89 2.6A19.92 19.92 0 01213.26 168.56zM214.6 167.62a15.55 15.55 0 01-4.12-4.9A18.94 18.94 0 01212.8 165 19.39 19.39 0 01214.6 167.62zM215.76 166.46a21.08 21.08 0 01-2.67-1.79 20.42 20.42 0 01-2.24-2.31 18.9 18.9 0 012.67 1.8A20.3 20.3 0 01215.76 166.46zM216.7 165.13a15.72 15.72 0 01-5.55-3.19 19.88 19.88 0 012.94 1.3A21.62 21.62 0 01216.7 165.13zM217.39 163.65a20.34 20.34 0 01-3.12-.78 19.79 19.79 0 01-2.89-1.41 15.42 15.42 0 016 2.19zM217.82 162.07a21.37 21.37 0 01-3.21-.22 20.23 20.23 0 01-3.1-.89 15.28 15.28 0 016.31 1.11zM218 160.44a15.45 15.45 0 01-6.4 0 20.45 20.45 0 013.2-.34A21.7 21.7 0 01218 160.44zM217.82 158.81a15.43 15.43 0 01-6.3 1.12 20.94 20.94 0 013.09-.89A21.38 21.38 0 01217.82 158.81zM217.4 157.23a19.76 19.76 0 01-2.89 1.41 20.66 20.66 0 01-3.12.79 19.28 19.28 0 012.89-1.41A20.36 20.36 0 01217.4 157.23zM216.71 155.75a19.55 19.55 0 01-2.6 1.89 20.44 20.44 0 01-2.94 1.32 19.55 19.55 0 012.6-1.89A20.44 20.44 0 01216.71 155.75zM215.77 154.41a20.31 20.31 0 01-2.23 2.31 21.22 21.22 0 01-2.67 1.81 20.41 20.41 0 012.23-2.32A21.15 21.15 0 01215.77 154.41zM214.62 153.25a18.9 18.9 0 01-1.8 2.67 21.27 21.27 0 01-2.31 2.24 20.13 20.13 0 011.8-2.67A20.42 20.42 0 01214.62 153.25zM213.28 152.31a15.49 15.49 0 01-3.19 5.55 18.93 18.93 0 011.31-2.94A20.5 20.5 0 01213.28 152.31zM211.8 151.62a22 22 0 01-.77 3.13 20.35 20.35 0 01-1.42 2.89 15.54 15.54 0 012.19-6zM210.22 151.19a20.26 20.26 0 01-.22 3.22 21.26 21.26 0 01-.88 3.09 19 19 0 01.22-3.21A20.51 20.51 0 01210.22 151.19z" class="color324b63 svgShape"></path><path d="M203,160.43a5.61,5.61,0,1,1,5.61,5.6A5.61,5.61,0,0,1,203,160.43Z" fill="#000000" class="color000 svgShape"></path><path fill="#ffffff" d="M207.1,157.86a1.78,1.78,0,1,1-1.74-2.18A2,2,0,0,1,207.1,157.86Z" class="colorfff svgShape"></path><path fill="#26120b" d="M186.75,166.33a35.75,35.75,0,0,1,9.71-12.16,20.42,20.42,0,0,1,7.52-3.78,23.15,23.15,0,0,1,8.35-.55c5.54.54,10.38,2.67,14.93,4.42s8.91,3.36,14.15,3.29c-4.56,2.77-10.56,2.48-15.54,1.39s-9.71-2.67-14.21-3.28a29.25,29.25,0,0,0-6.67-.11,19.25,19.25,0,0,0-6.25,2.16C194.57,159.88,190.69,163.06,186.75,166.33Z" class="color26120b svgShape"></path><path fill="#ffffff" d="M123.08,172.69l-.06,0c-1.16.29-2.37.45-3.58.63-5.77.53-17.21-.64-25.61-15.24,9.09-4.53,32.44-13.42,43.55,8.23a49.08,49.08,0,0,1-14.3,6.37Z" class="colorfff svgShape"></path><path fill="#50709c" d="M126.05,160.43a9.91,9.91,0,1,0-9.9,9.9A9.9,9.9,0,0,0,126.05,160.43Z" class="color50709c svgShape"></path><path fill="#324b63" d="M116.15 151.06a15.63 15.63 0 010 6.39 15.63 15.63 0 010-6.39zM117.78 151.2a21.38 21.38 0 01-.23 3.21 20.11 20.11 0 01-.89 3.09 20.14 20.14 0 01.23-3.21A19.34 19.34 0 01117.78 151.2zM119.35 151.62a21.54 21.54 0 01-.77 3.12 19.84 19.84 0 01-1.42 2.89 15.58 15.58 0 012.19-6zM120.83 152.31a18.93 18.93 0 01-1.31 2.94 20.4 20.4 0 01-1.88 2.6 19.81 19.81 0 011.31-2.94A21.43 21.43 0 01120.83 152.31zM122.17 153.25a19.39 19.39 0 01-1.8 2.66 19.59 19.59 0 01-2.31 2.24 20.13 20.13 0 011.8-2.67A19.52 19.52 0 01122.17 153.25zM123.33 154.41a22.25 22.25 0 01-2.24 2.31 20.28 20.28 0 01-2.66 1.79 21.18 21.18 0 012.23-2.31A20.38 20.38 0 01123.33 154.41zM124.27 155.74a21.52 21.52 0 01-2.6 1.89 20.28 20.28 0 01-2.93 1.31 20.66 20.66 0 012.59-1.89A19.92 19.92 0 01124.27 155.74zM125 157.22a15.45 15.45 0 01-6 2.19 20.18 20.18 0 012.88-1.41A21.57 21.57 0 01125 157.22zM125.38 158.8a21.3 21.3 0 01-3.09.89 21.24 21.24 0 01-3.2.22 21.3 21.3 0 013.09-.89A21.15 21.15 0 01125.38 158.8zM125.53 160.43a15.63 15.63 0 01-6.39 0 15.18 15.18 0 016.39 0zM125.38 162.06a21.15 21.15 0 01-3.2-.23 20.11 20.11 0 01-3.09-.89 15.42 15.42 0 016.29 1.12zM125 163.63a19.24 19.24 0 01-3.12-.78 20.12 20.12 0 01-2.88-1.4 19.13 19.13 0 013.11.78A20.23 20.23 0 01125 163.63zM124.27 165.11a21.38 21.38 0 01-2.93-1.3 20.05 20.05 0 01-2.6-1.89 21.38 21.38 0 012.93 1.3A21.52 21.52 0 01124.27 165.11zM123.34 166.45a18.9 18.9 0 01-2.67-1.8 20.42 20.42 0 01-2.24-2.31 19.8 19.8 0 012.67 1.8A22.25 22.25 0 01123.34 166.45zM122.18 167.61a19.52 19.52 0 01-2.31-2.23 20.78 20.78 0 01-1.8-2.67 20.42 20.42 0 012.31 2.24A19.39 19.39 0 01122.18 167.61zM120.84 168.55A21.43 21.43 0 01119 166a19.92 19.92 0 01-1.31-2.94 20.4 20.4 0 011.88 2.6A19.36 19.36 0 01120.84 168.55zM119.36 169.25a15.39 15.39 0 01-2.19-6 15 15 0 012.19 6zM117.78 169.67a20.39 20.39 0 01-.88-3.09 21.37 21.37 0 01-.22-3.21 15.41 15.41 0 011.1 6.3zM116.16 169.81a21.73 21.73 0 01-.34-3.2 20.47 20.47 0 01.35-3.2 21.7 21.7 0 01.33 3.2A20.45 20.45 0 01116.16 169.81zM114.53 169.67a15.2 15.2 0 011.11-6.3 21.37 21.37 0 01-.22 3.21A21.67 21.67 0 01114.53 169.67zM113 169.25a15.42 15.42 0 012.19-6 19.24 19.24 0 01-.78 3.12A20.29 20.29 0 01113 169.25zM111.47 168.56a21 21 0 011.31-2.94 20.49 20.49 0 011.89-2.6 20.4 20.4 0 01-1.31 2.94A21.52 21.52 0 01111.47 168.56zM110.12 167.62a20.41 20.41 0 011.81-2.66 19.59 19.59 0 012.31-2.24 20.13 20.13 0 01-1.8 2.67A21.31 21.31 0 01110.12 167.62zM109 166.46a20.22 20.22 0 012.23-2.3 19.6 19.6 0 012.68-1.8 20.42 20.42 0 01-2.24 2.31A21.08 21.08 0 01109 166.46zM108 165.13a15.17 15.17 0 015.54-3.19 20.4 20.4 0 01-2.6 1.88A20.9 20.9 0 01108 165.13zM107.34 163.65a19.9 19.9 0 012.9-1.41 20.34 20.34 0 013.12-.78 20.94 20.94 0 01-2.9 1.41A20.34 20.34 0 01107.34 163.65zM106.91 162.07a21.42 21.42 0 013.1-.89 21.42 21.42 0 013.22-.22 20.35 20.35 0 01-3.11.89A21.37 21.37 0 01106.91 162.07zM106.77 160.44a21.7 21.7 0 013.2-.33 20.58 20.58 0 013.2.34 15.45 15.45 0 01-6.4 0zM106.91 158.81a21.38 21.38 0 013.21.23 21.79 21.79 0 013.1.89 15.43 15.43 0 01-6.31-1.12zM107.33 157.23a20.79 20.79 0 013.13.79 19.65 19.65 0 012.88 1.41 20.36 20.36 0 01-3.12-.79A19.76 19.76 0 01107.33 157.23zM108 155.75a20.44 20.44 0 012.94 1.32 19.55 19.55 0 012.6 1.89 20 20 0 01-2.94-1.32A19.55 19.55 0 01108 155.75zM109 154.41a15.5 15.5 0 014.9 4.12 21.22 21.22 0 01-2.67-1.81A19.49 19.49 0 01109 154.41zM110.11 153.25a21.3 21.3 0 012.31 2.24 20.13 20.13 0 011.8 2.67 19.59 19.59 0 01-2.31-2.24A19.8 19.8 0 01110.11 153.25zM111.44 152.31a20.58 20.58 0 011.89 2.61 18.93 18.93 0 011.31 2.94 15.32 15.32 0 01-3.2-5.55zM112.93 151.62a15.31 15.31 0 012.18 6 21.42 21.42 0 01-1.41-2.89A20.73 20.73 0 01112.93 151.62zM114.51 151.19a20.51 20.51 0 01.88 3.1 20.14 20.14 0 01.23 3.21 19 19 0 01-.89-3.09A21.51 21.51 0 01114.51 151.19z" class="color324b63 svgShape"></path><path d="M121.76,160.43a5.62,5.62,0,1,0-5.61,5.6A5.61,5.61,0,0,0,121.76,160.43Z" fill="#000000" class="color000 svgShape"></path><path fill="#ffffff" d="M117.63,157.86a1.78,1.78,0,1,0,1.73-2.18A2,2,0,0,0,117.63,157.86Z" class="colorfff svgShape"></path><path fill="#26120b" d="M138,166.33c-4-3.27-7.83-6.45-12-8.62a19.22,19.22,0,0,0-6.26-2.16,29.16,29.16,0,0,0-6.66.11c-4.5.61-9.13,2.17-14.21,3.28s-11,1.38-15.54-1.39c5.24.07,9.59-1.49,14.16-3.29s9.38-3.88,14.92-4.42a23.15,23.15,0,0,1,8.35.55,20.42,20.42,0,0,1,7.52,3.78A36,36,0,0,1,138,166.33Z" class="color26120b svgShape"></path><path fill="#e53c3c" d="M162.81,233h-26s9.19,12.7,26,12.9c16.82-.2,26-12.9,26-12.9Z" class="colore53c3c svgShape"></path><path fill="#f64845" d="M136.91,233h51.87v-.17c-5.44-.46-9.07-3.62-14.24-4.77-4.93-1.23-6.17.62-9.87,1.24s-5.56-1.19-9.26-1.81c-7-.58-11.78,5.29-18.5,5.47Z" class="colorf64845 svgShape"></path><path fill="#db9471" d="M164,208.81c-9.57,0-12-5.24-12-5.24.61,4.65,5.54,6.62,8.91,7.45.24,0,4.76.62,7.41-.33,3.23-1,7.21-3,7.75-7.12C176,203.57,173.57,208.81,164,208.81Z" class="colordb9471 svgShape"></path><path fill="#ffbf98" d="M257.35 190c-3.93 11-10.51 18.67-14.69 17.17s-4.4-11.61-.46-22.59 10.51-18.66 14.69-17.16S261.29 179.07 257.35 190zM63.76 190c3.93 11 10.51 18.67 14.69 17.17s4.4-11.61.46-22.59S68.4 166 64.22 167.46 59.82 179.07 63.76 190z" class="colorffbf98 svgShape"></path><path fill="#ffffff" d="M146.67,233.16s13.29,6.53,33.48,0Z" class="colorfff svgShape"></path><path fill="#e2356c" d="M180.9,423.07c103.62-4.16,144.74-31.43,144.74-31.43-15.64-62.54-81.88-53.09-81.88-53.09a155.9,155.9,0,0,1-54.94,20.05l0,.07c-1,.17-1.9.25-2.86.4l-1.19.17a168,168,0,0,1-45.38.13v0a155.83,155.83,0,0,1-57.54-20.48S15.63,329.41,0,391.94c0,0,28.7,19.12,98.62,27.83C107.18,420.57,142.8,423.61,180.9,423.07Z" class="colore2356c svgShape"></path><path fill="#7c411e" d="M246.66 142.87a92.12 92.12 0 00-6.85-7.92l-.18-.18c-.54-.55-1-1-1.49-1.45a13.41 13.41 0 00-6.2-3.3c-16.23-2.19-52.07 12.85-52.07 12.85 6.66 2.91 34.79-6.13 44.62-9.45h0s5.87-1.87 10.08.53C240.5 137 246.66 142.87 246.66 142.87zM77.41 142.87A92.12 92.12 0 0184.26 135l.18-.18c.54-.55 1-1 1.48-1.45a13.43 13.43 0 016.21-3.3c16.23-2.19 52.07 12.85 52.07 12.85-6.66 2.91-34.8-6.13-44.63-9.45h0s-5.87-1.87-10.08.53C83.57 137 77.41 142.87 77.41 142.87z" class="color7c411e svgShape"></path><path fill="#771f11" d="M195.42,64.26c-2.59,10.37-9.07,16.85-16.85,23.33-24.63,23.33-49.25,37.59-70,67.4,0-13,5.19-24.63,11.67-35h0c-22,13-32.41,51.84-35,76.47-1.3-5.19-2.6-9.07-2.6-14.26-4.2,25,4.4,64,7,91.21-49.25-86.84-80.95-199,17.64-259.71C84,22.78,67.1,40.93,54.14,63,47.66,13.71,129.32-10.92,165.61,4.64c24.63,11.66,51.85,54.44,22,76.47Z" class="color771f11 svgShape"></path><path fill="#771f11" d="M196.5,61.82c22.67,34,52.62,55.05,46.14,101.19,1.62-.81,2.43-2.43,3.24-2.43.81,21.86-4,42.1-4,64,.81-8.91,3.9-8.23,7.95-17.14,0,1.62-.81,7.42,0,8.23,17.81-42.1,40.63-105.24,13.91-149C245.07,35.91,202.16,2.72,163.31,18.1c2.43,13,16.19,41.29,30.76,43.72Z" class="color771f11 svgShape"></path></g></g></svg></g></svg>