<svg id="SvgjsSvg1026" width="256" height="256" xmlns="http://www.w3.org/2000/svg" version="1.1" xmlns:xlink="http://www.w3.org/1999/xlink" xmlns:svgjs="http://svgjs.com/svgjs"><defs id="SvgjsDefs1027"></defs><g id="SvgjsG1028"><svg xmlns="http://www.w3.org/2000/svg" aria-label="Twitter" viewBox="0 0 512 512" width="256" height="256"><rect width="512" height="512" fill="#1da1f3" rx="15%" class="color1da1f3 svgShape"></rect><path fill="#ffffff" d="M437 152a72 72 0 0 1-40 12 72 72 0 0 0 32-40 72 72 0 0 1-45 17 72 72 0 0 0-122 65 200 200 0 0 1-145-74 72 72 0 0 0 22 94 72 72 0 0 1-32-7 72 72 0 0 0 56 69 72 72 0 0 1-32 1 72 72 0 0 0 67 50 200 200 0 0 1-105 29 200 200 0 0 0 309-179 200 200 0 0 0 35-37" class="colorfff svgShape"></path></svg></g></svg>