<svg id="SvgjsSvg2193" width="550" height="550" xmlns="http://www.w3.org/2000/svg" version="1.1" xmlns:xlink="http://www.w3.org/1999/xlink" xmlns:svgjs="http://svgjs.com/svgjs"><defs id="SvgjsDefs2194"></defs><g id="SvgjsG2195"><svg xmlns="http://www.w3.org/2000/svg" xmlns:xlink="http://www.w3.org/1999/xlink" viewBox="0 0 1600 1200" width="550" height="550"><defs><linearGradient id="e" x1="1228.23" x2="462.02" y1="813.99" y2="47.77" gradientUnits="userSpaceOnUse"><stop offset="0" stop-color="#362e94" class="stopColor362e94 svgShape"></stop><stop offset="1" stop-color="#6b67e9" class="stopColor6b67e9 svgShape"></stop></linearGradient><linearGradient id="f" x1="1086.31" x2="603.95" y1="672.06" y2="189.7" gradientUnits="userSpaceOnUse"><stop offset="0" stop-color="#20196f" class="stopColor20196f svgShape"></stop><stop offset="1" stop-color="#5652cc" class="stopColor5652cc svgShape"></stop></linearGradient><linearGradient id="a" x1="966.69" x2="749.24" y1="595.72" y2="378.27" gradientUnits="userSpaceOnUse"><stop offset="0" stop-color="#f6f6fb" class="stopColorf6f6fb svgShape"></stop><stop offset=".1" stop-color="#eff0f9" class="stopColoreff0f9 svgShape"></stop><stop offset=".69" stop-color="#c9cdeb" class="stopColorc9cdeb svgShape"></stop><stop offset="1" stop-color="#bbc0e6" class="stopColorbbc0e6 svgShape"></stop></linearGradient><linearGradient id="g" x1="953.87" x2="736.39" y1="582.87" y2="365.4" gradientUnits="userSpaceOnUse"><stop offset="0" stop-color="#000000" class="stopColor000000 svgShape"></stop><stop offset=".13" stop-color="#040201" class="stopColor040201 svgShape"></stop><stop offset=".26" stop-color="#100905" class="stopColor100905 svgShape"></stop><stop offset=".38" stop-color="#23150b" class="stopColor23150b svgShape"></stop><stop offset=".51" stop-color="#3f2513" class="stopColor3f2513 svgShape"></stop><stop offset=".63" stop-color="#633a1e" class="stopColor633a1e svgShape"></stop><stop offset=".76" stop-color="#8e542b" class="stopColor8e542b svgShape"></stop><stop offset=".88" stop-color="#c1723a" class="stopColorc1723a svgShape"></stop><stop offset="1" stop-color="#fb944b" class="stopColorfb944b svgShape"></stop></linearGradient><linearGradient id="h" x1="1402.98" x2="1251.92" y1="775.81" y2="624.75" gradientTransform="rotate(180 1086.29 587.205)" gradientUnits="userSpaceOnUse"><stop offset="0" stop-color="#000000" class="stopColor000000 svgShape"></stop><stop offset=".15" stop-color="#010104" class="stopColor010104 svgShape"></stop><stop offset=".31" stop-color="#060610" class="stopColor060610 svgShape"></stop><stop offset=".46" stop-color="#0d0d23" class="stopColor0d0d23 svgShape"></stop><stop offset=".61" stop-color="#18163f" class="stopColor18163f svgShape"></stop><stop offset=".75" stop-color="#252363" class="stopColor252363 svgShape"></stop><stop offset=".9" stop-color="#35328e" class="stopColor35328e svgShape"></stop><stop offset="1" stop-color="#423eaf" class="stopColor423eaf svgShape"></stop></linearGradient><linearGradient id="i" x1="540.91" x2="381.37" y1="370.44" y2="210.91" xlink:href="#a"></linearGradient><linearGradient id="c" x1="528.58" x2="369.05" y1="358.12" y2="198.58" gradientUnits="userSpaceOnUse"><stop offset="0" stop-color="#20196f" class="stopColor20196f svgShape"></stop><stop offset="1" stop-color="#423eaf" class="stopColor423eaf svgShape"></stop></linearGradient><linearGradient id="j" x1="528.58" x2="369.05" y1="358.12" y2="198.58" gradientUnits="userSpaceOnUse"><stop offset="0" stop-color="#000000" class="stopColor000000 svgShape"></stop><stop offset=".11" stop-color="#05050c" class="stopColor05050c svgShape"></stop><stop offset=".3" stop-color="#13122d" class="stopColor13122d svgShape"></stop><stop offset=".56" stop-color="#292762" class="stopColor292762 svgShape"></stop><stop offset=".87" stop-color="#4844aa" class="stopColor4844aa svgShape"></stop><stop offset="1" stop-color="#5652cc" class="stopColor5652cc svgShape"></stop></linearGradient><linearGradient id="k" x1="438.57" x2="413.03" y1="472.81" y2="447.27" xlink:href="#a"></linearGradient><linearGradient id="b" x1="430.69" x2="405.15" y1="464.93" y2="439.39" gradientUnits="userSpaceOnUse"><stop offset="0" stop-color="#000000" class="stopColor000000 svgShape"></stop><stop offset=".3" stop-color="#17163e" class="stopColor17163e svgShape"></stop><stop offset=".63" stop-color="#2e2b7b" class="stopColor2e2b7b svgShape"></stop><stop offset=".87" stop-color="#3d39a1" class="stopColor3d39a1 svgShape"></stop><stop offset="1" stop-color="#423eaf" class="stopColor423eaf svgShape"></stop></linearGradient><linearGradient id="l" x1="438.57" x2="413.03" y1="568.72" y2="543.18" gradientTransform="rotate(81.99 425.799 555.908)" xlink:href="#a"></linearGradient><linearGradient id="m" x1="430.69" x2="405.15" y1="560.85" y2="535.31" gradientUnits="userSpaceOnUse"><stop offset="0" stop-color="#000000" class="stopColor000000 svgShape"></stop><stop offset=".19" stop-color="#392718" class="stopColor392718 svgShape"></stop><stop offset=".49" stop-color="#8d613c" class="stopColor8d613c svgShape"></stop><stop offset=".73" stop-color="#ca8b57" class="stopColorca8b57 svgShape"></stop><stop offset=".91" stop-color="#f1a567" class="stopColorf1a567 svgShape"></stop><stop offset="1" stop-color="#ffaf6d" class="stopColorffaf6d svgShape"></stop></linearGradient><linearGradient id="n" x1="438.57" x2="413.03" y1="664.64" y2="639.1" gradientTransform="rotate(22.5 425.784 651.868)" xlink:href="#a"></linearGradient><linearGradient id="o" x1="430.69" x2="405.15" y1="656.76" y2="631.23" xlink:href="#b"></linearGradient><linearGradient id="p" x1="1280.78" x2="1073.79" y1="456.47" y2="249.49" xlink:href="#a"></linearGradient><linearGradient id="q" x1="1259.61" x2="1052.63" y1="435.31" y2="228.32" xlink:href="#c"></linearGradient><linearGradient id="r" x1="1259.61" x2="1052.63" y1="435.31" y2="228.32" gradientUnits="userSpaceOnUse"><stop offset="0" stop-color="#000000" class="stopColor000000 svgShape"></stop><stop offset="1" stop-color="#423eaf" class="stopColor423eaf svgShape"></stop></linearGradient><linearGradient id="d" x1="1303.22" x2="1342.54" y1="866.04" y2="866.04" gradientUnits="userSpaceOnUse"><stop offset="0" stop-color="#dde2f8" class="stopColordde2f8 svgShape"></stop><stop offset=".39" stop-color="#e0e5f9" class="stopColore0e5f9 svgShape"></stop><stop offset=".68" stop-color="#e9edfb" class="stopColore9edfb svgShape"></stop><stop offset=".93" stop-color="#fafafe" class="stopColorfafafe svgShape"></stop><stop offset="1" stop-color="#ffffff" class="stopColorfff svgShape"></stop></linearGradient><linearGradient id="s" x1="1255.12" x2="1054.45" y1="1035.78" y2="835.11" gradientUnits="userSpaceOnUse"><stop offset="0" stop-color="#e57139" class="stopColore57139 svgShape"></stop><stop offset="1" stop-color="#ffaf6d" class="stopColorffaf6d svgShape"></stop></linearGradient><linearGradient id="t" x1="1130.04" x2="1039.95" y1="939.72" y2="849.62" gradientUnits="userSpaceOnUse"><stop offset=".18" stop-color="#000000" class="stopColor000000 svgShape"></stop><stop offset=".27" stop-color="#050301" class="stopColor050301 svgShape"></stop><stop offset=".38" stop-color="#150a05" class="stopColor150a05 svgShape"></stop><stop offset=".49" stop-color="#2e170b" class="stopColor2e170b svgShape"></stop><stop offset=".62" stop-color="#512814" class="stopColor512814 svgShape"></stop><stop offset=".76" stop-color="#7f3f20" class="stopColor7f3f20 svgShape"></stop><stop offset=".89" stop-color="#b55a2d" class="stopColorb55a2d svgShape"></stop><stop offset="1" stop-color="#e57139" class="stopColore57139 svgShape"></stop></linearGradient><linearGradient id="u" x1="1212.68" x2="1242.6" y1="890.98" y2="890.98" gradientTransform="matrix(-1 0 0 1 2573.85 0)" xlink:href="#d"></linearGradient><linearGradient id="v" x1="1386.27" x2="1297.77" y1="867.78" y2="796.53" gradientUnits="userSpaceOnUse"><stop offset="0" stop-color="#20196f" class="stopColor20196f svgShape"></stop><stop offset=".26" stop-color="#221b72" class="stopColor221b72 svgShape"></stop><stop offset=".46" stop-color="#27217b" class="stopColor27217b svgShape"></stop><stop offset=".63" stop-color="#312b8c" class="stopColor312b8c svgShape"></stop><stop offset=".79" stop-color="#3e38a2" class="stopColor3e38a2 svgShape"></stop><stop offset=".94" stop-color="#4f4abf" class="stopColor4f4abf svgShape"></stop><stop offset="1" stop-color="#5652cc" class="stopColor5652cc svgShape"></stop></linearGradient><linearGradient id="w" x1="155.73" x2="227.52" y1="750.89" y2="750.89" gradientUnits="userSpaceOnUse"><stop offset="0" stop-color="#ffc16b" class="stopColorffc16b svgShape"></stop><stop offset="1" stop-color="#fb944b" class="stopColorfb944b svgShape"></stop></linearGradient><linearGradient id="x" x1="191.92" x2="227.52" y1="764.7" y2="764.7" gradientUnits="userSpaceOnUse"><stop offset="0" stop-color="#ffaf6d" class="stopColorffaf6d svgShape"></stop><stop offset=".06" stop-color="#feab68" class="stopColorfeab68 svgShape"></stop><stop offset=".36" stop-color="#fc9a53" class="stopColorfc9a53 svgShape"></stop><stop offset=".56" stop-color="#fb944b" class="stopColorfb944b svgShape"></stop><stop offset="1" stop-color="#e57139" class="stopColore57139 svgShape"></stop></linearGradient><linearGradient id="y" x1="188.41" x2="226.21" y1="716.58" y2="716.58" gradientUnits="userSpaceOnUse"><stop offset="0" stop-color="#ffc16b" class="stopColorffc16b svgShape"></stop><stop offset=".39" stop-color="#feb361" class="stopColorfeb361 svgShape"></stop><stop offset="1" stop-color="#fb944b" class="stopColorfb944b svgShape"></stop></linearGradient><linearGradient id="z" x1="646.94" x2="646.94" y1="948.65" y2="741.93" gradientUnits="userSpaceOnUse"><stop offset="0" stop-color="#423eaf" class="stopColor423eaf svgShape"></stop><stop offset=".16" stop-color="#3a359f" class="stopColor3a359f svgShape"></stop><stop offset=".49" stop-color="#2c2685" class="stopColor2c2685 svgShape"></stop><stop offset=".78" stop-color="#231c75" class="stopColor231c75 svgShape"></stop><stop offset="1" stop-color="#20196f" class="stopColor20196f svgShape"></stop></linearGradient><linearGradient id="A" x1="620.82" x2="840.48" y1="652.3" y2="652.3" gradientUnits="userSpaceOnUse"><stop offset="0" stop-color="#ffffff" class="stopColorfff svgShape"></stop><stop offset=".18" stop-color="#f4f5fd" class="stopColorf4f5fd svgShape"></stop><stop offset=".7" stop-color="#d8dcf9" class="stopColord8dcf9 svgShape"></stop><stop offset="1" stop-color="#ced3f8" class="stopColorced3f8 svgShape"></stop></linearGradient><linearGradient id="B" x1="668.41" x2="721.1" y1="733.65" y2="618.15" gradientUnits="userSpaceOnUse"><stop offset="0" stop-color="#ffffff" class="stopColorfff svgShape"></stop><stop offset="1" stop-color="#dde2f8" class="stopColordde2f8 svgShape"></stop></linearGradient></defs><g data-name="Man on stairs"><g data-name="Front part"><circle cx="140.03" cy="441.98" r="30.31" fill="#ced3f8" class="colorced3f8 svgShape"></circle><path fill="none" stroke="#fff" stroke-linecap="round" stroke-linejoin="round" stroke-width="4" d="M144.8,440.3a8.56,8.56,0,0,0,3.42-6.26h0v-.11c0-.18,0-2.33,0-2.52a8.22,8.22,0,1,0-16.43,0V434h0a8.55,8.55,0,0,0,3.41,6.26c-3.09.22-13.92,4.22-11.49,14.31H156.3C158.19,444.25,147.88,440.51,144.8,440.3Z" class="colorStrokefff svgStroke"></path><circle cx="319.95" cy="470.22" r="66.19" fill="#fb944b" class="colorfb944b svgShape"></circle><rect width="75.95" height="42.3" x="281.97" y="446.81" fill="none" stroke="#ffc16b" stroke-linecap="round" stroke-linejoin="round" stroke-width="4" rx="6.54" class="colorStrokeffc16b svgStroke"></rect><path fill="#ffc16b" d="M320,475a2,2,0,0,1-1.14-.36l-26.08-18a2,2,0,0,1,2.27-3.29L320,470.55l24.95-17.19a2,2,0,1,1,2.26,3.29l-26.08,18A2,2,0,0,1,320,475Z" class="colorffc16b svgShape"></path><path fill="#ffc16b" d="M346 482.92a2 2 0 01-1.13-.36l-18.81-12.95a2 2 0 012.27-3.3l18.8 13a2 2 0 01-1.13 3.65zM293.86 482.92a2 2 0 01-1.13-3.65l18.8-13a2 2 0 012.27 3.3L295 482.56A2 2 0 01293.86 482.92z" class="colorffc16b svgShape"></path><circle cx="253.76" cy="397.24" r="51.53" fill="#423eaf" opacity=".8" transform="rotate(-1.68 253.417 396.657)" class="color423eaf svgShape"></circle><g style="mix-blend-mode:screen"><path fill="none" stroke="#fb944b" stroke-linecap="round" stroke-linejoin="round" stroke-width="4" d="M247.61,420.18a8.7,8.7,0,1,1,12.3,0A8.71,8.71,0,0,1,247.61,420.18Z" class="colorStrokefb944b svgStroke"></path><path fill="#fb944b" d="M268.47,401.36a2,2,0,0,1-1.42-.58,18.78,18.78,0,0,0-26.58,0,2,2,0,1,1-2.83-2.83,22.64,22.64,0,0,1,16.12-6.68h0A22.64,22.64,0,0,1,269.88,398a2,2,0,0,1,0,2.83A2,2,0,0,1,268.47,401.36Z" class="colorfb944b svgShape"></path><path fill="#fb944b" d="M277,392.85a2,2,0,0,1-1.41-.59,30.93,30.93,0,0,0-43.7,0,2,2,0,1,1-2.83-2.83,35,35,0,0,1,49.36,0,2,2,0,0,1-1.42,3.42Z" class="colorfb944b svgShape"></path><path fill="#fb944b" d="M285.58,384.33a2,2,0,0,1-1.41-.59,43.06,43.06,0,0,0-60.81,0,2,2,0,1,1-2.83-2.82,47,47,0,0,1,66.46,0,2,2,0,0,1-1.41,3.41Z" class="colorfb944b svgShape"></path></g><circle cx="1376.18" cy="241.14" r="22.18" fill="#ced3f8" transform="rotate(-75 1371.382 239.586)" class="colorced3f8 svgShape"></circle><path fill="#ffffff" d="M1376.18,252.44a2,2,0,0,1-2-2V231.83a2,2,0,1,1,4,0v18.61A2,2,0,0,1,1376.18,252.44Z" class="colorfff svgShape"></path><path fill="#ffffff" d="M1385.48,243.14h-18.61a2,2,0,0,1,0-4h18.61a2,2,0,0,1,0,4Z" class="colorfff svgShape"></path><circle cx="1372.04" cy="405.95" r="66.87" fill="#20196f" transform="rotate(-45 1372.04 405.952)" class="color20196f svgShape"></circle><path fill="#423eaf" d="M1360.37 430.48a1.91 1.91 0 01-.89-.21 2 2 0 01-.89-2.68l22.53-45.06a2 2 0 013.58 1.79l-22.54 45.06A2 2 0 011360.37 430.48zM1354.43 422.58a2 2 0 01-1.13-.35l-20.9-14.38a2 2 0 010-3.29l20.9-14.38a2 2 0 112.27 3.29l-18.51 12.73 18.51 12.73a2 2 0 01-1.14 3.65zM1389.65 422.58a2 2 0 01-1.65-.86 2 2 0 01.51-2.79L1407 406.21l-18.51-12.74a2 2 0 012.27-3.29l20.9 14.38a2 2 0 010 3.29l-20.9 14.38A2 2 0 011389.65 422.58z" class="color423eaf svgShape"></path><circle cx="1437.02" cy="342.77" r="51.53" fill="#fb944b" opacity=".8" transform="rotate(-3.61 1437.623 342.932)" class="colorfb944b svgShape"></circle><g style="mix-blend-mode:screen"><path fill="#ffc16b" d="M1437,344.77a12.41,12.41,0,1,1,0-24.81,2,2,0,0,1,0,4,8.41,8.41,0,1,0,0,16.81,2,2,0,0,1,0,4Z" class="colorffc16b svgShape"></path><path fill="#ffc16b" d="M1447.42 334.36a2 2 0 01-2-2 8.41 8.41 0 00-8.4-8.4 2 2 0 010-4 12.42 12.42 0 0112.4 12.4A2 2 0 011447.42 334.36zM1437 365.58a2 2 0 010-4 8.41 8.41 0 000-16.81 2 2 0 010-4 12.41 12.41 0 010 24.81z" class="colorffc16b svgShape"></path><path fill="#ffc16b" d="M1437 365.58a12.42 12.42 0 01-12.41-12.4 2 2 0 014 0 8.41 8.41 0 008.41 8.4 2 2 0 010 4zM1437 324a2 2 0 01-2-2v-5.51a2 2 0 014 0V322A2 2 0 011437 324z" class="colorffc16b svgShape"></path><path fill="#ffc16b" d="M1437,371.1a2,2,0,0,1-2-2v-5.52a2,2,0,1,1,4,0v5.52A2,2,0,0,1,1437,371.1Z" class="colorffc16b svgShape"></path></g><rect width="959.04" height="595.13" x="365.61" y="133.32" fill="url(#e)" rx="18.56"></rect><rect width="369.59" height="595.13" x="660.34" y="133.32" fill="url(#f)"></rect><path d="M929.06,350.64A153.75,153.75,0,1,0,1011.77,487,153,153,0,0,0,929.06,350.64ZM906.36,579.8A104.65,104.65,0,1,1,962.65,487,104.12,104.12,0,0,1,906.36,579.8Z" style="mix-blend-mode:multiply" fill="url(#a)"></path><path fill="#807dfb" d="M792.35 466.11V454.57h28.24v6l-17 34.1h-7.46l16.59-34H798.49v5.4zM850.09 454.51v6.14H833.16v9.88a11.77 11.77 0 015.74-1.38 14.73 14.73 0 019.7 3.38 11.32 11.32 0 014.08 9.19 12.37 12.37 0 01-4.25 9.61A15 15 0 01838 495.15q-8.09 0-12.91-5.4l3.61-4.93c.31.3.72.67 1.24 1.09a16.09 16.09 0 003.18 1.69 12.94 12.94 0 005.28 1.06 8.63 8.63 0 005.23-1.72 5.83 5.83 0 002.35-5 5.94 5.94 0 00-2.5-5.11 10.43 10.43 0 00-6.31-1.81 14.8 14.8 0 00-7.26 1.9L827 473.8V454.51zM872.82 456.26a9.68 9.68 0 010 12.95 8.47 8.47 0 01-12.36 0 9.68 9.68 0 010-12.94 8.12 8.12 0 016.2-2.7A8 8 0 01872.82 456.26zm23.37-1.69L866.8 494.69h-7.41l29.39-40.12zM869 465.73a4.57 4.57 0 00.92-2.9 4.42 4.42 0 00-1-2.9 3 3 0 00-2.38-1.17 2.85 2.85 0 00-2.33 1.17 4.61 4.61 0 00-.92 2.9 4.39 4.39 0 001 2.9 3 3 0 002.38 1.18A2.82 2.82 0 00869 465.73zm26.63 13.78a9.67 9.67 0 010 12.94 8.47 8.47 0 01-12.37 0 9.67 9.67 0 010-12.94 8.47 8.47 0 0112.37 0zm-3.73 9.58a4.56 4.56 0 00.92-2.89 4.39 4.39 0 00-1-2.9 3 3 0 00-2.38-1.18 2.8 2.8 0 00-2.32 1.18 4.51 4.51 0 00-.92 2.9 4.37 4.37 0 001 2.89 3 3 0 002.39 1.18A2.82 2.82 0 00891.88 489.09z" class="color807dfb svgShape"></path><path fill="#fb944b" d="M845.13,320.36A153.77,153.77,0,0,0,691.35,474.13h49.12a104.64,104.64,0,0,1,153-92.8l22.7-43.56A153.09,153.09,0,0,0,845.13,320.36Z" class="colorfb944b svgShape"></path><path d="M916.2,337.77l-22.7,43.56a104.64,104.64,0,0,1,56.29,92.8h49.12A153.74,153.74,0,0,0,916.2,337.77Z" style="mix-blend-mode:multiply" fill="#bbc0e6" class="colorbbc0e6 svgShape"></path><path d="M949.79,474.13a104.66,104.66,0,0,1-209.32,0H691.35a153.78,153.78,0,0,0,307.56,0Z" style="mix-blend-mode:screen" fill="#131147" class="color131147 svgShape"></path><path d="M845.13,320.36A153.78,153.78,0,1,0,998.91,474.13,153.77,153.77,0,0,0,845.13,320.36Zm0,305.12A151.35,151.35,0,1,1,996.48,474.13,151.35,151.35,0,0,1,845.13,625.48Z" style="mix-blend-mode:screen" fill="url(#g)"></path><path d="M845.13,581A106.82,106.82,0,1,0,738.31,474.13,106.81,106.81,0,0,0,845.13,581Zm0-211.48A104.66,104.66,0,1,1,740.47,474.13,104.66,104.66,0,0,1,845.13,369.47Z" style="mix-blend-mode:screen" fill="url(#h)"></path><circle cx="799.97" cy="200.17" r="6.2" fill="#20196f" transform="rotate(-80.78 799.995 200.161)" class="color20196f svgShape"></circle><circle cx="830.08" cy="200.17" r="6.2" fill="#20196f" transform="rotate(-84.67 830.108 200.153)" class="color20196f svgShape"></circle><circle cx="860.18" cy="200.17" r="6.2" fill="#20196f" transform="rotate(-80.78 860.208 200.156)" class="color20196f svgShape"></circle><circle cx="890.29" cy="200.17" r="6.2" fill="#20196f" transform="rotate(-80.78 890.314 200.159)" class="color20196f svgShape"></circle><rect width="213.21" height="8" x="738.52" y="228.7" fill="#20196f" class="color20196f svgShape"></rect><rect width="47.25" height="8" x="904.48" y="246.22" fill="#20196f" class="color20196f svgShape"></rect><rect width="142.62" height="8" x="738.52" y="246.22" fill="#20196f" class="color20196f svgShape"></rect><rect width="134.92" height="198.75" x="393.68" y="191.3" rx="12.46" style="mix-blend-mode:multiply" fill="url(#i)"></rect><rect width="134.92" height="198.75" x="381.36" y="178.97" rx="12.46" style="mix-blend-mode:screen" fill="url(#c)"></rect><path d="M503.81,179h-110a12.46,12.46,0,0,0-12.46,12.47V365.26a12.46,12.46,0,0,0,12.46,12.46h110a12.46,12.46,0,0,0,12.47-12.46V191.44A12.47,12.47,0,0,0,503.81,179ZM513,366.13a8.56,8.56,0,0,1-8.55,8.55H393.21a8.57,8.57,0,0,1-8.55-8.55V190.57a8.57,8.57,0,0,1,8.55-8.55H504.42a8.56,8.56,0,0,1,8.55,8.55Z" style="mix-blend-mode:screen" fill="url(#j)"></path><rect width="48.52" height="48.52" x="424.56" y="206.37" rx="5.96" style="mix-blend-mode:screen" fill="#fb944b" class="colorfb944b svgShape"></rect><rect width="99.87" height="4" x="398.88" y="276.35" fill="#20196f" class="color20196f svgShape"></rect><rect width="99.87" height="4" x="398.88" y="293.79" fill="#20196f" class="color20196f svgShape"></rect><rect width="99.87" height="4" x="398.88" y="311.22" fill="#20196f" class="color20196f svgShape"></rect><rect width="74.2" height="4" x="398.88" y="328.66" fill="#20196f" class="color20196f svgShape"></rect><rect width="48.52" height="48.52" x="566.91" y="216.2" rx="5.96" style="mix-blend-mode:screen" fill="#c85a2b" class="colorc85a2b svgShape"></rect><rect width="99.87" height="4" x="541.23" y="286.18" fill="#20196f" class="color20196f svgShape"></rect><rect width="99.87" height="4" x="541.23" y="303.62" fill="#20196f" class="color20196f svgShape"></rect><rect width="99.87" height="4" x="541.23" y="321.06" fill="#20196f" class="color20196f svgShape"></rect><rect width="74.2" height="4" x="541.23" y="338.49" fill="#20196f" class="color20196f svgShape"></rect><path fill="#362e94" d="M425.8 539.89a2 2 0 01-2-2v-59.8a2 2 0 014 0v59.8A2 2 0 01425.8 539.89zM425.8 635.81a2 2 0 01-2-2V574a2 2 0 014 0v59.8A2 2 0 01425.8 635.81z" class="color362e94 svgShape"></path><circle cx="425.8" cy="460.04" r="18.06" style="mix-blend-mode:multiply" fill="url(#k)"></circle><circle cx="417.92" cy="452.16" r="18.06" style="mix-blend-mode:screen" fill="#20196f" class="color20196f svgShape"></circle><path d="M417.92,434.1A18.06,18.06,0,1,0,436,452.16,18.07,18.07,0,0,0,417.92,434.1Zm0,33.86a15.8,15.8,0,1,1,15.8-15.8A15.8,15.8,0,0,1,417.92,468Z" style="mix-blend-mode:screen" fill="url(#b)"></path><circle cx="425.8" cy="555.95" r="18.06" transform="rotate(-81.99 425.758 555.944)" style="mix-blend-mode:multiply" fill="url(#l)"></circle><circle cx="417.92" cy="548.08" r="18.06" transform="rotate(-82.01 417.898 548.07)" style="mix-blend-mode:screen" fill="#c85a2b" class="colorc85a2b svgShape"></circle><path d="M417.92,530A18.06,18.06,0,1,0,436,548.08,18.07,18.07,0,0,0,417.92,530Zm0,33.85a15.8,15.8,0,1,1,15.8-15.79A15.8,15.8,0,0,1,417.92,563.87Z" style="mix-blend-mode:screen" fill="url(#m)"></path><circle cx="425.8" cy="651.87" r="18.06" transform="rotate(-22.5 425.806 651.877)" style="mix-blend-mode:multiply" fill="url(#n)"></circle><circle cx="417.92" cy="643.99" r="18.06" transform="rotate(-22.5 417.916 643.984)" style="mix-blend-mode:screen" fill="#20196f" class="color20196f svgShape"></circle><path d="M417.92,625.94A18.06,18.06,0,1,0,436,644,18.06,18.06,0,0,0,417.92,625.94Zm0,33.85a15.8,15.8,0,1,1,15.8-15.8A15.8,15.8,0,0,1,417.92,659.79Z" style="mix-blend-mode:screen" fill="url(#o)"></path><rect width="175.94" height="8" x="461.14" y="447.27" fill="#362e94" class="color362e94 svgShape"></rect><rect width="38.99" height="8" x="572.41" y="464.8" fill="#362e94" class="color362e94 svgShape"></rect><rect width="92.01" height="8" x="461.14" y="464.8" fill="#362e94" class="color362e94 svgShape"></rect><rect width="175.94" height="8" x="461.14" y="543.19" fill="#e57139" class="colore57139 svgShape"></rect><rect width="38.99" height="8" x="572.41" y="560.71" fill="#e57139" class="colore57139 svgShape"></rect><rect width="92.01" height="8" x="461.14" y="560.71" fill="#e57139" class="colore57139 svgShape"></rect><rect width="175.94" height="8" x="461.14" y="639.11" fill="#362e94" class="color362e94 svgShape"></rect><rect width="38.99" height="8" x="572.41" y="656.63" fill="#362e94" class="color362e94 svgShape"></rect><rect width="92.01" height="8" x="461.14" y="656.63" fill="#362e94" class="color362e94 svgShape"></rect><rect width="225.02" height="205.5" x="1064.77" y="250.22" rx="14.14" style="mix-blend-mode:multiply" fill="url(#p)"></rect><rect width="225.02" height="205.5" x="1043.61" y="229.06" rx="14.14" style="mix-blend-mode:screen" fill="url(#q)"></rect><path d="M1254.5,229.06H1057.75a14.14,14.14,0,0,0-14.14,14.14V420.43a14.14,14.14,0,0,0,14.14,14.14H1254.5a14.14,14.14,0,0,0,14.13-14.14V243.2A14.14,14.14,0,0,0,1254.5,229.06Zm11.13,191.37a11.15,11.15,0,0,1-11.13,11.14H1057.75a11.16,11.16,0,0,1-11.14-11.14V243.2a11.16,11.16,0,0,1,11.14-11.14H1254.5a11.15,11.15,0,0,1,11.13,11.14Z" style="mix-blend-mode:screen" fill="url(#r)"></path><circle cx="1102.12" cy="277.81" r="19.93" style="mix-blend-mode:screen" fill="#fb944b" class="colorfb944b svgShape"></circle><path d="M1248.63,409.79V361.42l-34.14-56.93a13.7,13.7,0,0,0-23.5,0l-66,110.08h118.9A4.77,4.77,0,0,0,1248.63,409.79Z" style="mix-blend-mode:multiply" fill="#bbc0e6" class="colorbbc0e6 svgShape"></path><path d="M1108.86,339.87l-41.68,69.5a3.43,3.43,0,0,0,2.94,5.2h107.05l-44.81-74.7A13.7,13.7,0,0,0,1108.86,339.87Z" style="mix-blend-mode:multiply" fill="#a0a9d0" class="colora0a9d0 svgShape"></path><rect width="225.02" height="205.5" x="1064.77" y="486.99" rx="14.14" style="mix-blend-mode:screen" fill="#131147" class="color131147 svgShape"></rect><path d="M1205.19,535.74l-60.35,104.53a3.49,3.49,0,0,0,3,5.23h120.71a3.49,3.49,0,0,0,3-5.23l-60.35-104.53A3.49,3.49,0,0,0,1205.19,535.74Z" style="mix-blend-mode:screen" fill="#c85a2b" class="colorc85a2b svgShape"></path><rect width="108" height="37.12" x="1096.3" y="632.16" style="mix-blend-mode:multiply" fill="#a0a9d0" class="colora0a9d0 svgShape"></rect><circle cx="1096.3" cy="516.29" r="7.16" transform="rotate(-67.5 1096.295 516.292)" style="mix-blend-mode:screen" fill="#423eaf" class="color423eaf svgShape"></circle><circle cx="1124.96" cy="516.29" r="7.16" transform="rotate(-84.46 1124.898 516.311)" style="mix-blend-mode:screen" fill="#c85a2b" class="colorc85a2b svgShape"></circle><path d="M1078.55,602V616.6a88.88,88.88,0,0,0,88.88-88.88h-14.61A74.27,74.27,0,0,1,1078.55,602Z" style="mix-blend-mode:multiply" fill="#bbc0e6" class="colorbbc0e6 svgShape"></path><path fill="#20196f" d="M1271.52 196.33h-8v-8h8zm-16 0h-8v-8h8zm-16 0h-8v-8h8zm-16 0h-8v-8h8zm-16 0h-8v-8h8zm-16 0h-8v-8h8zm-16 0h-8v-8h8zm-16 0h-8v-8h8zm-16 0h-8v-8h8zm-16 0h-8v-8h8zm-16 0h-8v-8h8zm-16 0h-8v-8h8zm-16 0h-8v-8h8zM1276.17 906.11c0 33.47 14.4 66.57 25.94 92.47h9.37c-2.93-21-3.45-49.39-3.45-84.62C1297.5 906.11 1288.38 903.65 1276.17 906.11z" class="color20196f svgShape"></path><path fill="#ffd3c9" d="M1313,1001.84a15.41,15.41,0,0,1-1.51-3.26h-9.37c.89,3,1.3,4.67,1,5.93C1305.38,1005.4,1308.77,1003.1,1313,1001.84Z" class="colorffd3c9 svgShape"></path><path fill="#20196f" d="M1313 1001.84c-4.22 1.26-7.61 3.56-9.92 2.67-1.23.89-19.29 7.39-21.13 8.64s-1.61 3.29.39 3.29c2.91 0 26.89-1.06 26.89-1.06.49.53.88 1.06.88 1.06h5.48C1317.22 1013.61 1316.77 1005.1 1313 1001.84zM1276.17 906.11c0-12.16 69.35-10.17 106.91 20.7-3.67 11.84-14.4 26.77-26 34.15C1346.25 957.39 1276.17 938.86 1276.17 906.11z" class="color20196f svgShape"></path><path fill="#f8d8d0" d="M1263.12,940.82c-1.82,1.3-4.51-.61-7.34,1.94-4.6,4.14-11,4.39-9.56,5.3,3.92,2.46,9.12.05,9.12.05L1266,950l1.3-.87Z" class="colorf8d8d0 svgShape"></path><path fill="#20196f" d="M1322.25,852.28c3.87-5.75-6.21-16.51-8.93-20.34-3.63-5.14-15.6-33.91-15.6-33.91-9.42,14.45-11.52,45.18,2.87,54.92a14.29,14.29,0,1,0,21.66-.67Z" class="color20196f svgShape"></path><path fill="#e7eeff" d="M1340.76,860.78c4-5.13.91-15.14-5.22-17.23s-15.16-2.33-24.87,7.68c-25.36,26.12-43.94,35.2-81.27,39.46,0,0-.32,7.47-.69,10.95C1297.81,904.62,1327.42,878,1340.76,860.78Z" class="colore7eeff svgShape"></path><path fill="#d1d7f3" d="M1267.94,950.35c-1.18-2.32-5.23-10.24-5.63-10.79a53,53,0,0,1,6.17-4.95c1.3,1.85,7.82,12.09,7.75,12.47-.79.51-5.17,2.59-7.07,3.49Z" class="colord1d7f3 svgShape"></path><path d="M1340.76,860.78c4-5.13.91-15.14-5.22-17.23s-15.16-2.33-24.87,7.68c-1.05,1.08-2.07,2.08-3.09,3.1-1,3.55-1.65,10.77-4.17,29a16.46,16.46,0,0,0,.25,6.37A95.63,95.63,0,0,0,1340.76,860.78Z" style="mix-blend-mode:multiply" fill="url(#d)"></path><path fill="url(#s)" d="M1268.63,1016.44H1040.28a14.07,14.07,0,0,1-14.07-14.07V869.18a14.07,14.07,0,0,1,14.07-14.07h171.37l30.53-33.59v33.59h26.45a14.07,14.07,0,0,1,14.07,14.07v133.19A14.07,14.07,0,0,1,1268.63,1016.44Z"></path><path d="M1029.21,1002.1V869.18a11.09,11.09,0,0,1,11.07-11.07h171.37v-3H1040.28a14.07,14.07,0,0,0-14.07,14.07V1002.1Z" style="mix-blend-mode:screen" fill="url(#t)"></path><path fill="#ced3f8" d="M1222.12 929.93a14.74 14.74 0 01-10.51-4.35 10.86 10.86 0 00-15.36 0 14.9 14.9 0 01-21 0 10.89 10.89 0 00-15.37 0 14.88 14.88 0 01-21 0 10.86 10.86 0 00-15.36 0 14.88 14.88 0 01-21 0 10.89 10.89 0 00-15.37 0 2 2 0 11-2.83-2.82 14.88 14.88 0 0121 0 10.89 10.89 0 0015.37 0 14.86 14.86 0 0121 0 10.9 10.9 0 0015.37 0 14.89 14.89 0 0121 0 10.89 10.89 0 0015.38 0 14.86 14.86 0 0121 0 10.89 10.89 0 0015.36 0 2 2 0 112.83 2.82A14.76 14.76 0 011222.12 929.93zM1222.12 952.42a14.74 14.74 0 01-10.51-4.35 10.86 10.86 0 00-15.36 0 14.9 14.9 0 01-21 0 10.89 10.89 0 00-15.37 0 14.88 14.88 0 01-21 0 10.86 10.86 0 00-15.36 0 14.88 14.88 0 01-21 0 10.89 10.89 0 00-15.37 0 2 2 0 11-2.83-2.82 14.88 14.88 0 0121 0 10.89 10.89 0 0015.37 0 14.86 14.86 0 0121 0 10.9 10.9 0 0015.37 0 14.88 14.88 0 0121 0 10.9 10.9 0 0015.38 0 14.86 14.86 0 0121 0 10.89 10.89 0 0015.36 0 2 2 0 112.83 2.82A14.76 14.76 0 011222.12 952.42zM1222.12 974.91a14.74 14.74 0 01-10.51-4.35 10.86 10.86 0 00-15.36 0 14.91 14.91 0 01-21 0 10.89 10.89 0 00-15.37 0 14.88 14.88 0 01-21 0 10.86 10.86 0 00-15.36 0 14.89 14.89 0 01-21 0 10.89 10.89 0 00-15.37 0 2 2 0 01-2.83-2.83 14.9 14.9 0 0121 0 10.88 10.88 0 0015.37 0 14.87 14.87 0 0121 0 10.88 10.88 0 0015.37 0 14.9 14.9 0 0121 0 10.89 10.89 0 0015.38 0 14.87 14.87 0 0121 0 10.86 10.86 0 0015.36 0 2 2 0 112.83 2.83A14.76 14.76 0 011222.12 974.91z" class="colorced3f8 svgShape"></path><g style="mix-blend-mode:screen"><circle cx="1124.64" cy="892.55" r="4.21" fill="#fb944b" class="colorfb944b svgShape"></circle><circle cx="1144.52" cy="892.55" r="4.21" fill="#fb944b" class="colorfb944b svgShape"></circle><circle cx="1164.39" cy="892.55" r="4.21" fill="#fb944b" class="colorfb944b svgShape"></circle><circle cx="1184.27" cy="892.55" r="4.21" fill="#fb944b" class="colorfb944b svgShape"></circle></g><path fill="#ffd3c9" d="M1295.45 947.72c-1.56 1.15-1.86 2.38-5.41 2.53s-4.88-.27-6.53-.14-6.66 0-6.5.84 6 1.45 5.83 2-13.76 6.64-11.46 8.5a17.11 17.11 0 0016.28 1.56c4.56-2.07 7.64-6.11 10.69-7C1300.77 952.48 1299 949.13 1295.45 947.72zM1433.93 991.65c-.15 1.11-3 1.26-3 1.26l3.45 8.21a21.81 21.81 0 015.85-1.35C1440.16 997.29 1436.73 995.06 1433.93 991.65z" class="colorffd3c9 svgShape"></path><path fill="#20196f" d="M1433.93,991.65c2.8,3.41,6.23,5.64,6.3,8.12,1.3.78,14.28,14.92,16.15,16.13s3.66.21,2.88-1.63c-1.12-2.68-11.39-24.39-11.39-24.39.3-.65.64-1.22.64-1.22l-2.13-5C1443.14,983.2,1435.47,986.9,1433.93,991.65Z" class="color20196f svgShape"></path><path fill="#423eaf" d="M1430.93,992.91l3.45,8.21c-6.94,1.73-58.26,9.24-103.94,15.33l10.3-33.77C1378.63,986.5,1407.1,989.61,1430.93,992.91Z" class="color423eaf svgShape"></path><path fill="#423eaf" d="M1382.41,919.51c6.54,16.25-13.33,43.29-26.65,72.38-1.08,2.38-13.89,20.38-25.32,24.56-17.15-5.89,2.9-78.76,5.84-86.2C1341.78,934.17,1382.41,919.51,1382.41,919.51Z" class="color423eaf svgShape"></path><path fill="#e7eeff" d="M1383.81,918.28c-13.83,13.09-51.24,17.27-51.24,17.27,10.17-45.26-25.58-34.51-22.4-57.51,2.83-20.45,3.28-27,4.56-30.14,7.77-18.79,17.42-16.67,32.87-7.7C1368,852,1379.42,895.26,1383.81,918.28Z" class="colore7eeff svgShape"></path><path d="M1331.74,872.39c-2.19-13.77,3.43-20.86,8.76-24.51s15.19-.11,16.92,6.16c4.48,16.26,9.68,47.65-15.2,80-5,1-9.65,1.47-9.65,1.47,2.72-12.1,2.25-20.16.17-25.95C1334.65,898.87,1334.05,887,1331.74,872.39Z" style="mix-blend-mode:multiply" fill="url(#u)"></path><path fill="#ffffff" d="M1356.58,855.65c-1-6.42-10.4-11-16.11-8S1328.38,857.06,1329,871c1.62,36.36-5.27,55.4-35.19,78.13,0,0,3.14,6.83,4.59,10C1359.33,926.41,1360,877.16,1356.58,855.65Z" class="colorfff svgShape"></path><path fill="#d1d7f3" d="M1298.3,959.59s-4.8-11.1-5.22-11.78a53.79,53.79,0,0,1,6.46-4.55c1.19,1.93,7,12.56,7,12.94C1305.43,956.79,1298.3,959.59,1298.3,959.59Z" class="colord1d7f3 svgShape"></path><path fill="#ffd3c9" d="M1332.27,837.21h0a26.39,26.39,0,0,1-3.57-17.2s2.18-11.31-2-20c-5.27-11-24.13-5.78-28-.92-4.76,6.79-3.12,13-1,21.36,0,0,.14,8.56.3,9.07.23.74,2.39-.32,2.64,0s1.49,5,3.64,6.23,6.26-1.13,7.93-.87c2.59.4,5.85,1.5,4.83,8.08C1314.55,853,1326.38,849,1332.27,837.21Z" class="colorffd3c9 svgShape"></path><path fill="url(#v)" d="M1379.75,838.31a13.08,13.08,0,0,0-13.94-15.92l-.5,0h0c-7.34.94-22.86-2.38-29.3-14.21-7.44-13.65-14.14-19.74-24.06-18.23s-15.92,7.63-15.55,13.18c3.73,14.37,9.5,16.2,15.27,14.72,5.19-1.34,8.88,1.6,9.06,6,.15,3.81,4.37,9.51,7.51,12.65-2.81,5.73-2,19.08,7.08,23.49a15.11,15.11,0,0,0,17.72-3,18.74,18.74,0,0,0,.72,2.91,18.08,18.08,0,1,0,26-21.6Z"></path><path fill="#f0c9c0" d="M244.75,760.86c3.18-1.46,3-14.38-4-29-6.14-12.7-18.64-26.56-24.56-36.79-1.35-2.33-.68-8-1.85-9.56-9.94-13.49-13.78-2.57-13.12.64.74,3.58,7.86,20,10.53,23.44S232.86,766.3,244.75,760.86Z" class="colorf0c9c0 svgShape"></path><path fill="#362e94" d="M156.23,809.72c.68,54.68,7.42,67.62,13.45,117.85-6.61,23.55-8.76,87.19-9.94,106.37h9.94c9.73-26.6,38.56-92,36-224.22Z" class="color362e94 svgShape"></path><path fill="#f8d8d0" d="M157.43,1037.57a41.75,41.75,0,0,0,2.31-3.63h9.94c-1,2.8-1.56,5.19-1.18,6.6C165.92,1041.53,162.14,1039,157.43,1037.57Z" class="colorf8d8d0 svgShape"></path><path fill="#423eaf" d="M157.43,1037.57c4.71,1.4,8.49,4,11.07,3,1.37,1,21.5,8.24,23.55,9.64s1.79,3.66-.43,3.66c-3.24,0-30-1.17-30-1.17-.54.58-1,1.17-1,1.17h-6.11C152.72,1050.68,153.22,1041.2,157.43,1037.57Z" class="color423eaf svgShape"></path><path fill="#f8d8d0" d="M205.23,649.09c.82,6.37,5.27,25.18,1.53,32-3.06,5.58-9.36,6.52-19.5,3.07s-10.55-21.87-11.89-27.19C173.27,648.52,203.51,635.7,205.23,649.09Z" class="colorf8d8d0 svgShape"></path><path fill="#f8d8d0" d="M196.37 683.78c.56 3.24 2.46 9.62 2.46 9.62-1.4 1.89-10.51 5-20.49-.71.72-6 .24-19.73.24-19.73zM147.65 759.18c-1.23 19 12 25.39 12 25.39l7.94-46.23c-7-1.19-11.51-3.17-15.67-6A135.75 135.75 0 00147.65 759.18z" class="colorf8d8d0 svgShape"></path><path fill="#fb944b" d="M152,732.34c4.16,2.83,8.62,4.81,15.67,6l7.63-44.42C168.55,697.73,158,710.08,152,732.34Z" class="colorfb944b svgShape"></path><path fill="url(#w)" d="M178.34,692.69c-6,1.29-16.79,11.09-20.4,36.34s-1.71,80.69-1.71,80.69h70.2c2.5-15.24.56-62.27-4.56-85.94-2.75-12.71-9.08-24.59-19.94-29.3C192.59,690.42,178.34,692.69,178.34,692.69Z"></path><path fill="#5652cc" d="M156.23,809.72c.68,54.68,37.22,80.95,47.49,116.21,0,40,7.55,99.23,8.22,108h9.93c5.4-23.63,26.14-148.6,4.56-224.22Z" class="color5652cc svgShape"></path><path fill="#f8d8d0" d="M212,1037.57c0-1.65,0-3.63,0-3.63h9.93c-.37,2.8.79,5.19,1.17,6.6C220.45,1041.53,216.68,1039,212,1037.57Z" class="colorf8d8d0 svgShape"></path><path fill="#423eaf" d="M212,1037.57c4.71,1.4,8.48,4,11.07,3,1.36,1,21.5,8.24,23.55,9.64s1.79,3.66-.43,3.66c-3.25,0-30-1.17-30-1.17-.54.58-1,1.17-1,1.17h-6.11C207.26,1050.68,207.75,1041.2,212,1037.57Z" class="color423eaf svgShape"></path><path fill="url(#x)" d="M226.43,809.72c2.5-15.24.56-62.27-4.56-85.94-.1-.48-.22-1-.34-1.45l-29.61-2.66c5.13,18.67,29.13,46.55,29.5,57.24s-.75,28.49-1.87,32.81Z"></path><path fill="#f8d8d0" d="M203.72,737.21c4.14,5.58,23.16,25.54,32,26.77,5.33.73,10.23-1.49,9.63-6.52s-16.9-29.79-19.14-34.11C221.87,723.78,203.72,737.21,203.72,737.21Z" class="colorf8d8d0 svgShape"></path><path fill="url(#y)" d="M226.21,723.35c-3.11-5.62-6-11.09-9.31-16-3.78-5.7-8.71-11.26-15.78-11.37s-15.44,5.07-11.85,17.44c1.58,5.45,7.06,14.74,14.45,23.83C214,734.55,222,727.68,226.21,723.35Z"></path><path fill="#362e94" d="M196.88,663.41c2.6-.33.41-4.34,1.3-6.72,1.08-2.87,2.48-4.49,7.85-4.7,7.43-.29,10.69-10.39,5.46-13.71s-8.74,2.73-12.39,2.05c-4.26-.8-4.22-5.86-10.2-4.5-5.51,1.25-2.26,6.09-5.68,7.51S173.64,640.68,170,647c-2.73,4.71,2.6,6.51,2.72,11.31.08,3-2.45,16.36,6,19s11.17-5.83,10.29-12.59c-.44-3.38-.07-6.37,2.11-6.67C192.77,657.81,193.16,663.87,196.88,663.41Z" class="color362e94 svgShape"></path><polygon fill="#20196f" points="605.82 1021.32 614.07 1021.32 690.33 670.19 682.08 670.19 605.82 1021.32" class="color20196f svgShape"></polygon><rect width="93.33" height="5.33" x="678.88" y="684.93" fill="#1f196f" class="color1f196f svgShape"></rect><rect width="93.33" height="5.33" x="670.09" y="725.39" fill="#1f196f" class="color1f196f svgShape"></rect><rect width="93.33" height="5.33" x="661.3" y="765.84" fill="#1f196f" class="color1f196f svgShape"></rect><rect width="93.33" height="5.33" x="652.52" y="806.3" fill="#1f196f" class="color1f196f svgShape"></rect><rect width="93.33" height="5.33" x="643.73" y="846.76" fill="#1f196f" class="color1f196f svgShape"></rect><rect width="93.33" height="5.33" x="634.94" y="887.22" fill="#1f196f" class="color1f196f svgShape"></rect><rect width="93.33" height="5.33" x="626.15" y="927.67" fill="#1f196f" class="color1f196f svgShape"></rect><rect width="93.33" height="5.33" x="617.37" y="968.13" fill="#1f196f" class="color1f196f svgShape"></rect><path fill="#f7d3c9" d="M752.05,563.69c.72-2.88-.54-10.23.68-14.41S762,531.49,764.36,532c2.16.49-4,9.56-4.14,11.71,2.06,1,9.47,5,7.81,9s-2.78,6.9-4.86,8.48c-1.69,1.29-2.39,5.14-2.39,5.14Z" class="colorf7d3c9 svgShape"></path><path fill="url(#z)" d="M621.34,741.93c.68,54.54,10.12,63.3,13.39,116.15,2.66,43.1-12.17,76-14,90.57h9.91c7.28-19.31,53.73-89.81,40-206.72Z"></path><path fill="#ffd3c9" d="M618.41,952.27a39.61,39.61,0,0,0,2.3-3.62h9.91c-1,2.8-1.55,5.19-1.17,6.59C626.87,956.22,623.11,953.68,618.41,952.27Z" class="colorffd3c9 svgShape"></path><path fill="#362e94" d="M618.41,952.27c4.7,1.41,8.46,4,11,3,1.36,1,21.45,8.21,23.5,9.61s1.78,3.65-.43,3.65c-3.24,0-29.92-1.17-29.92-1.17-.54.59-1,1.17-1,1.17h-6.09C613.71,965.36,614.2,955.9,618.41,952.27Z" class="color362e94 svgShape"></path><path fill="#423eaf" d="M621.34,741.93c0,49.71,32.45,52,54.25,100.21,15,33.12,17.95,97.76,18.62,106.51h9.9c5.39-23.57,21.09-113.54-9.9-206.72Z" class="color423eaf svgShape"></path><path fill="#ffd3c9" d="M694.24,952.27c0-1.64,0-3.62,0-3.62h9.9c-.37,2.8.79,5.19,1.17,6.59C702.7,956.22,698.93,953.68,694.24,952.27Z" class="colorffd3c9 svgShape"></path><path fill="#362e94" d="M694.24,952.27c4.69,1.41,8.46,4,11,3,1.36,1,21.45,8.21,23.5,9.61s1.78,3.65-.43,3.65c-3.24,0-29.92-1.17-29.92-1.17-.54.59-1,1.17-1,1.17h-6.09C689.54,965.36,690,955.9,694.24,952.27Z" class="color362e94 svgShape"></path><path fill="url(#A)" d="M749.89,562.67s-13.85,35-22.22,46.86c-7.06,6.11-29.93,12.62-49.73,11.29l-7-.7c-10.54-.83-26.68.33-26.68.33-14.24,5.06-17.43,11.51-21.18,37.71s-1.77,83.77-1.77,83.77h72.87c2.5-15.26.72-61.21-4.18-86.49,13.76-5.05,45.09-17.65,53.92-30.74,8.85-16.67,15.45-35.39,19.47-59.14C763.42,565.56,757.29,564.29,749.89,562.67Z"></path><path fill="#ffd3c9" d="M664,576.77c2,5.8,9.76,22.54,7.57,29.61-1.78,5.81-7.5,7.9-17.65,6.63s-14.08-18.43-16.35-23.15C634,582.38,659.8,564.57,664,576.77Z" class="colorffd3c9 svgShape"></path><path fill="#ffd3c9" d="M662.85,612.21c.54,3.1,1.9,7.63,1.9,7.63-1.34,1.81-21,4.1-19.13.87.69-5.67.23-18.84.23-18.84Z" class="colorffd3c9 svgShape"></path><path fill="#131147" d="M637.52,575.6c8.89-6.42,19.76-18.48,21.41-17.55.3.17-.18,1,.18,1.18.57.34,3.68-7.39,8.19-5.5s4.82,15.34-3.31,23,1.86,12-1.64,16.13-.82,15.66-7.75,17.2-10.11,6.63-10.8,2.22-6.43-12.27-7.53-19.77S632.59,579.16,637.52,575.6Z" class="color131147 svgShape"></path><path fill="#f7d3c9" d="M659.62,591c-.44-1.74.1-3.37,1.22-3.65s2.37.89,2.81,2.62-.1,3.37-1.22,3.65S660.06,592.75,659.62,591Z" class="colorf7d3c9 svgShape"></path><path d="M694.21,741.93c2.5-15.26.72-61.21-4.18-86.49,13.31-4.88,43.07-16.84,53-29.47h0c-2.87,4.13-38.64,23.49-58.74,24.9s-.29,8.27,1.68,19.32,3.85,42.38,1,71.74Z" style="mix-blend-mode:multiply" fill="url(#B)"></path><polygon fill="#423eaf" points="697.03 1021.32 705.28 1021.32 781.54 670.19 773.29 670.19 697.03 1021.32" class="color423eaf svgShape"></polygon></g></g></svg></g></svg>