<svg id="SvgjsSvg2369" width="550" height="550" xmlns="http://www.w3.org/2000/svg" version="1.1" xmlns:xlink="http://www.w3.org/1999/xlink" xmlns:svgjs="http://svgjs.com/svgjs"><defs id="SvgjsDefs2370"></defs><g id="SvgjsG2371"><svg xmlns="http://www.w3.org/2000/svg" enable-background="new 0 0 500 500" viewBox="0 0 500 500" width="550" height="550"><circle cx="233.29" cy="196.27" r="144.01" fill="#d7e3f4" class="colord7e3f4 svgShape"></circle><circle cx="396.67" cy="112.32" r="21.35" fill="#d7e3f4" class="colord7e3f4 svgShape"></circle><circle cx="136.28" cy="287.99" r="75.21" fill="#d7e3f4" class="colord7e3f4 svgShape"></circle><ellipse cx="255.21" cy="426.39" fill="#d7e3f4" rx="197.79" ry="13.54" class="colord7e3f4 svgShape"></ellipse><path fill="#1a004d" d="M362.01,123.86v287.66c0,8.97-7.27,16.24-16.24,16.24H189.83c-8.97,0-16.24-7.27-16.24-16.24V123.85						c0-8.97,7.27-16.24,16.24-16.24h41.31c3.68,0,6.66,2.98,6.66,6.66v0h60v0c0-3.68,2.98-6.66,6.66-6.66h41.3
						C354.73,107.6,362.01,114.88,362.01,123.86z" class="color1a004d svgShape"></path><path fill="#516cdd" d="M189.83,423.05c-6.35,0-11.52-5.17-11.52-11.53V123.85c0-6.35,5.17-11.53,11.53-11.53h41.31
						c1.07,0,1.94,0.87,1.94,1.94v4.72h69.43v-4.72c0-1.07,0.87-1.94,1.94-1.94h41.3c6.36,0,11.54,5.18,11.54,11.54v287.66
						c0,6.36-5.17,11.53-11.53,11.53H189.83z" class="color516cdd svgShape"></path><line x1="185" x2="197.29" y1="147.59" y2="147.59" fill="none" stroke="#fff" stroke-linecap="round" stroke-linejoin="round" stroke-miterlimit="10" stroke-width=".787" class="colorStrokefff svgStroke"></line><line x1="185" x2="192.92" y1="152.19" y2="152.19" fill="none" stroke="#fff" stroke-linecap="round" stroke-linejoin="round" stroke-miterlimit="10" stroke-width=".787" class="colorStrokefff svgStroke"></line><path fill="#ffffff" d="M424.29,155.33V283.3c0,5.58-3.74,10.09-8.34,10.09H201.6c-4.59,0-8.34-4.51-8.34-10.09
																			V155.33c0-5.54,3.75-10.05,8.34-10.05h214.36C420.55,145.29,424.29,149.79,424.29,155.33z" class="colorfff svgShape"></path><path fill="#d7e3f4" d="M415.95,293.72H201.6c-4.78,0-8.68-4.68-8.68-10.42V155.33c0-5.73,3.89-10.38,8.68-10.38
																			h214.36c4.78,0,8.68,4.66,8.68,10.38V283.3C424.63,289.05,420.74,293.72,415.95,293.72z M201.6,145.62
																			c-4.41,0-8,4.36-8,9.71V283.3c0,5.38,3.59,9.75,8,9.75h214.36c4.41,0,8-4.37,8-9.75V155.33
																			c0-5.35-3.59-9.71-8-9.71H201.6z" class="colord7e3f4 svgShape"></path><path fill="#1a004d" d="M424.37,155.32v18.36H193.32v-18.36c0-5.56,3.74-10.06,8.36-10.06h214.34
																			C420.63,145.25,424.37,149.76,424.37,155.32z" class="color1a004d svgShape"></path><path fill="#1a004d" d="M424.71,174.01H192.99v-18.7c0-5.73,3.9-10.4,8.7-10.4h214.34c4.79,0,8.68,4.66,8.68,10.4
																			V174.01z M193.66,173.34h230.37v-18.02c0-5.36-3.59-9.72-8.01-9.72H201.68c-4.42,0-8.02,4.36-8.02,9.72V173.34z" class="color1a004d svgShape"></path><circle cx="384.75" cy="159.94" r="2.22" fill="#ffffff" class="colorfff svgShape"></circle><circle cx="394.44" cy="159.94" r="2.22" fill="#ffffff" class="colorfff svgShape"></circle><circle cx="404.13" cy="159.94" r="2.22" fill="#ffffff" class="colorfff svgShape"></circle><path fill="#c63e3e" d="M388.49,400.72c0,0,9.17-33.11,21.7-27.52c12.53,5.59-2.91,24.38-21.81,29.31" class="colorc63e3e svgShape"></path><path fill="#db5353" d="M389.28,378.01c0,0,8.28-46.31,19.69-43.85s-20.47,69.24-20.47,69.24l-2.35-10.07l3.58-15.32" class="colordb5353 svgShape"></path><path fill="#c63e3e" d="M385.25,404.86c0,0-18.69-63.36-7.05-65.88c19.13-4.14,10.96,42.62,9.4,65.43" class="colorc63e3e svgShape"></path><path fill="#db5353" d="M386.93,401.95c0,0-9.84-44.07-23.04-42.84c-13.2,1.23,22.37,43.51,22.37,43.51" class="colordb5353 svgShape"></path><path fill="#1a004d" d="M407.79,398.92c0,0-0.27,12.59-0.51,17.97c-0.1,2.55-0.75,6.99-2.92,11h-28.99c-2.19-4.01-2.82-8.45-2.94-11
				c-0.22-5.38-0.49-17.97-0.49-17.97H407.79z" class="color1a004d svgShape"></path><path fill="#db5353" d="M308.81,183.94c-6.72,0-12.19,5.46-12.19,12.19v11.06h2.45v-11.06c0-5.37,4.37-9.74,9.74-9.74
					c5.36,0,9.74,4.37,9.74,9.74v11.06H321v-11.06C321,189.4,315.53,183.94,308.81,183.94z" class="colordb5353 svgShape"></path><path fill="#db5353" d="M324.91,203.55h-32.19c-1.18,0-2.14,0.96-2.14,2.15v18.95c0,1.19,0.96,2.15,2.14,2.15h32.19
				c1.19,0,2.15-0.96,2.15-2.15V205.7C327.06,204.51,326.1,203.55,324.91,203.55z M310.34,215.44v4.76h-3.05v-4.75
				c-0.81-0.51-1.35-1.41-1.35-2.43c0-1.59,1.29-2.86,2.87-2.86c1.58,0,2.86,1.28,2.86,2.86
				C311.68,214.03,311.15,214.93,310.34,215.44z" class="colordb5353 svgShape"></path><rect width="29.9" height="29.9" x="218.34" y="245.03" fill="#d7e3f4" class="colord7e3f4 svgShape"></rect><line x1="224.98" x2="241.61" y1="268.16" y2="268.16" fill="none" stroke="#1a004d" stroke-miterlimit="10" stroke-width=".833" class="colorStroke1a004d svgStroke"></line><rect width="29.9" height="29.9" x="256.1" y="245.03" fill="#d7e3f4" class="colord7e3f4 svgShape"></rect><line x1="262.74" x2="279.37" y1="268.16" y2="268.16" fill="none" stroke="#1a004d" stroke-miterlimit="10" stroke-width=".833" class="colorStroke1a004d svgStroke"></line><rect width="29.9" height="29.9" x="293.86" y="245.03" fill="#d7e3f4" class="colord7e3f4 svgShape"></rect><line x1="300.5" x2="317.13" y1="268.16" y2="268.16" fill="none" stroke="#1a004d" stroke-miterlimit="10" stroke-width=".833" class="colorStroke1a004d svgStroke"></line><rect width="29.9" height="29.9" x="331.62" y="245.03" fill="#d7e3f4" class="colord7e3f4 svgShape"></rect><line x1="338.26" x2="354.89" y1="268.16" y2="268.16" fill="none" stroke="#1a004d" stroke-miterlimit="10" stroke-width=".833" class="colorStroke1a004d svgStroke"></line><g><rect width="29.9" height="29.9" x="369.38" y="245.03" fill="#d7e3f4" class="colord7e3f4 svgShape"></rect><line x1="376.02" x2="392.65" y1="268.16" y2="268.16" fill="none" stroke="none" stroke-miterlimit="10" stroke-width=".833"></line></g><g><polygon fill="#e9c09f" points="114.77 397.82 114.44 401.6 114.18 404.58 113.21 411.83 110.35 418.89 99.59 418.7 98.63 412.29 99.55 404.77 100.15 397.41 100.25 396.22" class="colore9c09f svgShape"></polygon><polygon fill="#e9c09f" points="156.64 411.29 156.32 415.77 145.66 417.17 143.26 411.44 142.86 405.27 142.3 396.85 150.9 395.83 155.83 395.24 155.92 397.11 155.98 398.35" class="colore9c09f svgShape"></polygon><path fill="#db6a6a" d="M176.27,421.9c0,0,1.21,3.68-4.8,4.44c-6.02,0.77-10.62,0.9-13.76,0.3c-3.14-0.6-4.75-0.44-8.02-0.08
						c-3.27,0.36-6.57,0.59-8.26-1.04c-1.39-1.33-0.27-3.87-0.27-3.87l18.07-0.38L176.27,421.9z" class="colordb6a6a svgShape"></path><path fill="#1a004d" d="M156.88,411.38c0,0,7.3,4.92,10.87,6.57c3.57,1.65,8.12,0.32,8.52,3.95c0.41,3.63-9.56,3.09-15.4,2.71
						c-5.84-0.38-9.98-2.55-13.01-1.57c-3.03,0.98-6.46-0.38-6.7-1.38c-0.24-1,1.09-9.88,1.85-10.75c0,0,1.23,3.14,6.97,3.14
						C155.72,414.04,156.88,411.38,156.88,411.38z" class="color1a004d svgShape"></path><linearGradient id="a" x1="3694.339" x2="3696.176" y1="417.368" y2="417.368" gradientTransform="translate(-3530.778)" gradientUnits="userSpaceOnUse" fill="none"><stop offset="0" stop-color="#e9eefa" class="stopColore9eefa svgShape"></stop><stop offset="1" stop-color="#ffffff" class="stopColorfff svgShape"></stop></linearGradient><path fill="url(#a)" d="M163.74,418.59l0.09,0.05c0.17,0.1,0.38,0.03,0.48-0.14l1.04-1.88c0.09-0.17,0.03-0.39-0.13-0.48
						l-0.09-0.05c-0.17-0.1-0.38-0.03-0.48,0.14l-1.04,1.88C163.51,418.28,163.57,418.5,163.74,418.59z"></path><linearGradient id="b" x1="3692.684" x2="3694.521" y1="416.257" y2="416.257" gradientTransform="translate(-3530.778)" gradientUnits="userSpaceOnUse" fill="none"><stop offset="0" stop-color="#e9eefa" class="stopColore9eefa svgShape"></stop><stop offset="1" stop-color="#ffffff" class="stopColorfff svgShape"></stop></linearGradient><path fill="url(#b)" d="M162.09,417.48l0.09,0.05
						c0.17,0.1,0.38,0.03,0.48-0.14l1.04-1.88c0.09-0.17,0.03-0.39-0.13-0.48l-0.09-0.05c-0.17-0.1-0.38-0.03-0.48,0.14l-1.04,1.88
						C161.86,417.17,161.92,417.38,162.09,417.48z"></path><linearGradient id="c" x1="3690.757" x2="3692.594" y1="415.086" y2="415.086" gradientTransform="translate(-3530.778)" gradientUnits="userSpaceOnUse" fill="none"><stop offset="0" stop-color="#e9eefa" class="stopColore9eefa svgShape"></stop><stop offset="1" stop-color="#ffffff" class="stopColorfff svgShape"></stop></linearGradient><path fill="url(#c)" d="M160.16,416.31l0.09,0.05
						c0.17,0.1,0.38,0.03,0.48-0.14l1.04-1.88c0.09-0.17,0.03-0.39-0.13-0.48l-0.09-0.05c-0.17-0.1-0.38-0.03-0.48,0.14l-1.04,1.88
						C159.93,416,159.99,416.21,160.16,416.31z"></path><linearGradient id="d" x1="3688.853" x2="3690.69" y1="413.927" y2="413.927" gradientTransform="translate(-3530.778)" gradientUnits="userSpaceOnUse" fill="none"><stop offset="0" stop-color="#e9eefa" class="stopColore9eefa svgShape"></stop><stop offset="1" stop-color="#ffffff" class="stopColorfff svgShape"></stop></linearGradient><path fill="url(#d)" d="M158.25,415.15l0.09,0.05
						c0.17,0.1,0.38,0.03,0.48-0.14l1.04-1.88c0.09-0.17,0.03-0.39-0.13-0.48l-0.09-0.05c-0.17-0.1-0.38-0.03-0.48,0.14l-1.04,1.88
						C158.03,414.84,158.09,415.05,158.25,415.15z"></path><path fill="#1a004d" d="M158.55,401.47l-17.98,1.65l-5.14-73.95L128,297.82c-0.07,0.61-2.79,27.06-4.1,38.43
						c-1.37,11.82-3.29,46.69-6,67.55l-20.59-1.35c1.15-23.49,4.69-62.61,4.18-71.25c-2.56-43.17-1.93-53.74-1.3-68.48
						c0.38-8.78,1.89-13.53,1.89-13.53s45.51,0,46.24,0c0,0,7.5,51.55,8.94,80.69c0.7,14.11,1.23,48.61,1.28,69.62
						C158.55,400.16,158.55,400.82,158.55,401.47z" class="color1a004d svgShape"></path><path fill="#e5e6e7" d="M158.55,401.47l-17.98,1.65l-5.14-73.95L128,297.82l2.95-19.08c0,0,8.2,33.28,10.06,48.28
						c1.86,14.99,0.93,66.22,16.11,71.85c0.54,0.2,1.01,0.41,1.42,0.61C158.55,400.16,158.55,400.82,158.55,401.47z" class="colore5e6e7 svgShape"></path><path fill="#db6a6a" d="M98.07,419.09c0,0-0.09,5.04,0.5,5.4c1.65,1,2.79,0.98,4.77,1.81c1.89,0.8,5.37,1.4,8.79,1.55
							c2.28,0.1,7.39,0.16,7.52-1.98c0.01-0.18,0.32-1.45,0.06-1.64C116.87,422.17,98.07,419.09,98.07,419.09z" class="colordb6a6a svgShape"></path><path fill="#1a004d" d="M119.74,424.62c-1.95,1.79-19.44,2.1-21.24-3.36c-1.02-3.05-0.06-9.44-0.06-9.44s4.38,1.34,10.91,1.04
								c2.1-0.1,3.93-1.13,3.93-0.93c0,0.75,0.7,2.02,0.89,2.22C114.63,414.6,121.68,422.82,119.74,424.62z" class="color1a004d svgShape"></path><linearGradient id="e" x1="3640.07" x2="3645.893" y1="417.153" y2="417.153" gradientTransform="translate(-3530.778)" gradientUnits="userSpaceOnUse" fill="none"><stop offset="0" stop-color="#e9eefa" class="stopColore9eefa svgShape"></stop><stop offset="1" stop-color="#ffffff" class="stopColorfff svgShape"></stop></linearGradient><path fill="url(#e)" d="M115.09,416.25L115.09,416.25
						c0.08,0.25-0.06,0.51-0.3,0.58l-4.9,1.53c-0.24,0.08-0.5-0.06-0.58-0.31l0,0c-0.08-0.25,0.06-0.51,0.3-0.58l4.9-1.53
						C114.76,415.87,115.02,416.01,115.09,416.25z"></path><linearGradient id="f" x1="3641.149" x2="3646.972" y1="418.664" y2="418.664" gradientTransform="translate(-3530.778)" gradientUnits="userSpaceOnUse" fill="none"><stop offset="0" stop-color="#e9eefa" class="stopColore9eefa svgShape"></stop><stop offset="1" stop-color="#ffffff" class="stopColorfff svgShape"></stop></linearGradient><path fill="url(#f)" d="M116.17,417.76L116.17,417.76
						c0.08,0.25-0.06,0.51-0.3,0.58l-4.9,1.53c-0.24,0.08-0.5-0.06-0.58-0.31l0,0c-0.08-0.25,0.06-0.51,0.3-0.58l4.9-1.53
						C115.84,417.38,116.1,417.52,116.17,417.76z"></path><linearGradient id="g" x1="3642.318" x2="3648.141" y1="420.358" y2="420.358" gradientTransform="translate(-3530.778)" gradientUnits="userSpaceOnUse" fill="none"><stop offset="0" stop-color="#e9eefa" class="stopColore9eefa svgShape"></stop><stop offset="1" stop-color="#ffffff" class="stopColorfff svgShape"></stop></linearGradient><path fill="url(#g)" d="M117.34,419.46L117.34,419.46
						c0.08,0.25-0.06,0.51-0.3,0.58l-4.9,1.53c-0.24,0.08-0.5-0.06-0.58-0.31l0,0c-0.08-0.25,0.06-0.51,0.3-0.58l4.9-1.53
						C117.01,419.07,117.27,419.21,117.34,419.46z"></path><linearGradient id="h" x1="3639.053" x2="3644.876" y1="415.717" y2="415.717" gradientTransform="translate(-3530.778)" gradientUnits="userSpaceOnUse" fill="none"><stop offset="0" stop-color="#e9eefa" class="stopColore9eefa svgShape"></stop><stop offset="1" stop-color="#ffffff" class="stopColorfff svgShape"></stop></linearGradient><path fill="url(#h)" d="M114.08,414.82L114.08,414.82
						c0.08,0.25-0.06,0.51-0.3,0.58l-4.9,1.53c-0.24,0.08-0.5-0.06-0.58-0.31l0,0c-0.08-0.25,0.06-0.51,0.3-0.58l4.9-1.53
						C113.74,414.43,114,414.57,114.08,414.82z"></path><g fill="none"><path fill="#efc0c1" d="M160.54,199.61c0,0,3.71,8.17,4.66,9.89l18.71-24.09l7.15,4.97c0,0-16.8,40.69-31.84,37.83
							c-10.68-2.03-18.62-31.42-18.43-31.79L160.54,199.61z" class="colorefc0c1 svgShape"></path><line x1="165.2" x2="161.12" y1="209.5" y2="216.56" fill="none" stroke="none" stroke-miterlimit="10" stroke-width=".187"></line><path fill="#db5353" d="M125.16,180.69c0,0,6.59-8.19,10.65-8.23c3.37-0.03,6.23-3.75,14.7,7.97
							c7.67,10.62,13.73,23.51,13.73,23.51l-18.64,11.84L125.16,180.69z" class="colordb5353 svgShape"></path><path fill="#efc0c1" d="M182.41,188.43c0,0,1.6-1.45,1.6-4.14c0-2.68,0.13-5.34,1.5-7.24c1.37-1.9,4.22-5.26,6.13-5.41
							c1.91-0.15,4.77,0.93,5.26,1.72c0.5,0.78-0.01,1.27-0.01,1.27s1.42,0.22,1.98,0.8s0.2,1.14,0.2,1.14s1.66,0.31,1.9,1.03
							s-0.55,1.53-1.58,1.36s-4.24,0.42-4.83,1.53c-0.59,1.12-0.61,6.02-1.92,8.62c-0.84,1.66-1.92,2.31-1.92,2.31L182.41,188.43z" class="colorefc0c1 svgShape"></path><path fill="#efc0c1" d="M188.64 189.76c0 0 .24-.21.59-.63.36-.41.84-1.04 1.23-1.88.19-.42.34-.9.37-1.41.02-.51-.03-1.11.01-1.7.04-1.19.33-2.54 1.15-3.59.2-.27.45-.49.54-.71.11-.23.09-.44-.07-.62-.34-.37-.96-.5-1.5-.49-1.14.01-1.96.82-2.47 1.59-.53.77-.89 1.47-1.13 1.96-.24.5-.35.79-.35.79s.08-.3.27-.83c.2-.51.48-1.26.99-2.08.26-.4.57-.83 1-1.21.44-.38 1.04-.6 1.67-.65.62-.02 1.32.06 1.86.6.28.27.33.78.15 1.11-.18.36-.42.56-.59.8-.75.95-1.03 2.18-1.11 3.34-.06.59-.03 1.13-.08 1.7-.06.57-.26 1.07-.47 1.5-.44.86-1.01 1.44-1.4 1.83C188.9 189.58 188.64 189.76 188.64 189.76zM199.07 176.57c0 0-.09.02-.25.04-.15.02-.47.07-.66.1-.26.04-.67.1-.92.14-.33.05-.69.1-1.04.18-.35.06-.7.14-1.02.23-.32.09-.62.18-.85.3-.23.12-.44.22-.55.33-.12.1-.2.16-.2.16s.05-.08.13-.22c.09-.14.25-.33.48-.49.23-.17.52-.34.86-.46.33-.14.7-.22 1.06-.3.37-.06.74-.11 1.09-.13.35-.02.67 0 .95.01.28.01.51.05.67.07C198.98 176.55 199.07 176.57 199.07 176.57zM196.89 174.63c0 0-.13-.01-.35-.02-.21-.01-.63-.03-.91-.05-.37-.03-.81-.03-1.27-.03-.46 0-.95.01-1.42.1-.47.06-.84.28-1.19.58-.34.29-.64.6-.88.88-.23.29-.43.53-.56.71-.13.18-.2.28-.2.28s.04-.12.12-.33c.09-.2.22-.5.42-.82.21-.32.46-.7.82-1.04.33-.34.85-.66 1.38-.73.52-.09 1.04-.08 1.52-.05.48.03.91.12 1.29.18.37.07.68.16.89.22C196.77 174.59 196.89 174.63 196.89 174.63z" opacity=".5" class="colorefc0c1 svgShape"></path><path fill="#efc0c1" d="M143.23,177.43c-0.05-0.09-7.97,10.56-14.09,9.27c-6.84-1.45-11.35-14.65-11.35-14.65l-0.51-13.7
						l-0.01-0.22l-0.07-0.81l1.36,0.33l5.39,1.32l2.16,0.54l5.53,1.35c0,0,0.5,3.5,1.48,6.28c0.11,0.29,0.2,0.57,0.31,0.83
						c0.2,0.45,0.47,0.87,0.76,1.22c0.67,0.83,1.44,1.33,1.44,1.34C137.28,173.19,143.19,177.43,143.23,177.43z" class="colorefc0c1 svgShape"></path><path fill="#e5e6e7" d="M134.19,169.18c-11.02,4.2-16.4-9.02-16.91-10.83l-0.01-0.22l-0.07-0.81l1.36,0.33
						c1.54,0.8,3.7,1.68,5.39,1.32l2.16,0.54l5.53,1.35c0,0,0.5,3.5,1.48,6.28c0.11,0.29,0.2,0.57,0.31,0.83
						C133.63,168.41,133.9,168.83,134.19,169.18z" class="colore5e6e7 svgShape"></path><path fill="#efc0c1" d="M137.13,151.96c0.08,7-0.99,14.29-7.61,14.82c-4.63,0.36-10.42-4.87-12.75-10.37
						c-1.2-2.84-2.28-5.31-2.73-7.25c-0.36-1.54-0.51-2.52-0.51-2.52l0.3-3.6l0.18-2.11c0,0,1.16-1.51,2.45-3.21
						c1.61-2.13,5.26-0.46,5.29-0.59c0.04-0.19,8.71-3.58,12.4-0.62c0.01,0.01,0.02,0.01,0.02,0.02c0.34,0.27,0.61,0.56,0.82,0.87
						c0.17,0.26,0.29,0.53,0.36,0.82c0.13,0.56,0.31,1.4,0.52,2.47c0.08,0.45,0.18,0.93,0.27,1.45c0.15,0.88,0.31,1.84,0.45,2.86
						C136.88,147.13,137.1,149.54,137.13,151.96z" class="colorefc0c1 svgShape"></path><path fill="#1a004d" d="M113.73,149.16c0,0-7.45-14.55,5.1-17.14c0,0,8.47-6.51,15.82-2.93c6.53,3.18,5.41,9.78,1.56,12
						c-2.52,1.46-15.68,0.43-17.33,2.01c-1.65,1.58-1.81,14.1-1.81,14.1S115.51,151.88,113.73,149.16z" class="color1a004d svgShape"></path><ellipse cx="121.76" cy="132" fill="#1a004d" rx="5.14" ry="5.39" transform="rotate(-10.391 121.78 131.99)" class="color1a004d svgShape"></ellipse><ellipse cx="129.72" cy="132.25" fill="#1a004d" rx="6.67" ry="7" transform="rotate(-10.391 129.744 132.24)" class="color1a004d svgShape"></ellipse><ellipse cx="137.24" cy="134.79" fill="#1a004d" rx="5.14" ry="5.39" transform="rotate(-10.391 137.264 134.781)" class="color1a004d svgShape"></ellipse><ellipse cx="121.07" cy="141.25" fill="#1a004d" rx="3.72" ry="3.9" transform="rotate(-10.391 121.09 141.235)" class="color1a004d svgShape"></ellipse><ellipse cx="114.49" cy="136.05" fill="#1a004d" rx="3.72" ry="3.9" transform="rotate(-10.391 114.52 136.037)" class="color1a004d svgShape"></ellipse><ellipse cx="113.75" cy="141.1" fill="#1a004d" rx="3.72" ry="3.9" transform="rotate(-10.391 113.78 141.089)" class="color1a004d svgShape"></ellipse><ellipse cx="114.77" cy="145.4" fill="#1a004d" rx="3.15" ry="3.3" transform="rotate(-10.391 114.791 145.394)" class="color1a004d svgShape"></ellipse><ellipse cx="128.48" cy="141.51" fill="#1a004d" rx="3.72" ry="3.9" transform="rotate(-10.391 128.51 141.497)" class="color1a004d svgShape"></ellipse><ellipse cx="117.47" cy="131.5" fill="#1a004d" rx="3.7" ry="3.88" transform="rotate(-10.391 117.493 131.49)" class="color1a004d svgShape"></ellipse><path fill="#efc0c1" d="M116.14,150.01c0,0-4.44-1.85-3.55,2.14c0.9,3.99,5,5.01,5,5.01L116.14,150.01z" class="colorefc0c1 svgShape"></path><path fill="#edaa98" d="M115.42,151.48c0,0-3.27-0.36,0.67,3.36" class="coloredaa98 svgShape"></path><ellipse cx="133.28" cy="151.8" fill="#1a004d" rx="1.11" ry=".64" transform="rotate(-87.656 133.277 151.798)" class="color1a004d svgShape"></ellipse><ellipse cx="125.72" cy="152.32" fill="#1a004d" rx="1.11" ry=".64" transform="rotate(-87.656 125.716 152.317)" class="color1a004d svgShape"></ellipse><path fill="#1a004d" d="M131.61 149.03c0 0 1.6-1.68 3.31-1.11L131.61 149.03zM122.78 149.01c.14-.04 2.42-.85 4.07.43L122.78 149.01z" class="color1a004d svgShape"></path><path fill="none" stroke="none" stroke-linecap="round" stroke-linejoin="round" stroke-miterlimit="10" stroke-width=".209" d="M129.79,153.32c0,0-0.13,1.85,0.73,2.23s1.5,2.14-0.75,1.83"></path><path fill="#ffffff" d="M132.74,160.36c0,0-0.06,0.19-0.23,0.44c-0.29,0.46-0.9,1.13-2.04,1.26c-1.12,0.12-1.98-0.42-2.45-0.83
							c-0.26-0.23-0.41-0.42-0.41-0.42" class="colorfff svgShape"></path><path fill="#db5353" d="M146.81,181.95c0.51,11.8-0.38,23.38,0.05,35c-0.03,12.48,2.44,33.18,2.44,33.3
					c0.01-0.36-5.68,3.03-16.74,6.15c-10.53,2.97-27.62,2.02-32.61,0.33c-0.18-0.05-3.09-33.43-3.01-34.14
					c-0.42-43.06-1.17-46.04,4.12-49.46c2.45-1.87,4.43-1.98,7.41-2.89l0-0.01c2.05-0.68,7.96-1.96,9.14-2.1
					c3.33,3.89,9.49,10.56,13.83,10.9c4.72-1.71,2.42-8.57,2.75-9.85C141.74,170.04,146.92,173.76,146.81,181.95z" class="colordb5353 svgShape"></path><g fill="none"><path fill="#efc0c1" d="M91.76,211.48c0,0-1.31,20.68,1.44,25.24c2.41,4,3.94,7.68,26.65-5.92
							c5.86-3.51,18.61-14.94,18.61-14.94l-5.76-6.67l-23.24,10.46l0.32-6.09L91.76,211.48z" class="colorefc0c1 svgShape"></path><line x1="109.45" x2="101.91" y1="219.66" y2="223.26" fill="none" stroke="none" stroke-miterlimit="10" stroke-width=".187"></line><path fill="#db5353" d="M101.8,172.53c0,0-8.13,4.08-9.08,11.94c-0.95,7.85-2.11,28.79-2.11,28.79l19.49,0.86
							c0,0,1.74-19.06,1.58-28.91C111.51,175.35,101.8,172.53,101.8,172.53z" class="colordb5353 svgShape"></path><path fill="none" stroke="none" stroke-miterlimit="10" stroke-width=".187" d="M109.75,215.23c0,0,2.07-20.17,1.91-30.02"></path></g><path fill="none" stroke="none" stroke-miterlimit="10" stroke-width=".187" d="M146.76,185.9c0.01,5.76-0.37,12.44,0.07,24.06"></path><g fill="none"><polygon fill="#260f60" points="164.8 192.76 164.3 192.02 149.83 193.35 138.64 213.45 153.39 213.27 163.68 193.23" class="color260f60 svgShape"></polygon><polygon fill="#1a004d" points="150.33 194.1 139.14 214.19 153.89 214.01 164.8 192.76" class="color1a004d svgShape"></polygon><ellipse cx="160.98" cy="195.87" fill="#260f60" rx="1.2" ry=".79" transform="rotate(-63.13 160.979 195.876)" class="color260f60 svgShape"></ellipse></g><g fill="none"><path fill="#efc0c1" d="M152.3,207.65c0,0,1.82-0.42,1.07,1.22c-0.74,1.64-4.34,5.34-6.37,5.85c-2.02,0.52-7.79,0.55-8.55,1.14
						c-0.75,0.59-5.84-6.36-5.84-6.36s4.63-5.7,7.06-7.42c1.32-0.94,3.86-1.33,5.79-1.24l-1.47,2.86c-0.5,0.09-0.86,0.19-0.95,0.32
						c-0.33,0.5,0.35,0.87,1.7,0.42c1.35-0.44,8.1-4.06,8.65-3.37c0.93,1.16-3.08,3.53-5.84,5.11c-1.05,0.6-2.86,1.95-2.86,1.95
						s1.77-0.2,3.52-1.23c1.75-1.03,4.88-3.12,5.8-2.28C154.93,205.47,152.3,207.65,152.3,207.65z" class="colorefc0c1 svgShape"></path><path fill="none" stroke="none" stroke-miterlimit="10" stroke-width=".19" d="M152.3,207.65c0,0-3.32,3.3-6.56,3.85"></path></g></g></g><rect width="144.22" height="72.51" x="195.69" y="317.91" fill="#d7e3f4" class="colord7e3f4 svgShape"></rect><text font-family="Poppins-Bold" font-size="15.564" transform="translate(227.937 262.446)">5</text><g><text font-family="Poppins-Bold" font-size="15.564" transform="translate(266.951 262.446)" fill="none">7</text></g><g><text font-family="Poppins-Bold" font-size="15.564" transform="translate(304.222 262.446)" fill="none">4</text></g></svg></g></svg>