<?xml version="1.0" standalone="no"?>
<!DOCTYPE svg PUBLIC "-//W3C//DTD SVG 20010904//EN"
 "http://www.w3.org/TR/2001/REC-SVG-20010904/DTD/svg10.dtd">
<svg version="1.0" xmlns="http://www.w3.org/2000/svg"
 width="300.000000pt" height="300.000000pt" viewBox="0 0 300.000000 300.000000"
 preserveAspectRatio="xMidYMid meet">
<metadata>
Created by potrace 1.10, written by Peter Selinger 2001-2011
</metadata>
<g transform="translate(0.000000,300.000000) scale(0.100000,-0.100000)"
fill="#000000" stroke="none">
<path d="M1971 2283 c-45 -48 -80 -92 -78 -97 6 -17 152 -115 173 -115 25 -1
186 170 176 186 -10 16 -163 113 -177 113 -8 0 -50 -39 -94 -87z m209 4 c25
-17 47 -32 49 -33 6 -5 -151 -174 -161 -174 -13 0 -158 101 -158 110 0 3 34
44 76 89 l76 81 37 -22 c20 -12 56 -35 81 -51z"/>
<path d="M572 2209 c-87 -11 -158 -46 -218 -108 -55 -56 -109 -144 -99 -161
12 -19 28 -10 90 49 77 74 115 86 240 77 49 -4 91 -9 94 -11 2 -3 -20 -26 -50
-52 -261 -232 -379 -464 -379 -745 0 -102 4 -130 27 -201 24 -73 34 -89 94
-150 37 -38 69 -67 71 -66 2 1 34 -8 72 -20 84 -26 229 -28 320 -5 262 67 487
302 590 616 13 41 38 100 55 130 41 73 41 121 0 170 -33 41 -91 65 -132 54
-39 -9 -85 -53 -92 -87 -5 -24 -11 -29 -23 -23 -10 4 -36 9 -58 12 -117 12
-170 -112 -86 -200 31 -33 65 -44 161 -52 40 -4 80 -10 87 -14 19 -10 -81
-148 -155 -214 -114 -103 -281 -155 -461 -145 -202 11 -309 91 -339 251 -18
98 11 235 71 336 66 110 223 261 363 349 74 47 135 109 135 137 0 32 -49 62
-114 68 -112 11 -204 13 -264 5z m319 -32 c48 -20 54 -32 34 -65 -21 -33 -43
-52 -114 -99 -216 -141 -368 -310 -422 -471 -33 -95 -33 -236 -1 -307 59 -129
171 -185 373 -185 194 0 331 52 454 175 66 65 145 171 145 193 0 15 -25 22
-121 32 -48 5 -101 15 -117 24 -49 25 -77 109 -52 157 24 44 102 62 150 34 35
-20 37 -19 44 18 7 38 37 70 80 87 40 15 87 -2 126 -46 41 -47 39 -85 -5 -159
-20 -32 -38 -70 -41 -84 -11 -49 -46 -136 -86 -216 -103 -206 -269 -357 -468
-426 -54 -19 -87 -23 -190 -23 -162 0 -217 19 -306 108 -51 52 -64 72 -85 136
-21 64 -24 93 -23 205 0 142 13 207 65 329 58 136 176 288 319 409 72 62 63
69 -83 75 -136 5 -168 -7 -241 -90 -25 -28 -49 -49 -53 -44 -12 12 38 96 88
147 48 50 105 83 166 99 59 15 321 6 364 -13z"/>
<path d="M1314 1729 c-12 -13 -21 -42 -24 -75 l-5 -54 -37 25 c-50 34 -88 41
-125 21 -38 -19 -48 -55 -29 -100 21 -49 53 -66 148 -76 45 -4 95 -11 109 -15
25 -6 29 -2 53 47 14 29 38 74 52 100 24 43 25 51 14 78 -28 67 -115 94 -156
49z m115 -15 c40 -33 40 -71 1 -135 -16 -27 -36 -64 -44 -82 l-14 -34 -53 8
c-30 5 -80 11 -111 14 -72 8 -108 39 -108 95 0 72 68 87 145 32 25 -18 49 -32
54 -32 4 0 6 24 3 53 -3 42 0 57 18 80 28 35 68 36 109 1z"/>
<path d="M2005 1921 c-23 -10 -48 -29 -56 -42 -22 -34 -89 -239 -89 -272 0
-41 27 -82 72 -107 38 -21 82 -23 163 -9 25 5 32 -27 11 -50 -9 -10 -49 -34
-89 -52 -60 -28 -84 -34 -144 -34 -63 0 -76 3 -115 30 -26 18 -51 47 -63 73
-11 23 -23 41 -27 40 -4 -2 -34 -25 -67 -53 -53 -44 -61 -54 -61 -85 0 -20 9
-53 19 -73 l19 -38 -73 -98 c-42 -55 -141 -162 -229 -247 -86 -83 -156 -158
-156 -168 0 -45 63 -26 160 49 65 50 221 207 305 308 57 68 74 78 94 53 6 -8
35 -24 63 -36 108 -47 228 -10 344 105 111 110 164 236 164 387 0 237 -111
380 -245 319z m126 -24 c88 -59 133 -258 94 -412 -49 -191 -207 -358 -360
-380 -58 -9 -92 0 -161 41 l-58 35 -31 -33 c-16 -18 -59 -67 -94 -108 -157
-183 -353 -342 -384 -311 -8 8 33 53 147 163 140 135 306 329 306 359 0 5 -6
22 -14 37 -8 15 -17 43 -21 62 -5 32 -2 38 42 76 70 59 71 59 87 20 19 -46 85
-92 149 -106 42 -8 62 -7 106 6 80 24 159 63 181 92 24 29 24 33 6 57 -12 17
-17 17 -59 6 -60 -17 -109 -7 -151 30 -45 39 -49 63 -26 144 40 138 70 206
104 226 42 26 95 24 137 -4z"/>
</g>
</svg>
