<svg id="SvgjsSvg1036" width="550" height="550" xmlns="http://www.w3.org/2000/svg" version="1.1" xmlns:xlink="http://www.w3.org/1999/xlink" xmlns:svgjs="http://svgjs.com/svgjs"><defs id="SvgjsDefs1037"></defs><g id="SvgjsG1038"><svg xmlns="http://www.w3.org/2000/svg" data-name="Layer 1" viewBox="0 0 2000 2000" width="550" height="550"><path fill="#ededed" d="M1889.14,1034.17c0,345.19-197.1,644.35-484.91,791.06H599.33c-287.81-146.71-484.91-445.87-484.91-791.06,0-490.08,397.28-887.36,887.36-887.36S1889.14,544.09,1889.14,1034.17Z" class="colorededed svgShape"></path><path fill="#ffb3d6" d="M1630.75,1799.72v25.51H372.8v-25.51c0-279.52,205.48-511,473.63-551.79l4.4-146,1.8-59.18h298.29l.83,54.7,2.23,150C1423.65,1286.89,1630.75,1519.12,1630.75,1799.72Z" class="colorffb3d6 svgShape"></path><path d="M1152.23,1093.17l-84.49,98.35c-39.93,30.71-93.31,30.86-133.42.37l-83-89.91,1.8-59.18h298.29Z"></path><path fill="#ffb3d6" d="M1254.66,627.15l-24,288.75L1229,936.26c-.69,15.11-4.58,31.47-10.88,47.29-10.21,25.67-26.75,49.9-46.21,64.88l-106.05,92.19a114.69,114.69,0,0,1-139.32.37l-109.74-90c-21.47-16.33-39.38-43.7-49.33-72.09v0a144,144,0,0,1-8.39-41.28l-1.42-21.09v0L738,627.15Z" class="colorffb3d6 svgShape"></path><path fill="#ffb3d6" d="M1235.32,834.25s12.84-39.82,28.78-59.55,41.72-18.35,51.27,3,3.73,50.09-19.39,62.41-28,24.49-29.47,36-12.44,44.06-37.44,31Z" class="colorffb3d6 svgShape"></path><path d="M1260.21,812.15a3.25,3.25,0,0,1-2.56-5.24c.77-1,19.07-24.19,35.37-24.45a16.16,16.16,0,0,1,13.09,6.24,3.25,3.25,0,1,1-5,4.16,9.75,9.75,0,0,0-8-3.91c-10.95.18-25.62,15.91-30.35,21.95A3.23,3.23,0,0,1,1260.21,812.15Z"></path><path fill="#ffb3d6" d="M755.16,834.25s-12.84-39.82-28.77-59.55-41.73-18.35-51.28,3-3.73,50.09,19.39,62.41,28,24.49,29.47,36,12.44,44.06,37.45,31Z" class="colorffb3d6 svgShape"></path><path d="M730.27 812.15a3.25 3.25 0 01-2.56-1.25c-4.73-6-19.4-21.77-30.35-21.95a10 10 0 00-8 3.91 3.25 3.25 0 11-5-4.16 16.11 16.11 0 0113.1-6.24c16.29.26 34.59 23.46 35.36 24.45a3.24 3.24 0 01-.56 4.55A3.2 3.2 0 01730.27 812.15zM755.16 834.25s-10.33-53.82 0-91.2 36.67-51.83 33.27-116.4c0 0 60.32 44.18 199.66 39.08s210.7-26.34 210.7-26.34-29.87 53.8 0 99.88 36.48 46 36.53 95c0 0 23.18-65.61 46.59-72.14 0 0 30.35-88.62 46.54-174.18s-12.72-106.38-82.09-93.66c0 0-10-99.23-130.54-138.93 0 0 59.55 41.11 72.3 104.91s-100.65-87.9-260.85-123.34S649.58 429 708.57 550.9c0 0-35-5.56-28.53 74.24s28.53 137 28.53 137 17.34 6.23 27.51 27.4S755.16 834.25 755.16 834.25z"></path><path fill="#f25c5c" d="M788.42,629.9a3.18,3.18,0,0,1-1.85-.59c-.48-.33-48.13-33.8-80.58-76.44a3.25,3.25,0,0,1,5.16-3.94C743,590.74,789.82,623.66,790.29,624a3.25,3.25,0,0,1-1.87,5.91Z" class="colorf25c5c svgShape"></path><path fill="#c93981" d="M931.89,1020.22l17.63,23.39a34.1,34.1,0,0,0,23,8.91H1020a34,34,0,0,0,22.9-8.85l17.86-23.45Z" class="colorc93981 svgShape"></path><path d="M1036.75,999.06a11.84,11.84,0,0,0-13.82-1.33l-11.48,6.74a29.91,29.91,0,0,1-30.24,0l-11.48-6.74a11.84,11.84,0,0,0-13.82,1.33l-24,21.16h128.88Z"></path><path fill="#c93981" d="M953.17,963a2.54,2.54,0,0,1-1-.19c-6.48-2.63-10.69-6.32-12.51-11-3-7.63.95-16,4.11-22.8l.34-.73c4.56-9.76,24.25-68.43,24.34-68.8a2.57,2.57,0,1,1,5,1.18c-.35,1.51-19.91,59.55-24.68,69.8l-.35.73c-2.89,6.17-6.16,13.17-4,18.74,1.31,3.33,4.47,6,9.66,8.08a2.58,2.58,0,0,1-1,5Z" class="colorc93981 svgShape"></path><path d="M995.53,966.27c-12.45,0-17.32-6.44-18.45-8.26-5-4.71-9.74-7-13.84-6.83a8.75,8.75,0,0,0-5.84,2.6,2.58,2.58,0,0,1-4-3.27,13.92,13.92,0,0,1,9.52-4.47c5.67-.31,11.74,2.53,18,8.5l.32.31.2.4c.11.21,3.28,5.87,14.11,5.87a2.58,2.58,0,1,1,0,5.15Z"></path><path fill="#c93981" d="M1037.33,963a2.58,2.58,0,0,1-1-5c5.19-2.11,8.35-4.75,9.66-8.08,2.18-5.57-1.09-12.57-4-18.74l-.35-.73c-4.77-10.25-24.33-68.29-24.68-69.8a2.57,2.57,0,1,1,5-1.18c.09.37,19.78,59,24.34,68.8l.34.73c3.16,6.76,7.1,15.17,4.11,22.8-1.83,4.65-6,8.34-12.51,11A2.54,2.54,0,0,1,1037.33,963Z" class="colorc93981 svgShape"></path><path d="M995,966.27a2.58,2.58,0,1,1,0-5.15c10.83,0,14-5.66,14.12-5.9l.2-.36.31-.32c6.22-6,12.24-8.83,18-8.5a13.88,13.88,0,0,1,9.51,4.47,2.57,2.57,0,0,1-4,3.29,8.73,8.73,0,0,0-6-2.62c-4.05-.19-8.8,2.17-13.73,6.83C1012.29,959.83,1007.42,966.27,995,966.27Z"></path><path fill="#f78fc4" d="M1230.67,915.9,1229,936.26c-.69,15.11-4.58,31.47-10.88,47.29a87.32,87.32,0,1,1,12.57-67.65Z" class="colorf78fc4 svgShape"></path><path fill="#c93981" d="M1105.41,1015.18a3.48,3.48,0,0,1-1.22-.39c-46.34-25.21-47.61-72.29-47.64-74.28a3.49,3.49,0,0,1,7-.11h0c0,.44,1.33,45.05,44,68.25a3.49,3.49,0,0,1-2.12,6.53Z" class="colorc93981 svgShape"></path><path fill="#f78fc4" d="M930.28,937.53a87.35,87.35,0,0,1-162.83,41.41v0a144,144,0,0,1-8.39-41.28l-1.42-21.09v0a87.33,87.33,0,0,1,172,7.29A84.5,84.5,0,0,1,930.28,937.53Z" class="colorf78fc4 svgShape"></path><path fill="#c93981" d="M883,1015.18a3.43,3.43,0,0,0,1.21-.39c46.35-25.21,47.62-72.29,47.65-74.28a3.49,3.49,0,0,0-7-.11h0c0,.44-1.33,45.05-44,68.25a3.49,3.49,0,0,0,2.12,6.53Z" class="colorc93981 svgShape"></path><path fill="#ffffff" d="M1179.39,817.64l-57.72,15.73a281.46,281.46,0,0,1-70.81-13.65s19-18.76,47.24-27.59a98.21,98.21,0,0,1,20.21-4.13,61.16,61.16,0,0,1,15.17.44C1163,792.94,1179.39,817.64,1179.39,817.64Z" class="colorfff svgShape"></path><path d="M1050.65,823.05a3.34,3.34,0,0,1-2.14-5.7c1.2-1.19,29.76-29,69.49-32.66,35.32-3.27,57.06,21.66,62.72,29.1l6.52-1.86a3.33,3.33,0,1,1,1.84,6.41L1178,821.52l-1.35-2c-.21-.31-21.5-31.55-58-28.15-37.3,3.46-65.14,30.48-65.42,30.76A3.31,3.31,0,0,1,1050.65,823.05Z"></path><path d="M1141.12,807.45a23.77,23.77,0,1,1-43-15.32,98.21,98.21,0,0,1,20.21-4.13,61.16,61.16,0,0,1,15.17.44A23.82,23.82,0,0,1,1141.12,807.45Z"></path><path fill="#c93981" d="M1102.6,837.7a81.82,81.82,0,0,1-24.5-5.12,3.34,3.34,0,1,1,2.58-6.16h0c.24.09,24.36,9.89,51.32,1,28.54-9.42,41.09-11,41.61-11a3.33,3.33,0,0,1,.79,6.62c-.12,0-12.55,1.59-40.31,10.76A84,84,0,0,1,1102.6,837.7Z" class="colorc93981 svgShape"></path><circle cx="1116.3" cy="795.96" r="4.53" fill="#ffffff" class="colorfff svgShape"></circle><path fill="#ffffff" d="M819,817.64l57.72,15.73a281.57,281.57,0,0,0,70.82-13.65s-19-18.76-47.24-27.59A98.31,98.31,0,0,0,880.07,788a61.06,61.06,0,0,0-15.16.44C835.39,792.94,819,817.64,819,817.64Z" class="colorfff svgShape"></path><path d="M947.73,823.05a3.34,3.34,0,0,0,2.14-5.7c-1.2-1.19-29.76-29-69.49-32.66-35.31-3.27-57.06,21.66-62.72,29.1l-6.52-1.86a3.33,3.33,0,0,0-1.83,6.41l11.12,3.18,1.35-2c.21-.31,21.49-31.55,58-28.15,37.3,3.46,65.15,30.48,65.42,30.76A3.34,3.34,0,0,0,947.73,823.05Z"></path><path d="M857.26,807.45a23.77,23.77,0,1,0,43-15.32A98.31,98.31,0,0,0,880.07,788a61.06,61.06,0,0,0-15.16.44A23.83,23.83,0,0,0,857.26,807.45Z"></path><path fill="#c93981" d="M895.78,837.7a81.72,81.72,0,0,0,24.5-5.12,3.34,3.34,0,0,0-2.57-6.16h0c-.24.09-24.36,9.89-51.32,1-28.55-9.42-41.09-11-41.61-11A3.33,3.33,0,0,0,824,823c.13,0,12.55,1.59,40.32,10.76A83.93,83.93,0,0,0,895.78,837.7Z" class="colorc93981 svgShape"></path><circle cx="882.08" cy="795.96" r="4.53" fill="#ffffff" class="colorfff svgShape"></circle><path d="M1051.09 773s78.74-26.34 92.67-26.93c14.65-.63 27.47-1.5 54.61 29.4 0 0-20.46-31.66-48.64-49.35 0 0-6.8-9.8-60 11.38l-39.11 15.16a5.89 5.89 0 01-2.69.17l-2.34-.21-.2 17.56a3.35 3.35 0 004.57 3.24zM949.68 773S870.94 746.68 857 746.09c-14.65-.63-27.47-1.5-54.61 29.4 0 0 20.47-31.66 48.64-49.35 0 0 6.8-9.8 60 11.38l39.12 15.16a5.84 5.84 0 002.68.17l2.35-.21.19 17.56a3.35 3.35 0 01-4.57 3.24z"></path><path fill="#ff8533" d="M1630.75,1799.72v25.51H372.8v-25.51q0-21.88,1.67-43.35,2-26,6.32-51.26a554.17,554.17,0,0,1,70.9-191.6v0c83.72-139.89,227-240.07,394.74-265.56l107.82,143.31L967.64,1409l30.47,40.5,24.88-32.25,15.59-20.22L1154,1247.5a554.67,554.67,0,0,1,223.84,84.89h0c2.92,1.9,5.8,3.85,8.68,5.82a557.24,557.24,0,0,1,244.22,461.51Z" class="colorff8533 svgShape"></path><g opacity=".69"><polygon fill="#f25c5c" points="744.44 1541.1 822.47 1463.06 849.21 1556.73 744.44 1541.1" class="colorf25c5c svgShape"></polygon><polygon fill="#f25c5c" points="763.06 1358.13 841.1 1280.09 867.84 1373.76 763.06 1358.13" class="colorf25c5c svgShape"></polygon><polygon fill="#f25c5c" points="549.3 1572.3 627.34 1494.27 654.08 1587.93 549.3 1572.3" class="colorf25c5c svgShape"></polygon><polygon fill="#f25c5c" points="571 1404.96 649.04 1326.93 675.78 1420.59 571 1404.96" class="colorf25c5c svgShape"></polygon><polygon fill="#f25c5c" points="772.72 1825.23 751.39 1825.23 767.98 1808.64 772.72 1825.23" class="colorf25c5c svgShape"></polygon><polygon fill="#f25c5c" points="708.57 1703.7 786.61 1625.66 813.35 1719.33 708.57 1703.7" class="colorf25c5c svgShape"></polygon><polygon fill="#f25c5c" points="516.51 1750.53 594.54 1672.5 621.28 1766.16 516.51 1750.53" class="colorf25c5c svgShape"></polygon><path fill="#f25c5c" d="M472.93 1587.94l-55.09-8.23a554.85 554.85 0 0133.85-66.2zM440.12 1766.16l-65.65-9.79q2-26 6.32-51.26l32.61-32.61z" class="colorf25c5c svgShape"></path><polygon fill="#f25c5c" points="1113.97 1541.1 1192.01 1463.06 1218.75 1556.73 1113.97 1541.1" class="colorf25c5c svgShape"></polygon><polygon fill="#f25c5c" points="1132.6 1358.13 1210.63 1280.09 1237.37 1373.76 1132.6 1358.13" class="colorf25c5c svgShape"></polygon><polygon fill="#f25c5c" points="918.83 1572.3 996.87 1494.27 1023.61 1587.93 918.83 1572.3" class="colorf25c5c svgShape"></polygon><polygon fill="#f25c5c" points="967.64 1409 940.55 1404.95 954.25 1391.24 967.64 1409" class="colorf25c5c svgShape"></polygon><polygon fill="#f25c5c" points="1045.31 1420.59 1022.99 1417.25 1038.58 1397.03 1045.31 1420.59" class="colorf25c5c svgShape"></polygon><polygon fill="#f25c5c" points="1142.26 1825.23 1120.93 1825.23 1137.52 1808.64 1142.26 1825.23" class="colorf25c5c svgShape"></polygon><polygon fill="#f25c5c" points="1078.1 1703.7 1156.14 1625.66 1182.88 1719.33 1078.1 1703.7" class="colorf25c5c svgShape"></polygon><polygon fill="#f25c5c" points="886.04 1750.53 964.08 1672.5 990.82 1766.16 886.04 1750.53" class="colorf25c5c svgShape"></polygon><path fill="#f25c5c" d="M1574.58,1555.41l-95.89-14.31,55.39-55.37A557,557,0,0,1,1574.58,1555.41Z" class="colorf25c5c svgShape"></path><polygon fill="#f25c5c" points="1283.56 1572.3 1361.6 1494.27 1388.33 1587.93 1283.56 1572.3" class="colorf25c5c svgShape"></polygon><path fill="#f25c5c" d="M1410.05,1420.59,1305.26,1405l72.56-72.56h0c2.92,1.9,5.8,3.85,8.68,5.82Z" class="colorf25c5c svgShape"></path><polygon fill="#f25c5c" points="1506.97 1825.23 1485.64 1825.23 1502.23 1808.64 1506.97 1825.23" class="colorf25c5c svgShape"></polygon><polygon fill="#f25c5c" points="1442.83 1703.7 1520.87 1625.66 1547.6 1719.33 1442.83 1703.7" class="colorf25c5c svgShape"></polygon><polygon fill="#f25c5c" points="1250.77 1750.53 1328.8 1672.5 1355.54 1766.16 1250.77 1750.53" class="colorf25c5c svgShape"></polygon></g></svg></g></svg>