<svg id="SvgjsSvg1001" width="550" height="550" xmlns="http://www.w3.org/2000/svg" version="1.1" xmlns:xlink="http://www.w3.org/1999/xlink" xmlns:svgjs="http://svgjs.com/svgjs"><defs id="SvgjsDefs1002"></defs><g id="SvgjsG1008"><svg xmlns="http://www.w3.org/2000/svg" viewBox="0 0 2500 2500" width="550" height="550"><path fill="#ffebf1" d="M731.3,1541.4a393.8,393.8,0,0,1-68.2,5.7V598.4L928.9,292.6l250,14.4s1,15.4,2,42.6C1188.3,557.5,1193.5,1460.8,731.3,1541.4Z" class="colorffebf1 svgShape"></path><path fill="#f2c9d0" d="M938.8 437.9a1018.2 1018.2 0 01-14.7 104.3q-9.9 51.6-25 102c-10 33.5-21.7 66.6-35 99a1046.6 1046.6 0 01-44.8 95.3q-24.7 46.3-54 90l-7.4 10.9c-1.4 1.9 1.8 3.7 3.1 1.8a1028.3 1028.3 0 0055.6-90.1c16.9-30.8 32.2-62.5 46-94.8s25.9-65.4 36.4-99 19.2-67.6 26.3-102.1A1015.5 1015.5 0 00941.2 451c.5-4.4.9-8.7 1.3-13.1.2-2.3-3.5-2.3-3.7 0zM831.4 927.6a475.1 475.1 0 01-32.2 59.6 465.6 465.6 0 01-40.6 54.1c-8.3 9.6-17.1 18.9-26.2 27.8-1.7 1.6.9 4.2 2.6 2.6a463.9 463.9 0 0082.4-108q9.3-16.8 17.1-34.2a1.9 1.9 0 00-.6-2.5 1.8 1.8 0 00-2.5.6zM1054.5 946.6c-8.6 42.7-18.8 85.1-31.6 126.7s-28.3 82.2-47.3 121.2a618.9 618.9 0 01-62.5 102.4 514.2 514.2 0 01-78.6 82.9 422.4 422.4 0 01-95.1 60.5l-13.3 5.8c-2.2.8-1.2 4.4.9 3.5a420.1 420.1 0 0098.1-57.5 500.5 500.5 0 0081.3-80.7 596.8 596.8 0 0064.8-100.1c20.1-38.7 36.4-79.2 50-120.6s24.4-84.3 33.5-127.2c1.2-5.3 2.3-10.6 3.3-16 .5-2.3-3-3.2-3.5-.9z" class="colorf2c9d0 svgShape"></path><path fill="#f2c9d0" d="M901.4 1173.9a151.5 151.5 0 01-20.7 43.3c-9.1 13.6-19.8 26-30.9 38-6.4 6.7-12.9 13.4-19.4 20-1.7 1.6.9 4.2 2.6 2.5 11.7-11.8 23.4-23.7 34.1-36.5s20.3-26 27.7-40.7a138.6 138.6 0 0010.1-25.7c.7-2.2-2.9-3.2-3.5-.9zM1120.6 352.2c0 17.4-.6 34.9-1.9 52.3q-.5 7.5-1.2 15a1.8 1.8 0 001.8 1.8 1.9 1.9 0 001.9-1.8c1.6-17.4 2.6-34.9 2.9-52.3.1-5 .1-10 .1-15a1.8 1.8 0 10-3.6 0z" class="colorf2c9d0 svgShape"></path><path fill="#ffebf1" d="M1238.6,307s-81.4,1240.1,515.8,1240.1V598.4L1488.6,292.6Z" opacity=".64" class="colorffebf1 svgShape"></path><path fill="#d398a5" d="M1478.7 437.9a1018.2 1018.2 0 0014.7 104.3q9.9 51.6 25 102c10 33.5 21.7 66.6 35 99a1059.1 1059.1 0 0098.8 185.3l7.4 10.9c1.4 1.9-1.8 3.7-3.1 1.8a1028.3 1028.3 0 01-55.6-90.1c-16.9-30.8-32.2-62.5-46-94.8s-25.9-65.4-36.3-99-19.3-67.6-26.4-102.1A1043.8 1043.8 0 011476.3 451c-.5-4.4-.9-8.7-1.3-13.1-.2-2.3 3.5-2.3 3.7 0zM1586.1 927.6a475.1 475.1 0 0032.2 59.6 465.6 465.6 0 0040.6 54.1c8.3 9.6 17.1 18.9 26.2 27.8 1.7 1.6-.9 4.2-2.6 2.6a463.9 463.9 0 01-82.4-108q-9.3-16.8-17.1-34.2a1.9 1.9 0 01.6-2.5 1.8 1.8 0 012.5.6zM1363 946.6c8.6 42.7 18.8 85.1 31.7 126.7a833.3 833.3 0 0047.2 121.2 618.9 618.9 0 0062.5 102.4 514.2 514.2 0 0078.6 82.9 422.4 422.4 0 0095.1 60.5l13.3 5.8c2.2.8 1.3 4.4-.9 3.5a420.1 420.1 0 01-98.1-57.5 504.5 504.5 0 01-81.3-80.7 596.8 596.8 0 01-64.8-100.1c-20.1-38.7-36.4-79.2-50-120.6s-24.4-84.3-33.5-127.2c-1.2-5.3-2.3-10.6-3.3-16-.5-2.3 3-3.2 3.5-.9z" class="colord398a5 svgShape"></path><path fill="#d398a5" d="M1516.1 1173.9a151.5 151.5 0 0020.7 43.3c9.1 13.6 19.8 26 30.9 38 6.4 6.7 12.9 13.4 19.4 20 1.7 1.6-.9 4.2-2.6 2.5-11.7-11.8-23.4-23.7-34.1-36.5s-20.3-26-27.7-40.7a138.6 138.6 0 01-10.1-25.7c-.7-2.2 2.9-3.2 3.5-.9zM1296.9 352.2c0 17.4.6 34.9 1.9 52.3q.5 7.5 1.2 15a1.8 1.8 0 01-1.8 1.8 1.9 1.9 0 01-1.9-1.8c-1.6-17.4-2.6-34.9-2.9-52.3-.1-5-.1-10-.1-15a1.8 1.8 0 013.6 0z" class="colord398a5 svgShape"></path><path fill="#f2c9d0" d="M1180.9,349.6a383.8,383.8,0,0,0-57,1.5l-3.2.3c-80.1,8.5-209.5,45.6-285.9,189.7-50,94.1-76,304.7-89.5,514.8l-.3,5.7c-8.8,139.5-12.1,278.2-13.2,382v4c-.4,36.1-.5,67.8-.5,93.8a393.8,393.8,0,0,1-68.2,5.7V598.4L928.9,292.6l250,14.4S1179.9,322.4,1180.9,349.6Z" class="colorf2c9d0 svgShape"></path><path fill="#72b0b5" d="M2080.6 1256.4s-5.2-30.7 13.5-69.9c0 0 16.7-39 46.5-25.4S2138.8 1242.7 2080.6 1256.4zM2034.2 1351.5s6.2-25.1 33.5-49.5c0 0 25.6-24.9 43.6-5.3S2082.7 1358.7 2034.2 1351.5zM2060.4 1450.1s3.3-25.7 27.6-53c0 0 22.6-27.6 42.7-10.2S2109.4 1451.8 2060.4 1450.1zM1985.1 1536.4s11.5-23.2 43.4-41.1c0 0 30.3-18.8 43.7 4.1S2031 1553.9 1985.1 1536.4zM2019.2 1325.5s19.5-17 28.7-52.4c0 0 10.4-34.1-15.2-41.2S1990.6 1285.7 2019.2 1325.5zM1938.7 1383.5s21.7-14.1 35.8-47.9c0 0 15.2-32.3-9.2-42.9S1916 1340 1938.7 1383.5zM1893.4 1488.7s16-20.4 18.4-56.9c0 0 3.8-35.5-22.7-37.6S1857.8 1454.9 1893.4 1488.7z" class="color72b0b5 svgShape"></path><path fill="#457e7f" d="M1887.9,1620l-1-.3c19.5-83.1,233.3-427.4,235.4-430.8l.9.5C2121,1192.9,1907.4,1537,1887.9,1620Z" class="color457e7f svgShape"></path><path fill="#457e7f" d="M1919.6,1543.3l-.3-1c62.6-18.2,182.4-129.3,183.6-130.4l.7.7C2102.3,1413.8,1982.4,1525,1919.6,1543.3Z" class="color457e7f svgShape"></path><path fill="#457e7f" d="M1960.8 1539.4a92.8 92.8 0 01-23.7-3l.3-.9c50.1 13.1 100.5-22.2 101-22.5l.6.8C2038.6 1514.1 2002.4 1539.4 1960.8 1539.4zM1915.6 1550.7c-10.7-64.5 37.7-220.8 38.2-222.3l1 .3c-.5 1.5-48.9 157.6-38.2 221.8z" class="color457e7f svgShape"></path><path fill="#457e7f" d="M1914.2 1532c-33.9-39.9-23.7-101.1-23.6-101.7l1 .2c-.2.6-10.2 61.3 23.3 100.8zM1988.5 1414.9l-.9-.5 2.9-5.4c26.3-52.1 38.2-135.6 38.3-136.4h1c-.1.8-10.5 74.1-33.5 126.4 12.5-20.5 38.4-56.6 75-77.2l.5.9c-43.4 24.4-71.7 70.8-80.4 86.6C1990.5 1411.3 1989.5 1413.1 1988.5 1414.9z" class="color457e7f svgShape"></path><path fill="#72b0b5" d="M413.3 1393.9s1.6-22.8-15-50.1c0 0-15-27.3-35.8-15.1S369.8 1388.2 413.3 1393.9zM454.2 1459.9s-6.4-17.9-28.1-33.7c0 0-20.5-16.3-32.2-.7S419.3 1468.7 454.2 1459.9zM442.3 1533.8s-4.4-18.5-24.1-36.6c0 0-18.5-18.5-31.9-4.4S406.6 1538.6 442.3 1533.8zM503.5 1591.4s-10.1-16.1-34.6-26.9c0 0-23.5-11.5-31.6 6.2S471.3 1607.5 503.5 1591.4zM463.2 1439.9s-15.5-11.1-24.8-36.2c0 0-10.1-24.2 8.1-31.2S481.2 1408.7 463.2 1439.9zM526.2 1476.3s-16.9-8.7-29.6-32.3c0 0-13.5-22.5 3.6-32.1S539.6 1442.9 526.2 1476.3zM567 1549.8s-13.1-13.8-17.5-40.2c0 0-5.5-25.6 13.7-29.2S590.5 1522.5 567 1549.8z" class="color72b0b5 svgShape"></path><path fill="#457e7f" d="M580.5,1645.3c-20.3-59.2-201.5-294.8-203.3-297.2l.8-.6c1.8,2.4,183.1,238.2,203.5,297.5Z" class="color457e7f svgShape"></path><path fill="#457e7f" d="M551.9,1591.7c-47.2-8.8-143-81.2-144-82l.6-.7c1,.7,96.6,73,143.5,81.7Z" class="color457e7f svgShape"></path><path fill="#457e7f" d="M513.6 1592.3c-27.2 0-50.8-13.3-51.1-13.4l.5-.9c.4.2 39.8 22.3 75.3 9l.4 1A72.1 72.1 0 01513.6 1592.3zM555.5 1596.7h-1c3.1-47.6-43.7-158-44.1-159.1l.9-.4C511.7 1438.2 558.6 1548.8 555.5 1596.7z" class="color457e7f svgShape"></path><path fill="#457e7f" d="M555.1 1583l-.8-.6c21.6-31.2 9.8-74.8 9.7-75.2l.9-.3C565.1 1507.3 577 1551.4 555.1 1583zM492 1502.9c-.8-1.2-1.6-2.5-2.5-3.7-7.5-10.9-31.5-42.8-64.9-57.4l.4-.9c27.3 11.9 48.3 35.2 59.3 49.4-20.1-36.4-32.7-87.6-32.8-88.2l.9-.2c.2.6 15 60.6 38 96.7 1.6 2.3 2.4 3.7 2.5 3.8z" class="color457e7f svgShape"></path><path fill="#ffffff" d="M1891.5 1946.6l.6-.4v.7a2 2 0 00-.1.7l-.3 4.4a1.3 1.3 0 00-.1.6 1.5 1.5 0 01-.1.7c-1 13.2-1.7 26.4-2.1 39.5l-6.5 6.3c.1 0-.2-17.2 1-41.1v-1.4c.1-1.3.2-2.6.2-4a1.7 1.7 0 00.1-.7v-.7l.6-.4zM1935.5 1758.5l-.3.9zM2126.4 1692.7h0zM2175.4 1547.1h0z" class="colorfff svgShape"></path><path d="M2175.5,1547h0Zm-49.1,145.6h0Zm-191.2,66.8.3-.9Zm-43.7,187.2v.7a1.7,1.7,0,0,0-.1.7h0l-.3,4.3a1.7,1.7,0,0,0-.1.7,1.7,1.7,0,0,1-.1.7c-.9,13-1.7,25.9-2.1,38.9l-5.3,5.2v-1.9c0-6,.1-20.3.9-38.3a1.3,1.3,0,0,0,.1-.6v-.7c.1-1.4.2-2.7.2-4.1s.1-.4.1-.7v-.7l-.6.4-.6.4v1.4l-.3,4v1.3c-.9,17.7-.9,31.7-.9,37.6a18,18,0,0,1-.1,3.1h.6l.4.5h0l6.5-6.3h.1v-.3c.5-13.2,1.2-26.5,2.2-39.8a1.7,1.7,0,0,0,.1-.7v-.7c.2-1.4.3-2.9.4-4.3a1.5,1.5,0,0,1,.1-.7v-.7l-.6.3Z" fill="#000000" class="color000 svgShape"></path><path fill="#72b0b5" d="M1891.5 1946.6l.6-.4v.7a2 2 0 00-.1.7l-.3 4.4a1.3 1.3 0 00-.1.6 1.5 1.5 0 01-.1.7c-1 13.2-1.7 26.4-2.1 39.5l-6.5 6.3c.1 0-.2-17.2 1-41.1v-1.4c.1-1.3.2-2.6.2-4a1.7 1.7 0 00.1-.7v-.7l.6-.4zM1935.5 1758.5l-.3.9zM2126.4 1692.7h0zM2175.4 1547.1h0z" class="color72b0b5 svgShape"></path><path fill="#72b0b5" d="M2226.2,1952.3v.4h-.4c-3.9,1.2-34.2,4.2-67-14.6-53-30.1-63.2-35.9-65.2-37.2a556.3,556.3,0,0,0-63.4,2.7c11.2,2.1,33.8,9,60.2,31.9,19.7,17.9,33.4,33,38.5,42.6l.2.2h.5l-.5,1h-.6c-4.3-.8-36.4-6.8-63.6-25.4-23.7-16.6-47.8-40.1-55.8-47.9l-2.3-2.2c-13.5,3.5-27.1,7.5-40.2,12a243.6,243.6,0,0,1,31.7,18c16.2,10.6,34.8,26.4,40,37.9s8.3,18.3,9.5,21.4h4.1l-4.3,1.2h-.5c-3.1-.7-29.3-7.8-53.9-29.2s-31.6-42.9-32.8-46.9a615.5,615.5,0,0,0-68.2,34.8l-.6.3-.6.4-6.5,3.9-.5.4-.6.3-4.1,2.6h-.4l-5.8-1.2h-.1l.2-.6-.3-.5,1.7-1.1,9.1-6c.4-7,1-14.4,1.6-22.1,3.1-38.7,10.2-81.1,15.3-99.7,5.7-21.7,10.8-38.1,15-48.7v-.2H1914l1.6-.8-1.8-2.1c-28.3-33.7-41.9-65-40.5-92.8,3.3-44.5,16.3-59,19-61.5v-.3h.4c.4,0,36,8.2,46.8,55.2a153.1,153.1,0,0,1-1.4,73c9.2-18.8,34.4-65.4,49.4-82.4,4.5-5.3,8.3-13.3,12.7-22.6,13-27.7,30.9-65.6,90.3-82.4,42-10.4,71-16.5,83.9-17.6h.7l-.2.2.4.2.5-.4.2.3h0v.3h0c-1.7,5.7-23.7,46.7-75.7,72.1-86,42.6-100.2,49.7-102.8,50.8a828.1,828.1,0,0,0-51.8,84.5c11.3-12,39.4-36,93.2-50.4,39.4-9.6,70.1-14,86.6-12.3h.6l.4-.4.6,1-.2.3-.2.2c-4.6,4.7-39.7,40.2-86.4,58.8-41.3,15.6-91.7,26.1-108.2,29.5l-5.1,1.1c-7.2,20.4-13.7,41.3-19.4,62l.4-.2a369.8,369.8,0,0,1,50.1-24.9c27.2-11.3,63.1-21.4,82-18.2s30.5,5.2,35.3,6.4l2.3-3.4-1.5,4.2a.3.3,0,0,1-.3.3c-3,2.8-34.4,30.3-83,43.3s-82.5,2.7-87.6,1.1c-5.7,30.8-10,61.8-12.6,92.7,5.6-3.5,12.1-7.3,18.9-11.1,22.1-12.6,47.8-24.3,59.7-28.3,13.9-4.8,24.6-8.1,31.9-9.7l-.9-1.3,1.5.8c.1-.3.2-.9.4-1.5,8-27.7,19.9-46.6,35.6-56.1,25.3-14.4,37.9-12.8,40.4-12.3h.3l.2.4c.2.2,8.8,22.7-12.8,45.9a102.3,102.3,0,0,1-38,25.3c15.1-2,47.7-4.7,60.6-3.1,4.5.5,10.2-.3,16.9-1.4,19.8-3,47-7.3,77.9,18.9,21.1,19,35.1,32.5,40.4,39.1l.3.3-.4.4Z" class="color72b0b5 svgShape"></path><path fill="#ffffff" d="M564.9 1992.4l-.6-.3c0 .2.1.4.1.6v.6l.3 3.9a1.3 1.3 0 01.1.6v.7c1 11.9 1.6 23.7 2 35.5l5.8 5.8c-.1 0 .2-15.6-.8-37.2-.1-.1-.1-.4-.1-.6v-.6c-.1-1.2-.1-2.4-.2-3.6v-.6a2 2 0 00-.1-.7l-.5-.3zM525.2 1822.8a2.4 2.4 0 01.2.8C525.5 1823.6 525.4 1823.3 525.2 1822.8zM353.1 1763.4zM308.8 1632.2h0z" class="colorfff svgShape"></path><path d="M308.8,1632.2h0Zm44.3,131.2Zm172.1,59.4a2.4,2.4,0,0,1,.2.8C525.5,1823.6,525.4,1823.3,525.2,1822.8Zm39.1,169.3-.5-.4v.7c0,.2.1.4.1.6l.3,3.9v.6a1.3,1.3,0,0,1,.1.6c.9,12.1,1.6,24,2,36v.2h.1l5.8,5.7h.1l.4-.3h.4v-2.8c0-5.4-.1-18-.8-33.9v-.6a1.3,1.3,0,0,1-.1-.6c0-1.2-.1-2.4-.2-3.7v-1.2l-.6-.4-.5-.3v.6a2,2,0,0,1,.1.7c0,1.2.1,2.4.2,3.6v1.2c.8,16.3.9,29.2.9,34.6v1.6l-4.8-4.7c-.4-11.6-1-23.3-1.9-35,0-.2-.1-.4-.1-.6v-.7l-.3-3.8h0a2,2,0,0,1-.1-.7v-.6Z" fill="#000000" class="color000 svgShape"></path><path fill="#72b0b5" d="M564.9 1992.4l-.6-.3c0 .2.1.4.1.6v.6l.3 3.9a1.3 1.3 0 01.1.6v.7c1 11.9 1.6 23.7 2 35.5l5.8 5.8c-.1 0 .2-15.6-.8-37.2-.1-.1-.1-.4-.1-.6v-.6c-.1-1.2-.1-2.4-.2-3.6v-.6a2 2 0 00-.1-.7l-.5-.3zM525.2 1822.8a2.4 2.4 0 01.2.8C525.5 1823.6 525.4 1823.3 525.2 1822.8zM353.1 1763.4zM308.8 1632.2h0z" class="color72b0b5 svgShape"></path><path fill="#72b0b5" d="M581.5,2003.8v.5h-.1l-5.1,1H576l-3.7-2.3a1,1,0,0,1-.5-.4l-.6-.3-5.8-3.5-.6-.3-.5-.4a555.3,555.3,0,0,0-61.5-31.4c-1.1,3.7-7.8,23.8-29.5,42.4s-45.9,25.7-48.7,26.3h-.4l-3.8-1H424c1.1-2.8,4.1-9.5,8.6-19.3s21.5-24.6,36.1-34.2a214.2,214.2,0,0,1,28.6-16.2c-11.9-4-24.1-7.7-36.3-10.9l-2.1,2.1c-7.2,7-28.9,28.1-50.3,43.2-24.5,16.7-53.4,22.2-57.3,22.8h-.6l-.5-.9h.6a.4.4,0,0,1,.1-.3c4.6-8.6,17-22.2,34.7-38.3,23.8-20.7,44.2-26.9,54.3-28.8a493.7,493.7,0,0,0-57.2-2.4L324,1984.8c-29.6,17-57,14.2-60.5,13.1h-.3v-.3l.5-.3-.3-.3.3-.3c4.7-5.9,17.3-18.1,36.3-35.2,28-23.6,52.4-19.8,70.3-17,6,.9,11.2,1.7,15.3,1.2,11.6-1.5,40.9,1,54.6,2.8a91.2,91.2,0,0,1-34.3-22.9c-19.5-20.8-11.7-41.1-11.6-41.3l.3-.4h.2c2.3-.5,13.7-1.9,36.5,11.1,14.1,8.6,24.9,25.6,32.1,50.6.1.6.2,1,.3,1.4l1.3-.8-.7,1.2c6.6,1.4,16.2,4.4,28.7,8.7,10.8,3.7,33.9,14.2,53.8,25.5,6.2,3.5,12,6.9,17.1,10-2.4-27.8-6.2-55.8-11.4-83.5-4.6,1.5-36.3,10.7-78.9-1s-72.2-36.5-74.9-39l-.3-.4L397,1864l2,3.1c4.4-1,15.4-3,31.9-5.7s49.4,6.2,74,16.4a343.1,343.1,0,0,1,45.1,22.4l.3.3c-5-18.7-10.9-37.6-17.4-56l-4.6-.9c-14.9-3.1-60.3-12.6-97.6-26.7-42.1-16.8-73.8-48.7-77.9-53,0-.1-.1-.1-.2-.2v-.3l.5-.8.3.3h.6c14.8-1.5,42.6,2.4,78.1,11.1,48.5,13,73.8,34.7,84,45.4a770.1,770.1,0,0,0-46.7-76.2c-2.3-1-15.2-7.3-92.7-45.7-46.9-23-66.7-59.9-68.2-65.1h0l-.2-.3h.1v-.2l.5.3.4-.2-.2-.2h.6c11.6.9,37.8,6.4,75.6,15.8,53.6,15.2,69.7,49.3,81.5,74.3,3.9,8.4,7.3,15.6,11.5,20.4,13.5,15.3,36.1,57.3,44.4,74.3a139.6,139.6,0,0,1-1.2-65.8c9.7-42.4,41.9-49.8,42.2-49.8h.4v.2c2.4,2.3,14.1,15.4,17.1,55.5,1.2,25.1-11.1,53.2-36.5,83.7l-1.6,1.9,1.4.6h-1.4v.2c3.8,9.5,8.4,24.3,13.6,43.9,4.6,16.8,11,55,13.7,89.9.6,6.9,1.1,13.6,1.5,19.9l8.2,5.4,1.5,1Z" class="color72b0b5 svgShape"></path><path fill="#ffebf1" d="M1890.8,820.8V2108.5a69.8,69.8,0,1,1-139.5,0V820.8a492.1,492.1,0,0,0-2.7-51.8c-26.9-259.5-254.1-462.8-529.5-462.8S716.5,509.5,689.6,769a492.1,492.1,0,0,0-2.7,51.8V2108.5a69.8,69.8,0,1,1-139.5,0V820.8c0-17.4.7-34.6,2.1-51.8a634.5,634.5,0,0,1,51-203.5c34-78,82.6-147.9,144.4-207.9A670.5,670.5,0,0,1,958.3,217.9a689.8,689.8,0,0,1,521.6,0,670.5,670.5,0,0,1,213.4,139.7c61.8,60,110.4,129.9,144.4,207.9a634.5,634.5,0,0,1,51,203.5C1890.1,786.2,1890.8,803.4,1890.8,820.8Z" class="colorffebf1 svgShape"></path><path fill="#f2c9d0" d="M1643.1 442.4a12.2 12.2 0 01-8.5-3.5 587 587 0 00-187-124.7 12.1 12.1 0 019.4-22.4 610.6 610.6 0 01194.6 129.8 12.2 12.2 0 01-8.5 20.8zM663 638.9a13.1 13.1 0 01-4.7-.9 12.1 12.1 0 01-6.5-15.8l3-7.4A606.4 606.4 0 01786.5 421.6a614 614 0 01188.1-127 12.1 12.1 0 0115.9 6.4 12 12 0 01-6.3 15.9 587.1 587.1 0 00-180.6 122A580.4 580.4 0 00677.1 624.4c-1 2.3-1.9 4.7-2.9 7A12.2 12.2 0 01663 638.9z" class="colorf2c9d0 svgShape"></path><rect width="241.5" height="144.91" x="1704" y="2065.8" fill="#f2c9d0" rx="18.9" class="colorf2c9d0 svgShape"></rect><rect width="241.5" height="144.91" x="500.1" y="2065.8" fill="#f2c9d0" rx="18.9" class="colorf2c9d0 svgShape"></rect><rect width="35.1" height="1073.51" x="651.8" y="992.3" fill="#f2c9d0" class="colorf2c9d0 svgShape"></rect><rect width="35.1" height="1073.51" x="1751.1" y="992.3" fill="#f2c9d0" class="colorf2c9d0 svgShape"></rect><path fill="#f2c9d0" d="M549.5 769H689.6a492.1 492.1 0 00-2.7 51.8v122H547.4v-122C547.4 803.4 548.1 786.2 549.5 769zM1890.8 820.8v122H1751.3v-122a492.1 492.1 0 00-2.7-51.8h140.1C1890.1 786.2 1890.8 803.4 1890.8 820.8z" class="colorf2c9d0 svgShape"></path><rect width="241.5" height="144.91" x="1704" y="847.4" fill="#d398a5" rx="18.9" class="colord398a5 svgShape"></rect><rect width="241.5" height="144.91" x="500.1" y="847.4" fill="#d398a5" rx="18.9" class="colord398a5 svgShape"></rect><rect width="7.9" height="1071.95" x="568.2" y="993.9" fill="#f2c9d0" class="colorf2c9d0 svgShape"></rect><rect width="7.9" height="1071.95" x="594.5" y="993.9" fill="#f2c9d0" class="colorf2c9d0 svgShape"></rect><rect width="7.9" height="1071.95" x="1824.7" y="993.9" fill="#f2c9d0" class="colorf2c9d0 svgShape"></rect><rect width="7.9" height="1071.95" x="1851" y="993.9" fill="#f2c9d0" class="colorf2c9d0 svgShape"></rect><path fill="#f2c9d0" d="M1731.7,676.6a4,4,0,0,1-3.8-2.6c-85-221.8-234.5-308-345-341.3-119.9-36.1-221-19.6-222.1-19.4a4,4,0,0,1-4.6-3.3,4,4,0,0,1,3.3-4.6c1-.2,103.7-17.1,225.4,19.5,71.5,21.5,135.5,56.9,190.2,105.4,68.3,60.5,122.3,141.5,160.3,240.8a4,4,0,0,1-2.3,5.2Z" class="colorf2c9d0 svgShape"></path><ellipse cx="1250" cy="2235.7" fill="#f2c9d0" rx="1002.4" ry="97.6" class="colorf2c9d0 svgShape"></ellipse><ellipse cx="994" cy="2217.1" fill="#d398a5" rx="571.6" ry="37.3" class="colord398a5 svgShape"></ellipse><ellipse cx="1784.7" cy="2217.1" fill="#d398a5" rx="393.7" ry="18.6" class="colord398a5 svgShape"></ellipse><path fill="#ffb6b1" d="M2176,2213.2c-2.8,3.6-58.7,1.4-71.5,0s-72.2-14-122.5-21.1-60.1-18.9-64.4-9.8-12,34.9-12,34.9h-12.8s3.6-43.3,4.3-56c.6-11.2,9-39.6,8-52.3a13.9,13.9,0,0,0-.9-4c-4.3-9.1-27.7-62.5-57.8-92.8s-102.6-51-201.3-190.2S1516,1375,1516,1375s147.4,178.6,162.3,201.1,16.3,35.9,20.5,42.9,99.2,142.8,141.6,208.2S1949.5,2003,1963.6,2022s60.9,78.3,60.9,78.3l7.8,5.9c21,16.3,78.8,60.1,92.1,64.1,16.2,5,37.5,16.2,43.8,19S2178.9,2209.7,2176,2213.2Z" class="colorffb6b1 svgShape"></path><path fill="#54355e" d="M2176,2213.2c-2.8,3.6-58.7,1.4-71.5,0s-72.2-14-122.5-21.1-60.1-18.9-64.4-9.8-12,34.9-12,34.9h-12.8s3.6-43.3,4.3-56c.6-11.2,9-39.6,8-52.3a53,53,0,0,1,6.6-.7c21.2-.4,76.5,14.1,98.7,15.5,15.3,1,20.3-10.4,21.9-17.5,21,16.3,78.8,60.1,92.1,64.1,16.2,5,37.5,16.2,43.8,19S2178.9,2209.7,2176,2213.2Z" class="color54355e svgShape"></path><path fill="#ffb6b1" d="M1061.2,582.4s40.7,46.3,94.4,27.2,23.7-125,23.7-125-32.5-12.3-49.1-36.6a97.8,97.8,0,0,1-10.1-20.5c-7.9-22-9.6-45.4-9.6-45.4l-72.2,42s1.4,2.6,22.9,47.9c5.2,10.9,7.8,22.9,8.9,35C1073.6,544.8,1061.2,582.4,1061.2,582.4Z" class="colorffb6b1 svgShape"></path><path fill="#f47382" d="M1070.1,507c11,9.9,21.6,18.8,25,19.8,8.2,2.5,22.7-27.4,26.2-63.7,1-10.5.3-23.1-1.2-35.6-7.9-22-9.6-45.4-9.6-45.4l-72.2,42s1.4,2.6,22.9,47.9C1066.4,482.9,1069,494.9,1070.1,507Z" class="colorf47382 svgShape"></path><path fill="#302342" d="M1127.6,353c.2,39.1-26.8,61.8-26.8,61.8l-37,2.9L961,425.6a110.3,110.3,0,0,1-15.4-12.9c-12.2-12-27.7-31.9-30.5-57.7-4.7-43.8,30-81.9,80.4-96.1s102.8.5,125.5,60.2a98.1,98.1,0,0,1,3.7,11.7A90.3,90.3,0,0,1,1127.6,353Z" class="color302342 svgShape"></path><path fill="#54355e" d="M1127.6,353c.2,39.1-26.8,61.8-26.8,61.8l-37,2.9v-.2c3.3-50.8,12.2-71,12.2-71a165.9,165.9,0,0,1,33.3-12.8,130.7,130.7,0,0,1,15.4-2.9A90.3,90.3,0,0,1,1127.6,353Z" class="color54355e svgShape"></path><path fill="#ffb6b1" d="M1008.2,509.4c25.7,19.6,39.3,16.3,52.7,10.2s21.7-13.7,26-16.7h0c12.7-13,24.7-28.7,28.2-39.7,5.3-16.5,2.8-49.8,2.6-53.1v-.3s34.5-6.9,33-25.8-13.8-25.2-24.8-25.2-25.8,8.1-26.3,12,5,20,3,21.8-4.9,3.4-6.7,2.2-3.9-8-7.6-17.1c-1.5-4.4-3.6-9.5-5.6-14-2.7-7.1-5.3-13.6-6.6-17.3,0,0-11.9,10.6-38.9,14.9s-47.5,2.4-47.5,2.4-34.4,25.4-53.3,24.7c0,0,11,30.7,16.3,39.2s10.4,13.7,12.5,22.2a95.3,95.3,0,0,0,3.3,10.1.1.1,0,0,1,.1.1C969.3,461.7,983.3,490.4,1008.2,509.4Z" class="colorffb6b1 svgShape"></path><path fill="#f47382" d="M1130.6,398.6c-5,2.7-7.7,1.2-8.9,0s-2-4.4-.7-7l.4-.7c2.1-4,1.7-4.4.6-5.1a2.9,2.9,0,0,0-1.3-.4,2.4,2.4,0,0,0-.6,1.6,14.1,14.1,0,0,0,0,3.2,2.8,2.8,0,0,1-5.5.8,15.1,15.1,0,0,1-.1-4.3,7.4,7.4,0,0,1,3.6-6.2h0c1.4-.8,3.6-1.3,6.7.5,6.3,3.6,3,9.9,1.6,12.6l-.4.6c0,.1-.1.2-.1.3a7.3,7.3,0,0,0,2.3-1c2.1-1.1,5.7-7.9,5.1-14.3a9.8,9.8,0,0,0-6.9-9.3c-3.1-1.1-5.5-1-7.6.2-4.8,3-6.1,11.5-6.1,11.6a2.8,2.8,0,0,1-5.6-.8c.1-.4,1.6-11.2,8.8-15.6,3.6-2.1,7.7-2.4,12.4-.7a15.5,15.5,0,0,1,10.6,14.1c.7,8.4-3.6,17.3-8,19.7Z" class="colorf47382 svgShape"></path><ellipse cx="1028.6" cy="403.1" fill="#302342" rx="6.5" ry="9.9" transform="rotate(-33 1027.288 402.894)" class="color302342 svgShape"></ellipse><ellipse cx="979.1" cy="430.5" fill="#302342" rx="6" ry="8.8" transform="rotate(-33 978.365 430.449)" class="color302342 svgShape"></ellipse><path fill="#ce3a81" d="M1022.2,482.7a29,29,0,0,0,15.8,7,27.8,27.8,0,0,0,31.3-25.6,29.9,29.9,0,0,0-6.5-21.1,2.4,2.4,0,0,0-2.4-.8,2.4,2.4,0,0,0-1.1.6l-37.2,36.4a2.4,2.4,0,0,0-.7,1.8A2.1,2.1,0,0,0,1022.2,482.7Z" class="colorce3a81 svgShape"></path><path fill="#ffffff" d="M1021.4,481c6.8-.4,15.9-4.7,24.1-12.1,10-8.9,15.7-19.6,14.9-26.7a2.4,2.4,0,0,0-1.1.6l-37.2,36.4A2.4,2.4,0,0,0,1021.4,481Z" class="colorfff svgShape"></path><path fill="#f47382" d="M1038,489.7a27.8,27.8,0,0,0,31.3-25.6,40,40,0,0,0-15.6,5.9C1045.7,475.2,1040.2,482.4,1038,489.7Z" class="colorf47382 svgShape"></path><ellipse cx="1024.1" cy="401.2" fill="#ffffff" rx="2.8" ry="4.3" transform="rotate(-32.9 1025.527 401.297)" class="colorfff svgShape"></ellipse><ellipse cx="974.9" cy="429.9" fill="#ffffff" rx="2.8" ry="4.3" transform="rotate(-32.9 976.353 430.042)" class="colorfff svgShape"></ellipse><path fill="#f47382" d="M1020.9,460.7c-3.4,1.9-10.6,4.9-16,2-7.4-4-4.9-10.6-2.4-16.9l.7-1.8c1.8-4.7-3-10.9-5-13a2.7,2.7,0,0,1,0-3.9,2.8,2.8,0,0,1,4,0c.4.4,9.7,9.8,6.2,18.9l-.7,1.8c-2.8,7.3-2.8,8.5-.2,10s10.3-1.6,12.3-2.9a2.8,2.8,0,0,1,3.1,4.7Z" class="colorf47382 svgShape"></path><path fill="#302342" d="M1029.4 383.3a3.4 3.4 0 01-2 .3c-6.9-1.6-13.9 4.1-14 4.2a2.8 2.8 0 01-3.6-4.3c.4-.3 9.2-7.6 18.9-5.4a2.8 2.8 0 012.1 3.4A2.6 2.6 0 011029.4 383.3zM962 421.3a2.8 2.8 0 01-1.3.3 2.7 2.7 0 01-2.8-2.7c-.2-4 2.4-12.3 13.2-14.6a2.9 2.9 0 013.4 2.2 2.8 2.8 0 01-2.2 3.3c-8.7 1.9-8.9 8.2-8.8 9A2.8 2.8 0 01962 421.3zM683.4 2088.7c-11.6 21.4-24.3 48.4-24.6 50.5s-8.9 32.1-13.4 38-42.9-9.4-43.9-11.9 5.9-25.1-.5-21.7-26.2 13.9-30.6 13.9-120.5-59.3-129.9-66.7-32.1-26.2-33.1-33.6 1-18.3 9.8-25.7 25.7-6.4 47-.5 73.1 6.4 94.3 4.9a335.1 335.1 0 0044-5.9c8.7 7.9 14.7 14.9 12.7 19.9-2.7 6.8-10 5.6-6.8 12.3s57.4 5.4 69.6 18.4A38.1 38.1 0 01683.4 2088.7z" class="color302342 svgShape"></path><path fill="#ffffff" d="M736.8,2015.7s-28.6,35.1-40.5,51.4c-3.5,4.8-8.1,12.7-12.9,21.6a38.1,38.1,0,0,0-5.4-8.1c-12.2-13-66.4-11.7-69.6-18.4s4.1-5.5,6.8-12.3c2-5-4-12-12.7-19.9,8.9-1.9,16.5-4.2,20.7-6.9,10.9-6.9,41.5-50.9,41.5-50.9Z" class="colorfff svgShape"></path><path fill="#302342" d="M1555.4,1036.2c2.6,6.8,23.4,159.9,10.3,239.9s-97.2,379.4-128.3,444.5-129.8,283-138.8,323.8-3.9,80.3-26.1,78.8-130.3-2.9-148.1-31.3,76.7-439.1,84.4-477,14.9-145.6,14.9-145.6-263.4,274.3-285.1,301.4S785.5,2035,773.3,2051.3s-10.9,21.7-25.8,17.6-77.3-34.2-99-48.3-29.7-31.7-29.7-42.5,178.9-310.4,197.9-345.6,197.8-253.4,212-275.1,137.6-113.9,137.6-113.9v-77.2Z" class="color302342 svgShape"></path><path fill="#ffebf1" d="M1042.3,559.2s153.5,380.1,248.3,354.7,17.6-264,17.6-264L1200.9,477.8l-55.7,91.5Z" class="colorffebf1 svgShape"></path><path fill="#d13b62" d="M1112.6,571.1s26.2,35.5,30.2,35.5,2.4,2,2.4,2S1220,784,1249.6,837.4s31.1,56,31.1,56l52.3-40.6s-42.2-82.7-83-141.9-74.9-119.3-74.9-119.3l2.1-8-10.9-42.3h-41.9Z" class="colord13b62 svgShape"></path><path fill="#ffffff" d="M1040,561s16.5-14.1,18.3-19.7,4.6-12,4.6-12l61.5,12s40.4-71,45.5-68.9,33.1,5.8,33.1,5.8-27.2,88.1-32.6,87.7-46-22.6-46-22.6,3.3,40.8-2.9,40.3S1040,561,1040,561Z" class="colorfff svgShape"></path><path fill="#f47382" d="M1478.4,247.7s-33.6-15.5-46.5-24-33.8-18.3-37.6-19-53.2,5.4-56.2,6.1-48.1,33.1-47.4,36.9,9.4,4.1,9.4,4.1-7.8,4.8-4,11.2,13.9-2.4,18.3-4.1,19.3-11.6,21.7-11.2,37.2,11.2,37.2,11.2a94.3,94.3,0,0,1-16.6,6.4c-10.5,3.1-16.6,5.8-13.5,9.5s25,4.2,30.8,3.1,23.7,11.9,38.3,11.5a100.2,100.2,0,0,0,25.4-3.7Z" class="colorf47382 svgShape"></path><path fill="#f47382" d="M1299.7,253.6a1.6,1.6,0,0,1-1.1-.5,1.4,1.4,0,0,1,.1-2.1,233.3,233.3,0,0,1,25-19.5c4.6-3.1,9.5-6.2,14.9-8.1,8.1-2.8,17-2.7,24.8-2.7a1.5,1.5,0,0,1,0,3h0c-8,0-16.2-.1-23.9,2.6-4.7,1.6-9,4.2-14.1,7.6a256,256,0,0,0-24.7,19.3A1.3,1.3,0,0,1,1299.7,253.6Z" class="colorf47382 svgShape"></path><path fill="#ffffff" d="M1499.4,253.8s-16.3-14.5-27.5-11.8-46.7,25.7-53.2,40,12.2,29.4,15.3,32.2S1499.4,253.8,1499.4,253.8Z" class="colorfff svgShape"></path><path fill="#54355e" d="M1721.5,520.7c-4.9,8.1-32.1,19.9-40.2,22.1s-159,39.8-211,43-68.6,12.2-72.7,13.5-8.6,16.3-8.6,16.3,83.9,214.9,95.1,240.3,72.2,155.5,85.4,195.2,22.4,59.3,18.3,69.3-107.5,40.2-147.4,50.6-25.8,26.6-39.9,10.4-41.5-47.2-41.5-47.2-12.1,48.9-20.2,54.1-174.3,33.5-178.6,16.3,11.4-148.4,0-171.8-151.4-257.4-151.4-257.4l-80.9-6.9s27.7-95.6,41.2-129.8,73.2-79.5,73.2-79.5,38.5,62.9,102.9,152.4c52,72.1,114.9,140,135.5,154.9,5,3.5,7.6,4,6.9.8-3.4-16.8-28.5-127.2-45.4-215.7s-41.3-173.8-41.3-173.8,55.1-23.3,71.6-22.4c0,0,77.2,5.2,132.3,0s149.1-8.3,151.8-12.8-11.3-14-11.3-14-26.2-24.4-46.5-45.7-47.4-52.4-57.4-58.2-15.8-10-10.4-18.1,45.7-51.5,55.2-56.9,23.4,1.3,30.7,8.1,67.3,53.8,113.4,89.9,96.2,90.8,100.3,107.1S1726.5,512.6,1721.5,520.7Z" class="color54355e svgShape"></path><path fill="#302342" d="M1287.6,867.3s-2.7,39.4-2.7,47.6,80,239.2,80,239.2l-9.5,4.1s-194.5-206.7-198.6-210.8-56.5-80.1-56.5-80.1l61.3,46.9c20.3,15.6,122.6,131.5,139.6,147.7s16.2-2,4.7-44-29.4-102.3-29.3-104.4,5.3-46.2,5.3-46.2Z" class="color302342 svgShape"></path><circle cx="1316.6" cy="934" r="8.5" fill="#987ba3" class="color987ba3 svgShape"></circle><circle cx="1338.3" cy="1003.5" r="8.5" fill="#987ba3" class="color987ba3 svgShape"></circle><path fill="#987ba3" d="M1280.7 866.5c-74.7-12.6-217-145.9-219.7-152s14.5-41.5 14.5-41.5-44.7-11.8-49.3-20.4 16.1-93.4 16.1-93.4 38.5 62.9 102.9 152.4C1197.2 783.7 1260.1 851.6 1280.7 866.5zM1299.1 663c.5 56-11.5 204.3-11.5 204.3-3.4-16.8-28.5-127.2-45.4-215.7s-41.3-173.8-41.3-173.8c57.1 9 87.8 76.8 87.8 76.8s-36.1 40.2-34.8 40 45.2 7.9 45.2 7.9S1298.7 607 1299.1 663z" class="color987ba3 svgShape"></path><path d="M1321.3 542a141.8 141.8 0 0049.9 57.3 135.6 135.6 0 0019 10.6c1.7.7 3.3-1.8 1.5-2.6a139.7 139.7 0 01-57.2-48.3 124.9 124.9 0 01-10.6-18.5c-.9-1.7-3.4-.2-2.6 1.5zM1358.8 614.8l28.4-1.5c1.9-.1 1.9-3.1 0-3l-28.4 1.5c-2 .2-2 3.2 0 3zM1553.6 445a146.4 146.4 0 0155.4 5.9 133.8 133.8 0 0114.9 5.6c1.8.7 3.3-1.9 1.6-2.6a147.2 147.2 0 00-71.9-11.9c-1.9.2-2 3.2 0 3z" fill="#000000" class="color000 svgShape"></path><path fill="#302342" d="M845.5,502.9s100.9,54.2,79.4,142.3-76,85.4-76,85.4,46-4.4,56.2-58,11.5-67.1-11.5-108.4S845.5,502.9,845.5,502.9Z" class="color302342 svgShape"></path><path fill="#302342" d="M647.9,596.8s1.6,86.3,47.2,126.3-108.2,48.8-72.3,183,129.5,191.1,216.6,153.1,80.2-137.5,80.2-137.5-13.5,100.9-103,126-134.1-64.4-134.1-64.4,48,76.8,135.5,30.4,68.4-119.2,68.4-119.2-12-127.2-40.9-208.3S647.9,596.8,647.9,596.8Z" class="color302342 svgShape"></path><path fill="#302342" d="M851.7,455.9a78.8,78.8,0,0,0-14.5-16.8c-16.6-14.1-35.6-16.4-50.1-15.3a86,86,0,0,0-23.7,5.2s-8.7-1.8-21.8-.3h-1.1a97.2,97.2,0,0,0-43.8,16.7,120.6,120.6,0,0,0-11.9,9.5,125.1,125.1,0,0,0-12.4,13.4,46.3,46.3,0,0,0-3.2,4.2q-2.4,3.3-4.8,6.9l-.2.3c-2.7,4.2-5.4,8.8-7.9,13.7a15.1,15.1,0,0,0-1.1,2.2c-.7,1.4-1.4,2.8-2,4.2a98.6,98.6,0,0,0-4.1,11.5,104.6,104.6,0,0,0-4.2,25.2,133.1,133.1,0,0,0,.4,15.5h0s-3.6,25.5,6.2,59.5h0a18.7,18.7,0,0,1,.7,2.2h0a177.5,177.5,0,0,0,8.2,21.6c1.4,3.1,2.9,6.2,4.6,9.4h0a105.5,105.5,0,0,0,15.7,19.6l6.2,5.6a102.7,102.7,0,0,0,10.7,8c18.8,12.3,41.3,18.8,64.2,16.4h.1l6.1-.9h.2a95.9,95.9,0,0,0,18.4-5.3,101.6,101.6,0,0,0,10-4.8l.6-.3h0l1.3-.7h0A106,106,0,0,0,808,676h0c2.2-1.7,4.2-3.5,6.3-5.4,0-.1,0-.1.1-.1,9.4-8.9,17.4-19.9,24.1-31.8h0c1.3-2.3,2.6-4.6,3.8-7l1.9-3.7c2.2-4.5,4.2-9,6.1-13.6l1-2.5c.5-1.2,1-2.4,1.4-3.6,1.3-3.4,2.5-6.7,3.7-10h0l1.3-4,1.2-3.6a372.5,372.5,0,0,0,11.7-48.3c.2-1.3.4-2.6.6-3.6.6-4.1.9-6.4.9-6.4l-.4-.4c.1-.4.1-.7.2-1.1C873.8,515.6,872.7,488.4,851.7,455.9Z" class="color302342 svgShape"></path><path fill="#ffb6b1" d="M1044.2,847.7c-18.2,9.8-38.7,15.4-60.1,18-55.1,6.5-116.3-7.6-159.5-26-34.5-43.1-26.9-81.7-21.2-101.9,7.9-9.8,14-16.5,14.6-17.1h.1a214.5,214.5,0,0,0-11.2-23.1,91.3,91.3,0,0,0-8.2-12.6c-4.4-5.6-10.8-10.1-16.7-13.6-2.9-2.2-6.1-3.6-11.1-5.5l-.5-.2-3.1-1.3-.6-.2h-.2A44.5,44.5,0,0,1,746.9,648s-8.5,16.1-22.5,15.5-26.5-11.4-29.1-27,20.2-23.5,23.5-22.3,9,7.1,10.8,7.3,5,1.3,3-1.5-9.1-20.9-9.1-20.9,23.8-33.6,35.4-67.3,10.3-61.8,14.2-63.3,8.9-.2,10.1.7,42,24.7,58.7,23.9c0,0,44.9,70.2,51.5,103.7s-11.1,47.1-14.4,50.1l-3.3,3.1s7.2,12.7,12.8,16.1,19.3-1.5,31.9.3l38.5,2.4c1.8.3.8,9.9.8,9.9l4.3.2a131.3,131.3,0,0,1,21.2,5.6c24.9,8.4,31.8,31.3,31.8,31.3S1149.1,791.5,1044.2,847.7Z" class="colorffb6b1 svgShape"></path><path fill="#f47382" d="M875.7 649.9s-16 12.1-36 17.6-44.4 1.5-43.4 2.8 41.2 21.3 72.4 15.7S875.7 649.9 875.7 649.9zM723.3 629.7s-9.4-8.9-14.8 0 4.8 18.8 12.8 21.2 11.5-2 8.7-4.4-5.6-1-6.4-3.7.7-2.4 2.3-2.7S728.7 633.1 723.3 629.7z" class="colorf47382 svgShape"></path><path fill="#ce3a81" d="M861.4,598a29.9,29.9,0,0,1-1.1,17.1,25.5,25.5,0,0,1-36.4,14.2,31.2,31.2,0,0,1-12.2-11.5,4.7,4.7,0,0,1-.5-3.8,4,4,0,0,1,2.4-2.8l41.9-16.7a4,4,0,0,1,3.7.4A4.5,4.5,0,0,1,861.4,598Z" class="colorce3a81 svgShape"></path><path fill="#ffffff" d="M859.2,594.9c-3.7,5.5-11.7,11.3-21.7,15.3s-19.8,5.3-26.3,3.8a4,4,0,0,1,2.4-2.8l41.9-16.7A4,4,0,0,1,859.2,594.9Z" class="colorfff svgShape"></path><path fill="#f47382" d="M860.3,615.1a25.5,25.5,0,0,1-36.4,14.2,35.1,35.1,0,0,1,15.9-12.4A34.2,34.2,0,0,1,860.3,615.1Z" class="colorf47382 svgShape"></path><ellipse cx="792.3" cy="569.3" fill="#302342" rx="7.8" ry="10.9" transform="rotate(-21.7 792.809 569.537)" class="color302342 svgShape"></ellipse><ellipse cx="786.5" cy="565.6" fill="#ffffff" rx="2.4" ry="3.4" transform="rotate(-21.7 787.048 565.728)" class="colorfff svgShape"></ellipse><ellipse cx="845.5" cy="544.9" fill="#302342" rx="6.6" ry="9.9" transform="rotate(-21.7 846.166 545.145)" class="color302342 svgShape"></ellipse><ellipse cx="840.5" cy="541.5" fill="#ffffff" rx="2" ry="3.1" transform="rotate(-21.6 842.167 539.545)" class="colorfff svgShape"></ellipse><path fill="#302342" d="M789.3 545.9c-4.7-2.5-9.9 1.4-11.8 5.5s-7.6.6-5.8-3.3c3.5-7.5 13.2-12.2 20.9-8 3.8 2.1.4 7.9-3.3 5.8zM842 525.7c-2.2-1.4-6.1-2-7.8.8s-8 .3-5.8-3.4c3.6-5.7 11.5-6.6 16.9-3.2 3.7 2.3.3 8.1-3.3 5.8z" class="color302342 svgShape"></path><path fill="#f47382" d="M831.4,560.6a11.9,11.9,0,0,0,5.2,5.9c2.6,1.4,5.6,1.5,8.3,2.6a6.4,6.4,0,0,1,3.9,7.4c-.7,3.3-3.4,5.6-5.1,8.4s-5.3.3-3.8-2.2,4.2-4.6,4.6-7.4-3.2-2.7-4.9-3.1a16.7,16.7,0,0,1-12.5-10.5,2.2,2.2,0,0,1,1.6-2.7,2.1,2.1,0,0,1,2.7,1.6Z" class="colorf47382 svgShape"></path><path fill="#ffffff" d="M652.2,613.8a11.4,11.4,0,0,0-.7-2.2A18.7,18.7,0,0,1,652.2,613.8Z" class="colorfff svgShape"></path><path d="M652.8,613.7a21.9,21.9,0,0,0-.7-2.3l-1.1.3a15.5,15.5,0,0,0,.7,2.3Z" fill="#000000" class="color000 svgShape"></path><path fill="#302342" d="M749.9,534.5s-11.3,38.6,3.9,72.9,45.6,36,45.6,36a38.2,38.2,0,0,1-30.4-1.8c-15.5-8.1-19.7-16-19.7-16s27,41.5,49.6,57.2,34,18.1,34,18.1-62.7-8.5-87.8-41S711,595.2,711,595.2Z" class="color302342 svgShape"></path><path fill="#ffffff" d="M763.4,429s-88.2,28-97,118.8,41.7,127.8,62.4,137.5,33.1,9.2,33.1,9.2l6.3-.9s-47-13.6-63.3-36.6-34.7-81.3-21.4-123.9,46.1-70.9,63.9-85.9,39.7-23.4,39.7-23.4Z" class="colorfff svgShape"></path><path fill="#ffb6b1" d="M983.4,879.4c-36.7,29.7-90.3,40.2-134.4,1.8a192.6,192.6,0,0,1-28.2-29.8c-35.1-46.6-27.3-88.3-21.5-110.1,1.2-4.6,2.3-8.2,2.9-10.9,3.2-13.6,1.7-26.6.7-32.6-.4-2.1-.7-3.3-.7-3.3s214.6,23,223.5,96.3C1029.5,822.7,1011.5,856.7,983.4,879.4Z" class="colorffb6b1 svgShape"></path><path fill="#f2c9d0" d="M1713.8,1866.3c-.8,80.4-26.7,148.5-68.1,204.1a379.3,379.3,0,0,1-31.9,37.4c-47.9,49.5-108.9,86.7-173.3,111.6-7.5,2.9-15.2,5.7-22.8,8.2-11.7,4-23.4,7.5-35.2,10.7-66.4,17.8-109.6,18.5-144.2,12.9-52.3-8.4-85-31.2-148.6-31.2-105.7,0-136.2,65.1-262.2-10.2s-211.4,0-274.5-42.6,52.9,2,130.1-67.1,132.2-181,166.7-363.9,4.1-309,48.8-483.9,55.9-188,60-220.5-38.6-61-44.7-68.1-35.8-42.7-56.1-68.9c-11.8-15.2-17.1-22.3-18.2-26.5s.6-4.3,3.2-6c6.4-4.1,26.7-10.2,32.8-11.5,0,0-33.5-64.7-18-116.5s45.1-64.1,52.2-65.7,18.7,3,19.3,4.4-32.5,9.5-52.4,59.6,22.6,104.8,22.6,104.8a621.9,621.9,0,0,0,84.5-48.8l84.9-58.3s31.2,24.4,31.2,58.8,5.4,53.3,5.9,56.4,14,40.7,21.2,49.3,33.9,25.3,41.6,33.4,18.9,25.3,23.9,29.8,164.9,163.6,299.1,333S1715.9,1663,1713.8,1866.3Z" class="colorf2c9d0 svgShape"></path><path fill="#ffffff" d="M1277.5,2250.2a243,243,0,0,1-38.5-3c-20-3.3-37.4-8.7-54.3-14-27.2-8.5-55.3-17.3-95-17.3-36.5,0-64.6,7.7-89.5,14.6-21.4,5.9-41.6,11.5-64.3,11.5-31.7,0-65.5-11.4-106.3-35.7s-81.7-35.9-128.1-35.9c-19.5,0-37.2,1.9-54.4,3.7-14.6,1.6-28.4,3-41.2,3-21.3,0-36.9-4.1-50.5-13.4-11.3-7.6-14.8-11.2-15.9-12.7,3.2-1.3,12.4-2.1,20.6-2.8,31.3-2.8,83.7-7.3,125.8-45,81.2-72.6,134.5-189,168-366.2,16-84.9,18.1-157.8,20.2-228.3,2.4-83.2,4.6-161.7,28.6-255.3,24.5-95.9,39-143.3,47.6-171.6,7.2-23.7,10.5-34.5,12.4-49.5,3.6-28.7-25.5-53.7-39.4-65.7A78.2,78.2,0,0,1,917,961c-6.7-7.9-36.3-43.4-56-68.8-9.6-12.3-16.4-21.3-17.4-24.9,0-.2-.1-.3-.1-.4l1.6-1.2c5.6-3.6,25.3-9.6,31.3-10.8l5.4-1.1-2.5-4.9c-.4-.6-32.6-63.8-17.7-113.4,16.4-54.6,47.8-62.6,49.2-62.9a8.8,8.8,0,0,1,2.4-.3,29.3,29.3,0,0,1,6.6,1c-11.3,6.3-32.4,21.2-46.9,57.8-20.5,51.7,21.4,106.5,23.1,108.8l2.1,2.6,2.9-1.3A633.9,633.9,0,0,0,986.1,792l82.3-56.4c7,6.2,27.4,26.9,27.4,53.5,0,29.6,3.9,47.9,5.4,54.8.2,1,.4,1.9.5,2.2.5,3.6,14.3,42,22.1,51.4,4.2,4.9,13.8,11.9,23.1,18.8,7.5,5.5,15.3,11.2,18.7,14.8s8.5,10.3,12.7,15.9,8.7,11.6,11.4,14.1,162.8,160.9,298.6,332.4c69.5,87.8,123.9,179.9,161.6,274,40.7,101.1,60.8,201.7,59.8,298.7-.8,74.9-23.4,142.7-67.4,201.7a376.1,376.1,0,0,1-31.5,37c-44.7,46.2-104.1,84.5-171.8,110.6-7.4,2.9-15,5.6-22.6,8.2-11.5,3.9-23.3,7.5-35,10.6C1341.5,2245,1307.5,2250.2,1277.5,2250.2Z" class="colorfff svgShape"></path><path fill="#ffebf1" d="M1713.8,1866.3c-.8,80.4-26.7,148.5-68.1,204.1,52-254.9-50.3-510.3-55.4-522.8,4.9,13.3,109.6,297.5,38.2,514.6-5.4,16.1-10.2,31.3-14.7,45.6-47.9,49.5-108.9,86.7-173.3,111.6,73.8-254.8,27.8-682.1-5.2-674.3s18.3,81.3,30.5,329.3c6.2,125.3-20.3,255.3-48.1,353.2-11.7,4-23.4,7.5-35.2,10.7-66.4,17.8-109.6,18.5-144.2,12.9,34.9-87.9,72.7-220.9,89.3-407.3,34.5-388.3-193.8-802.3-203.2-814.5s-55.7-14.9-65.7-15.6,45.3-19.6,65.7-37.5-30.6-26.9-35-57.4-66.8-22.3-124.5-42.6c-27.7-9.8-79.2-10.2-125.3-8-.8-2.9.6-4.3,3.2-6,6.4-4.1,26.7-10.2,32.8-11.5,0,0-33.5-64.7-18-116.5s45.1-64.1,52.2-65.7,18.7,3,19.3,4.4-32.5,9.5-52.4,59.6,22.6,104.8,22.6,104.8a621.9,621.9,0,0,0,84.5-48.8l84.9-58.3s31.2,24.4,31.2,58.8,5.4,53.3,5.9,56.4,14,40.7,21.2,49.3,33.9,25.3,41.6,33.4,18.9,25.3,23.9,29.8,164.9,163.6,299.1,333S1715.9,1663,1713.8,1866.3Z" class="colorffebf1 svgShape"></path><path fill="#f4c9d0" d="M964.1,1014.3c20.3,3.7,41,2.9,61.2-1s38.9-10.8,57.2-19.2q15.3-7.1,30-15.3c3.4-1.8.4-7-3-5.1-17,9.3-34.5,18-52.8,24.6s-38.1,11.3-57.9,12.3a147.1,147.1,0,0,1-33.1-2.1,3.2,3.2,0,0,0-3.7,2.1,3,3,0,0,0,2.1,3.7Z" class="colorf4c9d0 svgShape"></path><path fill="#f4c9d0" d="M1029.5 993.3a198.2 198.2 0 0064.1-19.8 68.4 68.4 0 0014.8-10.2c2.8-2.6-1.5-6.9-4.3-4.2-7.4 7-17.2 11.3-26.5 15.1a203.5 203.5 0 01-31.3 10c-6.1 1.4-12.2 2.5-18.4 3.4-1.6.2-2.5 2.2-2.1 3.7a3 3 0 003.7 2zM1097.4 790.8c-3.4 19.8-19.3 33.9-36.3 42.9-5.2 2.8-10.6 5.2-16.1 7.5a3.1 3.1 0 00-2.1 3.7c.4 1.4 2.2 2.7 3.7 2.1 19.8-8.2 40-19 50.8-38.5a51.8 51.8 0 005.8-16.1 3 3 0 00-2.1-3.7 3.1 3.1 0 00-3.7 2.1zM1031.3 1260.8a306.1 306.1 0 0121.1 78.5 399.6 399.6 0 012.2 81.8 534.1 534.1 0 01-13.1 82.3 857.3 857.3 0 01-24.4 83c-9.4 27.4-19.8 54.4-30.3 81.4l-3.9 10c-1.4 3.6 4.4 5.2 5.8 1.6 10.6-27.1 21.1-54.2 30.8-81.6s18.5-55.3 25.6-83.6a560.7 560.7 0 0014.6-83.3 411.5 411.5 0 00-.1-82.3c-3-27.3-8.9-54.3-18.7-80-1.2-3.1-2.5-6.3-3.8-9.4a3.2 3.2 0 00-3.7-2.1c-1.4.4-2.7 2.2-2.1 3.7zM1015.3 1688.5c-4.3 15.4-9.2 30.5-14.7 45.5s-11.4 29.7-18 44.2-13.7 28.8-21.4 42.8-15.8 27.7-24.5 41-18 26.5-27.7 39.3c-1.2 1.4-2.3 2.9-3.5 4.4a3.1 3.1 0 000 4.2c1.1 1 3.3 1.3 4.3 0q15-19.2 28.5-39.4t25.1-41.1q11.9-21.2 22-43c6.8-14.7 13.1-29.7 18.8-44.8s10.7-30.2 15.2-45.6c.5-2 1.1-3.9 1.6-5.9 1.1-3.7-4.7-5.3-5.7-1.6zM839 2060.1a316.1 316.1 0 01-37.2 37.8c-3.8 3.2-7.7 6.4-11.7 9.5-1.3 1-1 3.2 0 4.3a3.2 3.2 0 004.3 0 315.5 315.5 0 0038.9-36q5.1-5.5 9.9-11.4a3 3 0 000-4.2 2.9 2.9 0 00-4.2 0zM1139.5 1746.4a620.5 620.5 0 01-12.1 71.5 645.9 645.9 0 01-20.2 69.7 662.6 662.6 0 01-27.9 66.8 639.5 639.5 0 01-77.4 122.2c-2 2.3-3.9 4.7-5.9 7.1a3 3 0 104.3 4.2 650.8 650.8 0 0043.8-59.2 635.1 635.1 0 0036.6-63.6 647.2 647.2 0 0029.1-67.3 639.1 639.1 0 0034.6-142.3c.4-3.1.8-6.1 1.1-9.1s-1.5-3-3-3-2.8 1.3-3 3zM1022.5 2121.1a457 457 0 01-35.5 34.1 481.7 481.7 0 01-38.4 29.9c-7.6 5.3-15.4 10.4-23.3 15.2-3.2 2.1-.2 7.3 3.1 5.2a489.3 489.3 0 0040.7-28q19.8-15.3 38-32.4c6.8-6.4 13.3-13 19.7-19.7 2.6-2.8-1.6-7.1-4.3-4.3z" class="colorf4c9d0 svgShape"></path><path fill="#f4c9d0" d="M1181.9 1328.2c21.2 54.9 35.3 112.2 43.4 170.4s10 118.3 7.6 177.5-9.3 117.6-19.3 175.7c-9.5 54.9-22 109.4-40.3 162s-42.3 102.8-74.4 148.1c-3.9 5.6-7.9 11-12.1 16.4-2.3 3 2.9 6 5.2 3 33.9-44 59.8-93.6 79.6-145.4s33.8-107.2 44.2-162.4a1409.4 1409.4 0 0021.9-174.9c3.6-59.5 2.9-119.3-3.8-178.6s-18.9-116.7-38.4-172.4q-3.7-10.5-7.8-21c-1.4-3.5-7.2-2-5.8 1.6zM1205.9 2091.1a222.6 222.6 0 01-39.1 61.7c-4.6 5.1-9.5 10-14.5 14.7-2.9 2.7 1.4 6.9 4.2 4.3a226.1 226.1 0 0045.9-59.7 202.1 202.1 0 009.2-19.4c.7-1.5-.6-3.3-2-3.7a3 3 0 00-3.7 2.1zM1263.4 1191.3a552.9 552.9 0 0171.7 57.8 698.8 698.8 0 0162.2 67.7c19.4 24.1 37.5 49.2 54.6 74.9s33.6 52.7 49.3 79.6 31 54.2 46 81.5l5.6 10c1.8 3.4 7 .4 5.2-3-15.2-27.4-30.4-54.8-46-82s-32-54.1-49.2-80.4-35-51.6-54.3-76.1a739.8 739.8 0 00-61.8-69.4 566.9 566.9 0 00-70.9-59.3l-9.4-6.5c-3.2-2.1-6.2 3.1-3 5.2zM1562.8 1603.1a787.8 787.8 0 0127.4 81.5 594.2 594.2 0 0117.2 84.5 495.9 495.9 0 013.7 83.5 430.5 430.5 0 01-11 80.7 365.4 365.4 0 01-27.2 76.8c-1.4 3-3 6-4.5 9s3.4 6.5 5.2 3a368.6 368.6 0 0029.6-76.8 419.6 419.6 0 0013.2-81.1 483.1 483.1 0 00-1.8-84.2 604.7 604.7 0 00-15.5-85.6 770.7 770.7 0 00-26.5-82.6c-1.4-3.4-2.7-6.8-4-10.2a3 3 0 00-3.7-2.1 2.8 2.8 0 00-2.1 3.6z" class="colorf4c9d0 svgShape"></path><path fill="#ffb6b1" d="M927.1,674.3s61.2-32.5,90.6-48.8,89-47.4,97.1-56.4,30.3-54.3,55.1-87.7,64.2-90.3,88.6-116.1,35.2-29.1,44-49.5,17-42.6,19-53.5,29.5-31.5,29.5-31.5l49.8,46.1s-14.6,21-29.2,32.2-26.4,33.5-26.4,33.5-24.4,53.9-52.9,118.3-57.6,121.9-71.8,136.8-30.5,21.7-37.3,25.8-61.6,75.9-121.2,117.2-155.2,95.8-162.7,96.7-32.2-31.8-34.5-74.3S908.7,680.1,927.1,674.3Z" class="colorffb6b1 svgShape"></path><path fill="#f47382" d="M899.6,837.6l-.7-.2a1.4,1.4,0,0,1-.7-1.9,146.1,146.1,0,0,1,51.2-61.3,1.5,1.5,0,0,1,2.1.4,1.6,1.6,0,0,1-.4,2.1,143.6,143.6,0,0,0-50.2,60A1.5,1.5,0,0,1,899.6,837.6Z" class="colorf47382 svgShape"></path><path fill="#f47382" d="M900.7 836.4a1.4 1.4 0 01-1.2-.6 1.5 1.5 0 01.3-2.1 177.5 177.5 0 0119.1-12.9 1.5 1.5 0 011.5 2.5 200.7 200.7 0 00-18.8 12.8A1.6 1.6 0 01900.7 836.4zM1169.8 596.1a34.2 34.2 0 01-25.7-11.6 1.5 1.5 0 012.3-1.9 31.4 31.4 0 0028.4 10.1 1.5 1.5 0 11.5 3A33.1 33.1 0 011169.8 596.1z" class="colorf47382 svgShape"></path><path fill="#ffebf1" d="M845.5,1214.7c-7.4,22.4-38.3,43.7-53.2,34.6s-48.2,18.3-91.9,10.7-43.7-20.9-71.1-64.8c-15.9-25.3-35.1-25.7-63.3-24.7-8.1.3-17,.7-26.7.7a238.1,238.1,0,0,1-51.3-5.3c-14.9-3.1-27-8.7-36.9-16.2-41-30.8-45.4-94-57.6-154.7-15.3-75.4-68.1-47.6-75.3-59.8s14.3-17.3,51.9-44.7,23.4-85.4,77.2-115.1,80.3-73,109.8-136.7S669.7,528,669.7,528l-.3,1.9C647.1,669,761.9,694.5,761.9,694.5s-21.8,68.9,25.2,139.3,53.6,143.1,17,236.9S852.9,1192.4,845.5,1214.7Z" opacity=".48" class="colorffebf1 svgShape"></path><path fill="#f4c9d0" d="M845.5,1214.7c-7.4,22.4-38.3,43.7-53.2,34.6s-48.2,18.3-91.9,10.7-43.7-20.9-71.1-64.8c-15.9-25.3-35.1-25.7-63.3-24.7,30.7-61.6,88.9-183.4,86.8-215-3-42.7-3.2,2.1-58.1,132.2-15.2,36-34.8,63-55.4,83.5a238.1,238.1,0,0,1-51.3-5.3c-14.9-3.1-27-8.7-36.9-16.2,49.1-42.5,106.2-102.7,139.6-173.9,67-143.3,91.4-251,74.6-313-13.6-50.3-2.2-107.6,4.1-132.9C647.1,669,761.9,694.5,761.9,694.5s-21.8,68.9,25.2,139.3,53.6,143.1,17,236.9S852.9,1192.4,845.5,1214.7Z" opacity=".51" class="colorf4c9d0 svgShape"></path><path fill="#f4c9d0" d="M622.8 616.7c3.3 14.4-.7 29.2-5.6 42.8a314 314 0 01-16.3 36.6 345.7 345.7 0 01-44.2 66.2 342.1 342.1 0 01-31.3 32.4 3 3 0 004.2 4.2 348 348 0 0053.8-61.8A352.7 352.7 0 00621.5 665c6.1-15.8 11-33 7.1-49.9a3 3 0 00-3.7-2.1 3.2 3.2 0 00-2.1 3.7zM545.7 804.9a397.1 397.1 0 00-41.1 44.9 407.7 407.7 0 00-34.1 50.3c-5.6 9.9-10.9 20.1-15.7 30.5a3 3 0 005.2 3 404.1 404.1 0 0166.2-100.3c7.6-8.4 15.5-16.4 23.7-24.2 2.8-2.6-1.4-6.9-4.2-4.2zM721.5 749A318.9 318.9 0 00711 893.7c3.9 24.6 11 48.5 18.7 72.2s15.8 47.2 21.8 71.4 9.6 49 8 74c-.2 3-.5 6.1-.8 9.1s1.5 3 3 3a3.1 3.1 0 003-3c2.9-24.7.2-49.7-5-74s-13.1-48.1-20.9-71.7-15.3-47.1-20-71.4a315.3 315.3 0 015.9-144.1c.8-2.9 1.7-5.7 2.5-8.6s-4.6-5.3-5.7-1.6zM677.5 1015.2a315.4 315.4 0 018.8 48.1 321 321 0 011.4 49c-.5 9.2-1.3 18.3-2.5 27.4a3 3 0 105.8 1.6 327.9 327.9 0 00-1.7-100.2c-1.6-9.3-3.6-18.4-6-27.5-1-3.7-6.8-2.1-5.8 1.6z" class="colorf4c9d0 svgShape"></path><path fill="#ffb6b1" d="M1400.8,276.9s-38.3-10.9-42.4-7.8-1.3,9.1,0,10.8,20.7,8.9,28.1,9.5,27.8-1.7,27.8-1.7Z" class="colorffb6b1 svgShape"></path><path fill="#ffb6b1" d="M1351,230.8s17.2-10.5,25-12.9,37.7-12.8,41.4-9.8,3.7,4.7,3.7,4.7,5.8.4,7.8,2.8,2,6.6,2,6.6,5.8-1.6,9.9,2.5,3.4,6.1,3.4,6.1-17.7,9.2-21.7,10.8-24.9,34.4-24.9,34.4-44.3-20.8-44.3-21.8S1351,230.8,1351,230.8Z" class="colorffb6b1 svgShape"></path><path fill="#f47382" d="M1361.4 249.7a1.2 1.2 0 01-.8-.2 1.5 1.5 0 01-.5-2c7.3-12 20.9-18.5 31.8-23.8 9.3-4.5 19-9.2 29.5-11.6a1.5 1.5 0 011.8 1.1 1.6 1.6 0 01-1.2 1.8c-10 2.4-19.6 7-28.8 11.4s-23.7 11.4-30.5 22.6A1.5 1.5 0 011361.4 249.7zM1386.7 259.5l-.6-.2a1.4 1.4 0 01-.8-1.9 33.4 33.4 0 016.1-8.6 114.2 114.2 0 0139.1-27.5 1.5 1.5 0 111.2 2.8 109.5 109.5 0 00-38.1 26.8 30.4 30.4 0 00-5.6 7.7A1.5 1.5 0 011386.7 259.5z" class="colorf47382 svgShape"></path><path fill="#d13b62" d="M1730.8 804.6a306.4 306.4 0 01-40.7 7.5l-2.6.3-5.6.5-7.8.5h-.3a2.1 2.1 0 01-1.6-1l-.9-1.2a.8.8 0 00-.2-.4c-1-1.5-2.4-3.6-4-6.2l-.2-.3c-.1-.1-.2-.2-.2-.3-3.1-5-7.1-11.7-11.4-19.6 0-.1-.1-.2-.2-.4-3.5-6.6-7.2-14.1-10.6-22.2-.1-.1-.1-.3-.2-.4s-1.2-3.1-1.9-4.6-.1-.3-.1-.4l-3.3-8.6c-10.4-29.4-15.8-63.7-1.2-91.9 31.6-61.1 100.1-32.2 102.5 14.2a2.5 2.5 0 00.9 1.9 2.3 2.3 0 002.8-.1 57.4 57.4 0 015.3-3.2 44.4 44.4 0 018.9-3.5 38.4 38.4 0 014.6-1.1 51.6 51.6 0 0113-.7h1.3c32.2 3 61.9 35.2 40.9 81.5C1802.7 778.7 1764.3 795.9 1730.8 804.6zM1589.2 723.6a133.6 133.6 0 01-11.8 14.6l-.8.9a15.3 15.3 0 01-1.8 1.8 28.2 28.2 0 01-2.5 2.5c0 .1 0 .1-.1.1a.8.8 0 01-.8.2l-.7-.2h-.2l-3.2-1h-.3c-2.5-.8-5.9-1.9-9.7-3.3h-.2c-3.2-1.3-6.6-2.7-10.2-4.5h-.2l-2-1h-.2l-3.7-2c-12.3-7-24.3-17.2-27.6-31.2-7.2-30.3 24.8-40.7 39.4-25.5a1.2 1.2 0 00.9.4.9.9 0 00.9-.8 21.4 21.4 0 01.9-2.7 17.9 17.9 0 012-3.9l1.2-1.7a27.8 27.8 0 014.3-4.1l.5-.3h0c11.9-8.5 31.7-6.3 38.2 15.8C1606.2 693.4 1598.1 710.7 1589.2 723.6zM851.5 336a175.4 175.4 0 01-9 22l-.6 1.4c-.6 1.1-1.1 2-1.5 2.9s-1.8 3.2-2.2 3.9 0 .1-.1.2a1.1 1.1 0 01-.9.5H836c-1 0-2.4.1-4.2 0h-.4c-3.4 0-7.9-.1-13.1-.5h-.2c-4.3-.3-9.1-.9-14.1-1.7h-.2l-2.9-.6h-.2l-5.2-1.1c-17.5-4.1-35.9-12.1-45-27.9-19.8-34.3 15.4-58.6 38.7-45.4a1.4 1.4 0 001.2.2 1.3 1.3 0 00.9-1.4 21.7 21.7 0 01.1-3.6 24.5 24.5 0 011-5.4l.9-2.6a32.1 32.1 0 013.7-6.5 2.1 2.1 0 00.4-.6h0c11.5-14.7 36.4-19.1 52.3 5.5C861.3 293 857.7 317 851.5 336z" class="colord13b62 svgShape"></path></svg></g></svg>