<svg id="SvgjsSvg2207" width="550" height="550" xmlns="http://www.w3.org/2000/svg" version="1.1" xmlns:xlink="http://www.w3.org/1999/xlink" xmlns:svgjs="http://svgjs.com/svgjs"><defs id="SvgjsDefs2208"></defs><g id="SvgjsG2209"><svg xmlns="http://www.w3.org/2000/svg" viewBox="0 0 2500 2500" width="550" height="550"><path fill="#ffebf1" d="M2194.3,2191.1l-391.1-1.2L545,2186l-209.6-.7s-198.7-135.4-110.7-347.7,143.8-264.5,85.8-451.4S212,648.4,667.8,377.3c72.3-43,150.1-78.1,231.2-105,249.3-82.6,529.4-86.4,774.8,3.5A987.4,987.4,0,0,1,1840.3,355c160.4,95.9,301.1,241.8,357,419,28.2,89.3,32.1,184.4,9,275.2-25.4,100.2-82.2,190.1-106.9,290.3-11.9,48.5-14.2,98.3-1.5,146.9,52.3,200.3,154.3,157.2,192.9,359.6S2194.3,2191.1,2194.3,2191.1Z" class="colorffebf1 svgShape"></path><ellipse cx="2203.1" cy="1412.3" fill="#f2c9d0" rx="85.4" ry="174.1" class="colorf2c9d0 svgShape"></ellipse><ellipse cx="256.4" cy="1510.6" fill="#f2c9d0" rx="54.2" ry="159.5" class="colorf2c9d0 svgShape"></ellipse><path fill="#f2c9d0" d="M2194.3 2191.1l-391.1-1.2c-3.8-46.6-7-104.6-8.9-176.7-8.4-325.9 202.2-853.7 200.3-872.6-.5-5.6-.2-16.1.3-28.6 1.4-29 4-68.9-.3-84.7h0c-6.8-23-221.5-184.1-274.8-397.3-29-115.8-41-252.8-46-354.1A987.4 987.4 0 011840.3 355c160.4 95.9 301.1 241.8 357 419 25.8 81.8 31.2 168.4 14.3 252.2-1.6 7.7-3.3 15.4-5.3 23a611.9 611.9 0 01-21.1 66.1c-28.1 74.9-66.6 146.5-85.8 224.2-11.9 48.5-14.2 98.3-1.5 146.9 52.3 200.3 154.3 157.2 192.9 359.6S2194.3 2191.1 2194.3 2191.1zM471.3 1319.9c-2.8 18.2-.7 64.2-.1 75.2.1 1.6.1 2.5.1 2.5s154.9 417.6 82.2 755.4c-2.5 11.4-5.3 22.4-8.5 33l-209.6-.7s-198.7-135.4-110.7-347.7c86.3-207.9 141.5-262.3 89.3-440-1.1-3.8-2.3-7.5-3.5-11.4a685.8 685.8 0 01-18.5-77.7c-42.2-231.9-27.7-691.2 375.8-931.2 72.3-43 150.1-78.1 231.2-105C860.5 443.2 790.8 729.7 718.6 910.9c-98.1 246.2-218.8 365.1-243 400.6C473.1 1315.2 471.6 1318 471.3 1319.9z" class="colorf2c9d0 svgShape"></path><path fill="#d398a5" d="M481.9 1326.2v51.1a20.3 20.3 0 01-10.7 17.8 19.9 19.9 0 01-9.6 2.5H314c-1.1-3.8-2.3-7.5-3.5-11.4a685.8 685.8 0 01-18.5-77.7 19.9 19.9 0 0110-2.6H461.6a20.1 20.1 0 0114 5.6A20.5 20.5 0 01481.9 1326.2zM2211.6 1026.2c-1.6 7.7-3.3 15.4-5.3 23a611.9 611.9 0 01-21.1 66.1H2006.1a20.2 20.2 0 01-20.3-20.3v-51.1a20.4 20.4 0 018.8-16.7 20.6 20.6 0 0111.5-3.6h195.5A21.3 21.3 0 012211.6 1026.2zM1757.5 429.3q11.3 36.8 23.2 73.4t24.5 72.9q12.5 36.3 25.8 72.5t27.2 71.9q13.8 35.7 28.3 71.1c1.3 3 2.5 6 3.7 9a3.1 3.1 0 003.7 2.1c1.4-.4 2.7-2.2 2.1-3.7-9.8-23.7-19.3-47.5-28.7-71.4s-18.4-47.8-27.3-71.9-17.6-48.2-26-72.4-16.7-48.5-24.6-72.8-15.7-48.6-23.2-73c-1-3.1-1.9-6.2-2.9-9.3s-6.9-2.1-5.8 1.6zM1913 713.9q8.1 21.6 17.4 42.8t19.9 41.5q10.5 20.5 22.4 40.3c7.9 13.2 16.1 26.1 24.8 38.7s17.8 25.2 27.3 37.4l3.5 4.5c1 1.3 3.2 1.1 4.3 0a3.1 3.1 0 000-4.2q-14.1-17.9-27-36.5c-8.7-12.5-16.9-25.2-24.8-38.1s-15.5-26.3-22.6-39.8-13.8-27.2-20.1-41.1-11.9-27.6-17.3-41.7l-2-5.4a3.1 3.1 0 00-3.7-2.1 2.9 2.9 0 00-2.1 3.7zM1748.9 612.7c8.7 22 18.2 43.8 28.3 65.3s20.9 42.3 32.4 63c6.4 11.6 13.1 23.1 20 34.5 2 3.3 7.2.3 5.1-3q-18.2-30.2-34.4-61.4c-10.8-20.9-21-42.2-30.5-63.7-5.2-12-10.3-24.1-15.1-36.3a3.1 3.1 0 00-3.7-2.1c-1.4.4-2.7 2.2-2.1 3.7zM1856.2 550.4c11.8 26.4 24.9 52.3 39.2 77.4 4 7.1 8.1 14.2 12.3 21.2 2 3.3 7.2.3 5.2-3.1-14.9-24.7-28.7-50.2-41.2-76.3-3.5-7.4-7-14.8-10.3-22.2a3.1 3.1 0 00-4.1-1.1 3 3 0 00-1.1 4.1zM797.6 430.6A921.5 921.5 0 01769.8 568a1180 1180 0 01-46.2 132.9C705.5 744.8 685 787.8 663 830s-46.3 85.2-71.1 126.8-50.5 83.3-76.3 124.7l-9.4 15.1c-2.1 3.3 3.1 6.3 5.2 3 25.9-41.5 51.7-83 76.9-124.9s49.6-84.3 72.5-127.5 43.5-85.6 62.4-129.8a1269.2 1269.2 0 0048-132.5 944.4 944.4 0 0030.1-137.1c.9-5.7 1.6-11.5 2.3-17.2.5-3.8-5.5-3.8-6 0zM586.2 880.7c-8 15.6-16.2 31-24.6 46.4s-16.8 30.4-25.5 45.5-17.7 30.2-26.8 45.2-18.3 29.6-27.7 44.2-19 29.2-28.8 43.6c-1.2 1.9-2.5 3.7-3.7 5.5a3 3 0 001.1 4.1 3.1 3.1 0 004.1-1q14.7-21.7 29-43.8t27.8-44.2c9.2-14.9 18.1-29.9 26.9-45s17.3-30.2 25.7-45.5 16.6-30.6 24.7-46l3-5.9a3 3 0 00-1.1-4.1 3.1 3.1 0 00-4.1 1zM623.3 617.5c-5.5 22.6-11.7 45.1-18.7 67.3s-14.8 44.1-23.4 65.8-18 43-28.1 64-20.9 41.6-32.4 61.8-23.8 40-36.8 59.3l-4.8 7.2c-2.2 3.2 3 6.2 5.1 3.1q19.8-28.9 37.5-59.3c11.7-20.2 22.8-40.8 33.1-61.8s19.9-42.4 28.7-64.1 16.9-43.7 24.1-65.9 13.7-44.7 19.4-67.3c.7-2.9 1.4-5.7 2-8.5s-4.8-5.3-5.7-1.6zM426.7 1158l-16.9 31.6a3.1 3.1 0 001.1 4.1 3 3 0 004.1-1.1l16.8-31.6a3 3 0 10-5.1-3zM429.1 1438.5a539.1 539.1 0 0139.1 88.3 677.2 677.2 0 0124.3 92.8c6.1 31.9 10.2 64 13.1 96.3s4.4 65.5 5.3 98.3 1 65.3 1 97.9v12.2c0 3.9 6 3.9 6 0 0-32.9 0-65.7-.7-98.6s-2.1-66-4.7-98.8-6.4-65.1-12.1-97.3a707 707 0 00-23-94.2 552.9 552.9 0 00-37.3-89.2c-1.9-3.6-3.8-7.2-5.8-10.7s-7.1-.4-5.2 3zM407.9 1485.2a118.1 118.1 0 0115.2 45.8 129.9 129.9 0 01.8 14c-.1 3.8 5.9 3.9 6 0a126.3 126.3 0 00-10.3-49.9 129.7 129.7 0 00-6.5-12.9c-1.9-3.3-7.1-.3-5.2 3zM2045.3 1157.6c-26.4 32-45.9 68.9-61.2 107.4s-27.3 81.2-38.2 122.6q-18 68.6-31.8 138.2t-23.2 139.3q-9.5 69.8-14.6 140c-.5 6-.9 11.9-1.3 17.9-.2 3.9 5.8 3.8 6 0q4.6-69.7 13.4-139.3c6-46.4 13.3-92.7 22-138.6s18.8-91.4 30.3-136.6c10.6-42.1 21.9-84.2 36.7-124.9 14.1-38.7 31.9-76.3 56.5-109.5q4.6-6.1 9.6-12.3c2.5-2.9-1.7-7.2-4.2-4.2zM2073.7 1165c-11 30.1-20.7 60.8-29.1 91.7-2.3 8.7-4.6 17.5-6.7 26.3-.9 3.7 4.9 5.3 5.8 1.6 7.6-31.2 16.5-62.1 26.8-92.5q4.4-12.7 9-25.5a3.2 3.2 0 00-2.1-3.7 3 3 0 00-3.7 2.1z" class="colord398a5 svgShape"></path><rect width="290.3" height="307.17" x="1267.3" y="351.3" fill="#f2c9d0" rx="21.1" class="colorf2c9d0 svgShape"></rect><rect width="254.5" height="268.2" x="1285.2" y="370.8" fill="#ffebf1" rx="21.1" class="colorffebf1 svgShape"></rect><rect width="134.4" height="143.91" x="1345.2" y="432.9" fill="#f2c9d0" rx="21.1" class="colorf2c9d0 svgShape"></rect><path fill="#ffffff" d="M1557.9,988.3c.1,0,.7-17.7,3.9-38.3s8.4-44,12.4-54.7c7.6-21.5,11.1-27.1,10.9-27.1s-26.3-26.5-23.4-53.2,13.6-33.5,13.5-33.5,21.8,5.3,27,31.1-4.9,44.4-4.8,44.4,22.8-36.9,35.3-48.6,16.9-45,66.7-55.9,53.2-7.9,52.9-8.3-13,24.2-48.7,38.4l-65.2,26.2a439.6,439.6,0,0,0-36,47.8c0,.3,16.7-18.6,60.9-27.8s54.6-4.8,54.4-5.2-24.1,21-55.2,30.9-71,14.7-71.1,14.9c-5.3,11.5-10,23.1-14.2,34.7a268.8,268.8,0,0,1,32.7-13.2c18-6.1,39.9-10.6,51-8.6,22.1,4,21.9,4.3,21.9,4.2s-20.6,15.8-52.6,22.4-54-1-54.3-1.1a456,456,0,0,0-13.8,77.1Z" class="colorfff svgShape"></path><path d="M1558.2,988.7l-.3-.4h-.5c0-.1.1-.8.1-1.7.3-4.9,1.2-19.8,3.8-36.6,3-21.3,8.7-44.6,12.4-54.8a261.1,261.1,0,0,1,10.7-26.4h-1.6l1.6-.6-.9-1c-16.5-19.2-24-36.7-22.3-52.1,3.4-24.4,11.8-32.2,13.6-33.7V781h.4c.2,0,22.1,5.3,27.4,31.5a75.5,75.5,0,0,1-2.5,38.8c3.4-5.4,8.4-12.9,9.8-14.8,6.5-9.6,15.8-22.3,22.4-28.4,3-2.9,5.5-7.2,8.5-12.2,8.9-15.1,21.1-35.7,58.4-43.9,26.3-5,44.5-7.8,52.4-8.2h.5v.4l.4-.3.2.2h0v.3h-.1c-1.5,2.7-14.7,24.8-48.9,38.4l-65.1,26.1a467.1,467.1,0,0,0-33.8,44.6c7.8-6.6,25.8-18.6,58.3-25.4,24.6-4.5,43.8-6.4,53.9-5.2h.3l.4-.3.4.8v.3h-.2c-3.1,2.6-25.8,21.5-55.2,30.9-26.1,7.9-57.5,12.8-67.9,14.4l-3.1.4c-4.9,11-9.5,22.2-13.6,33.4a252.4,252.4,0,0,1,31.6-12.8c17.2-5.8,39.7-10.6,51.3-8.6s18.6,3.5,21.6,4.2l2.2-2.7-1.5,3.4q-.1.3-.3.3c-2.2,1.7-22.5,16.1-52.7,22.4s-50.5.2-54.1-1a464.6,464.6,0,0,0-13.6,76.6v.2h-.2l-4.2,3.4Zm27.3-120.1c0,.1-.1.2-.2.4-2.9,5.7-6.5,14.6-10.7,26.5-3.7,10.1-9.3,33.3-12.3,54.5-2.6,16.8-3.5,31.7-3.8,36.6v.6l3.1-2.5a469.9,469.9,0,0,1,13.8-77l.2-.6.5.2c.2.1,22.3,7.8,54,1.1,28-5.8,47.3-18.6,51.5-21.6-3.3-.8-10.6-2.2-20.8-4s-33.7,2.8-50.8,8.6a244.2,244.2,0,0,0-31.5,12.7c-1.3.6-1.3.6-1.5.5l-.4-.2.2-.4c4.1-11.6,8.9-23.3,14.1-34.8.2-.3.2-.3,3.8-.8,10.3-1.6,41.7-6.5,67.7-14.3s49.2-26.1,54-30c-10.2-1.1-29,.8-53,5.2-36.1,7.5-54.2,21.6-60.2,27.3-.5.5-.7.6-1,.5l-.3-.2v-.6a460.9,460.9,0,0,1,36-47.9l.2-.2h.1l65.1-26.1c32.3-12.9,45.6-33.2,48-37.3-8,.4-26,3.2-51.9,8.2-36.9,8.1-48.9,28.5-57.7,43.4-3,5-5.6,9.4-8.7,12.4-11.5,10.6-32.5,43.1-34.9,47.8a.1.1,0,0,0-.1.1c0,.1-.1.2-.1.3l.5.7-1.4-.3v-.2c-.1-.2,0-.4.2-.9a74.9,74.9,0,0,0,4.5-43.6c-4.9-24.4-24.3-30.1-26.3-30.7-1.5,1.3-9.9,9.1-13.2,33.1-1.7,15,5.8,32.3,22.1,51.3,1.3,1.5,1.4,1.6,1.3,1.9h0Zm166.4-124.5h.2l-.2-.2Z" fill="#000000" class="color000 svgShape"></path><path fill="#72b0b5" d="M1557.9,988.3c.1,0,.7-17.7,3.9-38.3s8.4-44,12.4-54.7c7.6-21.5,11.1-27.1,10.9-27.1s-26.3-26.5-23.4-53.2,13.6-33.5,13.5-33.5,21.8,5.3,27,31.1-4.9,44.4-4.8,44.4,22.8-36.9,35.3-48.6,16.9-45,66.7-55.9,53.2-7.9,52.9-8.3-13,24.2-48.7,38.4l-65.2,26.2a439.6,439.6,0,0,0-36,47.8c0,.3,16.7-18.6,60.9-27.8s54.6-4.8,54.4-5.2-24.1,21-55.2,30.9-71,14.7-71.1,14.9c-5.3,11.5-10,23.1-14.2,34.7a268.8,268.8,0,0,1,32.7-13.2c18-6.1,39.9-10.6,51-8.6,22.1,4,21.9,4.3,21.9,4.2s-20.6,15.8-52.6,22.4-54-1-54.3-1.1a456,456,0,0,0-13.8,77.1Z" class="color72b0b5 svgShape"></path><path fill="#ffffff" d="M1554.1,969.8c.1,0,8.2-5.2,18.3-10.3s22.1-10.2,28-11.9c11.8-3.5,15.2-3.9,15.2-3.9s4.8-18.9,17.6-26,18.8-4.8,18.8-4.8,3.5,10.4-6.8,20.5a44.7,44.7,0,0,1-21.3,11.8c-.1-.2,22.8-2.2,31.4-.7s24.9-7.1,43.2,9.8,17.9,19.1,18,18.9-14.4,2.2-30.4-7.9l-29.4-18.4a249.3,249.3,0,0,0-31.2.2c-.2.1,12.8,1,28.9,16.1s16.8,20.7,17,20.5-16-3.3-28.8-12.9-25.7-24.2-25.9-24.2c-6.6,1.4-13.1,3.1-19.4,5a109.3,109.3,0,0,1,14.7,9.1c7.6,5.5,15.5,13,17.6,18.1,4.2,10.2,4,10.2,4,10.2a63.9,63.9,0,0,1-24.2-14.4c-11.6-10.9-14.1-22.3-14.1-22.4a272,272,0,0,0-38.5,18.2Z" class="colorfff svgShape"></path><path d="M1633.6,989.5h-.2a62.3,62.3,0,0,1-24.3-14.5c-10.3-9.5-13.5-19.6-14.2-22.1a280.6,280.6,0,0,0-37.9,18.1h-.3l-2.6-.6h-.1v-.4l-.2-.5.8-.5c2.3-1.4,9.3-5.6,17.5-9.8,10.5-5.3,22.5-10.2,28.1-11.9s11.5-3.2,14.9-3.8h0v-.2a1.7,1.7,0,0,1,.2-.5c4.2-12.7,10.1-21.2,17.5-25.3,11.8-6.1,17.6-5.3,18.9-5h.3l.2.3c0,.1,3.7,10.8-6.8,21.2a47.5,47.5,0,0,1-16.1,10.3c7.7-.6,20.9-.9,25.9-.1a34.9,34.9,0,0,0,7.7-.3c9.3-1.1,21.9-2.5,35.7,10.2,6.6,6.4,15,14.8,17.9,18.8h.1l-.3.3h0l.5.3-.2.3h-.3c-1.9.5-15.9,1.3-30.7-8l-.7-.5-28.5-17.8a254.1,254.1,0,0,0-27.6,0c5.5,1.5,15,5.4,25.7,15.4,8.7,8.7,14.8,15.9,17,20.4h.4l-.5.9h-.5c-2-.4-16.7-3.8-28.8-12.9-10.6-8.1-21.3-19.4-24.8-23.1l-.9-1c-6.1,1.3-12.1,2.9-18,4.6a119.1,119.1,0,0,1,13.7,8.6c7.3,5.2,15.6,12.9,17.8,18.3s3.4,8.4,3.9,9.9h3.7l-3.9.9Zm.1-1Zm-38.1-37v.6c.1.1,2.6,11.4,14.1,22.1a65.6,65.6,0,0,0,23,14c-.6-1.7-1.9-4.9-3.6-9.2s-10.3-12.7-17.5-17.9a107.4,107.4,0,0,0-14.2-8.8c-.7-.4-.7-.4-.7-.7v-.4h.4c6.4-1.9,12.9-3.6,19.5-5,.3,0,.3,0,1.6,1.3,3.5,3.7,14.2,15,24.7,23s23.6,11.6,27.5,12.5c-2.4-4.4-8.2-11.2-16.4-19.3-13-12.3-24.2-15.3-28.3-16-.4,0-.7-.1-.7-.4v-.3l.4-.3h.1a251.2,251.2,0,0,1,31.3-.2h.4v.2l28.5,17.8.7.4c13.8,8.7,26,8.3,29.2,8-2.5-3.2-8.5-9.5-17.3-18.2-13.5-12.3-25.9-10.9-34.9-9.9a37.9,37.9,0,0,1-8,.3c-8-1.4-28.3.2-30.9.6h-.1l-.4.9-.5-1.4v-.2l.6-.2a45.4,45.4,0,0,0,20.8-11.7c9.1-9,7.1-18.2,6.7-19.7s-7-.9-18.1,4.9c-7.2,3.9-13,12.2-17.1,24.7-.4,1.1-.4,1.2-.7,1.3h-.4a134.4,134.4,0,0,0-14.7,3.9c-5.6,1.6-17.5,6.5-27.9,11.8-8,4-14.8,8.2-17.3,9.7l1.3.3a275.5,275.5,0,0,1,38.4-18.2Zm1.7.1Z" fill="#000000" class="color000 svgShape"></path><path fill="#457e7f" d="M1554.1,969.8c.1,0,8.2-5.2,18.3-10.3s22.1-10.2,28-11.9c11.8-3.5,15.2-3.9,15.2-3.9s4.8-18.9,17.6-26,18.8-4.8,18.8-4.8,3.5,10.4-6.8,20.5a44.7,44.7,0,0,1-21.3,11.8c-.1-.2,22.8-2.2,31.4-.7s24.9-7.1,43.2,9.8,17.9,19.1,18,18.9-14.4,2.2-30.4-7.9l-29.4-18.4a249.3,249.3,0,0,0-31.2.2c-.2.1,12.8,1,28.9,16.1s16.8,20.7,17,20.5-16-3.3-28.8-12.9-25.7-24.2-25.9-24.2c-6.6,1.4-13.1,3.1-19.4,5a109.3,109.3,0,0,1,14.7,9.1c7.6,5.5,15.5,13,17.6,18.1,4.2,10.2,4,10.2,4,10.2a63.9,63.9,0,0,1-24.2-14.4c-11.6-10.9-14.1-22.3-14.1-22.4a272,272,0,0,0-38.5,18.2Z" class="color457e7f svgShape"></path><path fill="#45727c" d="M1831,1409.1c-6.3-8.2-44.3-23-45.6-52.4-2-31.6,41.6-70.4,110.9-72a1.4,1.4,0,0,1,1.1,2.5c-7.7,5.9-17.4,15.5-21.9,29.5-2.7,8.4-4.3,21.1-.3,22.7s14.2-9,19.9-19.5c8.2-14.9,4-22.7,9.6-28.7s19.3-8.9,57,3.5a1.4,1.4,0,0,1-.2,2.7c-11.6-.1-39.3,18.8-34.5,31,3.4,4.2,19.3,1.6,29.4-6.4,8.1-6.4,7.7-12.5,14.7-15.2,2.7-2.7,23.6.5,18.3,4.7-5.9.5-15,9.8-10.9,15.8,3,2.8,10.1-3.5,24.8-4.8,4.1-.3,34,.3,34,3.3,2,3.1-2.3,6.3-8.4,20-7.5,16.8-2.6,17.4-31.3,18.8-20,0-29.1-4.2-43.3.3-19,5.5.8,12,6.2,13.7,16.7,4.8,32.7.6,37.2-.7,12.7-3.7,19-9.1,21.1-7.1,1.8,8.5-15.1,27.7-27.1,30.2-14.2,3.2-21.6-7.9-44.6-6.7s-2.4,12.7,5,16,19.5,7.9,37.4,8.1a1.4,1.4,0,0,1,1.2,2.3c-21.4,22.1-19.3,14.5-58.8,1.8-28-12,4.5,22.7,28.1,19.2a1.4,1.4,0,0,1,1,2.5c-61.5,39.5-47.8,3.7-77-4.2-20-1.9-2,18.3,10.5,32.6,1,5.9-29.2,6-43.5-.9C1822,1461.7,1812.5,1430.5,1831,1409.1Z" class="color45727c svgShape"></path><path fill="#45727c" d="M1788.5,1417.8c44.8-7.8,73.1-23,73.1-23,12.3,25.4,38,45.2,67.6,51.4-28.7-7.8-53.1-27.4-65.2-52.4,6.5-2.7,12.9-5.6,19.3-8.4,16,20.6,43.7,33,71.1,32.5-26.6-2.7-52.4-14.1-69.6-33.2,6.1-2.7,12.2-5.4,18.3-7.9h.3l.4-.2,13.2-5.9c20.8,16.2,50.5,21.7,76.7,15.7-26.2,2.6-53.5-2.3-75.3-16.3q29.7-13.2,59.9-25.6c10.1,6,23.3,7.4,34.6,4.1-11,.3-22.1-.8-32.1-5.1,12.8-5.3,25.6-10.6,38.5-15.7-13.5,4.6-27,9.6-40.5,14.8h0l-2.3.9h.1l-17.7,7.1c-1.6-12.4,2-24.8,9.5-35.1a33.4,33.4,0,0,0-10.9,35.6c-18.3,7.4-36.5,15.2-54.4,23.1-8.3-28.8,2-60.3,26-80.2-27,17.7-38.2,51.9-27,80.6l-18.9,8.5c-.1,0-.1,0-.1-.1l-1.3.6h.1l-19,8.3c-22.4-27.9-23.7-68.5,1.6-94.8-27.7,25.4-26.9,67.5-4.1,95.9h-.1l-.8-1.1s-42.2,15.9-75.1,19.1-64.4-5.5-64.4-5.5l-.2,7.2S1743.8,1425.6,1788.5,1417.8Z" class="color45727c svgShape"></path><path fill="#72b0b5" d="M1821.5,1282.7c-15.7-.4-69.5,30.3-105.4,3.7-39.1-27.8-43.3-116.3,21.1-199.6a2.2,2.2,0,0,1,4,1.1c-.4,14.7,1.6,35.4,13.9,54,7.3,11.2,20.8,25.2,26.4,22s2.9-25.3-3.9-42c-9.8-23.9-23-26.5-24.7-38.8s7.9-31.3,58.6-63.8a2.1,2.1,0,0,1,3,2.8c-11.2,13.5-15.3,64.2,3.6,70.3,8.2,0,20.4-21.3,20.6-40.9.1-15.6-7.4-21-4-31.8-.5-5.7,23.3-27.4,23.2-17-5.1,7.5-2.9,27,8.2,28,6.1-1,5.5-15.3,17.9-33.9,3.6-5.2,33-39.8,36.5-37,5.6.5,5.3,8.7,15.6,29,12.6,25,17.9,19.8-7.8,55-19.1,23.5-32.7,30.3-41,51.3-11.7,27.6,14.9,10.5,22,5.8,21.7-15.2,32-38.1,34.7-44.6,7.9-18.6,7.6-31.1,11.9-31.7,11.8,6.1,18.3,44.4,9.7,60.9-9.8,19.8-30,17.8-50.5,46.2-22.1,28.4,12.7,14.9,23.6,9.4s28-15.4,45.3-36.3a2.2,2.2,0,0,1,3.9.6c5.6,46.5-1.3,36.8-54.1,71.1-40.9,21.6,31,16.5,49.6-14.7a2.1,2.1,0,0,1,3.9,1.2c-12.3,110.4-41.4,59.9-78.7,86.8-21.4,21.8,19.8,19.9,48.5,18.9,7.9,4.5-20.9,40.1-42.7,50.4C1874.9,1343.7,1829.1,1325.1,1821.5,1282.7Z" class="color72b0b5 svgShape"></path><path fill="#457e7f" d="M1791.1,1341.1c33.6-60.2,42.9-108.1,42.9-108.1,41.7,9.8,89.5-1.6,125.2-30.5-36.7,26.3-83.1,36.3-124.1,26.7,2.9-10.2,5.7-20.5,8.4-30.7,39.7.8,80.7-20.1,106.4-52.9-28.7,28.9-66.7,48.3-105.7,50.5,2.6-9.8,5.3-19.6,8.1-29.2h0l.2-.5a1.9,1.9,0,0,1,.2-.7c1.8-7.1,3.7-14.1,5.6-21.2,39.1-9,73.9-38.8,91.9-75.4-22,33.4-53.9,60.9-91.3,73.2q12.9-47.7,27.1-95.1c16.8-6.2,31-20.4,37.9-37-10.1,13.4-22,25.4-36.7,33.1q9-30.3,18.3-60.5-11.1,30.8-21.2,61.9h-.1l-1.2,3.4h.2q-4.5,13.8-8.7,27.6c-16.1-9.9-27.4-26-32.3-44.8a50.7,50.7,0,0,0,31.7,47q-13.2,43-24.9,86.3c-41.8-17.8-69.2-60-69.7-107.3-5,48.7,24.7,94.6,69.2,108.9-2.6,10.1-5.3,20.2-8,30.4h-.2l-.6,2.1h.3c-2.7,10.1-5.4,20.3-8.4,30.4-54.3-.3-103.4-37.6-110.2-92.6,3.4,56.9,53.8,96.3,109.1,96.6h-.1l-2-.2s-21.6,65-49.4,106.8-67.9,70.8-67.9,70.8l8.2,7.1S1757.6,1401.4,1791.1,1341.1Z" class="color457e7f svgShape"></path><path fill="#ffb6b1" d="M1116.9,695.6s-19.8,59.6-77.8,63.1-72-108-72-108,25.7-24.4,31.6-53.9a98.6,98.6,0,0,0,1.3-23.2c-1.3-23.8-9.1-46.5-9.1-46.5l84.6,10.8s-.4,3-2.5,54a104.9,104.9,0,0,0,5.5,36.4C1090.3,665.2,1116.9,695.6,1116.9,695.6Z" class="colorffb6b1 svgShape"></path><path fill="#f47382" d="M1078.5,628.3c-6.4,13.7-12.7,26.2-15.5,28.6-6.7,5.5-32.2-16.7-49.9-49.4-5.2-9.5-9.6-21.6-13.1-33.9-1.3-23.8-9.1-46.5-9.1-46.5l84.6,10.8s-.4,3-2.5,54A104.9,104.9,0,0,0,1078.5,628.3Z" class="colorf47382 svgShape"></path><path fill="#302342" d="M1221.2,1180.4S1250,1460,1250,1635.8s27.6,488.5,27.6,488.5-145.9,31.1-152.6,0-44.9-567.6-47.2-549.9-59.4,553.4-70.4,556.9-150.2,15.4-151.4-10.6,43.7-356.9,40.1-382.6-39.1-360.7-16-492.9S1221.2,1180.4,1221.2,1180.4Z" class="color302342 svgShape"></path><path fill="#ffffff" d="M971,629.9s3,472.6,144.7,439.6,18.4-370.7,18.4-370.7l-52-31.9-34.5,24.6Z" class="colorfff svgShape"></path><path fill="#f4c9d0" d="M1109.4,1028.3a.8.8,0,0,1-.9-.8l-41.2-340.7a1,1,0,1,1,2-.2l41.1,340.6a.9.9,0,0,1-.8,1.1Z" class="colorf4c9d0 svgShape"></path><path fill="#d13b62" d="M1073 709.6s37.1-43.2 43.3-29.5 17.4 53.8 10.4 60.6-50-9.3-50-9.3zM1051.8 734.8s-37.2 43.2-43.3 29.5-17.4-53.8-10.4-60.6S1048 713 1048 713z" class="colord13b62 svgShape"></path><rect width="31.4" height="33.86" x="1047.5" y="706.2" fill="#db6a8d" rx="6.6" transform="rotate(-9.7 1066.157 724.926)" class="colordb6a8d svgShape"></rect><path fill="#9e1b63" d="M1099.2,701.8c-4.8,5.9-11.5,8.1-16.2,14.1-1,1.2-2.5-1.2-1.5-2.4,4.7-6,11.4-8.2,16.1-14.1,1-1.2,2.6,1.2,1.6,2.4Z" class="color9e1b63 svgShape"></path><path fill="#9e1b63" d="M1084.5 715.1a45.3 45.3 0 007.4-.5c.6-.1 1.2.5 1.4 1.3s-.3 1.6-.9 1.7a52.9 52.9 0 01-8 .5 1.7 1.7 0 01-1-1.8c0-.8.5-1.3 1.1-1.2zM1083.2 723.1c6.1 1 12.2 1.8 18.3 2.3 1.4.1 1.3 3.1-.1 3-6.1-.5-12.2-1.3-18.3-2.3-1.4-.2-1.3-3.2.1-3zM1040.8 720.3l-12.3-1.6c-1.4-.2-1.3-3.2.1-3l12.3 1.6c1.4.2 1.3 3.2-.1 3zM1038.9 729.7a86.2 86.2 0 01-12.4 6.5 1.2 1.2 0 01-1.5-.8c-.3-.7-.1-1.8.5-2a98.2 98.2 0 0012.4-6.5c1.2-.7 2.3 2.1 1 2.8z" class="color9e1b63 svgShape"></path><path fill="#ffffff" d="M964.2,635.6s12.3-13.2,13.9-12.9,13.1,17.1,24.6,27.6,62.4,29.4,62.4,29.4,11.3-21.5,14.7-34.4c2-7.6,3.7-15.9,4.7-21.5a2.8,2.8,0,0,1,4.9-1.1h0l16.4,68.1a5.4,5.4,0,0,1-7,6.4l-30.5-10.5-35.5,44.6a5.2,5.2,0,0,1-8.3,1C1009,715.7,972.1,660,964.2,635.6Z" class="colorfff svgShape"></path><path fill="#54355e" d="M1380.3,989.3l-25.2,64s-97.4-10.2-120.3-30.7l-10.5-9.5c-10.6-9.7-18.4-17.3-22.7-21.5l-3.8-3.7s.1,1.5.2,4.2c.5,16.1,2.6,73.9,4.3,88.4a22.6,22.6,0,0,0,.5,3c2.1,6.8,31.2,152,23.7,160.4s-65.1,30.1-84,30.5-23.1,1-23.1,1l-6-13.3h0l-6.1-13.5-9.4,29.9s-156.1,6.9-187.2-3.4-36.8-15.7-37.3-26.7,33.1-207.6,36.4-217.9-10.9-146.8-16.4-180.4S790.8,749.7,790.8,749.7L801.6,719s31.9-32.9,71.8-52.1,62.5-27.6,70.3-29.2,27.3-7.8,27.3-7.8,40.4,177.4,66.3,238.7c22,51.7,50.9,105.4,61.9,118.1,2,2.4,3.4,3.3,4,2.6h0c.5-.5,1.1-1.9,1.9-4.3s.8-2.8,1.3-4.7c6.8-24.7,19.3-95,16.7-160.4-3.2-78.9-33.7-197.2-33.7-197.2S1199,652.4,1208,661.8s18.4,22.1,21.5,29.9S1283,929,1290.2,941.6,1380.3,989.3,1380.3,989.3Z" class="color54355e svgShape"></path><path fill="#987ba3" d="M1037.3 868.6c22 51.7 50.9 105.4 61.9 118.1-94.5-62.1-146-207.5-145.5-215.4s22.1-32.9 22.1-32.9-33.1-18.3-34.7-30.4S971 629.9 971 629.9 1011.4 807.3 1037.3 868.6zM1148.9 833.5c-9.4 47.6-34.9 121.4-43.9 146.8 6.7-24.7 19.2-95 16.6-160.4-3.1-78.9-33.7-197.2-33.7-197.2 38.2 13.8 58.4 59.1 58.2 64s-19.7 39.6-19.7 39.6 27.7 9.5 32.5 13.2S1160.4 775.1 1148.9 833.5z" class="color987ba3 svgShape"></path><path fill="#302342" d="M1198,992.1c.5,16.1,2.6,73.9,4.3,88.4l-80,13.7-8.9,167.9-6.1-13.5s11.4-236.2,10.7-240.1-14.8-19.2-14.8-19.2l1.9-4.3,20.8,16Z" class="color302342 svgShape"></path><path fill="#ffffff" d="M1224.3,1013.1c-10.6-9.7-18.4-17.3-22.7-21.5l18.5-2.3Z" class="colorfff svgShape"></path><path d="M1225,1014.4l-1-1c-10.1-9.2-18-16.7-22.8-21.4l-.7-.7,20-2.5ZM1202.7,992c4.6,4.5,11.8,11.4,20.8,19.7l-3.8-21.8Z" fill="#000000" class="color000 svgShape"></path><circle cx="1082.8" cy="1132.1" r="8.5" fill="#987ba3" class="color987ba3 svgShape"></circle><circle cx="1077" cy="1193" r="8.5" fill="#987ba3" class="color987ba3 svgShape"></circle><path fill="#302342" d="M1197.8,989.4a1.5,1.5,0,0,1-1.5-1.4c-.1-7.6-3.4-184.2-2.3-196.8s9.1-41.5,9.4-42.7a1.5,1.5,0,0,1,1.9-1,1.4,1.4,0,0,1,1,1.8c-.1.3-8.3,29.9-9.4,42.2s2.4,194.6,2.4,196.4a1.4,1.4,0,0,1-1.4,1.5Z" class="color302342 svgShape"></path><path fill="#54355e" d="M1136.9,1320.3c-.1.1-.6,1.3-.1.3s-.3.7-.5,1l-.8,1.6-1.1,1.7-.6.7c-.3.4-.2.4.1,0l-.5.6a39.4,39.4,0,0,1-5.9,5.6c.9-.7-.1.1-.2.2l-.8.5-1.7,1.2-3.7,2.3q-3.9,2.3-7.8,4.2l-9,4.4-4.6,2-1.3.5c.7-.2-.1.1-.1.1l-3,1.2a143.9,143.9,0,0,1-18.9,6.2,108.3,108.3,0,0,1-11.1,2.1c-1.4.3.9,0-.6.1l-1.8.2-2.7.3-5.8.3a4.5,4.5,0,0,0-4.5,4.5,4.6,4.6,0,0,0,4.5,4.5c14.4-.3,28.6-3.8,42-9,6.8-2.6,13.5-5.7,20-8.9a99.2,99.2,0,0,0,15.7-9.2c6-4.4,10.8-9.8,13.5-16.8.8-2.2-1-5.1-3.2-5.6a4.7,4.7,0,0,0-5.5,3.2Z" class="color54355e svgShape"></path><path fill="#54355e" d="M1097.4 1351.8c-2.8 15-6 29.8-9.7 44.6a4.7 4.7 0 003.2 5.5 4.6 4.6 0 005.5-3.1c3.7-14.8 6.9-29.6 9.7-44.6a4.6 4.6 0 00-3.2-5.5c-2.2-.5-5.1.7-5.5 3.1zM1076.3 1328.8a65 65 0 0025.8 4.1c2.4-.2 4.6-2 4.5-4.5s-2-4.7-4.5-4.5a53.9 53.9 0 01-23.4-3.8c-2.2-.8-5 1-5.5 3.2a4.6 4.6 0 003.1 5.5z" class="color54355e svgShape"></path><path fill="#302342" d="M950.3,487A194.2,194.2,0,0,0,966,514.4a22.5,22.5,0,0,1-2.7-7.8c-1.1-6.3-.2-15.7,9.5-25.3s23.3-16.9,49.2-23.9c78.9-21.4,135.9,32.9,135.9,32.9s23.2-11.4,33.4-43.8,4.7-53.9-4.7-54.8-18.4,4.8-18.4,4.8,9.5-29.7-3.5-37.5-31.3,5.4-31.3,5.4-62.6-30.8-111.9-4.5-51.1,47.2-51.1,47.2-13.9-5.4-27.6,25.1C935.6,448.1,942.3,469.9,950.3,487Z" class="color302342 svgShape"></path><path fill="#302342" d="M956,472.1a122.5,122.5,0,0,0,1.2,12.6,94.2,94.2,0,0,0,6.1,21.9C978.7,543.4,1013,554,1013,554l36-12.1,99.6-33.4a112.2,112.2,0,0,0,9.3-18.2c6.7-16.1,13.3-41,5.6-66.3-13-43-60.7-65-113.6-58.3S953.6,407.1,956,472.1Z" class="color302342 svgShape"></path><path fill="#54355e" d="M966,514.4a22.5,22.5,0,0,1-2.7-7.8C978.7,543.4,1013,554,1013,554l36-12.1a.1.1,0,0,1-.1-.1c-23.4-46.4-39.7-61.9-39.7-61.9a165.4,165.4,0,0,0-36.4,1.4,99.2,99.2,0,0,0-15.6,3.4c-2.3.7-4.6,1.4-6.9,2.3A194.2,194.2,0,0,0,966,514.4Z" class="color54355e svgShape"></path><path fill="#ffb6b1" d="M1137.6,606c-16.3,28.6-30.4,30.9-45.4,30.5s-25.8-4.2-31.1-5.3h0c-17-7.1-34.6-17-42.2-26-11.6-13.4-22.5-45.6-23.5-48.8V556s-35.1,7.2-41.3-11.1,3-29.2,13.3-33.5,27.5-2.7,29.5.8,3.2,20.7,5.9,21.6,5.8,1.2,7.1-.6.5-9,.4-19c-.4-4.8-.4-10.4-.4-15.4-.2-7.8-.5-14.9-.6-18.9,0,0,15.3,5.2,42.4-1.5s45.6-16.6,45.6-16.6,42.3,10.2,59.8,2c0,0,1.9,33.2.3,43.3s-4.3,17-2.9,25.8a89,89,0,0,1,.8,10.7h0C1155.2,545.7,1153.5,578.2,1137.6,606Z" class="colorffb6b1 svgShape"></path><path fill="#f47382" d="M978.7,550.6c5.7.5,7.6-1.9,8.3-3.5s.1-4.9-2.1-6.8l-.7-.5c-3.6-2.9-3.4-3.5-2.6-4.6s1-.9,1.1-.9a2.5,2.5,0,0,1,1.2,1.3,12.2,12.2,0,0,1,1.2,2.9,2.9,2.9,0,0,0,3.5,2.1,3,3,0,0,0,2.1-3.5A22.5,22.5,0,0,0,989,533a7.7,7.7,0,0,0-5.8-4.4h0c-1.6-.1-4,.3-6.1,3.2-4.5,5.9,1.1,10.5,3.5,12.4l.6.5.2.2a6.5,6.5,0,0,1-2.5,0c-2.5-.3-8.5-5.2-10.6-11.4a10.2,10.2,0,0,1,2.9-11.5c2.4-2.2,4.7-3.2,7.2-2.8,5.7.8,10.3,8.3,10.3,8.4a2.8,2.8,0,0,0,3.9,1,2.7,2.7,0,0,0,1-3.9c-.2-.4-5.9-9.9-14.4-11.1-4.2-.6-8.2.8-11.9,4.2a15.9,15.9,0,0,0-4.4,17.5c2.7,8.1,10.3,14.7,15.4,15.3Z" class="colorf47382 svgShape"></path><ellipse cx="1076.2" cy="514.2" fill="#302342" rx="10.1" ry="6.6" transform="rotate(-80 1076.208 514.239)" class="color302342 svgShape"></ellipse><ellipse cx="1133.5" cy="520.3" fill="#302342" rx="9" ry="6.1" transform="rotate(-80 1133.285 520.398)" class="color302342 svgShape"></ellipse><path fill="#ce3a81" d="M1113.9,586.4a29.2,29.2,0,0,1-12.1,12.9,28.5,28.5,0,0,1-39.6-11.6,29.9,29.9,0,0,1-2.2-22.4,2.4,2.4,0,0,1,1.9-1.7,2.9,2.9,0,0,1,1.3.1l49.3,19.4a2.4,2.4,0,0,1,1.4,1.4A2.1,2.1,0,0,1,1113.9,586.4Z" class="colorce3a81 svgShape"></path><path fill="#ffffff" d="M1113.9,584.5c-6.5,2.4-16.8,1.9-27.4-1.7-13-4.4-22.5-12.2-24.6-19.2a2.9,2.9,0,0,1,1.3.1l49.3,19.4A2.4,2.4,0,0,1,1113.9,584.5Z" class="colorfff svgShape"></path><path fill="#f47382" d="M1101.8,599.3a28.5,28.5,0,0,1-39.6-11.6,41.8,41.8,0,0,1,17-.6C1088.8,588.7,1096.9,593.4,1101.8,599.3Z" class="colorf47382 svgShape"></path><ellipse cx="1079.7" cy="510.6" fill="#ffffff" rx="4.4" ry="2.8" transform="rotate(-80 1079.915 510.546)" class="colorfff svgShape"></ellipse><ellipse cx="1137.2" cy="518.1" fill="#ffffff" rx="4.4" ry="2.8" transform="rotate(-80 1137.546 517.983)" class="colorfff svgShape"></ellipse><path fill="#f47382" d="M1106.3,565.3c4,.4,11.9.4,15.8-4.5,5.4-6.7.4-11.8-4.5-16.9l-1.3-1.4c-3.5-3.7-1.5-11.4-.5-14.1a2.9,2.9,0,0,0-5.3-2.1c-.2.5-5.1,13.1,1.7,20.2l1.3,1.4c5.6,5.8,6.1,6.9,4.2,9.3s-10.2,2.6-12.7,2.2a2.9,2.9,0,0,0-3.3,2.4,2.8,2.8,0,0,0,2.3,3.2Z" class="colorf47382 svgShape"></path><path fill="#302342" d="M1067.6 496a2.7 2.7 0 001.9-.5c5.9-4.3 14.7-1.7 14.8-1.6a3 3 0 003.6-1.9 2.9 2.9 0 00-1.9-3.6c-.5-.1-11.7-3.5-19.9 2.5a3 3 0 00-.6 4A2.6 2.6 0 001067.6 496zM1146 504.9l1.3-.2a2.9 2.9 0 001.6-3.7c-1.5-3.9-7.2-10.6-18.3-8.4a2.9 2.9 0 001.1 5.6c8.9-1.7 11.6 4.2 11.9 4.9A2.8 2.8 0 001146 504.9zM883.7 563.2s63.7 94 4.1 161.4-106.4 39.9-106.4 39.9 42.6 17.3 76.3-25 41.1-53.5 39.9-100.4S883.7 563.2 883.7 563.2z" class="color302342 svgShape"></path><path fill="#302342" d="M708.9,577S677.2,639.8,695,685.8s-96.8-5.7-121.8,104.6,21.1,186.8,98.5,192.4S782.1,914,782.1,914s-48.2,67.6-122.4,51.8S587,868.7,587,868.7s5.6,73.5,86.5,73.2,94.9-60.1,94.9-60.1,39.6-96.3,49.5-165.6S708.9,577,708.9,577Z" class="color302342 svgShape"></path><path fill="#302342" d="M910.8,524.9a73.9,73.9,0,0,0-5-21.4c-8.1-20-23.7-30.7-37-36.5a84.4,84.4,0,0,0-23.3-6.3s-6.9-5.6-19-10.4l-1-.3a96.2,96.2,0,0,0-46.3-5.6,108.4,108.4,0,0,0-14.9,2.9,120.9,120.9,0,0,0-17.1,6l-4.8,2.2-7.4,3.8-.3.3a151.5,151.5,0,0,0-13.3,8.3l-2,1.4-3.6,2.8a79.1,79.1,0,0,0-9,8.2,98.6,98.6,0,0,0-15.3,20.2,111,111,0,0,0-6.9,13.8h0s-14.9,20.7-22,55h0c-.1.7-.3,1.5-.4,2.3h0a156.5,156.5,0,0,0-2.8,22.7c-.2,3.4-.3,6.8-.3,10.4h0a101.4,101.4,0,0,0,4.8,24.4c.8,2.6,1.8,5.2,2.8,7.8a100.7,100.7,0,0,0,5.8,11.9c10.8,19.5,27.6,35.5,48.9,43.9h.1l5.7,2h.3a86.4,86.4,0,0,0,18.6,3.8,100.1,100.1,0,0,0,11,.5h2.2a88.4,88.4,0,0,0,11.4-1.3h0a75.5,75.5,0,0,0,7.9-1.9h.2c12.4-3.5,24.5-9.5,36-16.8h0l6.5-4.4a34.3,34.3,0,0,0,3.3-2.4c4.1-2.9,8-5.9,11.7-9.1l2.1-1.7,2.9-2.5c2.7-2.3,5.3-4.7,7.8-7h0l3-2.9a34.5,34.5,0,0,0,2.8-2.6,362.8,362.8,0,0,0,32.6-37l2.2-2.9,3.8-5.1a1.4,1.4,0,0,1-.2-.6l.6-.9C902.6,587.4,914.3,563,910.8,524.9Z" class="color302342 svgShape"></path><path fill="#ffb6b1" d="M899.2,957.1c-20.5.2-41.1-4.3-61.2-11.9C786.5,925.6,739.1,885,709.6,849c-10.5-53.7,14.1-84,28.4-99.1,11.5-5,19.9-8,20.8-8.3h0a191.7,191.7,0,0,0,.9-25.4,100.5,100.5,0,0,0-1.4-14.9c-1.3-6.8-4.8-13.7-8.5-19.5-1.5-3.2-3.7-5.9-7.2-10l-.3-.3-2.2-2.6-.4-.5a.1.1,0,0,0-.1-.1h0a43.7,43.7,0,0,1-9.8-23s-15,10.1-27,3.1-18.1-22.2-13.1-37,28.6-11.3,31-8.7,4.6,10.3,6.1,11.3,3.8,3.5,3.4.1,1.6-22.5,1.6-22.5,36.4-18.6,62.2-42.7,37.6-49.5,41.8-49a13,13,0,0,1,8.6,5.3c.6,1.3,25.6,40.9,40.6,48,0,0,7.1,82.2-2.6,114.5s-31.5,36.3-35.8,37.4l-4.3,1.1s.4,14.6,3.8,20.1,14,6.6,31.8,8.8l14.6,2.5c1.5,1.1,10.4,32.5,10.4,32.5l3.7,2.2a124.3,124.3,0,0,1,16.1,14.6c18.1,18.8,13.5,42.1,13.5,42.1S1017.6,956.1,899.2,957.1Z" class="colorffb6b1 svgShape"></path><path fill="#f47382" d="M842.3 706.1s-19.7 3.2-39.9-1.1-39.8-19.2-39.4-17.6 26.3 37.7 56.5 47.1S842.3 706.1 842.3 706.1zM717.4 618.2s-4.2-12.1-13-6.8-4.4 18.7 1.5 24.5 11 3.5 9.7.1-4.5-3.5-4-6.1 1.8-1.8 3.3-1.4S720.6 623.6 717.4 618.2z" class="colorf47382 svgShape"></path><path fill="#ce3a81" d="M853.7,654a29.7,29.7,0,0,1-8.9,14.5,25.5,25.5,0,0,1-38.6-4.3,30.2,30.2,0,0,1-5.4-15.7,4.6,4.6,0,0,1,1.3-3.6,3.6,3.6,0,0,1,3.4-1.3l44.6,4.6a4.4,4.4,0,0,1,3.1,2A4.9,4.9,0,0,1,853.7,654Z" class="colorce3a81 svgShape"></path><path fill="#ffffff" d="M853.2,650.2c-5.9,3.2-15.5,4.6-26.2,3.5s-19.8-4.5-24.9-8.8a3.6,3.6,0,0,1,3.4-1.3l44.6,4.6A4.4,4.4,0,0,1,853.2,650.2Z" class="colorfff svgShape"></path><path fill="#f47382" d="M844.8,668.5a25.5,25.5,0,0,1-38.6-4.3,35.6,35.6,0,0,1,38.6,4.3Z" class="colorf47382 svgShape"></path><ellipse cx="806.1" cy="597" fill="#302342" rx="10.8" ry="7.8" transform="rotate(-83.9 806.614 596.88)" class="color302342 svgShape"></ellipse><ellipse cx="802.7" cy="591.1" fill="#ffffff" rx="3.4" ry="2.4" transform="rotate(-83.9 803.28 590.966)" class="colorfff svgShape"></ellipse><ellipse cx="864.2" cy="600.1" fill="#302342" rx="9.9" ry="6.6" transform="rotate(-84 863.63 600.244)" class="color302342 svgShape"></ellipse><ellipse cx="861.5" cy="594.8" fill="#ffffff" rx="3.1" ry="2" transform="rotate(-84 860.86 594.834)" class="colorfff svgShape"></ellipse><path fill="#302342" d="M814.3 575.1c-3-4.4-9.4-3.3-13-.6s-6.9-3-3.5-5.6c6.5-4.9 17.2-4.6 22.1 2.7 2.3 3.5-3.3 7-5.6 3.5zM870 581.6c-1.3-2.2-4.4-4.5-7.2-2.9s-7.2-3.4-3.5-5.5c5.8-3.4 13.1-.6 16.3 4.9 2.2 3.6-3.4 7.2-5.6 3.5z" class="color302342 svgShape"></path><path fill="#f47382" d="M844.6,607.3a11.8,11.8,0,0,0,1.8,7.6c1.6,2.5,4.2,3.9,6.1,6.1a6.3,6.3,0,0,1,0,8.3c-2.1,2.6-5.6,3.3-8.3,5.1s-4.8-2.2-2.4-3.7,5.9-2.1,7.5-4.4-1.6-3.8-2.9-5a16.6,16.6,0,0,1-6.1-15,2.1,2.1,0,0,1,2.6-1.6,2.2,2.2,0,0,1,1.7,2.6Z" class="colorf47382 svgShape"></path><path fill="#ffffff" d="M662.2,571.6a11.1,11.1,0,0,0,.4-2.3C662.5,570,662.3,570.8,662.2,571.6Z" class="colorfff svgShape"></path><path d="M662.7,571.7a12.9,12.9,0,0,0,.5-2.4h-1.1c-.2.7-.3,1.5-.5,2.3Z" fill="#000000" class="color000 svgShape"></path><path fill="#ffb6b1" d="M831,956.9c-46,9.2-98.1-6.3-119.1-60.3a183.7,183.7,0,0,1-11-39.1c-9.4-57-3-95.9,12.2-112.4,3.2-3.4,22.7-8,24.5-10.1,9-10.4,16.6-14.8,18.4-20.4.7-2.1,1-3.2,1-3.2S935.3,830.3,909.2,898.7C897.9,928.4,866.2,949.9,831,956.9Z" class="colorffb6b1 svgShape"></path><path fill="#302342" d="M803,548s-35.7,32.5-38.5,74.8a64.3,64.3,0,0,0,30.7,60.4s-20.6-1.6-33.6-18-13.1-26.6-13.1-26.6,6.4,55.9,23,83.6,28.1,36.3,28.1,36.3-66.7-42-76.2-87.9-.7-82.8-.7-82.8Z" class="color302342 svgShape"></path><path fill="#ffb6b1" d="M938.2,756.5s28,26.6,35.3,61.1,38.9,194.3,42.8,195.8,103.7-9.2,148.2-7.7,56.9,3.9,70.1-2.3,29.7-17.6,34.4-19.2a73.8,73.8,0,0,1,11.7-2.3v85.2s-30.5-4.6-42.2-5.3-131,29.9-201.2,30.7-74.7-4.9-80.2-10.5-50.8-88.6-50.8-88.6S814.2,762.8,938.2,756.5Z" class="colorffb6b1 svgShape"></path><path fill="#ffffff" d="M1248.2,2186.7c-42.2,16.7-100.7-16.6-186.7,1.4l-37.9,8.1c-10.8,2.3-21.4,4.5-32,6.4-53.1,9.7-103.8,13.2-159.5-6.8-5.1-1.9-10.4-4-15.6-6.3-86.1-37.4-107.2,13.9-228.9-11.1s-141.2,31.9-176.9-4.1,29.2-364.7,120.1-520,149.3-264.9,149.3-296.8c0-17.5-17.4-77.8-18.6-145.8-1-55.7,8.9-116.6,48.2-163.4l-38.1-111L622.8,794.8s14.1-24.7,43.3-36.7,66-21.8,66-21.8,35.5,68.3,105.3,63.7,62.9-63.7,62.9-63.7,42.2,18.5,42.7,23.6-6.4,36.5-5.9,50.9,26.5,52.6,20.6,82.7c-4.4,21.7-15.4,44.8-22.5,58.8-2.8,5.3-4.9,9.3-5.9,11.4a12.2,12.2,0,0,0-.8,3.2c-2.1,13.2-1.7,57.5.8,83.7a125.9,125.9,0,0,0,2.4,15.8c1.4,5.4,11.3,27.8,25.7,60.4,34.7,78.5,95.4,216.2,125.2,318.1,42.2,144.2,178.5,546.3,198,624S1290.3,2170.1,1248.2,2186.7Z" class="colorfff svgShape"></path><path fill="#ffebf1" d="M1248.2,2186.7c-42.2,16.7-100.7-16.6-186.7,1.4l-37.9,8.1c-16.9-175.8-45.9-456.6-59-453.3-11.5,2.9,8.8,256.3,27,459.7-53.1,9.7-103.8,13.2-159.5-6.8,18.4-195.1,41.1-453.1,47.3-596,9.2-211.2-1.3-375.8-4.8-422.2a8.9,8.9,0,0,0-12.7-7.3c-34,16.5-134.8,60.8-200.4,41.4-1-55.7,8.9-116.6,48.2-163.4l-38.1-111A771.7,771.7,0,0,1,721,866.6s5.9,90.9,76.9,95.4,137.3-9.7,137.3-9.7l-6.7,14.6.8,83.7h0c-.6-.8-19.8-24.4-33.4-28.6s-140,0-141,1.6-13.2,30.8-13.2,30.8,22.5,43.7,93.5,61.2c52.6,12.9,100.7,12.4,122.2,11.2,34.7,78.5,95.4,216.2,125.2,318.1,42.2,144.2,178.5,546.3,198,624S1290.3,2170.1,1248.2,2186.7Z" opacity=".48" class="colorffebf1 svgShape"></path><path fill="#f4c9d0" d="M676 1343c2.8 15 6.1 29.9 9.9 44.8s8.1 29.6 12.9 44.2 10.1 28.9 15.9 43.1 12 28.4 18.7 42.2 13.9 27.5 21.5 40.9c.9 1.6 1.9 3.2 2.8 4.9 2 3.3 7.2.3 5.2-3.1q-11.5-19.8-21.7-40.4c-6.7-13.6-13-27.3-18.8-41.3s-11.2-28.5-16.1-43-9.3-29-13.2-43.7-7.4-29.7-10.3-44.7c-.4-1.8-.7-3.7-1.1-5.5a3 3 0 00-3.6-2.1 3 3 0 00-2.1 3.7zM739.8 1690.4c.4 44.6-.2 89.3-1.8 133.8s-4.1 88.7-7.6 133c-2 25-4.3 50.1-6.9 75.1-.2 1.6 1.5 3 3 3a3.1 3.1 0 003-3q6.9-66.6 11-133.4t5-133.1q.6-37.6.3-75.4c0-3.8-6-3.8-6 0zM676.2 1960a742.3 742.3 0 01-16 76.8 774.2 774.2 0 01-23.6 74.4c-5.1 13.6-10.6 27-16.5 40.3-.7 1.5-.5 3.3 1.1 4.1a3 3 0 004.1-1 780 780 0 0028.2-73.6 763.3 763.3 0 0020.4-75.8c3.2-14.4 5.8-29 8.1-43.6a3.2 3.2 0 00-2.1-3.7 3.1 3.1 0 00-3.7 2.1zM938.8 1219.1q17.9 55.2 33.8 110.9t29.8 112.1q14 56.3 26 113c7.9 37.8 15.3 75.7 21.9 113.8s12.6 76.2 17.9 114.5c.7 4.8 1.4 9.6 2 14.4s6.3 2.1 5.8-1.6q-7.8-57.5-17.5-114.6t-21.4-114q-11.7-56.7-25.4-113.1t-29.4-112.1q-15.6-55.8-33.2-111.1l-4.5-13.8c-1.2-3.6-7-2.1-5.8 1.6zM1074.9 1885.2c7.6 27.8 14.4 55.9 20.3 84.1s10.9 56.6 15.1 85.1c2.3 15.9 4.3 31.9 6.1 47.9a3.1 3.1 0 003 3c1.5 0 3.2-1.4 3-3-3.2-28.9-7.2-57.8-12.2-86.4s-10.7-56.8-17.4-85c-3.8-15.8-7.8-31.6-12.1-47.3-1-3.7-6.8-2.1-5.8 1.6zM670.8 1410.5q2.7 90 .7 180.1t-8.7 179.9c-2.5 33.7-5.4 67.4-8.9 101.1-.4 3.8 5.6 3.8 6 0q9.1-89.5 13.8-179.6t4.6-180c0-33.8-.5-67.7-1.5-101.5-.1-3.8-6.1-3.8-6 0zM638.3 1870l-9 70.8-2.6 20c-.2 1.6 1.6 3 3 3a3.1 3.1 0 003-3l9.1-70.8 2.5-20c.2-1.6-1.5-3-3-3a3.1 3.1 0 00-3 3zM756.5 951.6A130.2 130.2 0 00835 965a125.5 125.5 0 0021.8-5.1 3 3 0 002.1-3.7 3 3 0 00-3.7-2.1 123.9 123.9 0 01-75.7.6 112.5 112.5 0 01-20-8.3 3.2 3.2 0 00-4.1 1.1 3.1 3.1 0 001.1 4.1zM879.4 961.4a105.6 105.6 0 0039.2-2.3c3.8-.9 2.2-6.7-1.6-5.8a101.3 101.3 0 01-37.6 2.1c-1.6-.2-3 1.5-3 3a3.1 3.1 0 003 3z" class="colorf4c9d0 svgShape"></path><path fill="#ffffff" d="M1071.5,1073.5l148.8-100.7a2.1,2.1,0,0,1,3.2,2c-1.7,11.1-8.4,40.4-35,62.6-33.6,27.8-105.4,70.9-105.4,70.9Z" class="colorfff svgShape"></path><path fill="#54355e" d="M1018.6,1108.4l48.7-37.1a8.6,8.6,0,0,1,11.2.5l21.9,20.2a8.5,8.5,0,0,1-.8,13.3l-63.5,45.6a8.7,8.7,0,0,1-13.5-5l-7.2-28.5A8.7,8.7,0,0,1,1018.6,1108.4Z" class="color54355e svgShape"></path><path fill="#ffb6b1" d="M629.8,788.3s-28.7,25.4-20.2,90.1,43.6,186.6,50,204.6,16,28.6,25.6,35.5,78.7,16.4,146.3,18.6,93.7,3.1,99,5.3,64.1,23.8,74.2,25.7,32,3.9,35.4,0a19.3,19.3,0,0,0,4.3-8.2s5.3.2,8.8-6.7,3.4-8.5,3.4-8.5,10.1-1.5,11.2-5.3a15.4,15.4,0,0,0,0-7.6s13.6-2.7,17-5.6,6.4-6.1,3.2-9.5-24.2-5.3-31.9-6.7-31.7-12.7-29.3-16.4,21-8.8,21-8.8-17-7.1-34.3-4.5-45,13.3-45.8,13.6-29.8-1.4-37.2-1.4-52.2-11.6-105.4-29.1-83.5-24.4-83.5-24.4-18.7-183.4-30.4-226.3S647.4,767.6,629.8,788.3Z" class="colorffb6b1 svgShape"></path><path fill="#f47382" d="M700.6,1064.3a2.7,2.7,0,0,1-1.2-.3,2,2,0,0,1-.4-2.8c12.5-17.7,33.8-22.7,40.4-23.9L711,820.3c-7-40.7-43-42.4-43.4-42.4a2,2,0,1,1,.2-4c.3,0,39.6,1.8,47.2,45.8l28.9,221-2,.3c-.3,0-26,3.3-39.7,22.5A2.1,2.1,0,0,1,700.6,1064.3Z" class="colorf47382 svgShape"></path><path fill="#54355e" d="M1615,2149.3h0a26.6,26.6,0,0,1-26.6,26.5h-302a26.6,26.6,0,0,1-26.7-26.5h0a26.6,26.6,0,0,1,26.7-26.5h60.9a46.2,46.2,0,0,0,46.4-46.1V1738.4H1481v338.3a46.2,46.2,0,0,0,46.4,46.1h61A26.6,26.6,0,0,1,1615,2149.3Z" class="color54355e svgShape"></path><rect width="87.3" height="274.83" x="1393.7" y="1738.4" fill="#302342" class="color302342 svgShape"></rect><path fill="#d13b62" d="M1994.6,1440.2v465.4a16.9,16.9,0,0,1-24.4,15.1c-39-18.8-113.3-48.9-135.7-16.2-30.7,44.9-122.8,67.4-158.4,30.5a160.9,160.9,0,0,0-24.7-20.9c-12.5-8.7-26.6-16-41.2-20.1a86.1,86.1,0,0,0-26-3.4c-21.5.6-42.3,10.5-58.5,35.5-35.6,55.1-121,64.7-184.7,34.2a142.4,142.4,0,0,1-20.4-11.8,140.3,140.3,0,0,1-11.6-8.7c-53.1-44.6-84.4-43.7-145.2-16.4-8.5,3.8-17.5,8.2-27.3,13l-10.2,5c-87.3,43.3-118-28.9-140.7-46.5-6.5-5.1-17.8-5.9-30.8-4.5a202.2,202.2,0,0,0-30.5,5.9c-7.8,2.1-15.3,4.4-21.9,6.5a16.8,16.8,0,0,1-22.3-15.9V1440.2Z" class="colord13b62 svgShape"></path><path fill="#af2c68" d="M1994.6,1440.2v20.2c-41.9,11.1-86.3,21.8-124.9,29.1-114,21.7-218.3,25-218.3,25v399.6c-12.5-8.7-26.6-16-41.2-20.1,3.7-121.9,6.4-282.6-4.9-284.1s-17.2,150.1-21.1,280.7c-21.5.6-42.3,10.5-58.5,35.5-35.6,55.1-121,64.7-184.7,34.2,7.7-130.6,17.3-325.9,6-332.3s-19.9,172.4-26.4,320.5a140.3,140.3,0,0,1-11.6-8.7c-53.1-44.6-84.4-43.7-145.2-16.4,7-125.6,11.6-261.2.1-274.2s-20.7,137.3-27.4,287.2l-10.2,5c-87.3,43.3-118-28.9-140.7-46.5-6.5-5.1-17.8-5.9-30.8-4.5,4.2-156.3,6.3-335.8-6.4-347.9s-19.2,171.7-24.1,353.8c-7.8,2.1-15.3,4.4-21.9,6.5a16.8,16.8,0,0,1-22.3-15.9V1440.2Z" class="coloraf2c68 svgShape"></path><ellipse cx="1437.4" cy="1440.2" fill="#ea4e65" rx="557.3" ry="49.4" class="colorea4e65 svgShape"></ellipse><path fill="#7f2150" d="M960 1542.5v265.7c0 3.8 6 3.8 6 0V1542.5c0-3.9-6-3.9-6 0zM972.1 1768v85.9c0 3.9 6 3.9 6 0V1768c0-3.8-6-3.8-6 0zM1194.9 1588.2v269.7c0 3.9 6 3.9 6 0V1588.2c0-3.8-6-3.8-6 0zM1247 1689.4v166.1c0 3.9 6 3.9 6 0V1689.4c0-3.9-6-3.9-6 0zM1570.8 1602.7v249.2c0 3.9 6 3.9 6 0V1602.7c0-3.9-6-3.9-6 0zM1544.1 1786.9v71c0 3.9 6 3.9 6 0v-71c0-3.9-6-3.9-6 0zM1648.4 1549.7v156.5c0 3.9 6 3.9 6 0V1549.7c0-3.8-6-3.8-6 0zM1923.7 1614.7v246.8c0 3.9 6 3.9 6 0V1614.7c0-3.8-6-3.8-6 0z" class="color7f2150 svgShape"></path><path fill="#d13b62" d="M1423.3,816.3s-12.6-9.7-3.3-19.3,14.7-6.6,14.7-6.6,1-10.5,11.8-12.3,16,11.2,16,11.2,2.3-7.4,11.6-2.8,9,12.9,9,12.9a17.4,17.4,0,0,1,10.8,7.7c3.8,6.4,1.5,10.6,1.5,10.6s10.3,5.5,8.3,11.8-10.7,10.6-10.7,10.6,2.7,6.1-4.1,12.4-12.6,5.2-12.6,5.2-5.6,10.3-12.4,10.8-10.6-5.4-10.6-5.4-10.9,0-15.5-4.7-4.5-9.3-4.5-9.3-5.2,1.5-8.4-4.7-1.1-10.7-1.1-10.7-6.5-2-6.9-8.3S1423.3,816.3,1423.3,816.3Z" class="colord13b62 svgShape"></path><path fill="#db6a8d" d="M1449.3,826.3s-12.6,5-14.3-5.5,12.3-18.8,18.7-17.8,7.1,14.7,7.1,14.7.7-16.6,11.7-12.2,16.4,14.3,12.8,18.9-16.8,4.5-16.8,4.5,15,1.4,13.3,8.9-14.3,15.9-22.1,10.8a11,11,0,0,1-4.6-13s-2.1,14.5-11.4,7.9S1441.2,826.3,1449.3,826.3Z" class="colordb6a8d svgShape"></path><ellipse cx="1459.1" cy="826.6" fill="#9e1b63" rx="13" ry="12.7" transform="rotate(-7.3 1449.946 822.043)" class="color9e1b63 svgShape"></ellipse><path fill="#d13b62" d="M1379.9,827.6s-7.2-5.6-1.9-11.1,8.4-3.8,8.4-3.8a8.1,8.1,0,0,1,6.8-7c6.2-1.1,9.1,6.4,9.1,6.4s1.4-4.2,6.7-1.6,5.1,7.4,5.1,7.4a9.8,9.8,0,0,1,6.2,4.4c2.2,3.7.8,6,.8,6s5.9,3.2,4.8,6.8-6.1,6.1-6.1,6.1,1.5,3.5-2.4,7.1-7.2,3-7.2,3-3.2,5.8-7.1,6.1a6.9,6.9,0,0,1-6-3s-6.3-.1-8.9-2.8a8.4,8.4,0,0,1-2.6-5.3s-3,.9-4.8-2.7-.6-6.1-.6-6.1-3.7-1.1-3.9-4.7S1379.9,827.6,1379.9,827.6Z" class="colord13b62 svgShape"></path><path fill="#db6a8d" d="M1394.8,833.3s-7.2,2.9-8.2-3.2,7-10.7,10.7-10.1,4.1,8.3,4.1,8.3.4-9.4,6.7-6.9,9.3,8.2,7.3,10.8-9.6,2.6-9.6,2.6,8.6.8,7.5,5-8.1,9.1-12.6,6.2a6.2,6.2,0,0,1-2.6-7.4s-1.2,8.3-6.5,4.5S1390.1,833.3,1394.8,833.3Z" class="colordb6a8d svgShape"></path><ellipse cx="1400.4" cy="833.5" fill="#9e1b63" rx="7.4" ry="7.3" transform="rotate(-8.1 1348.441 827.265)" class="color9e1b63 svgShape"></ellipse><rect width="66.5" height="118.31" x="1404.1" y="1299.9" fill="#d398a5" class="colord398a5 svgShape"></rect><rect width="611.4" height="61.83" x="1131.6" y="1269" fill="#f2c9d0" rx="17.7" class="colorf2c9d0 svgShape"></rect><rect width="230.6" height="39.24" x="1322.1" y="1406.3" fill="#f2c9d0" rx="11.2" class="colorf2c9d0 svgShape"></rect><rect width="476.4" height="119.51" x="1194.2" y="1150.4" fill="#d398a5" class="colord398a5 svgShape"></rect><rect width="476.4" height="29.37" x="1194.2" y="1195.4" fill="#f2c9d0" class="colorf2c9d0 svgShape"></rect><path fill="#54355e" d="M1172.7,1152.3v35.6c0,6.6,4,12.1,9.3,12.7s15.7-.2,22.8-8c12.9-14.3,8.8-17.2,33.6-4.6s43.6,16,57.8,1.7,21.2-14.3,38.6-1.1,37.2,33.6,62.5,12.2,36.2-31.1,46.1-22.5,28.3,41.6,52.2,22.5,31.3-33.3,50.1-17.9,26.2,37.6,53.3,21.7,19.7-27.4,41.3-22.9c11.1,2.4,23.5,9.8,33,16.4,6.8,4.8,15.3-1.3,15.3-11.1v-34.7c0-21.3-13.9-38.5-31-38.5H1203.7C1186.5,1113.8,1172.7,1131,1172.7,1152.3Z" class="color54355e svgShape"></path><rect width="411.1" height="107.43" x="1226.5" y="1006.4" fill="#d398a5" class="colord398a5 svgShape"></rect><rect width="411.1" height="26.4" x="1226.5" y="1046.9" fill="#f2c9d0" class="colorf2c9d0 svgShape"></rect><path fill="#54355e" d="M1208,1008.1v32c0,5.9,3.5,10.9,8,11.4s13.6-.1,19.8-7.2c11.1-12.8,7.5-15.4,28.9-4.1s37.7,14.4,50,1.5,18.2-12.8,33.3-1,32.1,30.3,53.9,11,31.2-27.9,39.8-20.2,24.4,37.4,45,20.2,27-30,43.2-16.1,22.6,33.9,46,19.5,17.1-24.7,35.7-20.5c9.6,2.1,20.3,8.7,28.4,14.7,5.9,4.3,13.2-1.2,13.2-10v-31.2c0-19.1-11.9-34.6-26.7-34.6H1234.8C1220,973.5,1208,989,1208,1008.1Z" class="color54355e svgShape"></path><rect width="268.4" height="92.86" x="1297.4" y="880.6" fill="#d398a5" class="colord398a5 svgShape"></rect><rect width="268.4" height="22.82" x="1297.4" y="915.6" fill="#f2c9d0" class="colorf2c9d0 svgShape"></rect><path fill="#54355e" d="M1285.3,882.1v27.7c0,5.1,2.3,9.4,5.3,9.9s8.8-.2,12.8-6.3c7.3-11.1,4.9-13.3,18.9-3.5s24.6,12.4,32.6,1.3,11.9-11.1,21.8-.9,20.9,26.2,35.2,9.5,20.3-24.1,25.9-17.5,16,32.4,29.4,17.5,17.6-25.9,28.2-13.9,14.8,29.3,30.1,16.8,11.1-21.3,23.3-17.7c6.2,1.8,13.2,7.6,18.5,12.7s8.6-1,8.6-8.6v-27c0-16.5-7.8-29.9-17.4-29.9H1302.8C1293.1,852.2,1285.3,865.6,1285.3,882.1Z" class="color54355e svgShape"></path><path fill="#d13b62" d="M919.4 405a166.8 166.8 0 01-11.2 19.3l-.8 1.2-1.8 2.5c-1.1 1.6-2 2.7-2.5 3.4a.1.1 0 00-.1.1 1 1 0 01-1 .3h-1l-4-.5h-.4c-3.1-.5-7.3-1.2-12-2.2h-.2a132.8 132.8 0 01-12.9-3.5h-.2l-2.6-.9h-.2l-4.7-1.8c-15.7-6-31.7-15.9-38.1-31.8-13.9-34.5 22-52.5 41.9-37.1a1.3 1.3 0 001.1.3 1.2 1.2 0 001-1.2c.1-1.1.3-2.2.5-3.3a28.4 28.4 0 011.7-4.9l1.2-2.2a23.8 23.8 0 014.3-5.6l.5-.5h0c12.6-12.2 36.3-13 47.9 11.9C934.2 366.4 927.6 388.2 919.4 405zM962.5 370.2a79.4 79.4 0 01-9.4 2.5h-.6l-1.3.3-1.8.2h-.1c-.1.1-.3 0-.4-.1l-.2-.3h-.1l-1-1.4h-.1c-.8-1.1-1.9-2.6-3-4.4h-.1c-.9-1.5-1.9-3.1-2.9-5h-.1a4.7 4.7 0 00-.5-1h0l-1-2c-3-6.7-4.9-14.6-2-21.4 6.3-14.9 22.9-9.5 24.3 1.4a.5.5 0 00.3.4.5.5 0 00.6-.1l1.2-.8a7.5 7.5 0 012-1l1.1-.4a15.4 15.4 0 013-.4h.3c7.6.1 15.2 7.1 11.1 18.3C978.9 362.8 970.2 367.5 962.5 370.2z" class="colord13b62 svgShape"></path><path fill="#72b0b5" d="M1847.4,1724.8s-32-17.5-23.1-40.1,23.1-21.8,23.1-21.8-17.2-25.3-5.9-40.2,21.1-2.8,21.1-2.8-8.5-34.8,8.9-43.9,21.6,9.1,21.6,9.1,10.1-21.1,25-19.2,15.4,15.4,15.4,15.4.5-38,24.6-35.1,17.3,33.2,17.3,33.2,12-13.5,25.5-6.8,7.2,28.9,7.2,28.9,18.3-19.7,32.2,8.7-2.4,48.3-2.4,48.3,14.5-3.6,15.9,12.8-8.7,25.4-8.7,25.4,10.4-2.8,8.8,11.6-10.3,19.3-10.3,19.3Z" class="color72b0b5 svgShape"></path><rect width="215.7" height="38.76" x="1839" y="2138.3" fill="#ffebf1" rx="7.7" class="colorffebf1 svgShape"></rect><path fill="#ffffff" d="M2075.3,1987.5c-7.7,122.1-63.1,151.1-63.1,151.1H1881.5s-55.4-29-63.1-151.1,43.9-186.9,43.9-186.9h169.1S2083,1865.5,2075.3,1987.5Z" class="colorfff svgShape"></path><path fill="#ffebf1" d="M1879.3 1818.2c-12.5 34.7-21.9 69.9-26 105.6s-2.7 70.1 5.6 104.6a256 256 0 0020.8 56.4c1.6 3.2 9 1.8 7.3-1.5a262.9 262.9 0 01-27.6-100.6c-2.5-35 1.4-70 9.6-104.5a537.8 537.8 0 0117.7-58.5c1.2-3.4-6.1-4.9-7.4-1.5zM1900.6 1919.7a363.2 363.2 0 002.3 125.2c2.3 11.8 5.2 23.5 8.7 35.2 1 3.4 8.3 2 7.3-1.4a362.5 362.5 0 01-14.5-123.8c.7-11.8 2-23.5 3.8-35.2.5-3.5-7.1-3.5-7.6 0zM1937.9 1841.4a602.5 602.5 0 00-6.5 64.1c-.2 3.5 7.4 3.5 7.6 0a602.5 602.5 0 016.5-64.1c.5-3.5-7.1-3.4-7.6 0zM2026.1 1855.7a616.1 616.1 0 011 176.8c-2.4 16.5-5.4 32.9-9 49.3-.8 3.4 6.5 4.9 7.3 1.5a636.2 636.2 0 0013.3-88.3 614.9 614.9 0 00.5-89c-1.1-16.8-3-33.6-5.5-50.3-.5-3.5-8.1-3.5-7.6 0z" class="colorffebf1 svgShape"></path><path fill="#457e7f" d="M1907,1720.5s-23.4,3.2-22.8-17.5,19-17.3,19-17.3-23.6-27.6-10.1-40,22,2,22,2-6.1-28.2,10.7-32.1,12.6,21.2,12.6,21.2,26.9-23.3,42.7-10.8,0,49.7,0,49.7,12.1-10.2,18.3-2.7-1.9,20.9-1.9,20.9,9.3-29.9,20.5-23.1,0,22.1,0,22.1,20.9-8.7,27.1,3.8-13,34.9-13,34.9Z" class="color457e7f svgShape"></path><rect width="215.7" height="80.1" x="1839" y="1720.5" fill="#ffebf1" rx="7.7" class="colorffebf1 svgShape"></rect><rect width="1877.1" height="40.49" x="326" y="2175.8" fill="#ffebf1" rx="13.1" class="colorffebf1 svgShape"></rect><rect width="792" height="14.23" x="396.1" y="2242.9" fill="#f2c9d0" rx="4.6" class="colorf2c9d0 svgShape"></rect><rect width="792" height="14.23" x="1243.2" y="2242.9" fill="#f2c9d0" rx="4.6" class="colorf2c9d0 svgShape"></rect><rect width="694.3" height="14.23" x="869.5" y="2276.4" fill="#f2c9d0" rx="4.6" class="colorf2c9d0 svgShape"></rect></svg></g></svg>